<?xml version="1.0" standalone="no"?>
 <!DOCTYPE svg PUBLIC "-//W3C//DTD SVG 1.1//EN" 
 "http://www.w3.org/Graphics/SVG/1.1/DTD/svg11.dtd"> 
<svg xmlns="http://www.w3.org/2000/svg" version="1.1" 
    width="25.6134cm" height="14.605cm" viewBox="0 0 100840 57500 ">
<title>SVG Picture created as piHPSDR_Controller-F_SilkS.svg date 2020/05/20 17:50:17 </title>
  <desc>Picture generated by PCBNEW </desc>
<g style="fill:#000000; fill-opacity:1;stroke:#000000; stroke-opacity:1;
stroke-linecap:round; stroke-linejoin:round; "
 transform="translate(0 0) scale(1 1)">
</g>
<g style="fill:#000000; fill-opacity:0.0; 
stroke:#000000; stroke-width:-0.000393701; stroke-opacity:1; 
stroke-linecap:round; stroke-linejoin:round;">
</g>
<g style="fill:#000000; fill-opacity:0.0; 
stroke:#000000; stroke-width:47.2441; stroke-opacity:1; 
stroke-linecap:round; stroke-linejoin:round;">
<path d="M29 29
L29 423
" />
<path d="M423 29
L29 29
" />
<path d="M100816 29
L100816 324
" />
<path d="M100521 29
L100816 29
" />
<path d="M100816 55738
L29 55738
" />
<path d="M100816 56722
L100521 56722
" />
<path d="M100816 56427
L100816 56722
" />
<path d="M100816 55738
L100816 1013
" />
<path d="M29 56722
L324 56722
" />
<path d="M29 56427
L29 56722
" />
<path d="M29 1013
L29 55738
" />
<path d="M100816 1013
L29 1013
" />
<path d="M69478 12470
L69478 11092
" />
<path d="M69478 38257
L69478 37037
" />
<path d="M68848 11801
L70108 11801
" />
<path d="M68927 37627
L69911 37627
" />
<path d="M89399 44911
L88612 44911
" />
<path d="M89990.2 46565 A1904.47 1904.47 0.0 0 0 90007.4 43267.8 " />
<path d="M87992.1 43257.9 A1939.58 1939.58 0.0 0 0 88013.8 46578.1 " />
<path d="M89005 45305
L89005 44320
" />
<path d="M19812 38356
L19812 36998
" />
<path d="M19773 12490
L19773 11171
" />
<path d="M19773 12509
L19773 12490
" />
<path d="M19124 11801
L20462 11801
" />
<path d="M87992 43257
L90019 43257
" />
<path d="M87982 46555
L90019 46555
" />
<path d="M98651 2982
L96289 2982
" />
<path d="M97470 4163
L97470 1801
" />
<path d="M4557 2982
L2194 2982
" />
<path d="M3375 4163
L3375 1801
" />
<path d="M4557 53769
L2194 53769
" />
<path d="M3375 54950
L3375 52588
" />
<path d="M97470 52588
L97470 54950
" />
<path d="M96289 53769
L98651 53769
" />
<path d="M89832 6998
L89005 6998
" />
<path d="M89438 7431
L89438 6564
" />
<path d="M20423 37627
L20462 37627
" />
<path d="M19124 37627
L20423 37627
" />
<path d="M92746 6998
L93415 6998
" />
<path d="M93100 6643
L93100 7312
" />
<path d="M93100 12627
L93100 13336
" />
<path d="M93454 12982
L92746 12982
" />
<path d="M93454 18769
L92746 18769
" />
<path d="M93100 18415
L93100 19124
" />
<path d="M40187 49517
L39478 49517
" />
<path d="M39832 49163
L39832 49872
" />
<path d="M50620 49163
L50620 49872
" />
<path d="M50974 49517
L50265 49517
" />
<path d="M45580 49517
L44872 49517
" />
<path d="M45226 49163
L45226 49832
" />
<path d="M56013 49163
L56013 49832
" />
<path d="M56368 49517
L55659 49517
" />
<path d="M61722 49517
L61053 49517
" />
<path d="M61407 49163
L61407 49872
" />
<path d="M66801 49163
L66801 49872
" />
<path d="M67155 49517
L66486 49517
" />
<path d="M71407 49517
L72037 49517
" />
<path d="M71722 49832
L71722 49163
" />
<path d="M85816 33533
L85816 34202
" />
<path d="M85816 28494
L85816 29202
" />
<path d="M85816 23454
L85816 24163
" />
<path d="M85816 18415
L85816 19124
" />
<path d="M85462 18769
L86171 18769
" />
<path d="M85462 23809
L86171 23809
" />
<path d="M85541 28848
L86092 28848
" />
<path d="M85541 33887
L86092 33887
" />
<path d="M92785 33887
L93415 33887
" />
<path d="M93100 33572
L93100 34202
" />
<path d="M92785 28848
L93415 28848
" />
<path d="M93100 29163
L93100 28533
" />
<path d="M93494 23809
L92706 23809
" />
<path d="M93100 23494
L93100 24124
" />
<path d="M59793 11761
L59793 41643
" />
<path d="M59793 11761
L33415 11761
" />
<path d="M33415 41643
L33415 11761
" />
<path d="M74557 7785
L74557 41643
" />
<path d="M13533 7785
L74557 7785
" />
<path d="M13533 41643
L13533 7785
" />
<path d="M74557 41643
L13533 41643
" />
<path d="M82037 3297
L82037 46919
" />
<path d="M6053 3297
L82037 3297
" />
<path d="M6053 46919
L6053 3297
" />
<path d="M82037 46919
L6053 46919
" />
<circle cx="85816.9" cy="12982.3" r="1181.1" /> 
<path d="M86604 10659
L88218 10659
" />
<path d="M88218 15305
L86604 15305
" />
<path d="M85029 15305
L83415 15305
" />
<path d="M85029 10659
L83415 10659
" />
<path d="M83415 10659
L83415 15305
" />
<path d="M82864 11486
L82746 11368
" />
<path d="M82746 11368
L82982 11368
" />
<path d="M82982 11368
L82864 11486
" />
<path d="M88218 10659
L88218 11604
" />
<path d="M88218 12470
L88218 13494
" />
<path d="M88218 14360
L88218 15305
" />
<path d="M85816 12785
L85816 13179
" />
<path d="M85620 12982
L86013 12982
" />
<circle cx="29517.7" cy="49517.7" r="1181.1" /> 
<path d="M28730 51840
L27116 51840
" />
<path d="M27116 47194
L28730 47194
" />
<path d="M30305 47194
L31919 47194
" />
<path d="M30305 51840
L31919 51840
" />
<path d="M31919 51840
L31919 47194
" />
<path d="M32470 51013
L32588 51131
" />
<path d="M32588 51131
L32352 51131
" />
<path d="M32352 51131
L32470 51013
" />
<path d="M27116 51840
L27116 50895
" />
<path d="M27116 50029
L27116 49005
" />
<path d="M27116 48139
L27116 47194
" />
<path d="M29517 49714
L29517 49320
" />
<path d="M29714 49517
L29320 49517
" />
<circle cx="19281.5" cy="49517.7" r="1181.1" /> 
<path d="M18494 51840
L16879 51840
" />
<path d="M16879 47194
L18494 47194
" />
<path d="M20068 47194
L21683 47194
" />
<path d="M20068 51840
L21683 51840
" />
<path d="M21683 51840
L21683 47194
" />
<path d="M22234 51013
L22352 51131
" />
<path d="M22352 51131
L22116 51131
" />
<path d="M22116 51131
L22234 51013
" />
<path d="M16879 51840
L16879 50895
" />
<path d="M16879 50029
L16879 49005
" />
<path d="M16879 48139
L16879 47194
" />
<path d="M19281 49714
L19281 49320
" />
<path d="M19478 49517
L19084 49517
" />
<circle cx="9045.28" cy="49517.7" r="1181.1" /> 
<path d="M8257 51840
L6643 51840
" />
<path d="M6643 47194
L8257 47194
" />
<path d="M9832 47194
L11446 47194
" />
<path d="M9832 51840
L11446 51840
" />
<path d="M11446 51840
L11446 47194
" />
<path d="M11998 51013
L12116 51131
" />
<path d="M12116 51131
L11879 51131
" />
<path d="M11879 51131
L11998 51013
" />
<path d="M6643 51840
L6643 50895
" />
<path d="M6643 50029
L6643 49005
" />
<path d="M6643 48139
L6643 47194
" />
<path d="M9045 49714
L9045 49320
" />
<path d="M9242 49517
L8848 49517
" />
<path d="M88273.6 6997.85 A1177.17 1177.17 0.0 0 0 90458.7 7606.23 " />
<path d="M90458.7 6389.83 A1177.17 1177.17 0.0 0 0 88273.6 6998.21 " />
<circle cx="89450.8" cy="6998.03" r="984.252" /> 
<path d="M90458 7606
L90458 6389
" />
</g>
<g style="fill:#000000; fill-opacity:0.0; 
stroke:#000000; stroke-width:39.3701; stroke-opacity:1; 
stroke-linecap:round; stroke-linejoin:round;">
<circle cx="93100.4" cy="6998.03" r="1101.14" /> 
<path d="M91800 5848
L91800 6448
" />
<path d="M91800 6448
L91150 6448
" />
<path d="M91150 6448
L91150 7548
" />
<path d="M91150 7548
L91800 7548
" />
<path d="M91800 7548
L91800 8148
" />
<path d="M91800 8148
L94400 8148
" />
<path d="M94400 8148
L94400 7548
" />
<path d="M94400 7548
L95000 7548
" />
<path d="M95000 7548
L95000 6448
" />
<path d="M95000 6448
L94400 6448
" />
<path d="M94400 6448
L94400 5898
" />
<path d="M94400 5898
L94400 5848
" />
<path d="M94400 5848
L91800 5848
" />
<circle cx="39832.7" cy="49517.7" r="1101.14" /> 
<path d="M40982 48217
L40382 48217
" />
<path d="M40382 48217
L40382 47567
" />
<path d="M40382 47567
L39282 47567
" />
<path d="M39282 47567
L39282 48217
" />
<path d="M39282 48217
L38682 48217
" />
<path d="M38682 48217
L38682 50817
" />
<path d="M38682 50817
L39282 50817
" />
<path d="M39282 50817
L39282 51417
" />
<path d="M39282 51417
L40382 51417
" />
<path d="M40382 51417
L40382 50817
" />
<path d="M40382 50817
L40932 50817
" />
<path d="M40932 50817
L40982 50817
" />
<path d="M40982 50817
L40982 48217
" />
<path d="M46376 50817
L46376 48217
" />
<path d="M46326 50817
L46376 50817
" />
<path d="M45776 50817
L46326 50817
" />
<path d="M45776 51417
L45776 50817
" />
<path d="M44676 51417
L45776 51417
" />
<path d="M44676 50817
L44676 51417
" />
<path d="M44076 50817
L44676 50817
" />
<path d="M44076 48217
L44076 50817
" />
<path d="M44676 48217
L44076 48217
" />
<path d="M44676 47567
L44676 48217
" />
<path d="M45776 47567
L44676 47567
" />
<path d="M45776 48217
L45776 47567
" />
<path d="M46376 48217
L45776 48217
" />
<circle cx="45226.4" cy="49517.7" r="1101.14" /> 
<circle cx="50620.1" cy="49517.7" r="1101.14" /> 
<path d="M51770 48217
L51170 48217
" />
<path d="M51170 48217
L51170 47567
" />
<path d="M51170 47567
L50070 47567
" />
<path d="M50070 47567
L50070 48217
" />
<path d="M50070 48217
L49470 48217
" />
<path d="M49470 48217
L49470 50817
" />
<path d="M49470 50817
L50070 50817
" />
<path d="M50070 50817
L50070 51417
" />
<path d="M50070 51417
L51170 51417
" />
<path d="M51170 51417
L51170 50817
" />
<path d="M51170 50817
L51720 50817
" />
<path d="M51720 50817
L51770 50817
" />
<path d="M51770 50817
L51770 48217
" />
<path d="M57163 50817
L57163 48217
" />
<path d="M57113 50817
L57163 50817
" />
<path d="M56563 50817
L57113 50817
" />
<path d="M56563 51417
L56563 50817
" />
<path d="M55463 51417
L56563 51417
" />
<path d="M55463 50817
L55463 51417
" />
<path d="M54863 50817
L55463 50817
" />
<path d="M54863 48217
L54863 50817
" />
<path d="M55463 48217
L54863 48217
" />
<path d="M55463 47567
L55463 48217
" />
<path d="M56563 47567
L55463 47567
" />
<path d="M56563 48217
L56563 47567
" />
<path d="M57163 48217
L56563 48217
" />
<circle cx="56013.8" cy="49517.7" r="1101.14" /> 
<circle cx="93100.4" cy="23809.1" r="1101.14" /> 
<path d="M91800 22659
L91800 23259
" />
<path d="M91800 23259
L91150 23259
" />
<path d="M91150 23259
L91150 24359
" />
<path d="M91150 24359
L91800 24359
" />
<path d="M91800 24359
L91800 24959
" />
<path d="M91800 24959
L94400 24959
" />
<path d="M94400 24959
L94400 24359
" />
<path d="M94400 24359
L95000 24359
" />
<path d="M95000 24359
L95000 23259
" />
<path d="M95000 23259
L94400 23259
" />
<path d="M94400 23259
L94400 22709
" />
<path d="M94400 22709
L94400 22659
" />
<path d="M94400 22659
L91800 22659
" />
<path d="M87116 27698
L84516 27698
" />
<path d="M87116 27748
L87116 27698
" />
<path d="M87116 28298
L87116 27748
" />
<path d="M87716 28298
L87116 28298
" />
<path d="M87716 29398
L87716 28298
" />
<path d="M87116 29398
L87716 29398
" />
<path d="M87116 29998
L87116 29398
" />
<path d="M84516 29998
L87116 29998
" />
<path d="M84516 29398
L84516 29998
" />
<path d="M83866 29398
L84516 29398
" />
<path d="M83866 28298
L83866 29398
" />
<path d="M84516 28298
L83866 28298
" />
<path d="M84516 27698
L84516 28298
" />
<circle cx="85816.9" cy="28848.4" r="1101.14" /> 
<circle cx="93100.4" cy="28848.4" r="1101.14" /> 
<path d="M91800 27698
L91800 28298
" />
<path d="M91800 28298
L91150 28298
" />
<path d="M91150 28298
L91150 29398
" />
<path d="M91150 29398
L91800 29398
" />
<path d="M91800 29398
L91800 29998
" />
<path d="M91800 29998
L94400 29998
" />
<path d="M94400 29998
L94400 29398
" />
<path d="M94400 29398
L95000 29398
" />
<path d="M95000 29398
L95000 28298
" />
<path d="M95000 28298
L94400 28298
" />
<path d="M94400 28298
L94400 27748
" />
<path d="M94400 27748
L94400 27698
" />
<path d="M94400 27698
L91800 27698
" />
<path d="M87116 32737
L84516 32737
" />
<path d="M87116 32787
L87116 32737
" />
<path d="M87116 33337
L87116 32787
" />
<path d="M87716 33337
L87116 33337
" />
<path d="M87716 34437
L87716 33337
" />
<path d="M87116 34437
L87716 34437
" />
<path d="M87116 35037
L87116 34437
" />
<path d="M84516 35037
L87116 35037
" />
<path d="M84516 34437
L84516 35037
" />
<path d="M83866 34437
L84516 34437
" />
<path d="M83866 33337
L83866 34437
" />
<path d="M84516 33337
L83866 33337
" />
<path d="M84516 32737
L84516 33337
" />
<circle cx="85816.9" cy="33887.8" r="1101.14" /> 
<path d="M87116 22659
L84516 22659
" />
<path d="M87116 22709
L87116 22659
" />
<path d="M87116 23259
L87116 22709
" />
<path d="M87716 23259
L87116 23259
" />
<path d="M87716 24359
L87716 23259
" />
<path d="M87116 24359
L87716 24359
" />
<path d="M87116 24959
L87116 24359
" />
<path d="M84516 24959
L87116 24959
" />
<path d="M84516 24359
L84516 24959
" />
<path d="M83866 24359
L84516 24359
" />
<path d="M83866 23259
L83866 24359
" />
<path d="M84516 23259
L83866 23259
" />
<path d="M84516 22659
L84516 23259
" />
<circle cx="85816.9" cy="23809.1" r="1101.14" /> 
<circle cx="93100.4" cy="18769.7" r="1101.14" /> 
<path d="M91800 17619
L91800 18219
" />
<path d="M91800 18219
L91150 18219
" />
<path d="M91150 18219
L91150 19319
" />
<path d="M91150 19319
L91800 19319
" />
<path d="M91800 19319
L91800 19919
" />
<path d="M91800 19919
L94400 19919
" />
<path d="M94400 19919
L94400 19319
" />
<path d="M94400 19319
L95000 19319
" />
<path d="M95000 19319
L95000 18219
" />
<path d="M95000 18219
L94400 18219
" />
<path d="M94400 18219
L94400 17669
" />
<path d="M94400 17669
L94400 17619
" />
<path d="M94400 17619
L91800 17619
" />
<path d="M87116 17619
L84516 17619
" />
<path d="M87116 17669
L87116 17619
" />
<path d="M87116 18219
L87116 17669
" />
<path d="M87716 18219
L87116 18219
" />
<path d="M87716 19319
L87716 18219
" />
<path d="M87116 19319
L87716 19319
" />
<path d="M87116 19919
L87116 19319
" />
<path d="M84516 19919
L87116 19919
" />
<path d="M84516 19319
L84516 19919
" />
<path d="M83866 19319
L84516 19319
" />
<path d="M83866 18219
L83866 19319
" />
<path d="M84516 18219
L83866 18219
" />
<path d="M84516 17619
L84516 18219
" />
<circle cx="85816.9" cy="18769.7" r="1101.14" /> 
<circle cx="93100.4" cy="12982.3" r="1101.14" /> 
<path d="M91800 11832
L91800 12432
" />
<path d="M91800 12432
L91150 12432
" />
<path d="M91150 12432
L91150 13532
" />
<path d="M91150 13532
L91800 13532
" />
<path d="M91800 13532
L91800 14132
" />
<path d="M91800 14132
L94400 14132
" />
<path d="M94400 14132
L94400 13532
" />
<path d="M94400 13532
L95000 13532
" />
<path d="M95000 13532
L95000 12432
" />
<path d="M95000 12432
L94400 12432
" />
<path d="M94400 12432
L94400 11882
" />
<path d="M94400 11882
L94400 11832
" />
<path d="M94400 11832
L91800 11832
" />
<path d="M62557 50817
L62557 48217
" />
<path d="M62507 50817
L62557 50817
" />
<path d="M61957 50817
L62507 50817
" />
<path d="M61957 51417
L61957 50817
" />
<path d="M60857 51417
L61957 51417
" />
<path d="M60857 50817
L60857 51417
" />
<path d="M60257 50817
L60857 50817
" />
<path d="M60257 48217
L60257 50817
" />
<path d="M60857 48217
L60257 48217
" />
<path d="M60857 47567
L60857 48217
" />
<path d="M61957 47567
L60857 47567
" />
<path d="M61957 48217
L61957 47567
" />
<path d="M62557 48217
L61957 48217
" />
<circle cx="61407.5" cy="49517.7" r="1101.14" /> 
<circle cx="66801.2" cy="49517.7" r="1101.14" /> 
<path d="M67951 48217
L67351 48217
" />
<path d="M67351 48217
L67351 47567
" />
<path d="M67351 47567
L66251 47567
" />
<path d="M66251 47567
L66251 48217
" />
<path d="M66251 48217
L65651 48217
" />
<path d="M65651 48217
L65651 50817
" />
<path d="M65651 50817
L66251 50817
" />
<path d="M66251 50817
L66251 51417
" />
<path d="M66251 51417
L67351 51417
" />
<path d="M67351 51417
L67351 50817
" />
<path d="M67351 50817
L67901 50817
" />
<path d="M67901 50817
L67951 50817
" />
<path d="M67951 50817
L67951 48217
" />
<circle cx="71722.4" cy="49517.7" r="1101.14" /> 
<path d="M72872 48217
L72272 48217
" />
<path d="M72272 48217
L72272 47567
" />
<path d="M72272 47567
L71172 47567
" />
<path d="M71172 47567
L71172 48217
" />
<path d="M71172 48217
L70572 48217
" />
<path d="M70572 48217
L70572 50817
" />
<path d="M70572 50817
L71172 50817
" />
<path d="M71172 50817
L71172 51417
" />
<path d="M71172 51417
L72272 51417
" />
<path d="M72272 51417
L72272 50817
" />
<path d="M72272 50817
L72822 50817
" />
<path d="M72822 50817
L72872 50817
" />
<path d="M72872 50817
L72872 48217
" />
<path d="M94400 32737
L91800 32737
" />
<path d="M94400 32787
L94400 32737
" />
<path d="M94400 33337
L94400 32787
" />
<path d="M95000 33337
L94400 33337
" />
<path d="M95000 34437
L95000 33337
" />
<path d="M94400 34437
L95000 34437
" />
<path d="M94400 35037
L94400 34437
" />
<path d="M91800 35037
L94400 35037
" />
<path d="M91800 34437
L91800 35037
" />
<path d="M91150 34437
L91800 34437
" />
<path d="M91150 33337
L91150 34437
" />
<path d="M91800 33337
L91150 33337
" />
<path d="M91800 32737
L91800 33337
" />
<circle cx="93100.4" cy="33887.8" r="1101.14" /> 
</g>
<g style="fill:#000000; fill-opacity:0.0; 
stroke:#000000; stroke-width:47.2441; stroke-opacity:1; 
stroke-linecap:round; stroke-linejoin:round;">
<path d="M85738 47883
L92273 47883
" />
<path d="M92273 47883
L92273 41938
" />
<path d="M92273 41938
L85738 41938
" />
<path d="M85738 41938
L85738 47883
" />
<path d="M93061 41151
L84950 41151
" />
<path d="M93061 49911
L84950 49911
" />
<path d="M93061 41151
L93061 49911
" />
<path d="M84950 49911
L84950 41151
" />
</g>
<g style="fill:#000000; fill-opacity:0.0; 
stroke:#000000; stroke-width:59.0551; stroke-opacity:1; 
stroke-linecap:round; stroke-linejoin:round;">
<text x="83966.5" y="10344.5"
textLength="1537.31" font-size="524.934" lengthAdjust="spacingAndGlyphs"
text-anchor="middle" opacity="0">ENC5</text>
<path d="M83291 10119
L83422 10119
" />
<path d="M83479 10325
L83291 10325
L83291 9932
L83479 9932
" />
<path d="M83647 10325
L83647 9932
L83872 10325
L83872 9932
" />
<path d="M84285 10288
L84266 10306
L84210 10325
L84172 10325
L84116 10306
L84079 10269
L84060 10232
L84041 10157
L84041 10100
L84060 10025
L84079 9988
L84116 9950
L84172 9932
L84210 9932
L84266 9950
L84285 9969
" />
<path d="M84641 9932
L84453 9932
L84435 10119
L84453 10100
L84491 10082
L84585 10082
L84622 10100
L84641 10119
L84660 10157
L84660 10250
L84641 10288
L84622 10306
L84585 10325
L84491 10325
L84453 10306
L84435 10288
" />
<text x="31368.1" y="52549.2"
textLength="1614.08" font-size="524.934" lengthAdjust="spacingAndGlyphs"
text-anchor="middle" opacity="0">ENC4</text>
<path d="M30693 52324
L30824 52324
" />
<path d="M30880 52530
L30693 52530
L30693 52136
L30880 52136
" />
<path d="M31049 52530
L31049 52136
L31274 52530
L31274 52136
" />
<path d="M31686 52492
L31668 52511
L31611 52530
L31574 52530
L31518 52511
L31480 52474
L31461 52436
L31443 52361
L31443 52305
L31461 52230
L31480 52193
L31518 52155
L31574 52136
L31611 52136
L31668 52155
L31686 52174
" />
<path d="M32024 52267
L32024 52530
" />
<path d="M31930 52118
L31836 52399
L32080 52399
" />
<text x="21131.9" y="52549.2"
textLength="1614.08" font-size="524.934" lengthAdjust="spacingAndGlyphs"
text-anchor="middle" opacity="0">ENC3</text>
<path d="M20456 52324
L20588 52324
" />
<path d="M20644 52530
L20456 52530
L20456 52136
L20644 52136
" />
<path d="M20813 52530
L20813 52136
L21038 52530
L21038 52136
" />
<path d="M21450 52492
L21431 52511
L21375 52530
L21338 52530
L21281 52511
L21244 52474
L21225 52436
L21206 52361
L21206 52305
L21225 52230
L21244 52193
L21281 52155
L21338 52136
L21375 52136
L21431 52155
L21450 52174
" />
<path d="M21581 52136
L21825 52136
L21694 52286
L21750 52286
L21788 52305
L21806 52324
L21825 52361
L21825 52455
L21806 52492
L21788 52511
L21750 52530
L21638 52530
L21600 52511
L21581 52492
" />
<text x="10895.7" y="52549.2"
textLength="1614.08" font-size="524.934" lengthAdjust="spacingAndGlyphs"
text-anchor="middle" opacity="0">ENC2</text>
<path d="M10220 52324
L10351 52324
" />
<path d="M10408 52530
L10220 52530
L10220 52136
L10408 52136
" />
<path d="M10576 52530
L10576 52136
L10801 52530
L10801 52136
" />
<path d="M11214 52492
L11195 52511
L11139 52530
L11101 52530
L11045 52511
L11008 52474
L10989 52436
L10970 52361
L10970 52305
L10989 52230
L11008 52193
L11045 52155
L11101 52136
L11139 52136
L11195 52155
L11214 52174
" />
<path d="M11364 52174
L11383 52155
L11420 52136
L11514 52136
L11551 52155
L11570 52174
L11589 52211
L11589 52249
L11570 52305
L11345 52530
L11589 52530
" />
<g transform="rotate(-90 87864.2 6998.03)">
<text x="87864.2" y="7194.88"
textLength="845.426" font-size="524.934" lengthAdjust="spacingAndGlyphs"
text-anchor="middle" opacity="0">D3</text>
</g>
<path d="M88042 7288
L87648 7288
L87648 7194
L87667 7138
L87704 7101
L87742 7082
L87817 7063
L87873 7063
L87948 7082
L87986 7101
L88023 7138
L88042 7194
L88042 7288
" />
<path d="M87648 6932
L87648 6688
L87798 6819
L87798 6763
L87817 6726
L87836 6707
L87873 6688
L87967 6688
L88004 6707
L88023 6726
L88042 6763
L88042 6876
L88023 6913
L88004 6932
" />
<g transform="rotate(-90 95777.6 6998.03)">
<text x="95777.6" y="7194.88"
textLength="1276.62" font-size="524.934" lengthAdjust="spacingAndGlyphs"
text-anchor="middle" opacity="0">SW1</text>
</g>
<path d="M95936 7522
L95955 7466
L95955 7372
L95936 7335
L95918 7316
L95880 7297
L95843 7297
L95805 7316
L95786 7335
L95768 7372
L95749 7447
L95730 7485
L95711 7504
L95674 7522
L95636 7522
L95599 7504
L95580 7485
L95561 7447
L95561 7354
L95580 7297
" />
<path d="M95561 7166
L95955 7073
L95674 6998
L95955 6923
L95561 6829
" />
<path d="M95955 6473
L95955 6698
" />
<path d="M95955 6585
L95561 6585
L95618 6623
L95655 6660
L95674 6698
" />
<text x="39832.7" y="52391.7"
textLength="1276.62" font-size="524.934" lengthAdjust="spacingAndGlyphs"
text-anchor="middle" opacity="0">SW2</text>
<path d="M39307 52354
L39363 52372
L39457 52372
L39495 52354
L39513 52335
L39532 52297
L39532 52260
L39513 52223
L39495 52204
L39457 52185
L39382 52166
L39345 52148
L39326 52129
L39307 52091
L39307 52054
L39326 52016
L39345 51998
L39382 51979
L39476 51979
L39532 51998
" />
<path d="M39663 51979
L39757 52372
L39832 52091
L39907 52372
L40001 51979
" />
<path d="M40132 52016
L40151 51998
L40188 51979
L40282 51979
L40320 51998
L40338 52016
L40357 52054
L40357 52091
L40338 52148
L40113 52372
L40357 52372
" />
<text x="45226.4" y="52391.7"
textLength="1276.62" font-size="524.934" lengthAdjust="spacingAndGlyphs"
text-anchor="middle" opacity="0">SW3</text>
<path d="M44701 52354
L44757 52372
L44851 52372
L44888 52354
L44907 52335
L44926 52297
L44926 52260
L44907 52223
L44888 52204
L44851 52185
L44776 52166
L44738 52148
L44720 52129
L44701 52091
L44701 52054
L44720 52016
L44738 51998
L44776 51979
L44870 51979
L44926 51998
" />
<path d="M45057 51979
L45151 52372
L45226 52091
L45301 52372
L45395 51979
" />
<path d="M45507 51979
L45751 51979
L45620 52129
L45676 52129
L45713 52148
L45732 52166
L45751 52204
L45751 52297
L45732 52335
L45713 52354
L45676 52372
L45563 52372
L45526 52354
L45507 52335
" />
<text x="50620.1" y="52391.7"
textLength="1276.62" font-size="524.934" lengthAdjust="spacingAndGlyphs"
text-anchor="middle" opacity="0">SW4</text>
<path d="M50095 52354
L50151 52372
L50245 52372
L50282 52354
L50301 52335
L50320 52297
L50320 52260
L50301 52223
L50282 52204
L50245 52185
L50170 52166
L50132 52148
L50113 52129
L50095 52091
L50095 52054
L50113 52016
L50132 51998
L50170 51979
L50263 51979
L50320 51998
" />
<path d="M50451 51979
L50545 52372
L50620 52091
L50695 52372
L50788 51979
" />
<path d="M51107 52110
L51107 52372
" />
<path d="M51013 51960
L50920 52241
L51163 52241
" />
<text x="56013.8" y="52391.7"
textLength="1276.62" font-size="524.934" lengthAdjust="spacingAndGlyphs"
text-anchor="middle" opacity="0">SW5</text>
<path d="M55488 52354
L55545 52372
L55638 52372
L55676 52354
L55695 52335
L55713 52297
L55713 52260
L55695 52223
L55676 52204
L55638 52185
L55563 52166
L55526 52148
L55507 52129
L55488 52091
L55488 52054
L55507 52016
L55526 51998
L55563 51979
L55657 51979
L55713 51998
" />
<path d="M55845 51979
L55938 52372
L56013 52091
L56088 52372
L56182 51979
" />
<path d="M56519 51979
L56332 51979
L56313 52166
L56332 52148
L56369 52129
L56463 52129
L56501 52148
L56519 52166
L56538 52204
L56538 52297
L56519 52335
L56501 52354
L56463 52372
L56369 52372
L56332 52354
L56313 52335
" />
<g transform="rotate(90 95777.6 23809.1)">
<text x="95777.6" y="24005.9"
textLength="1276.62" font-size="524.934" lengthAdjust="spacingAndGlyphs"
text-anchor="middle" opacity="0">SW6</text>
</g>
<path d="M95618 23284
L95599 23340
L95599 23434
L95618 23471
L95636 23490
L95674 23509
L95711 23509
L95749 23490
L95768 23471
L95786 23434
L95805 23359
L95824 23321
L95843 23302
L95880 23284
L95918 23284
L95955 23302
L95974 23321
L95993 23359
L95993 23452
L95974 23509
" />
<path d="M95993 23640
L95599 23734
L95880 23809
L95599 23884
L95993 23977
" />
<path d="M95993 24296
L95993 24221
L95974 24184
L95955 24165
L95899 24127
L95824 24109
L95674 24109
L95636 24127
L95618 24146
L95599 24184
L95599 24258
L95618 24296
L95636 24315
L95674 24333
L95768 24333
L95805 24315
L95824 24296
L95843 24258
L95843 24184
L95824 24146
L95805 24127
L95768 24109
" />
<g transform="rotate(-90 88494.1 28848.4)">
<text x="88494.1" y="29045.3"
textLength="1276.62" font-size="524.934" lengthAdjust="spacingAndGlyphs"
text-anchor="middle" opacity="0">SW7</text>
</g>
<path d="M88653 29373
L88672 29317
L88672 29223
L88653 29185
L88634 29167
L88597 29148
L88559 29148
L88522 29167
L88503 29185
L88484 29223
L88465 29298
L88447 29335
L88428 29354
L88390 29373
L88353 29373
L88315 29354
L88297 29335
L88278 29298
L88278 29204
L88297 29148
" />
<path d="M88278 29017
L88672 28923
L88390 28848
L88672 28773
L88278 28679
" />
<path d="M88278 28567
L88278 28304
L88672 28473
" />
<g transform="rotate(-90 95777.6 28848.4)">
<text x="95777.6" y="29045.3"
textLength="1276.62" font-size="524.934" lengthAdjust="spacingAndGlyphs"
text-anchor="middle" opacity="0">SW8</text>
</g>
<path d="M95936 29373
L95955 29317
L95955 29223
L95936 29185
L95918 29167
L95880 29148
L95843 29148
L95805 29167
L95786 29185
L95768 29223
L95749 29298
L95730 29335
L95711 29354
L95674 29373
L95636 29373
L95599 29354
L95580 29335
L95561 29298
L95561 29204
L95580 29148
" />
<path d="M95561 29017
L95955 28923
L95674 28848
L95955 28773
L95561 28679
" />
<path d="M95730 28473
L95711 28510
L95693 28529
L95655 28548
L95636 28548
L95599 28529
L95580 28510
L95561 28473
L95561 28398
L95580 28360
L95599 28342
L95636 28323
L95655 28323
L95693 28342
L95711 28360
L95730 28398
L95730 28473
L95749 28510
L95768 28529
L95805 28548
L95880 28548
L95918 28529
L95936 28510
L95955 28473
L95955 28398
L95936 28360
L95918 28342
L95880 28323
L95805 28323
L95768 28342
L95749 28360
L95730 28398
" />
<g transform="rotate(-90 88494.1 33887.8)">
<text x="88494.1" y="34084.6"
textLength="1276.62" font-size="524.934" lengthAdjust="spacingAndGlyphs"
text-anchor="middle" opacity="0">SW9</text>
</g>
<path d="M88653 34412
L88672 34356
L88672 34262
L88653 34225
L88634 34206
L88597 34187
L88559 34187
L88522 34206
L88503 34225
L88484 34262
L88465 34337
L88447 34375
L88428 34393
L88390 34412
L88353 34412
L88315 34393
L88297 34375
L88278 34337
L88278 34244
L88297 34187
" />
<path d="M88278 34056
L88672 33962
L88390 33887
L88672 33812
L88278 33719
" />
<path d="M88672 33550
L88672 33475
L88653 33437
L88634 33419
L88578 33381
L88503 33362
L88353 33362
L88315 33381
L88297 33400
L88278 33437
L88278 33512
L88297 33550
L88315 33569
L88353 33587
L88447 33587
L88484 33569
L88503 33550
L88522 33512
L88522 33437
L88503 33400
L88484 33381
L88447 33362
" />
<g transform="rotate(-90 88494.1 23809.1)">
<text x="88494.1" y="24005.9"
textLength="1651.57" font-size="524.934" lengthAdjust="spacingAndGlyphs"
text-anchor="middle" opacity="0">SW10</text>
</g>
<path d="M88653 24521
L88672 24465
L88672 24371
L88653 24333
L88634 24315
L88597 24296
L88559 24296
L88522 24315
L88503 24333
L88484 24371
L88465 24446
L88447 24483
L88428 24502
L88390 24521
L88353 24521
L88315 24502
L88297 24483
L88278 24446
L88278 24352
L88297 24296
" />
<path d="M88278 24165
L88672 24071
L88390 23996
L88672 23921
L88278 23827
" />
<path d="M88672 23471
L88672 23696
" />
<path d="M88672 23584
L88278 23584
L88334 23621
L88372 23659
L88390 23696
" />
<path d="M88278 23227
L88278 23190
L88297 23152
L88315 23134
L88353 23115
L88428 23096
L88522 23096
L88597 23115
L88634 23134
L88653 23152
L88672 23190
L88672 23227
L88653 23265
L88634 23284
L88597 23302
L88522 23321
L88428 23321
L88353 23302
L88315 23284
L88297 23265
L88278 23227
" />
<g transform="rotate(-90 95777.6 18769.7)">
<text x="95777.6" y="18966.5"
textLength="1651.57" font-size="524.934" lengthAdjust="spacingAndGlyphs"
text-anchor="middle" opacity="0">SW11</text>
</g>
<path d="M95936 19482
L95955 19425
L95955 19332
L95936 19294
L95918 19275
L95880 19257
L95843 19257
L95805 19275
L95786 19294
L95768 19332
L95749 19407
L95730 19444
L95711 19463
L95674 19482
L95636 19482
L95599 19463
L95580 19444
L95561 19407
L95561 19313
L95580 19257
" />
<path d="M95561 19125
L95955 19032
L95674 18957
L95955 18882
L95561 18788
" />
<path d="M95955 18432
L95955 18657
" />
<path d="M95955 18544
L95561 18544
L95618 18582
L95655 18619
L95674 18657
" />
<path d="M95955 18057
L95955 18282
" />
<path d="M95955 18169
L95561 18169
L95618 18207
L95655 18244
L95674 18282
" />
<g transform="rotate(-90 88494.1 18769.7)">
<text x="88494.1" y="18966.5"
textLength="1651.57" font-size="524.934" lengthAdjust="spacingAndGlyphs"
text-anchor="middle" opacity="0">SW12</text>
</g>
<path d="M88653 19482
L88672 19425
L88672 19332
L88653 19294
L88634 19275
L88597 19257
L88559 19257
L88522 19275
L88503 19294
L88484 19332
L88465 19407
L88447 19444
L88428 19463
L88390 19482
L88353 19482
L88315 19463
L88297 19444
L88278 19407
L88278 19313
L88297 19257
" />
<path d="M88278 19125
L88672 19032
L88390 18957
L88672 18882
L88278 18788
" />
<path d="M88672 18432
L88672 18657
" />
<path d="M88672 18544
L88278 18544
L88334 18582
L88372 18619
L88390 18657
" />
<path d="M88315 18282
L88297 18263
L88278 18226
L88278 18132
L88297 18094
L88315 18076
L88353 18057
L88390 18057
L88447 18076
L88672 18300
L88672 18057
" />
<g transform="rotate(-90 95777.6 12982.3)">
<text x="95777.6" y="13179.1"
textLength="1651.57" font-size="524.934" lengthAdjust="spacingAndGlyphs"
text-anchor="middle" opacity="0">SW13</text>
</g>
<path d="M95936 13694
L95955 13638
L95955 13544
L95936 13507
L95918 13488
L95880 13469
L95843 13469
L95805 13488
L95786 13507
L95768 13544
L95749 13619
L95730 13657
L95711 13675
L95674 13694
L95636 13694
L95599 13675
L95580 13657
L95561 13619
L95561 13525
L95580 13469
" />
<path d="M95561 13338
L95955 13244
L95674 13169
L95955 13094
L95561 13001
" />
<path d="M95955 12644
L95955 12869
" />
<path d="M95955 12757
L95561 12757
L95618 12794
L95655 12832
L95674 12869
" />
<path d="M95561 12513
L95561 12269
L95711 12401
L95711 12344
L95730 12307
L95749 12288
L95786 12269
L95880 12269
L95918 12288
L95936 12307
L95955 12344
L95955 12457
L95936 12494
L95918 12513
" />
<text x="61407.5" y="52391.7"
textLength="1651.57" font-size="524.934" lengthAdjust="spacingAndGlyphs"
text-anchor="middle" opacity="0">SW14</text>
<path d="M60695 52354
L60751 52372
L60845 52372
L60882 52354
L60901 52335
L60920 52297
L60920 52260
L60901 52223
L60882 52204
L60845 52185
L60770 52166
L60732 52148
L60713 52129
L60695 52091
L60695 52054
L60713 52016
L60732 51998
L60770 51979
L60863 51979
L60920 51998
" />
<path d="M61051 51979
L61145 52372
L61220 52091
L61294 52372
L61388 51979
" />
<path d="M61744 52372
L61519 52372
" />
<path d="M61632 52372
L61632 51979
L61594 52035
L61557 52073
L61519 52091
" />
<path d="M62082 52110
L62082 52372
" />
<path d="M61988 51960
L61894 52241
L62138 52241
" />
<text x="66801.2" y="52391.7"
textLength="1651.57" font-size="524.934" lengthAdjust="spacingAndGlyphs"
text-anchor="middle" opacity="0">SW15</text>
<path d="M66088 52354
L66145 52372
L66238 52372
L66276 52354
L66294 52335
L66313 52297
L66313 52260
L66294 52223
L66276 52204
L66238 52185
L66163 52166
L66126 52148
L66107 52129
L66088 52091
L66088 52054
L66107 52016
L66126 51998
L66163 51979
L66257 51979
L66313 51998
" />
<path d="M66444 51979
L66538 52372
L66613 52091
L66688 52372
L66782 51979
" />
<path d="M67138 52372
L66913 52372
" />
<path d="M67026 52372
L67026 51979
L66988 52035
L66951 52073
L66913 52091
" />
<path d="M67494 51979
L67307 51979
L67288 52166
L67307 52148
L67344 52129
L67438 52129
L67476 52148
L67494 52166
L67513 52204
L67513 52297
L67494 52335
L67476 52354
L67438 52372
L67344 52372
L67307 52354
L67288 52335
" />
<text x="71722.4" y="52391.7"
textLength="1651.57" font-size="524.934" lengthAdjust="spacingAndGlyphs"
text-anchor="middle" opacity="0">SW16</text>
<path d="M71010 52354
L71066 52372
L71160 52372
L71197 52354
L71216 52335
L71235 52297
L71235 52260
L71216 52223
L71197 52204
L71160 52185
L71085 52166
L71047 52148
L71028 52129
L71010 52091
L71010 52054
L71028 52016
L71047 51998
L71085 51979
L71178 51979
L71235 51998
" />
<path d="M71366 51979
L71459 52372
L71534 52091
L71609 52372
L71703 51979
" />
<path d="M72059 52372
L71834 52372
" />
<path d="M71947 52372
L71947 51979
L71909 52035
L71872 52073
L71834 52091
" />
<path d="M72397 51979
L72322 51979
L72284 51998
L72266 52016
L72228 52073
L72209 52148
L72209 52297
L72228 52335
L72247 52354
L72284 52372
L72359 52372
L72397 52354
L72416 52335
L72434 52297
L72434 52204
L72416 52166
L72397 52148
L72359 52129
L72284 52129
L72247 52148
L72228 52166
L72209 52204
" />
<g transform="rotate(-90 95777.6 33887.8)">
<text x="95777.6" y="34084.6"
textLength="1651.57" font-size="524.934" lengthAdjust="spacingAndGlyphs"
text-anchor="middle" opacity="0">SW17</text>
</g>
<path d="M95936 34600
L95955 34543
L95955 34450
L95936 34412
L95918 34393
L95880 34375
L95843 34375
L95805 34393
L95786 34412
L95768 34450
L95749 34525
L95730 34562
L95711 34581
L95674 34600
L95636 34600
L95599 34581
L95580 34562
L95561 34525
L95561 34431
L95580 34375
" />
<path d="M95561 34244
L95955 34150
L95674 34075
L95955 34000
L95561 33906
" />
<path d="M95955 33550
L95955 33775
" />
<path d="M95955 33662
L95561 33662
L95618 33700
L95655 33737
L95674 33775
" />
<path d="M95561 33419
L95561 33156
L95955 33325
" />
<text x="89005.9" y="50502"
textLength="751.687" font-size="524.934" lengthAdjust="spacingAndGlyphs"
text-anchor="middle" opacity="0">J8</text>
<path d="M88874 50089
L88874 50370
L88855 50426
L88818 50464
L88762 50483
L88724 50483
" />
<path d="M89118 50258
L89080 50239
L89062 50220
L89043 50183
L89043 50164
L89062 50127
L89080 50108
L89118 50089
L89193 50089
L89230 50108
L89249 50127
L89268 50164
L89268 50183
L89249 50220
L89230 50239
L89193 50258
L89118 50258
L89080 50276
L89062 50295
L89043 50333
L89043 50408
L89062 50445
L89080 50464
L89118 50483
L89193 50483
L89230 50464
L89249 50445
L89268 50408
L89268 50333
L89249 50295
L89230 50276
L89193 50258
" />
<g >
</g>
</g>
<g style="fill:#000000; fill-opacity:0.0; 
stroke:#000000; stroke-width:59.0551; stroke-opacity:1; 
stroke-linecap:round; stroke-linejoin:round;">
<path d="M33415.4 41250 A393.701 393.701 0.0 0 0 33809.1 41643.7 " />
<path d="M59399.6 41643.7 A393.701 393.701 0.0 0 0 59793.3 41250 " />
<path d="M59793.3 12155.5 A393.701 393.701 0.0 0 0 59399.6 11761.8 " />
<path d="M33809.1 11761.8 A393.701 393.701 0.0 0 0 33415.4 12155.5 " />
<path d="M423.229 1013.78 A393.701 393.701 0.0 0 0 29.528 1407.48 " />
<path d="M100817 1407.48 A393.701 393.701 0.0 0 0 100423 1013.78 " />
<path d="M100423 55738.2 A393.701 393.701 0.0 0 0 100817 55344.5 " />
<path d="M29.528 55344.5 A393.701 393.701 0.0 0 0 423.229 55738.2 " />
<path d="M33415 41250
L33415 12155
" />
<path d="M59399 41643
L33809 41643
" />
<path d="M59793 12155
L59793 41250
" />
<path d="M33809 11761
L59399 11761
" />
<path d="M29 1407
L29 55344
" />
<path d="M100423 1013
L423 1013
" />
<path d="M100816 55344
L100816 1407
" />
<path d="M423 55738
L100423 55738
" />
</g>
<g style="fill:#000000; fill-opacity:0.0; 
stroke:#000000; stroke-width:47.2441; stroke-opacity:1; 
stroke-linecap:round; stroke-linejoin:round;">
<path d="M87982 43257
L90029 43257
" />
<path d="M87982 46557
L90029 46557
" />
<path d="M90029.5 46557.1 A1920.92 1920.92 0.0 0 0 90029.5 43257.9 " />
<path d="M87982.3 43257.9 A1920.92 1920.92 0.0 0 0 87982.3 46557.1 " />
<g >
</g>
<g >
</g>
<g >
</g>
<g >
</g>
<g >
</g>
<g >
</g>
<g >
</g>
<g >
</g>
<g >
</g>
<g >
</g>
<g >
</g>
<g >
</g>
<g >
</g>
<g >
</g>
<g >
</g>
<g >
</g>
<g >
</g>
<g >
</g>
<g >
</g>
<g >
</g>
<g >
</g>
<g >
</g>
<g >
</g>
<g >
</g>
<g >
</g>
<g >
</g>
<g >
</g>
<g >
</g>
<g >
</g>
<g >
</g>
<g >
</g>
<g >
</g>
<g >
</g>
<g >
</g>
<g >
</g>
<g >
</g>
<g >
</g>
<g >
</g>
<g >
</g>
<g >
</g>
<g >
</g>
<g >
</g>
<g >
</g>
<g >
</g>
<g >
</g>
<g >
</g>
<g >
</g>
<g >
</g>
<g >
</g>
<g >
</g>
<g >
</g>
<g >
</g>
<g >
</g>
<g >
</g>
<g >
</g>
<g >
</g>
<g >
</g>
<g >
</g>
<g >
</g>
<g >
</g>
<g >
</g>
<g >
</g>
<g >
</g>
<g >
</g>
<g >
</g>
<g >
</g>
<g >
</g>
<g >
</g>
<g >
</g>
<g >
</g>
<g >
</g>
<g >
</g>
<g >
</g>
<g >
</g>
<g >
</g>
<g >
</g>
<g >
</g>
<g >
</g>
<g >
</g>
<g >
</g>
<g >
</g>
<g >
</g>
<g >
</g>
<g >
</g>
<g >
</g>
<g >
</g>
<g >
</g>
<g >
</g>
<g >
</g>
<g >
</g>
<g >
</g>
<g >
</g>
<g >
</g>
</g> 
</svg>
