G04 #@! TF.GenerationSoftware,KiCad,Pcbnew,(5.1.5)-3*
G04 #@! TF.CreationDate,2020-05-20T18:06:31+02:00*
G04 #@! TF.ProjectId,piHPSDR_Controller,70694850-5344-4525-9f43-6f6e74726f6c,rev?*
G04 #@! TF.SameCoordinates,Original*
G04 #@! TF.FileFunction,Legend,Top*
G04 #@! TF.FilePolarity,Positive*
%FSLAX46Y46*%
G04 Gerber Fmt 4.6, Leading zero omitted, Abs format (unit mm)*
G04 Created by KiCad (PCBNEW (5.1.5)-3) date 2020-05-20 18:06:31*
%MOMM*%
%LPD*%
G04 APERTURE LIST*
%ADD10C,0.120000*%
%ADD11C,0.150000*%
%ADD12C,0.100000*%
G04 APERTURE END LIST*
D10*
X16400000Y-20900000D02*
X16400000Y-21900000D01*
X17400000Y-20900000D02*
X16400000Y-20900000D01*
X272400000Y-20900000D02*
X272400000Y-21650000D01*
X271650000Y-20900000D02*
X272400000Y-20900000D01*
X272400000Y-162400000D02*
X16400000Y-162400000D01*
X272400000Y-164900000D02*
X271650000Y-164900000D01*
X272400000Y-164150000D02*
X272400000Y-164900000D01*
X272400000Y-162400000D02*
X272400000Y-23400000D01*
X16400000Y-164900000D02*
X17150000Y-164900000D01*
X16400000Y-164150000D02*
X16400000Y-164900000D01*
X16400000Y-23400000D02*
X16400000Y-162400000D01*
X272400000Y-23400000D02*
X16400000Y-23400000D01*
X192800000Y-52500000D02*
X192800000Y-49000000D01*
X192800000Y-118000000D02*
X192800000Y-114900000D01*
X191200000Y-50800000D02*
X194400000Y-50800000D01*
X191400000Y-116400000D02*
X193900000Y-116400000D01*
X243400000Y-134900000D02*
X241400000Y-134900000D01*
X244943730Y-130725295D02*
G75*
G02X244899999Y-139099999I-2443730J-4174705D01*
G01*
X239880164Y-139133324D02*
G75*
G02X239825001Y-130700001I2519836J4233324D01*
G01*
X242400000Y-135900000D02*
X242400000Y-133400000D01*
X66650000Y-118250000D02*
X66650000Y-114800000D01*
X66550000Y-52550000D02*
X66550000Y-49200000D01*
X66550000Y-52600000D02*
X66550000Y-52550000D01*
X64900000Y-50800000D02*
X68300000Y-50800000D01*
X239825000Y-130700000D02*
X244975000Y-130700000D01*
X239800000Y-139075000D02*
X244975000Y-139075000D01*
X266900000Y-28400000D02*
X260900000Y-28400000D01*
X263900000Y-31400000D02*
X263900000Y-25400000D01*
X27900000Y-28400000D02*
X21900000Y-28400000D01*
X24900000Y-31400000D02*
X24900000Y-25400000D01*
X27900000Y-157400000D02*
X21900000Y-157400000D01*
X24900000Y-160400000D02*
X24900000Y-154400000D01*
X263900000Y-154400000D02*
X263900000Y-160400000D01*
X260900000Y-157400000D02*
X266900000Y-157400000D01*
X244500000Y-38600000D02*
X242400000Y-38600000D01*
X243500000Y-39700000D02*
X243500000Y-37500000D01*
X68200000Y-116400000D02*
X68300000Y-116400000D01*
X64900000Y-116400000D02*
X68200000Y-116400000D01*
X251900000Y-38600000D02*
X253600000Y-38600000D01*
X252800000Y-37700000D02*
X252800000Y-39400000D01*
X252800000Y-52900000D02*
X252800000Y-54700000D01*
X253700000Y-53800000D02*
X251900000Y-53800000D01*
X253700000Y-68500000D02*
X251900000Y-68500000D01*
X252800000Y-67600000D02*
X252800000Y-69400000D01*
X118400000Y-146600000D02*
X116600000Y-146600000D01*
X117500000Y-145700000D02*
X117500000Y-147500000D01*
X144900000Y-145700000D02*
X144900000Y-147500000D01*
X145800000Y-146600000D02*
X144000000Y-146600000D01*
X132100000Y-146600000D02*
X130300000Y-146600000D01*
X131200000Y-145700000D02*
X131200000Y-147400000D01*
X158600000Y-145700000D02*
X158600000Y-147400000D01*
X159500000Y-146600000D02*
X157700000Y-146600000D01*
X173100000Y-146600000D02*
X171400000Y-146600000D01*
X172300000Y-145700000D02*
X172300000Y-147500000D01*
X186000000Y-145700000D02*
X186000000Y-147500000D01*
X186900000Y-146600000D02*
X185200000Y-146600000D01*
X197700000Y-146600000D02*
X199300000Y-146600000D01*
X198500000Y-147400000D02*
X198500000Y-145700000D01*
X234300000Y-106000000D02*
X234300000Y-107700000D01*
X234300000Y-93200000D02*
X234300000Y-95000000D01*
X234300000Y-80400000D02*
X234300000Y-82200000D01*
X234300000Y-67600000D02*
X234300000Y-69400000D01*
X233400000Y-68500000D02*
X235200000Y-68500000D01*
X233400000Y-81300000D02*
X235200000Y-81300000D01*
X233600000Y-94100000D02*
X235000000Y-94100000D01*
X233600000Y-106900000D02*
X235000000Y-106900000D01*
X252000000Y-106900000D02*
X253600000Y-106900000D01*
X252800000Y-106100000D02*
X252800000Y-107700000D01*
X252000000Y-94100000D02*
X253600000Y-94100000D01*
X252800000Y-94900000D02*
X252800000Y-93300000D01*
X253800000Y-81300000D02*
X251800000Y-81300000D01*
X252800000Y-80500000D02*
X252800000Y-82100000D01*
D11*
X102200000Y-126600000D02*
G75*
G02X101200000Y-125600000I0J1000000D01*
G01*
X168200000Y-125600000D02*
G75*
G02X167200000Y-126600000I-1000000J0D01*
G01*
X167200000Y-50700000D02*
G75*
G02X168200000Y-51700000I0J-1000000D01*
G01*
X101200000Y-51700000D02*
G75*
G02X102200000Y-50700000I1000000J0D01*
G01*
X16400000Y-24400000D02*
G75*
G02X17400000Y-23400000I1000000J0D01*
G01*
X271400000Y-23400000D02*
G75*
G02X272400000Y-24400000I0J-1000000D01*
G01*
X272400000Y-161400000D02*
G75*
G02X271400000Y-162400000I-1000000J0D01*
G01*
X17400000Y-162400000D02*
G75*
G02X16400000Y-161400000I0J1000000D01*
G01*
X101200000Y-125600000D02*
X101200000Y-51700000D01*
X167200000Y-126600000D02*
X102200000Y-126600000D01*
X168200000Y-51700000D02*
X168200000Y-125600000D01*
X102200000Y-50700000D02*
X167200000Y-50700000D01*
X16400000Y-24400000D02*
X16400000Y-161400000D01*
X271400000Y-23400000D02*
X17400000Y-23400000D01*
X272400000Y-161400000D02*
X272400000Y-24400000D01*
X17400000Y-162400000D02*
X271400000Y-162400000D01*
D10*
X168200000Y-50700000D02*
X168200000Y-126600000D01*
X168200000Y-50700000D02*
X101200000Y-50700000D01*
X101200000Y-126600000D02*
X101200000Y-50700000D01*
X205700000Y-40600000D02*
X205700000Y-126600000D01*
X50700000Y-40600000D02*
X205700000Y-40600000D01*
X50700000Y-126600000D02*
X50700000Y-40600000D01*
X205700000Y-126600000D02*
X50700000Y-126600000D01*
X224700000Y-29200000D02*
X224700000Y-140000000D01*
X31700000Y-29200000D02*
X224700000Y-29200000D01*
X31700000Y-140000000D02*
X31700000Y-29200000D01*
X224700000Y-140000000D02*
X31700000Y-140000000D01*
X237300000Y-53800000D02*
G75*
G03X237300000Y-53800000I-3000000J0D01*
G01*
X236300000Y-47900000D02*
X240400000Y-47900000D01*
X240400000Y-59700000D02*
X236300000Y-59700000D01*
X232300000Y-59700000D02*
X228200000Y-59700000D01*
X232300000Y-47900000D02*
X228200000Y-47900000D01*
X228200000Y-47900000D02*
X228200000Y-59700000D01*
X226800000Y-50000000D02*
X226500000Y-49700000D01*
X226500000Y-49700000D02*
X227100000Y-49700000D01*
X227100000Y-49700000D02*
X226800000Y-50000000D01*
X240400000Y-47900000D02*
X240400000Y-50300000D01*
X240400000Y-52500000D02*
X240400000Y-55100000D01*
X240400000Y-57300000D02*
X240400000Y-59700000D01*
X234300000Y-53300000D02*
X234300000Y-54300000D01*
X233800000Y-53800000D02*
X234800000Y-53800000D01*
X94300000Y-146600000D02*
G75*
G03X94300000Y-146600000I-3000000J0D01*
G01*
X89300000Y-152500000D02*
X85200000Y-152500000D01*
X85200000Y-140700000D02*
X89300000Y-140700000D01*
X93300000Y-140700000D02*
X97400000Y-140700000D01*
X93300000Y-152500000D02*
X97400000Y-152500000D01*
X97400000Y-152500000D02*
X97400000Y-140700000D01*
X98800000Y-150400000D02*
X99100000Y-150700000D01*
X99100000Y-150700000D02*
X98500000Y-150700000D01*
X98500000Y-150700000D02*
X98800000Y-150400000D01*
X85200000Y-152500000D02*
X85200000Y-150100000D01*
X85200000Y-147900000D02*
X85200000Y-145300000D01*
X85200000Y-143100000D02*
X85200000Y-140700000D01*
X91300000Y-147100000D02*
X91300000Y-146100000D01*
X91800000Y-146600000D02*
X90800000Y-146600000D01*
X68300000Y-146600000D02*
G75*
G03X68300000Y-146600000I-3000000J0D01*
G01*
X63300000Y-152500000D02*
X59200000Y-152500000D01*
X59200000Y-140700000D02*
X63300000Y-140700000D01*
X67300000Y-140700000D02*
X71400000Y-140700000D01*
X67300000Y-152500000D02*
X71400000Y-152500000D01*
X71400000Y-152500000D02*
X71400000Y-140700000D01*
X72800000Y-150400000D02*
X73100000Y-150700000D01*
X73100000Y-150700000D02*
X72500000Y-150700000D01*
X72500000Y-150700000D02*
X72800000Y-150400000D01*
X59200000Y-152500000D02*
X59200000Y-150100000D01*
X59200000Y-147900000D02*
X59200000Y-145300000D01*
X59200000Y-143100000D02*
X59200000Y-140700000D01*
X65300000Y-147100000D02*
X65300000Y-146100000D01*
X65800000Y-146600000D02*
X64800000Y-146600000D01*
X42300000Y-146600000D02*
G75*
G03X42300000Y-146600000I-3000000J0D01*
G01*
X37300000Y-152500000D02*
X33200000Y-152500000D01*
X33200000Y-140700000D02*
X37300000Y-140700000D01*
X41300000Y-140700000D02*
X45400000Y-140700000D01*
X41300000Y-152500000D02*
X45400000Y-152500000D01*
X45400000Y-152500000D02*
X45400000Y-140700000D01*
X46800000Y-150400000D02*
X47100000Y-150700000D01*
X47100000Y-150700000D02*
X46500000Y-150700000D01*
X46500000Y-150700000D02*
X46800000Y-150400000D01*
X33200000Y-152500000D02*
X33200000Y-150100000D01*
X33200000Y-147900000D02*
X33200000Y-145300000D01*
X33200000Y-143100000D02*
X33200000Y-140700000D01*
X39300000Y-147100000D02*
X39300000Y-146100000D01*
X39800000Y-146600000D02*
X38800000Y-146600000D01*
X240540000Y-38599538D02*
G75*
G03X246090000Y-40144830I2990000J-462D01*
G01*
X240540000Y-38600462D02*
G75*
G02X246090000Y-37055170I2990000J462D01*
G01*
X246030000Y-38600000D02*
G75*
G03X246030000Y-38600000I-2500000J0D01*
G01*
X246090000Y-40145000D02*
X246090000Y-37055000D01*
D12*
X255596885Y-38600000D02*
G75*
G03X255596885Y-38600000I-2796885J0D01*
G01*
X249498000Y-35679000D02*
X249498000Y-37203000D01*
X249498000Y-37203000D02*
X247847000Y-37203000D01*
X247847000Y-37203000D02*
X247847000Y-39997000D01*
X247847000Y-39997000D02*
X249498000Y-39997000D01*
X249498000Y-39997000D02*
X249498000Y-41521000D01*
X249498000Y-41521000D02*
X256102000Y-41521000D01*
X256102000Y-41521000D02*
X256102000Y-39997000D01*
X256102000Y-39997000D02*
X257626000Y-39997000D01*
X257626000Y-39997000D02*
X257626000Y-37203000D01*
X257626000Y-37203000D02*
X256102000Y-37203000D01*
X256102000Y-37203000D02*
X256102000Y-35806000D01*
X256102000Y-35806000D02*
X256102000Y-35679000D01*
X256102000Y-35679000D02*
X249498000Y-35679000D01*
X120296885Y-146600000D02*
G75*
G03X120296885Y-146600000I-2796885J0D01*
G01*
X120421000Y-143298000D02*
X118897000Y-143298000D01*
X118897000Y-143298000D02*
X118897000Y-141647000D01*
X118897000Y-141647000D02*
X116103000Y-141647000D01*
X116103000Y-141647000D02*
X116103000Y-143298000D01*
X116103000Y-143298000D02*
X114579000Y-143298000D01*
X114579000Y-143298000D02*
X114579000Y-149902000D01*
X114579000Y-149902000D02*
X116103000Y-149902000D01*
X116103000Y-149902000D02*
X116103000Y-151426000D01*
X116103000Y-151426000D02*
X118897000Y-151426000D01*
X118897000Y-151426000D02*
X118897000Y-149902000D01*
X118897000Y-149902000D02*
X120294000Y-149902000D01*
X120294000Y-149902000D02*
X120421000Y-149902000D01*
X120421000Y-149902000D02*
X120421000Y-143298000D01*
X134121000Y-149902000D02*
X134121000Y-143298000D01*
X133994000Y-149902000D02*
X134121000Y-149902000D01*
X132597000Y-149902000D02*
X133994000Y-149902000D01*
X132597000Y-151426000D02*
X132597000Y-149902000D01*
X129803000Y-151426000D02*
X132597000Y-151426000D01*
X129803000Y-149902000D02*
X129803000Y-151426000D01*
X128279000Y-149902000D02*
X129803000Y-149902000D01*
X128279000Y-143298000D02*
X128279000Y-149902000D01*
X129803000Y-143298000D02*
X128279000Y-143298000D01*
X129803000Y-141647000D02*
X129803000Y-143298000D01*
X132597000Y-141647000D02*
X129803000Y-141647000D01*
X132597000Y-143298000D02*
X132597000Y-141647000D01*
X134121000Y-143298000D02*
X132597000Y-143298000D01*
X133996885Y-146600000D02*
G75*
G03X133996885Y-146600000I-2796885J0D01*
G01*
X147696885Y-146600000D02*
G75*
G03X147696885Y-146600000I-2796885J0D01*
G01*
X147821000Y-143298000D02*
X146297000Y-143298000D01*
X146297000Y-143298000D02*
X146297000Y-141647000D01*
X146297000Y-141647000D02*
X143503000Y-141647000D01*
X143503000Y-141647000D02*
X143503000Y-143298000D01*
X143503000Y-143298000D02*
X141979000Y-143298000D01*
X141979000Y-143298000D02*
X141979000Y-149902000D01*
X141979000Y-149902000D02*
X143503000Y-149902000D01*
X143503000Y-149902000D02*
X143503000Y-151426000D01*
X143503000Y-151426000D02*
X146297000Y-151426000D01*
X146297000Y-151426000D02*
X146297000Y-149902000D01*
X146297000Y-149902000D02*
X147694000Y-149902000D01*
X147694000Y-149902000D02*
X147821000Y-149902000D01*
X147821000Y-149902000D02*
X147821000Y-143298000D01*
X161521000Y-149902000D02*
X161521000Y-143298000D01*
X161394000Y-149902000D02*
X161521000Y-149902000D01*
X159997000Y-149902000D02*
X161394000Y-149902000D01*
X159997000Y-151426000D02*
X159997000Y-149902000D01*
X157203000Y-151426000D02*
X159997000Y-151426000D01*
X157203000Y-149902000D02*
X157203000Y-151426000D01*
X155679000Y-149902000D02*
X157203000Y-149902000D01*
X155679000Y-143298000D02*
X155679000Y-149902000D01*
X157203000Y-143298000D02*
X155679000Y-143298000D01*
X157203000Y-141647000D02*
X157203000Y-143298000D01*
X159997000Y-141647000D02*
X157203000Y-141647000D01*
X159997000Y-143298000D02*
X159997000Y-141647000D01*
X161521000Y-143298000D02*
X159997000Y-143298000D01*
X161396885Y-146600000D02*
G75*
G03X161396885Y-146600000I-2796885J0D01*
G01*
X255596885Y-81300000D02*
G75*
G03X255596885Y-81300000I-2796885J0D01*
G01*
X249498000Y-78379000D02*
X249498000Y-79903000D01*
X249498000Y-79903000D02*
X247847000Y-79903000D01*
X247847000Y-79903000D02*
X247847000Y-82697000D01*
X247847000Y-82697000D02*
X249498000Y-82697000D01*
X249498000Y-82697000D02*
X249498000Y-84221000D01*
X249498000Y-84221000D02*
X256102000Y-84221000D01*
X256102000Y-84221000D02*
X256102000Y-82697000D01*
X256102000Y-82697000D02*
X257626000Y-82697000D01*
X257626000Y-82697000D02*
X257626000Y-79903000D01*
X257626000Y-79903000D02*
X256102000Y-79903000D01*
X256102000Y-79903000D02*
X256102000Y-78506000D01*
X256102000Y-78506000D02*
X256102000Y-78379000D01*
X256102000Y-78379000D02*
X249498000Y-78379000D01*
X237602000Y-91179000D02*
X230998000Y-91179000D01*
X237602000Y-91306000D02*
X237602000Y-91179000D01*
X237602000Y-92703000D02*
X237602000Y-91306000D01*
X239126000Y-92703000D02*
X237602000Y-92703000D01*
X239126000Y-95497000D02*
X239126000Y-92703000D01*
X237602000Y-95497000D02*
X239126000Y-95497000D01*
X237602000Y-97021000D02*
X237602000Y-95497000D01*
X230998000Y-97021000D02*
X237602000Y-97021000D01*
X230998000Y-95497000D02*
X230998000Y-97021000D01*
X229347000Y-95497000D02*
X230998000Y-95497000D01*
X229347000Y-92703000D02*
X229347000Y-95497000D01*
X230998000Y-92703000D02*
X229347000Y-92703000D01*
X230998000Y-91179000D02*
X230998000Y-92703000D01*
X237096885Y-94100000D02*
G75*
G03X237096885Y-94100000I-2796885J0D01*
G01*
X255596885Y-94100000D02*
G75*
G03X255596885Y-94100000I-2796885J0D01*
G01*
X249498000Y-91179000D02*
X249498000Y-92703000D01*
X249498000Y-92703000D02*
X247847000Y-92703000D01*
X247847000Y-92703000D02*
X247847000Y-95497000D01*
X247847000Y-95497000D02*
X249498000Y-95497000D01*
X249498000Y-95497000D02*
X249498000Y-97021000D01*
X249498000Y-97021000D02*
X256102000Y-97021000D01*
X256102000Y-97021000D02*
X256102000Y-95497000D01*
X256102000Y-95497000D02*
X257626000Y-95497000D01*
X257626000Y-95497000D02*
X257626000Y-92703000D01*
X257626000Y-92703000D02*
X256102000Y-92703000D01*
X256102000Y-92703000D02*
X256102000Y-91306000D01*
X256102000Y-91306000D02*
X256102000Y-91179000D01*
X256102000Y-91179000D02*
X249498000Y-91179000D01*
X237602000Y-103979000D02*
X230998000Y-103979000D01*
X237602000Y-104106000D02*
X237602000Y-103979000D01*
X237602000Y-105503000D02*
X237602000Y-104106000D01*
X239126000Y-105503000D02*
X237602000Y-105503000D01*
X239126000Y-108297000D02*
X239126000Y-105503000D01*
X237602000Y-108297000D02*
X239126000Y-108297000D01*
X237602000Y-109821000D02*
X237602000Y-108297000D01*
X230998000Y-109821000D02*
X237602000Y-109821000D01*
X230998000Y-108297000D02*
X230998000Y-109821000D01*
X229347000Y-108297000D02*
X230998000Y-108297000D01*
X229347000Y-105503000D02*
X229347000Y-108297000D01*
X230998000Y-105503000D02*
X229347000Y-105503000D01*
X230998000Y-103979000D02*
X230998000Y-105503000D01*
X237096885Y-106900000D02*
G75*
G03X237096885Y-106900000I-2796885J0D01*
G01*
X237602000Y-78379000D02*
X230998000Y-78379000D01*
X237602000Y-78506000D02*
X237602000Y-78379000D01*
X237602000Y-79903000D02*
X237602000Y-78506000D01*
X239126000Y-79903000D02*
X237602000Y-79903000D01*
X239126000Y-82697000D02*
X239126000Y-79903000D01*
X237602000Y-82697000D02*
X239126000Y-82697000D01*
X237602000Y-84221000D02*
X237602000Y-82697000D01*
X230998000Y-84221000D02*
X237602000Y-84221000D01*
X230998000Y-82697000D02*
X230998000Y-84221000D01*
X229347000Y-82697000D02*
X230998000Y-82697000D01*
X229347000Y-79903000D02*
X229347000Y-82697000D01*
X230998000Y-79903000D02*
X229347000Y-79903000D01*
X230998000Y-78379000D02*
X230998000Y-79903000D01*
X237096885Y-81300000D02*
G75*
G03X237096885Y-81300000I-2796885J0D01*
G01*
X255596885Y-68500000D02*
G75*
G03X255596885Y-68500000I-2796885J0D01*
G01*
X249498000Y-65579000D02*
X249498000Y-67103000D01*
X249498000Y-67103000D02*
X247847000Y-67103000D01*
X247847000Y-67103000D02*
X247847000Y-69897000D01*
X247847000Y-69897000D02*
X249498000Y-69897000D01*
X249498000Y-69897000D02*
X249498000Y-71421000D01*
X249498000Y-71421000D02*
X256102000Y-71421000D01*
X256102000Y-71421000D02*
X256102000Y-69897000D01*
X256102000Y-69897000D02*
X257626000Y-69897000D01*
X257626000Y-69897000D02*
X257626000Y-67103000D01*
X257626000Y-67103000D02*
X256102000Y-67103000D01*
X256102000Y-67103000D02*
X256102000Y-65706000D01*
X256102000Y-65706000D02*
X256102000Y-65579000D01*
X256102000Y-65579000D02*
X249498000Y-65579000D01*
X237602000Y-65579000D02*
X230998000Y-65579000D01*
X237602000Y-65706000D02*
X237602000Y-65579000D01*
X237602000Y-67103000D02*
X237602000Y-65706000D01*
X239126000Y-67103000D02*
X237602000Y-67103000D01*
X239126000Y-69897000D02*
X239126000Y-67103000D01*
X237602000Y-69897000D02*
X239126000Y-69897000D01*
X237602000Y-71421000D02*
X237602000Y-69897000D01*
X230998000Y-71421000D02*
X237602000Y-71421000D01*
X230998000Y-69897000D02*
X230998000Y-71421000D01*
X229347000Y-69897000D02*
X230998000Y-69897000D01*
X229347000Y-67103000D02*
X229347000Y-69897000D01*
X230998000Y-67103000D02*
X229347000Y-67103000D01*
X230998000Y-65579000D02*
X230998000Y-67103000D01*
X237096885Y-68500000D02*
G75*
G03X237096885Y-68500000I-2796885J0D01*
G01*
X255596885Y-53800000D02*
G75*
G03X255596885Y-53800000I-2796885J0D01*
G01*
X249498000Y-50879000D02*
X249498000Y-52403000D01*
X249498000Y-52403000D02*
X247847000Y-52403000D01*
X247847000Y-52403000D02*
X247847000Y-55197000D01*
X247847000Y-55197000D02*
X249498000Y-55197000D01*
X249498000Y-55197000D02*
X249498000Y-56721000D01*
X249498000Y-56721000D02*
X256102000Y-56721000D01*
X256102000Y-56721000D02*
X256102000Y-55197000D01*
X256102000Y-55197000D02*
X257626000Y-55197000D01*
X257626000Y-55197000D02*
X257626000Y-52403000D01*
X257626000Y-52403000D02*
X256102000Y-52403000D01*
X256102000Y-52403000D02*
X256102000Y-51006000D01*
X256102000Y-51006000D02*
X256102000Y-50879000D01*
X256102000Y-50879000D02*
X249498000Y-50879000D01*
X175221000Y-149902000D02*
X175221000Y-143298000D01*
X175094000Y-149902000D02*
X175221000Y-149902000D01*
X173697000Y-149902000D02*
X175094000Y-149902000D01*
X173697000Y-151426000D02*
X173697000Y-149902000D01*
X170903000Y-151426000D02*
X173697000Y-151426000D01*
X170903000Y-149902000D02*
X170903000Y-151426000D01*
X169379000Y-149902000D02*
X170903000Y-149902000D01*
X169379000Y-143298000D02*
X169379000Y-149902000D01*
X170903000Y-143298000D02*
X169379000Y-143298000D01*
X170903000Y-141647000D02*
X170903000Y-143298000D01*
X173697000Y-141647000D02*
X170903000Y-141647000D01*
X173697000Y-143298000D02*
X173697000Y-141647000D01*
X175221000Y-143298000D02*
X173697000Y-143298000D01*
X175096885Y-146600000D02*
G75*
G03X175096885Y-146600000I-2796885J0D01*
G01*
X188796885Y-146600000D02*
G75*
G03X188796885Y-146600000I-2796885J0D01*
G01*
X188921000Y-143298000D02*
X187397000Y-143298000D01*
X187397000Y-143298000D02*
X187397000Y-141647000D01*
X187397000Y-141647000D02*
X184603000Y-141647000D01*
X184603000Y-141647000D02*
X184603000Y-143298000D01*
X184603000Y-143298000D02*
X183079000Y-143298000D01*
X183079000Y-143298000D02*
X183079000Y-149902000D01*
X183079000Y-149902000D02*
X184603000Y-149902000D01*
X184603000Y-149902000D02*
X184603000Y-151426000D01*
X184603000Y-151426000D02*
X187397000Y-151426000D01*
X187397000Y-151426000D02*
X187397000Y-149902000D01*
X187397000Y-149902000D02*
X188794000Y-149902000D01*
X188794000Y-149902000D02*
X188921000Y-149902000D01*
X188921000Y-149902000D02*
X188921000Y-143298000D01*
X201296885Y-146600000D02*
G75*
G03X201296885Y-146600000I-2796885J0D01*
G01*
X201421000Y-143298000D02*
X199897000Y-143298000D01*
X199897000Y-143298000D02*
X199897000Y-141647000D01*
X199897000Y-141647000D02*
X197103000Y-141647000D01*
X197103000Y-141647000D02*
X197103000Y-143298000D01*
X197103000Y-143298000D02*
X195579000Y-143298000D01*
X195579000Y-143298000D02*
X195579000Y-149902000D01*
X195579000Y-149902000D02*
X197103000Y-149902000D01*
X197103000Y-149902000D02*
X197103000Y-151426000D01*
X197103000Y-151426000D02*
X199897000Y-151426000D01*
X199897000Y-151426000D02*
X199897000Y-149902000D01*
X199897000Y-149902000D02*
X201294000Y-149902000D01*
X201294000Y-149902000D02*
X201421000Y-149902000D01*
X201421000Y-149902000D02*
X201421000Y-143298000D01*
X256102000Y-103979000D02*
X249498000Y-103979000D01*
X256102000Y-104106000D02*
X256102000Y-103979000D01*
X256102000Y-105503000D02*
X256102000Y-104106000D01*
X257626000Y-105503000D02*
X256102000Y-105503000D01*
X257626000Y-108297000D02*
X257626000Y-105503000D01*
X256102000Y-108297000D02*
X257626000Y-108297000D01*
X256102000Y-109821000D02*
X256102000Y-108297000D01*
X249498000Y-109821000D02*
X256102000Y-109821000D01*
X249498000Y-108297000D02*
X249498000Y-109821000D01*
X247847000Y-108297000D02*
X249498000Y-108297000D01*
X247847000Y-105503000D02*
X247847000Y-108297000D01*
X249498000Y-105503000D02*
X247847000Y-105503000D01*
X249498000Y-103979000D02*
X249498000Y-105503000D01*
X255596885Y-106900000D02*
G75*
G03X255596885Y-106900000I-2796885J0D01*
G01*
D10*
X234100000Y-142450000D02*
X250700000Y-142450000D01*
X250700000Y-142450000D02*
X250700000Y-127350000D01*
X250700000Y-127350000D02*
X234100000Y-127350000D01*
X234100000Y-127350000D02*
X234100000Y-142450000D01*
X239800000Y-130700000D02*
X245000000Y-130700000D01*
X239799999Y-139079998D02*
X244999999Y-139079998D01*
X245000000Y-130700000D02*
G75*
G02X244999999Y-139079998I-2500000J-4189999D01*
G01*
X239799999Y-139079998D02*
G75*
G02X239800000Y-130700000I2500000J4189999D01*
G01*
X252700000Y-125350000D02*
X232100000Y-125350000D01*
X252700000Y-147600000D02*
X232100000Y-147600000D01*
X252700000Y-125350000D02*
X252700000Y-147600000D01*
X232100000Y-147600000D02*
X232100000Y-125350000D01*
M02*
