G04 #@! TF.GenerationSoftware,KiCad,Pcbnew,(5.1.5)-3*
G04 #@! TF.CreationDate,2020-04-14T12:17:22+02:00*
G04 #@! TF.ProjectId,piHPSDR_Controller,70694850-5344-4525-9f43-6f6e74726f6c,rev?*
G04 #@! TF.SameCoordinates,Original*
G04 #@! TF.FileFunction,Soldermask,Top*
G04 #@! TF.FilePolarity,Negative*
%FSLAX46Y46*%
G04 Gerber Fmt 4.6, Leading zero omitted, Abs format (unit mm)*
G04 Created by KiCad (PCBNEW (5.1.5)-3) date 2020-04-14 12:17:22*
%MOMM*%
%LPD*%
G04 APERTURE LIST*
%ADD10C,0.100000*%
G04 APERTURE END LIST*
D10*
G36*
X264631606Y-154658562D02*
G01*
X265150455Y-154873476D01*
X265617407Y-155185484D01*
X266014516Y-155582593D01*
X266326524Y-156049545D01*
X266541438Y-156568394D01*
X266651000Y-157119201D01*
X266651000Y-157680799D01*
X266541438Y-158231606D01*
X266326524Y-158750455D01*
X266014516Y-159217407D01*
X265617407Y-159614516D01*
X265150455Y-159926524D01*
X264631606Y-160141438D01*
X264080800Y-160251000D01*
X263519200Y-160251000D01*
X262968394Y-160141438D01*
X262449545Y-159926524D01*
X261982593Y-159614516D01*
X261585484Y-159217407D01*
X261273476Y-158750455D01*
X261058562Y-158231606D01*
X260949000Y-157680799D01*
X260949000Y-157119201D01*
X261058562Y-156568394D01*
X261273476Y-156049545D01*
X261585484Y-155582593D01*
X261982593Y-155185484D01*
X262449545Y-154873476D01*
X262968394Y-154658562D01*
X263519200Y-154549000D01*
X264080800Y-154549000D01*
X264631606Y-154658562D01*
G37*
G36*
X25731606Y-154658562D02*
G01*
X26250455Y-154873476D01*
X26717407Y-155185484D01*
X27114516Y-155582593D01*
X27426524Y-156049545D01*
X27641438Y-156568394D01*
X27751000Y-157119201D01*
X27751000Y-157680799D01*
X27641438Y-158231606D01*
X27426524Y-158750455D01*
X27114516Y-159217407D01*
X26717407Y-159614516D01*
X26250455Y-159926524D01*
X25731606Y-160141438D01*
X25180800Y-160251000D01*
X24619200Y-160251000D01*
X24068394Y-160141438D01*
X23549545Y-159926524D01*
X23082593Y-159614516D01*
X22685484Y-159217407D01*
X22373476Y-158750455D01*
X22158562Y-158231606D01*
X22049000Y-157680799D01*
X22049000Y-157119201D01*
X22158562Y-156568394D01*
X22373476Y-156049545D01*
X22685484Y-155582593D01*
X23082593Y-155185484D01*
X23549545Y-154873476D01*
X24068394Y-154658562D01*
X24619200Y-154549000D01*
X25180800Y-154549000D01*
X25731606Y-154658562D01*
G37*
G36*
X66951000Y-153251000D02*
G01*
X63649000Y-153251000D01*
X63649000Y-151149000D01*
X66951000Y-151149000D01*
X66951000Y-153251000D01*
G37*
G36*
X40951000Y-153251000D02*
G01*
X37649000Y-153251000D01*
X37649000Y-151149000D01*
X40951000Y-151149000D01*
X40951000Y-153251000D01*
G37*
G36*
X92951000Y-153251000D02*
G01*
X89649000Y-153251000D01*
X89649000Y-151149000D01*
X92951000Y-151149000D01*
X92951000Y-153251000D01*
G37*
G36*
X188779421Y-150005097D02*
G01*
X188842806Y-150024325D01*
X188901220Y-150055548D01*
X188952427Y-150097573D01*
X188994452Y-150148780D01*
X189025675Y-150207194D01*
X189044903Y-150270579D01*
X189052000Y-150342640D01*
X189052000Y-151957360D01*
X189044903Y-152029421D01*
X189025675Y-152092806D01*
X188994452Y-152151220D01*
X188952427Y-152202427D01*
X188901220Y-152244452D01*
X188842806Y-152275675D01*
X188779421Y-152294903D01*
X188707360Y-152302000D01*
X187792640Y-152302000D01*
X187720579Y-152294903D01*
X187657194Y-152275675D01*
X187598780Y-152244452D01*
X187547573Y-152202427D01*
X187505548Y-152151220D01*
X187474325Y-152092806D01*
X187455097Y-152029421D01*
X187448000Y-151957360D01*
X187448000Y-150342640D01*
X187455097Y-150270579D01*
X187474325Y-150207194D01*
X187505548Y-150148780D01*
X187547573Y-150097573D01*
X187598780Y-150055548D01*
X187657194Y-150024325D01*
X187720579Y-150005097D01*
X187792640Y-149998000D01*
X188707360Y-149998000D01*
X188779421Y-150005097D01*
G37*
G36*
X175079421Y-150005097D02*
G01*
X175142806Y-150024325D01*
X175201220Y-150055548D01*
X175252427Y-150097573D01*
X175294452Y-150148780D01*
X175325675Y-150207194D01*
X175344903Y-150270579D01*
X175352000Y-150342640D01*
X175352000Y-151957360D01*
X175344903Y-152029421D01*
X175325675Y-152092806D01*
X175294452Y-152151220D01*
X175252427Y-152202427D01*
X175201220Y-152244452D01*
X175142806Y-152275675D01*
X175079421Y-152294903D01*
X175007360Y-152302000D01*
X174092640Y-152302000D01*
X174020579Y-152294903D01*
X173957194Y-152275675D01*
X173898780Y-152244452D01*
X173847573Y-152202427D01*
X173805548Y-152151220D01*
X173774325Y-152092806D01*
X173755097Y-152029421D01*
X173748000Y-151957360D01*
X173748000Y-150342640D01*
X173755097Y-150270579D01*
X173774325Y-150207194D01*
X173805548Y-150148780D01*
X173847573Y-150097573D01*
X173898780Y-150055548D01*
X173957194Y-150024325D01*
X174020579Y-150005097D01*
X174092640Y-149998000D01*
X175007360Y-149998000D01*
X175079421Y-150005097D01*
G37*
G36*
X170579421Y-150005097D02*
G01*
X170642806Y-150024325D01*
X170701220Y-150055548D01*
X170752427Y-150097573D01*
X170794452Y-150148780D01*
X170825675Y-150207194D01*
X170844903Y-150270579D01*
X170852000Y-150342640D01*
X170852000Y-151957360D01*
X170844903Y-152029421D01*
X170825675Y-152092806D01*
X170794452Y-152151220D01*
X170752427Y-152202427D01*
X170701220Y-152244452D01*
X170642806Y-152275675D01*
X170579421Y-152294903D01*
X170507360Y-152302000D01*
X169592640Y-152302000D01*
X169520579Y-152294903D01*
X169457194Y-152275675D01*
X169398780Y-152244452D01*
X169347573Y-152202427D01*
X169305548Y-152151220D01*
X169274325Y-152092806D01*
X169255097Y-152029421D01*
X169248000Y-151957360D01*
X169248000Y-150342640D01*
X169255097Y-150270579D01*
X169274325Y-150207194D01*
X169305548Y-150148780D01*
X169347573Y-150097573D01*
X169398780Y-150055548D01*
X169457194Y-150024325D01*
X169520579Y-150005097D01*
X169592640Y-149998000D01*
X170507360Y-149998000D01*
X170579421Y-150005097D01*
G37*
G36*
X184279421Y-150005097D02*
G01*
X184342806Y-150024325D01*
X184401220Y-150055548D01*
X184452427Y-150097573D01*
X184494452Y-150148780D01*
X184525675Y-150207194D01*
X184544903Y-150270579D01*
X184552000Y-150342640D01*
X184552000Y-151957360D01*
X184544903Y-152029421D01*
X184525675Y-152092806D01*
X184494452Y-152151220D01*
X184452427Y-152202427D01*
X184401220Y-152244452D01*
X184342806Y-152275675D01*
X184279421Y-152294903D01*
X184207360Y-152302000D01*
X183292640Y-152302000D01*
X183220579Y-152294903D01*
X183157194Y-152275675D01*
X183098780Y-152244452D01*
X183047573Y-152202427D01*
X183005548Y-152151220D01*
X182974325Y-152092806D01*
X182955097Y-152029421D01*
X182948000Y-151957360D01*
X182948000Y-150342640D01*
X182955097Y-150270579D01*
X182974325Y-150207194D01*
X183005548Y-150148780D01*
X183047573Y-150097573D01*
X183098780Y-150055548D01*
X183157194Y-150024325D01*
X183220579Y-150005097D01*
X183292640Y-149998000D01*
X184207360Y-149998000D01*
X184279421Y-150005097D01*
G37*
G36*
X156879421Y-150005097D02*
G01*
X156942806Y-150024325D01*
X157001220Y-150055548D01*
X157052427Y-150097573D01*
X157094452Y-150148780D01*
X157125675Y-150207194D01*
X157144903Y-150270579D01*
X157152000Y-150342640D01*
X157152000Y-151957360D01*
X157144903Y-152029421D01*
X157125675Y-152092806D01*
X157094452Y-152151220D01*
X157052427Y-152202427D01*
X157001220Y-152244452D01*
X156942806Y-152275675D01*
X156879421Y-152294903D01*
X156807360Y-152302000D01*
X155892640Y-152302000D01*
X155820579Y-152294903D01*
X155757194Y-152275675D01*
X155698780Y-152244452D01*
X155647573Y-152202427D01*
X155605548Y-152151220D01*
X155574325Y-152092806D01*
X155555097Y-152029421D01*
X155548000Y-151957360D01*
X155548000Y-150342640D01*
X155555097Y-150270579D01*
X155574325Y-150207194D01*
X155605548Y-150148780D01*
X155647573Y-150097573D01*
X155698780Y-150055548D01*
X155757194Y-150024325D01*
X155820579Y-150005097D01*
X155892640Y-149998000D01*
X156807360Y-149998000D01*
X156879421Y-150005097D01*
G37*
G36*
X161379421Y-150005097D02*
G01*
X161442806Y-150024325D01*
X161501220Y-150055548D01*
X161552427Y-150097573D01*
X161594452Y-150148780D01*
X161625675Y-150207194D01*
X161644903Y-150270579D01*
X161652000Y-150342640D01*
X161652000Y-151957360D01*
X161644903Y-152029421D01*
X161625675Y-152092806D01*
X161594452Y-152151220D01*
X161552427Y-152202427D01*
X161501220Y-152244452D01*
X161442806Y-152275675D01*
X161379421Y-152294903D01*
X161307360Y-152302000D01*
X160392640Y-152302000D01*
X160320579Y-152294903D01*
X160257194Y-152275675D01*
X160198780Y-152244452D01*
X160147573Y-152202427D01*
X160105548Y-152151220D01*
X160074325Y-152092806D01*
X160055097Y-152029421D01*
X160048000Y-151957360D01*
X160048000Y-150342640D01*
X160055097Y-150270579D01*
X160074325Y-150207194D01*
X160105548Y-150148780D01*
X160147573Y-150097573D01*
X160198780Y-150055548D01*
X160257194Y-150024325D01*
X160320579Y-150005097D01*
X160392640Y-149998000D01*
X161307360Y-149998000D01*
X161379421Y-150005097D01*
G37*
G36*
X196779421Y-150005097D02*
G01*
X196842806Y-150024325D01*
X196901220Y-150055548D01*
X196952427Y-150097573D01*
X196994452Y-150148780D01*
X197025675Y-150207194D01*
X197044903Y-150270579D01*
X197052000Y-150342640D01*
X197052000Y-151957360D01*
X197044903Y-152029421D01*
X197025675Y-152092806D01*
X196994452Y-152151220D01*
X196952427Y-152202427D01*
X196901220Y-152244452D01*
X196842806Y-152275675D01*
X196779421Y-152294903D01*
X196707360Y-152302000D01*
X195792640Y-152302000D01*
X195720579Y-152294903D01*
X195657194Y-152275675D01*
X195598780Y-152244452D01*
X195547573Y-152202427D01*
X195505548Y-152151220D01*
X195474325Y-152092806D01*
X195455097Y-152029421D01*
X195448000Y-151957360D01*
X195448000Y-150342640D01*
X195455097Y-150270579D01*
X195474325Y-150207194D01*
X195505548Y-150148780D01*
X195547573Y-150097573D01*
X195598780Y-150055548D01*
X195657194Y-150024325D01*
X195720579Y-150005097D01*
X195792640Y-149998000D01*
X196707360Y-149998000D01*
X196779421Y-150005097D01*
G37*
G36*
X147679421Y-150005097D02*
G01*
X147742806Y-150024325D01*
X147801220Y-150055548D01*
X147852427Y-150097573D01*
X147894452Y-150148780D01*
X147925675Y-150207194D01*
X147944903Y-150270579D01*
X147952000Y-150342640D01*
X147952000Y-151957360D01*
X147944903Y-152029421D01*
X147925675Y-152092806D01*
X147894452Y-152151220D01*
X147852427Y-152202427D01*
X147801220Y-152244452D01*
X147742806Y-152275675D01*
X147679421Y-152294903D01*
X147607360Y-152302000D01*
X146692640Y-152302000D01*
X146620579Y-152294903D01*
X146557194Y-152275675D01*
X146498780Y-152244452D01*
X146447573Y-152202427D01*
X146405548Y-152151220D01*
X146374325Y-152092806D01*
X146355097Y-152029421D01*
X146348000Y-151957360D01*
X146348000Y-150342640D01*
X146355097Y-150270579D01*
X146374325Y-150207194D01*
X146405548Y-150148780D01*
X146447573Y-150097573D01*
X146498780Y-150055548D01*
X146557194Y-150024325D01*
X146620579Y-150005097D01*
X146692640Y-149998000D01*
X147607360Y-149998000D01*
X147679421Y-150005097D01*
G37*
G36*
X201279421Y-150005097D02*
G01*
X201342806Y-150024325D01*
X201401220Y-150055548D01*
X201452427Y-150097573D01*
X201494452Y-150148780D01*
X201525675Y-150207194D01*
X201544903Y-150270579D01*
X201552000Y-150342640D01*
X201552000Y-151957360D01*
X201544903Y-152029421D01*
X201525675Y-152092806D01*
X201494452Y-152151220D01*
X201452427Y-152202427D01*
X201401220Y-152244452D01*
X201342806Y-152275675D01*
X201279421Y-152294903D01*
X201207360Y-152302000D01*
X200292640Y-152302000D01*
X200220579Y-152294903D01*
X200157194Y-152275675D01*
X200098780Y-152244452D01*
X200047573Y-152202427D01*
X200005548Y-152151220D01*
X199974325Y-152092806D01*
X199955097Y-152029421D01*
X199948000Y-151957360D01*
X199948000Y-150342640D01*
X199955097Y-150270579D01*
X199974325Y-150207194D01*
X200005548Y-150148780D01*
X200047573Y-150097573D01*
X200098780Y-150055548D01*
X200157194Y-150024325D01*
X200220579Y-150005097D01*
X200292640Y-149998000D01*
X201207360Y-149998000D01*
X201279421Y-150005097D01*
G37*
G36*
X129479421Y-150005097D02*
G01*
X129542806Y-150024325D01*
X129601220Y-150055548D01*
X129652427Y-150097573D01*
X129694452Y-150148780D01*
X129725675Y-150207194D01*
X129744903Y-150270579D01*
X129752000Y-150342640D01*
X129752000Y-151957360D01*
X129744903Y-152029421D01*
X129725675Y-152092806D01*
X129694452Y-152151220D01*
X129652427Y-152202427D01*
X129601220Y-152244452D01*
X129542806Y-152275675D01*
X129479421Y-152294903D01*
X129407360Y-152302000D01*
X128492640Y-152302000D01*
X128420579Y-152294903D01*
X128357194Y-152275675D01*
X128298780Y-152244452D01*
X128247573Y-152202427D01*
X128205548Y-152151220D01*
X128174325Y-152092806D01*
X128155097Y-152029421D01*
X128148000Y-151957360D01*
X128148000Y-150342640D01*
X128155097Y-150270579D01*
X128174325Y-150207194D01*
X128205548Y-150148780D01*
X128247573Y-150097573D01*
X128298780Y-150055548D01*
X128357194Y-150024325D01*
X128420579Y-150005097D01*
X128492640Y-149998000D01*
X129407360Y-149998000D01*
X129479421Y-150005097D01*
G37*
G36*
X133979421Y-150005097D02*
G01*
X134042806Y-150024325D01*
X134101220Y-150055548D01*
X134152427Y-150097573D01*
X134194452Y-150148780D01*
X134225675Y-150207194D01*
X134244903Y-150270579D01*
X134252000Y-150342640D01*
X134252000Y-151957360D01*
X134244903Y-152029421D01*
X134225675Y-152092806D01*
X134194452Y-152151220D01*
X134152427Y-152202427D01*
X134101220Y-152244452D01*
X134042806Y-152275675D01*
X133979421Y-152294903D01*
X133907360Y-152302000D01*
X132992640Y-152302000D01*
X132920579Y-152294903D01*
X132857194Y-152275675D01*
X132798780Y-152244452D01*
X132747573Y-152202427D01*
X132705548Y-152151220D01*
X132674325Y-152092806D01*
X132655097Y-152029421D01*
X132648000Y-151957360D01*
X132648000Y-150342640D01*
X132655097Y-150270579D01*
X132674325Y-150207194D01*
X132705548Y-150148780D01*
X132747573Y-150097573D01*
X132798780Y-150055548D01*
X132857194Y-150024325D01*
X132920579Y-150005097D01*
X132992640Y-149998000D01*
X133907360Y-149998000D01*
X133979421Y-150005097D01*
G37*
G36*
X120279421Y-150005097D02*
G01*
X120342806Y-150024325D01*
X120401220Y-150055548D01*
X120452427Y-150097573D01*
X120494452Y-150148780D01*
X120525675Y-150207194D01*
X120544903Y-150270579D01*
X120552000Y-150342640D01*
X120552000Y-151957360D01*
X120544903Y-152029421D01*
X120525675Y-152092806D01*
X120494452Y-152151220D01*
X120452427Y-152202427D01*
X120401220Y-152244452D01*
X120342806Y-152275675D01*
X120279421Y-152294903D01*
X120207360Y-152302000D01*
X119292640Y-152302000D01*
X119220579Y-152294903D01*
X119157194Y-152275675D01*
X119098780Y-152244452D01*
X119047573Y-152202427D01*
X119005548Y-152151220D01*
X118974325Y-152092806D01*
X118955097Y-152029421D01*
X118948000Y-151957360D01*
X118948000Y-150342640D01*
X118955097Y-150270579D01*
X118974325Y-150207194D01*
X119005548Y-150148780D01*
X119047573Y-150097573D01*
X119098780Y-150055548D01*
X119157194Y-150024325D01*
X119220579Y-150005097D01*
X119292640Y-149998000D01*
X120207360Y-149998000D01*
X120279421Y-150005097D01*
G37*
G36*
X115779421Y-150005097D02*
G01*
X115842806Y-150024325D01*
X115901220Y-150055548D01*
X115952427Y-150097573D01*
X115994452Y-150148780D01*
X116025675Y-150207194D01*
X116044903Y-150270579D01*
X116052000Y-150342640D01*
X116052000Y-151957360D01*
X116044903Y-152029421D01*
X116025675Y-152092806D01*
X115994452Y-152151220D01*
X115952427Y-152202427D01*
X115901220Y-152244452D01*
X115842806Y-152275675D01*
X115779421Y-152294903D01*
X115707360Y-152302000D01*
X114792640Y-152302000D01*
X114720579Y-152294903D01*
X114657194Y-152275675D01*
X114598780Y-152244452D01*
X114547573Y-152202427D01*
X114505548Y-152151220D01*
X114474325Y-152092806D01*
X114455097Y-152029421D01*
X114448000Y-151957360D01*
X114448000Y-150342640D01*
X114455097Y-150270579D01*
X114474325Y-150207194D01*
X114505548Y-150148780D01*
X114547573Y-150097573D01*
X114598780Y-150055548D01*
X114657194Y-150024325D01*
X114720579Y-150005097D01*
X114792640Y-149998000D01*
X115707360Y-149998000D01*
X115779421Y-150005097D01*
G37*
G36*
X143179421Y-150005097D02*
G01*
X143242806Y-150024325D01*
X143301220Y-150055548D01*
X143352427Y-150097573D01*
X143394452Y-150148780D01*
X143425675Y-150207194D01*
X143444903Y-150270579D01*
X143452000Y-150342640D01*
X143452000Y-151957360D01*
X143444903Y-152029421D01*
X143425675Y-152092806D01*
X143394452Y-152151220D01*
X143352427Y-152202427D01*
X143301220Y-152244452D01*
X143242806Y-152275675D01*
X143179421Y-152294903D01*
X143107360Y-152302000D01*
X142192640Y-152302000D01*
X142120579Y-152294903D01*
X142057194Y-152275675D01*
X141998780Y-152244452D01*
X141947573Y-152202427D01*
X141905548Y-152151220D01*
X141874325Y-152092806D01*
X141855097Y-152029421D01*
X141848000Y-151957360D01*
X141848000Y-150342640D01*
X141855097Y-150270579D01*
X141874325Y-150207194D01*
X141905548Y-150148780D01*
X141947573Y-150097573D01*
X141998780Y-150055548D01*
X142057194Y-150024325D01*
X142120579Y-150005097D01*
X142192640Y-149998000D01*
X143107360Y-149998000D01*
X143179421Y-150005097D01*
G37*
G36*
X58606564Y-148089389D02*
G01*
X58797833Y-148168615D01*
X58797835Y-148168616D01*
X58969973Y-148283635D01*
X59116365Y-148430027D01*
X59231385Y-148602167D01*
X59310611Y-148793436D01*
X59351000Y-148996484D01*
X59351000Y-149203516D01*
X59310611Y-149406564D01*
X59231385Y-149597833D01*
X59231384Y-149597835D01*
X59116365Y-149769973D01*
X58969973Y-149916365D01*
X58797835Y-150031384D01*
X58797834Y-150031385D01*
X58797833Y-150031385D01*
X58606564Y-150110611D01*
X58403516Y-150151000D01*
X58196484Y-150151000D01*
X57993436Y-150110611D01*
X57802167Y-150031385D01*
X57802166Y-150031385D01*
X57802165Y-150031384D01*
X57630027Y-149916365D01*
X57483635Y-149769973D01*
X57368616Y-149597835D01*
X57368615Y-149597833D01*
X57289389Y-149406564D01*
X57249000Y-149203516D01*
X57249000Y-148996484D01*
X57289389Y-148793436D01*
X57368615Y-148602167D01*
X57483635Y-148430027D01*
X57630027Y-148283635D01*
X57802165Y-148168616D01*
X57802167Y-148168615D01*
X57993436Y-148089389D01*
X58196484Y-148049000D01*
X58403516Y-148049000D01*
X58606564Y-148089389D01*
G37*
G36*
X73851000Y-150151000D02*
G01*
X71749000Y-150151000D01*
X71749000Y-148049000D01*
X73851000Y-148049000D01*
X73851000Y-150151000D01*
G37*
G36*
X84606564Y-148089389D02*
G01*
X84797833Y-148168615D01*
X84797835Y-148168616D01*
X84969973Y-148283635D01*
X85116365Y-148430027D01*
X85231385Y-148602167D01*
X85310611Y-148793436D01*
X85351000Y-148996484D01*
X85351000Y-149203516D01*
X85310611Y-149406564D01*
X85231385Y-149597833D01*
X85231384Y-149597835D01*
X85116365Y-149769973D01*
X84969973Y-149916365D01*
X84797835Y-150031384D01*
X84797834Y-150031385D01*
X84797833Y-150031385D01*
X84606564Y-150110611D01*
X84403516Y-150151000D01*
X84196484Y-150151000D01*
X83993436Y-150110611D01*
X83802167Y-150031385D01*
X83802166Y-150031385D01*
X83802165Y-150031384D01*
X83630027Y-149916365D01*
X83483635Y-149769973D01*
X83368616Y-149597835D01*
X83368615Y-149597833D01*
X83289389Y-149406564D01*
X83249000Y-149203516D01*
X83249000Y-148996484D01*
X83289389Y-148793436D01*
X83368615Y-148602167D01*
X83483635Y-148430027D01*
X83630027Y-148283635D01*
X83802165Y-148168616D01*
X83802167Y-148168615D01*
X83993436Y-148089389D01*
X84196484Y-148049000D01*
X84403516Y-148049000D01*
X84606564Y-148089389D01*
G37*
G36*
X47851000Y-150151000D02*
G01*
X45749000Y-150151000D01*
X45749000Y-148049000D01*
X47851000Y-148049000D01*
X47851000Y-150151000D01*
G37*
G36*
X99851000Y-150151000D02*
G01*
X97749000Y-150151000D01*
X97749000Y-148049000D01*
X99851000Y-148049000D01*
X99851000Y-150151000D01*
G37*
G36*
X32606564Y-148089389D02*
G01*
X32797833Y-148168615D01*
X32797835Y-148168616D01*
X32969973Y-148283635D01*
X33116365Y-148430027D01*
X33231385Y-148602167D01*
X33310611Y-148793436D01*
X33351000Y-148996484D01*
X33351000Y-149203516D01*
X33310611Y-149406564D01*
X33231385Y-149597833D01*
X33231384Y-149597835D01*
X33116365Y-149769973D01*
X32969973Y-149916365D01*
X32797835Y-150031384D01*
X32797834Y-150031385D01*
X32797833Y-150031385D01*
X32606564Y-150110611D01*
X32403516Y-150151000D01*
X32196484Y-150151000D01*
X31993436Y-150110611D01*
X31802167Y-150031385D01*
X31802166Y-150031385D01*
X31802165Y-150031384D01*
X31630027Y-149916365D01*
X31483635Y-149769973D01*
X31368616Y-149597835D01*
X31368615Y-149597833D01*
X31289389Y-149406564D01*
X31249000Y-149203516D01*
X31249000Y-148996484D01*
X31289389Y-148793436D01*
X31368615Y-148602167D01*
X31483635Y-148430027D01*
X31630027Y-148283635D01*
X31802165Y-148168616D01*
X31802167Y-148168615D01*
X31993436Y-148089389D01*
X32196484Y-148049000D01*
X32403516Y-148049000D01*
X32606564Y-148089389D01*
G37*
G36*
X73106564Y-145589389D02*
G01*
X73297833Y-145668615D01*
X73297835Y-145668616D01*
X73348944Y-145702766D01*
X73469973Y-145783635D01*
X73616365Y-145930027D01*
X73731385Y-146102167D01*
X73810611Y-146293436D01*
X73851000Y-146496484D01*
X73851000Y-146703516D01*
X73810611Y-146906564D01*
X73731385Y-147097833D01*
X73731384Y-147097835D01*
X73616365Y-147269973D01*
X73469973Y-147416365D01*
X73297835Y-147531384D01*
X73297834Y-147531385D01*
X73297833Y-147531385D01*
X73106564Y-147610611D01*
X72903516Y-147651000D01*
X72696484Y-147651000D01*
X72493436Y-147610611D01*
X72302167Y-147531385D01*
X72302166Y-147531385D01*
X72302165Y-147531384D01*
X72130027Y-147416365D01*
X71983635Y-147269973D01*
X71868616Y-147097835D01*
X71868615Y-147097833D01*
X71789389Y-146906564D01*
X71749000Y-146703516D01*
X71749000Y-146496484D01*
X71789389Y-146293436D01*
X71868615Y-146102167D01*
X71983635Y-145930027D01*
X72130027Y-145783635D01*
X72251056Y-145702766D01*
X72302165Y-145668616D01*
X72302167Y-145668615D01*
X72493436Y-145589389D01*
X72696484Y-145549000D01*
X72903516Y-145549000D01*
X73106564Y-145589389D01*
G37*
G36*
X99106564Y-145589389D02*
G01*
X99297833Y-145668615D01*
X99297835Y-145668616D01*
X99348944Y-145702766D01*
X99469973Y-145783635D01*
X99616365Y-145930027D01*
X99731385Y-146102167D01*
X99810611Y-146293436D01*
X99851000Y-146496484D01*
X99851000Y-146703516D01*
X99810611Y-146906564D01*
X99731385Y-147097833D01*
X99731384Y-147097835D01*
X99616365Y-147269973D01*
X99469973Y-147416365D01*
X99297835Y-147531384D01*
X99297834Y-147531385D01*
X99297833Y-147531385D01*
X99106564Y-147610611D01*
X98903516Y-147651000D01*
X98696484Y-147651000D01*
X98493436Y-147610611D01*
X98302167Y-147531385D01*
X98302166Y-147531385D01*
X98302165Y-147531384D01*
X98130027Y-147416365D01*
X97983635Y-147269973D01*
X97868616Y-147097835D01*
X97868615Y-147097833D01*
X97789389Y-146906564D01*
X97749000Y-146703516D01*
X97749000Y-146496484D01*
X97789389Y-146293436D01*
X97868615Y-146102167D01*
X97983635Y-145930027D01*
X98130027Y-145783635D01*
X98251056Y-145702766D01*
X98302165Y-145668616D01*
X98302167Y-145668615D01*
X98493436Y-145589389D01*
X98696484Y-145549000D01*
X98903516Y-145549000D01*
X99106564Y-145589389D01*
G37*
G36*
X47106564Y-145589389D02*
G01*
X47297833Y-145668615D01*
X47297835Y-145668616D01*
X47348944Y-145702766D01*
X47469973Y-145783635D01*
X47616365Y-145930027D01*
X47731385Y-146102167D01*
X47810611Y-146293436D01*
X47851000Y-146496484D01*
X47851000Y-146703516D01*
X47810611Y-146906564D01*
X47731385Y-147097833D01*
X47731384Y-147097835D01*
X47616365Y-147269973D01*
X47469973Y-147416365D01*
X47297835Y-147531384D01*
X47297834Y-147531385D01*
X47297833Y-147531385D01*
X47106564Y-147610611D01*
X46903516Y-147651000D01*
X46696484Y-147651000D01*
X46493436Y-147610611D01*
X46302167Y-147531385D01*
X46302166Y-147531385D01*
X46302165Y-147531384D01*
X46130027Y-147416365D01*
X45983635Y-147269973D01*
X45868616Y-147097835D01*
X45868615Y-147097833D01*
X45789389Y-146906564D01*
X45749000Y-146703516D01*
X45749000Y-146496484D01*
X45789389Y-146293436D01*
X45868615Y-146102167D01*
X45983635Y-145930027D01*
X46130027Y-145783635D01*
X46251056Y-145702766D01*
X46302165Y-145668616D01*
X46302167Y-145668615D01*
X46493436Y-145589389D01*
X46696484Y-145549000D01*
X46903516Y-145549000D01*
X47106564Y-145589389D01*
G37*
G36*
X247757395Y-143945546D02*
G01*
X247930466Y-144017234D01*
X247930467Y-144017235D01*
X248086227Y-144121310D01*
X248218690Y-144253773D01*
X248218691Y-144253775D01*
X248322766Y-144409534D01*
X248394454Y-144582605D01*
X248431000Y-144766333D01*
X248431000Y-144953667D01*
X248394454Y-145137395D01*
X248322766Y-145310466D01*
X248322765Y-145310467D01*
X248218690Y-145466227D01*
X248086227Y-145598690D01*
X248007818Y-145651081D01*
X247930466Y-145702766D01*
X247757395Y-145774454D01*
X247573667Y-145811000D01*
X247386333Y-145811000D01*
X247202605Y-145774454D01*
X247029534Y-145702766D01*
X246952182Y-145651081D01*
X246873773Y-145598690D01*
X246741310Y-145466227D01*
X246637235Y-145310467D01*
X246637234Y-145310466D01*
X246565546Y-145137395D01*
X246529000Y-144953667D01*
X246529000Y-144766333D01*
X246565546Y-144582605D01*
X246637234Y-144409534D01*
X246741309Y-144253775D01*
X246741310Y-144253773D01*
X246873773Y-144121310D01*
X247029533Y-144017235D01*
X247029534Y-144017234D01*
X247202605Y-143945546D01*
X247386333Y-143909000D01*
X247573667Y-143909000D01*
X247757395Y-143945546D01*
G37*
G36*
X237597395Y-143945546D02*
G01*
X237770466Y-144017234D01*
X237770467Y-144017235D01*
X237926227Y-144121310D01*
X238058690Y-144253773D01*
X238058691Y-144253775D01*
X238162766Y-144409534D01*
X238234454Y-144582605D01*
X238271000Y-144766333D01*
X238271000Y-144953667D01*
X238234454Y-145137395D01*
X238162766Y-145310466D01*
X238162765Y-145310467D01*
X238058690Y-145466227D01*
X237926227Y-145598690D01*
X237847818Y-145651081D01*
X237770466Y-145702766D01*
X237597395Y-145774454D01*
X237413667Y-145811000D01*
X237226333Y-145811000D01*
X237042605Y-145774454D01*
X236869534Y-145702766D01*
X236792182Y-145651081D01*
X236713773Y-145598690D01*
X236581310Y-145466227D01*
X236477235Y-145310467D01*
X236477234Y-145310466D01*
X236405546Y-145137395D01*
X236369000Y-144953667D01*
X236369000Y-144766333D01*
X236405546Y-144582605D01*
X236477234Y-144409534D01*
X236581309Y-144253775D01*
X236581310Y-144253773D01*
X236713773Y-144121310D01*
X236869533Y-144017235D01*
X236869534Y-144017234D01*
X237042605Y-143945546D01*
X237226333Y-143909000D01*
X237413667Y-143909000D01*
X237597395Y-143945546D01*
G37*
G36*
X240137395Y-143945546D02*
G01*
X240310466Y-144017234D01*
X240310467Y-144017235D01*
X240466227Y-144121310D01*
X240598690Y-144253773D01*
X240598691Y-144253775D01*
X240702766Y-144409534D01*
X240774454Y-144582605D01*
X240811000Y-144766333D01*
X240811000Y-144953667D01*
X240774454Y-145137395D01*
X240702766Y-145310466D01*
X240702765Y-145310467D01*
X240598690Y-145466227D01*
X240466227Y-145598690D01*
X240387818Y-145651081D01*
X240310466Y-145702766D01*
X240137395Y-145774454D01*
X239953667Y-145811000D01*
X239766333Y-145811000D01*
X239582605Y-145774454D01*
X239409534Y-145702766D01*
X239332182Y-145651081D01*
X239253773Y-145598690D01*
X239121310Y-145466227D01*
X239017235Y-145310467D01*
X239017234Y-145310466D01*
X238945546Y-145137395D01*
X238909000Y-144953667D01*
X238909000Y-144766333D01*
X238945546Y-144582605D01*
X239017234Y-144409534D01*
X239121309Y-144253775D01*
X239121310Y-144253773D01*
X239253773Y-144121310D01*
X239409533Y-144017235D01*
X239409534Y-144017234D01*
X239582605Y-143945546D01*
X239766333Y-143909000D01*
X239953667Y-143909000D01*
X240137395Y-143945546D01*
G37*
G36*
X245217395Y-143945546D02*
G01*
X245390466Y-144017234D01*
X245390467Y-144017235D01*
X245546227Y-144121310D01*
X245678690Y-144253773D01*
X245678691Y-144253775D01*
X245782766Y-144409534D01*
X245854454Y-144582605D01*
X245891000Y-144766333D01*
X245891000Y-144953667D01*
X245854454Y-145137395D01*
X245782766Y-145310466D01*
X245782765Y-145310467D01*
X245678690Y-145466227D01*
X245546227Y-145598690D01*
X245467818Y-145651081D01*
X245390466Y-145702766D01*
X245217395Y-145774454D01*
X245033667Y-145811000D01*
X244846333Y-145811000D01*
X244662605Y-145774454D01*
X244489534Y-145702766D01*
X244412182Y-145651081D01*
X244333773Y-145598690D01*
X244201310Y-145466227D01*
X244097235Y-145310467D01*
X244097234Y-145310466D01*
X244025546Y-145137395D01*
X243989000Y-144953667D01*
X243989000Y-144766333D01*
X244025546Y-144582605D01*
X244097234Y-144409534D01*
X244201309Y-144253775D01*
X244201310Y-144253773D01*
X244333773Y-144121310D01*
X244489533Y-144017235D01*
X244489534Y-144017234D01*
X244662605Y-143945546D01*
X244846333Y-143909000D01*
X245033667Y-143909000D01*
X245217395Y-143945546D01*
G37*
G36*
X242677395Y-143945546D02*
G01*
X242850466Y-144017234D01*
X242850467Y-144017235D01*
X243006227Y-144121310D01*
X243138690Y-144253773D01*
X243138691Y-144253775D01*
X243242766Y-144409534D01*
X243314454Y-144582605D01*
X243351000Y-144766333D01*
X243351000Y-144953667D01*
X243314454Y-145137395D01*
X243242766Y-145310466D01*
X243242765Y-145310467D01*
X243138690Y-145466227D01*
X243006227Y-145598690D01*
X242927818Y-145651081D01*
X242850466Y-145702766D01*
X242677395Y-145774454D01*
X242493667Y-145811000D01*
X242306333Y-145811000D01*
X242122605Y-145774454D01*
X241949534Y-145702766D01*
X241872182Y-145651081D01*
X241793773Y-145598690D01*
X241661310Y-145466227D01*
X241557235Y-145310467D01*
X241557234Y-145310466D01*
X241485546Y-145137395D01*
X241449000Y-144953667D01*
X241449000Y-144766333D01*
X241485546Y-144582605D01*
X241557234Y-144409534D01*
X241661309Y-144253775D01*
X241661310Y-144253773D01*
X241793773Y-144121310D01*
X241949533Y-144017235D01*
X241949534Y-144017234D01*
X242122605Y-143945546D01*
X242306333Y-143909000D01*
X242493667Y-143909000D01*
X242677395Y-143945546D01*
G37*
G36*
X32606564Y-143089389D02*
G01*
X32797833Y-143168615D01*
X32797835Y-143168616D01*
X32969973Y-143283635D01*
X33116365Y-143430027D01*
X33231385Y-143602167D01*
X33310611Y-143793436D01*
X33351000Y-143996484D01*
X33351000Y-144203516D01*
X33310611Y-144406564D01*
X33231385Y-144597833D01*
X33231384Y-144597835D01*
X33116365Y-144769973D01*
X32969973Y-144916365D01*
X32797835Y-145031384D01*
X32797834Y-145031385D01*
X32797833Y-145031385D01*
X32606564Y-145110611D01*
X32403516Y-145151000D01*
X32196484Y-145151000D01*
X31993436Y-145110611D01*
X31802167Y-145031385D01*
X31802166Y-145031385D01*
X31802165Y-145031384D01*
X31630027Y-144916365D01*
X31483635Y-144769973D01*
X31368616Y-144597835D01*
X31368615Y-144597833D01*
X31289389Y-144406564D01*
X31249000Y-144203516D01*
X31249000Y-143996484D01*
X31289389Y-143793436D01*
X31368615Y-143602167D01*
X31483635Y-143430027D01*
X31630027Y-143283635D01*
X31802165Y-143168616D01*
X31802167Y-143168615D01*
X31993436Y-143089389D01*
X32196484Y-143049000D01*
X32403516Y-143049000D01*
X32606564Y-143089389D01*
G37*
G36*
X47106564Y-143089389D02*
G01*
X47297833Y-143168615D01*
X47297835Y-143168616D01*
X47469973Y-143283635D01*
X47616365Y-143430027D01*
X47731385Y-143602167D01*
X47810611Y-143793436D01*
X47851000Y-143996484D01*
X47851000Y-144203516D01*
X47810611Y-144406564D01*
X47731385Y-144597833D01*
X47731384Y-144597835D01*
X47616365Y-144769973D01*
X47469973Y-144916365D01*
X47297835Y-145031384D01*
X47297834Y-145031385D01*
X47297833Y-145031385D01*
X47106564Y-145110611D01*
X46903516Y-145151000D01*
X46696484Y-145151000D01*
X46493436Y-145110611D01*
X46302167Y-145031385D01*
X46302166Y-145031385D01*
X46302165Y-145031384D01*
X46130027Y-144916365D01*
X45983635Y-144769973D01*
X45868616Y-144597835D01*
X45868615Y-144597833D01*
X45789389Y-144406564D01*
X45749000Y-144203516D01*
X45749000Y-143996484D01*
X45789389Y-143793436D01*
X45868615Y-143602167D01*
X45983635Y-143430027D01*
X46130027Y-143283635D01*
X46302165Y-143168616D01*
X46302167Y-143168615D01*
X46493436Y-143089389D01*
X46696484Y-143049000D01*
X46903516Y-143049000D01*
X47106564Y-143089389D01*
G37*
G36*
X58606564Y-143089389D02*
G01*
X58797833Y-143168615D01*
X58797835Y-143168616D01*
X58969973Y-143283635D01*
X59116365Y-143430027D01*
X59231385Y-143602167D01*
X59310611Y-143793436D01*
X59351000Y-143996484D01*
X59351000Y-144203516D01*
X59310611Y-144406564D01*
X59231385Y-144597833D01*
X59231384Y-144597835D01*
X59116365Y-144769973D01*
X58969973Y-144916365D01*
X58797835Y-145031384D01*
X58797834Y-145031385D01*
X58797833Y-145031385D01*
X58606564Y-145110611D01*
X58403516Y-145151000D01*
X58196484Y-145151000D01*
X57993436Y-145110611D01*
X57802167Y-145031385D01*
X57802166Y-145031385D01*
X57802165Y-145031384D01*
X57630027Y-144916365D01*
X57483635Y-144769973D01*
X57368616Y-144597835D01*
X57368615Y-144597833D01*
X57289389Y-144406564D01*
X57249000Y-144203516D01*
X57249000Y-143996484D01*
X57289389Y-143793436D01*
X57368615Y-143602167D01*
X57483635Y-143430027D01*
X57630027Y-143283635D01*
X57802165Y-143168616D01*
X57802167Y-143168615D01*
X57993436Y-143089389D01*
X58196484Y-143049000D01*
X58403516Y-143049000D01*
X58606564Y-143089389D01*
G37*
G36*
X73106564Y-143089389D02*
G01*
X73297833Y-143168615D01*
X73297835Y-143168616D01*
X73469973Y-143283635D01*
X73616365Y-143430027D01*
X73731385Y-143602167D01*
X73810611Y-143793436D01*
X73851000Y-143996484D01*
X73851000Y-144203516D01*
X73810611Y-144406564D01*
X73731385Y-144597833D01*
X73731384Y-144597835D01*
X73616365Y-144769973D01*
X73469973Y-144916365D01*
X73297835Y-145031384D01*
X73297834Y-145031385D01*
X73297833Y-145031385D01*
X73106564Y-145110611D01*
X72903516Y-145151000D01*
X72696484Y-145151000D01*
X72493436Y-145110611D01*
X72302167Y-145031385D01*
X72302166Y-145031385D01*
X72302165Y-145031384D01*
X72130027Y-144916365D01*
X71983635Y-144769973D01*
X71868616Y-144597835D01*
X71868615Y-144597833D01*
X71789389Y-144406564D01*
X71749000Y-144203516D01*
X71749000Y-143996484D01*
X71789389Y-143793436D01*
X71868615Y-143602167D01*
X71983635Y-143430027D01*
X72130027Y-143283635D01*
X72302165Y-143168616D01*
X72302167Y-143168615D01*
X72493436Y-143089389D01*
X72696484Y-143049000D01*
X72903516Y-143049000D01*
X73106564Y-143089389D01*
G37*
G36*
X84606564Y-143089389D02*
G01*
X84797833Y-143168615D01*
X84797835Y-143168616D01*
X84969973Y-143283635D01*
X85116365Y-143430027D01*
X85231385Y-143602167D01*
X85310611Y-143793436D01*
X85351000Y-143996484D01*
X85351000Y-144203516D01*
X85310611Y-144406564D01*
X85231385Y-144597833D01*
X85231384Y-144597835D01*
X85116365Y-144769973D01*
X84969973Y-144916365D01*
X84797835Y-145031384D01*
X84797834Y-145031385D01*
X84797833Y-145031385D01*
X84606564Y-145110611D01*
X84403516Y-145151000D01*
X84196484Y-145151000D01*
X83993436Y-145110611D01*
X83802167Y-145031385D01*
X83802166Y-145031385D01*
X83802165Y-145031384D01*
X83630027Y-144916365D01*
X83483635Y-144769973D01*
X83368616Y-144597835D01*
X83368615Y-144597833D01*
X83289389Y-144406564D01*
X83249000Y-144203516D01*
X83249000Y-143996484D01*
X83289389Y-143793436D01*
X83368615Y-143602167D01*
X83483635Y-143430027D01*
X83630027Y-143283635D01*
X83802165Y-143168616D01*
X83802167Y-143168615D01*
X83993436Y-143089389D01*
X84196484Y-143049000D01*
X84403516Y-143049000D01*
X84606564Y-143089389D01*
G37*
G36*
X99106564Y-143089389D02*
G01*
X99297833Y-143168615D01*
X99297835Y-143168616D01*
X99469973Y-143283635D01*
X99616365Y-143430027D01*
X99731385Y-143602167D01*
X99810611Y-143793436D01*
X99851000Y-143996484D01*
X99851000Y-144203516D01*
X99810611Y-144406564D01*
X99731385Y-144597833D01*
X99731384Y-144597835D01*
X99616365Y-144769973D01*
X99469973Y-144916365D01*
X99297835Y-145031384D01*
X99297834Y-145031385D01*
X99297833Y-145031385D01*
X99106564Y-145110611D01*
X98903516Y-145151000D01*
X98696484Y-145151000D01*
X98493436Y-145110611D01*
X98302167Y-145031385D01*
X98302166Y-145031385D01*
X98302165Y-145031384D01*
X98130027Y-144916365D01*
X97983635Y-144769973D01*
X97868616Y-144597835D01*
X97868615Y-144597833D01*
X97789389Y-144406564D01*
X97749000Y-144203516D01*
X97749000Y-143996484D01*
X97789389Y-143793436D01*
X97868615Y-143602167D01*
X97983635Y-143430027D01*
X98130027Y-143283635D01*
X98302165Y-143168616D01*
X98302167Y-143168615D01*
X98493436Y-143089389D01*
X98696484Y-143049000D01*
X98903516Y-143049000D01*
X99106564Y-143089389D01*
G37*
G36*
X255775256Y-140791298D02*
G01*
X255881579Y-140812447D01*
X256088122Y-140898000D01*
X256161814Y-140928524D01*
X256182042Y-140936903D01*
X256452451Y-141117585D01*
X256682415Y-141347549D01*
X256863097Y-141617958D01*
X256956634Y-141843775D01*
X256987553Y-141918422D01*
X257038114Y-142172605D01*
X257051000Y-142237391D01*
X257051000Y-142562609D01*
X256987553Y-142881579D01*
X256863097Y-143182042D01*
X256682415Y-143452451D01*
X256452451Y-143682415D01*
X256182042Y-143863097D01*
X255881579Y-143987553D01*
X255775256Y-144008702D01*
X255562611Y-144051000D01*
X255237389Y-144051000D01*
X255024744Y-144008702D01*
X254918421Y-143987553D01*
X254617958Y-143863097D01*
X254347549Y-143682415D01*
X254117585Y-143452451D01*
X253936903Y-143182042D01*
X253812447Y-142881579D01*
X253749000Y-142562609D01*
X253749000Y-142237391D01*
X253761887Y-142172605D01*
X253812447Y-141918422D01*
X253843367Y-141843775D01*
X253936903Y-141617958D01*
X254117585Y-141347549D01*
X254347549Y-141117585D01*
X254617958Y-140936903D01*
X254638187Y-140928524D01*
X254711878Y-140898000D01*
X254918421Y-140812447D01*
X255024744Y-140791298D01*
X255237389Y-140749000D01*
X255562611Y-140749000D01*
X255775256Y-140791298D01*
G37*
G36*
X229775256Y-140791298D02*
G01*
X229881579Y-140812447D01*
X230088122Y-140898000D01*
X230161814Y-140928524D01*
X230182042Y-140936903D01*
X230452451Y-141117585D01*
X230682415Y-141347549D01*
X230863097Y-141617958D01*
X230956634Y-141843775D01*
X230987553Y-141918422D01*
X231038114Y-142172605D01*
X231051000Y-142237391D01*
X231051000Y-142562609D01*
X230987553Y-142881579D01*
X230863097Y-143182042D01*
X230682415Y-143452451D01*
X230452451Y-143682415D01*
X230182042Y-143863097D01*
X229881579Y-143987553D01*
X229775256Y-144008702D01*
X229562611Y-144051000D01*
X229237389Y-144051000D01*
X229024744Y-144008702D01*
X228918421Y-143987553D01*
X228617958Y-143863097D01*
X228347549Y-143682415D01*
X228117585Y-143452451D01*
X227936903Y-143182042D01*
X227812447Y-142881579D01*
X227749000Y-142562609D01*
X227749000Y-142237391D01*
X227761887Y-142172605D01*
X227812447Y-141918422D01*
X227843367Y-141843775D01*
X227936903Y-141617958D01*
X228117585Y-141347549D01*
X228347549Y-141117585D01*
X228617958Y-140936903D01*
X228638187Y-140928524D01*
X228711878Y-140898000D01*
X228918421Y-140812447D01*
X229024744Y-140791298D01*
X229237389Y-140749000D01*
X229562611Y-140749000D01*
X229775256Y-140791298D01*
G37*
G36*
X250977395Y-141535546D02*
G01*
X251150466Y-141607234D01*
X251227818Y-141658919D01*
X251306227Y-141711310D01*
X251438690Y-141843773D01*
X251438691Y-141843775D01*
X251542766Y-141999534D01*
X251614454Y-142172605D01*
X251651000Y-142356333D01*
X251651000Y-142543667D01*
X251614454Y-142727395D01*
X251542766Y-142900466D01*
X251542765Y-142900467D01*
X251438690Y-143056227D01*
X251306227Y-143188690D01*
X251286307Y-143202000D01*
X251150466Y-143292766D01*
X250977395Y-143364454D01*
X250793667Y-143401000D01*
X250606333Y-143401000D01*
X250422605Y-143364454D01*
X250249534Y-143292766D01*
X250113693Y-143202000D01*
X250093773Y-143188690D01*
X249961310Y-143056227D01*
X249857235Y-142900467D01*
X249857234Y-142900466D01*
X249785546Y-142727395D01*
X249749000Y-142543667D01*
X249749000Y-142356333D01*
X249785546Y-142172605D01*
X249857234Y-141999534D01*
X249961309Y-141843775D01*
X249961310Y-141843773D01*
X250093773Y-141711310D01*
X250172182Y-141658919D01*
X250249534Y-141607234D01*
X250422605Y-141535546D01*
X250606333Y-141499000D01*
X250793667Y-141499000D01*
X250977395Y-141535546D01*
G37*
G36*
X234377395Y-141535546D02*
G01*
X234550466Y-141607234D01*
X234627818Y-141658919D01*
X234706227Y-141711310D01*
X234838690Y-141843773D01*
X234838691Y-141843775D01*
X234942766Y-141999534D01*
X235014454Y-142172605D01*
X235051000Y-142356333D01*
X235051000Y-142543667D01*
X235014454Y-142727395D01*
X234942766Y-142900466D01*
X234942765Y-142900467D01*
X234838690Y-143056227D01*
X234706227Y-143188690D01*
X234686307Y-143202000D01*
X234550466Y-143292766D01*
X234377395Y-143364454D01*
X234193667Y-143401000D01*
X234006333Y-143401000D01*
X233822605Y-143364454D01*
X233649534Y-143292766D01*
X233513693Y-143202000D01*
X233493773Y-143188690D01*
X233361310Y-143056227D01*
X233257235Y-142900467D01*
X233257234Y-142900466D01*
X233185546Y-142727395D01*
X233149000Y-142543667D01*
X233149000Y-142356333D01*
X233185546Y-142172605D01*
X233257234Y-141999534D01*
X233361309Y-141843775D01*
X233361310Y-141843773D01*
X233493773Y-141711310D01*
X233572182Y-141658919D01*
X233649534Y-141607234D01*
X233822605Y-141535546D01*
X234006333Y-141499000D01*
X234193667Y-141499000D01*
X234377395Y-141535546D01*
G37*
G36*
X115779421Y-140905097D02*
G01*
X115842806Y-140924325D01*
X115901220Y-140955548D01*
X115952427Y-140997573D01*
X115994452Y-141048780D01*
X116025675Y-141107194D01*
X116044903Y-141170579D01*
X116052000Y-141242640D01*
X116052000Y-142857360D01*
X116044903Y-142929421D01*
X116025675Y-142992806D01*
X115994452Y-143051220D01*
X115952427Y-143102427D01*
X115901220Y-143144452D01*
X115842806Y-143175675D01*
X115779421Y-143194903D01*
X115707360Y-143202000D01*
X114792640Y-143202000D01*
X114720579Y-143194903D01*
X114657194Y-143175675D01*
X114598780Y-143144452D01*
X114547573Y-143102427D01*
X114505548Y-143051220D01*
X114474325Y-142992806D01*
X114455097Y-142929421D01*
X114448000Y-142857360D01*
X114448000Y-141242640D01*
X114455097Y-141170579D01*
X114474325Y-141107194D01*
X114505548Y-141048780D01*
X114547573Y-140997573D01*
X114598780Y-140955548D01*
X114657194Y-140924325D01*
X114720579Y-140905097D01*
X114792640Y-140898000D01*
X115707360Y-140898000D01*
X115779421Y-140905097D01*
G37*
G36*
X201279421Y-140905097D02*
G01*
X201342806Y-140924325D01*
X201401220Y-140955548D01*
X201452427Y-140997573D01*
X201494452Y-141048780D01*
X201525675Y-141107194D01*
X201544903Y-141170579D01*
X201552000Y-141242640D01*
X201552000Y-142857360D01*
X201544903Y-142929421D01*
X201525675Y-142992806D01*
X201494452Y-143051220D01*
X201452427Y-143102427D01*
X201401220Y-143144452D01*
X201342806Y-143175675D01*
X201279421Y-143194903D01*
X201207360Y-143202000D01*
X200292640Y-143202000D01*
X200220579Y-143194903D01*
X200157194Y-143175675D01*
X200098780Y-143144452D01*
X200047573Y-143102427D01*
X200005548Y-143051220D01*
X199974325Y-142992806D01*
X199955097Y-142929421D01*
X199948000Y-142857360D01*
X199948000Y-141242640D01*
X199955097Y-141170579D01*
X199974325Y-141107194D01*
X200005548Y-141048780D01*
X200047573Y-140997573D01*
X200098780Y-140955548D01*
X200157194Y-140924325D01*
X200220579Y-140905097D01*
X200292640Y-140898000D01*
X201207360Y-140898000D01*
X201279421Y-140905097D01*
G37*
G36*
X161379421Y-140905097D02*
G01*
X161442806Y-140924325D01*
X161501220Y-140955548D01*
X161552427Y-140997573D01*
X161594452Y-141048780D01*
X161625675Y-141107194D01*
X161644903Y-141170579D01*
X161652000Y-141242640D01*
X161652000Y-142857360D01*
X161644903Y-142929421D01*
X161625675Y-142992806D01*
X161594452Y-143051220D01*
X161552427Y-143102427D01*
X161501220Y-143144452D01*
X161442806Y-143175675D01*
X161379421Y-143194903D01*
X161307360Y-143202000D01*
X160392640Y-143202000D01*
X160320579Y-143194903D01*
X160257194Y-143175675D01*
X160198780Y-143144452D01*
X160147573Y-143102427D01*
X160105548Y-143051220D01*
X160074325Y-142992806D01*
X160055097Y-142929421D01*
X160048000Y-142857360D01*
X160048000Y-141242640D01*
X160055097Y-141170579D01*
X160074325Y-141107194D01*
X160105548Y-141048780D01*
X160147573Y-140997573D01*
X160198780Y-140955548D01*
X160257194Y-140924325D01*
X160320579Y-140905097D01*
X160392640Y-140898000D01*
X161307360Y-140898000D01*
X161379421Y-140905097D01*
G37*
G36*
X156879421Y-140905097D02*
G01*
X156942806Y-140924325D01*
X157001220Y-140955548D01*
X157052427Y-140997573D01*
X157094452Y-141048780D01*
X157125675Y-141107194D01*
X157144903Y-141170579D01*
X157152000Y-141242640D01*
X157152000Y-142857360D01*
X157144903Y-142929421D01*
X157125675Y-142992806D01*
X157094452Y-143051220D01*
X157052427Y-143102427D01*
X157001220Y-143144452D01*
X156942806Y-143175675D01*
X156879421Y-143194903D01*
X156807360Y-143202000D01*
X155892640Y-143202000D01*
X155820579Y-143194903D01*
X155757194Y-143175675D01*
X155698780Y-143144452D01*
X155647573Y-143102427D01*
X155605548Y-143051220D01*
X155574325Y-142992806D01*
X155555097Y-142929421D01*
X155548000Y-142857360D01*
X155548000Y-141242640D01*
X155555097Y-141170579D01*
X155574325Y-141107194D01*
X155605548Y-141048780D01*
X155647573Y-140997573D01*
X155698780Y-140955548D01*
X155757194Y-140924325D01*
X155820579Y-140905097D01*
X155892640Y-140898000D01*
X156807360Y-140898000D01*
X156879421Y-140905097D01*
G37*
G36*
X147679421Y-140905097D02*
G01*
X147742806Y-140924325D01*
X147801220Y-140955548D01*
X147852427Y-140997573D01*
X147894452Y-141048780D01*
X147925675Y-141107194D01*
X147944903Y-141170579D01*
X147952000Y-141242640D01*
X147952000Y-142857360D01*
X147944903Y-142929421D01*
X147925675Y-142992806D01*
X147894452Y-143051220D01*
X147852427Y-143102427D01*
X147801220Y-143144452D01*
X147742806Y-143175675D01*
X147679421Y-143194903D01*
X147607360Y-143202000D01*
X146692640Y-143202000D01*
X146620579Y-143194903D01*
X146557194Y-143175675D01*
X146498780Y-143144452D01*
X146447573Y-143102427D01*
X146405548Y-143051220D01*
X146374325Y-142992806D01*
X146355097Y-142929421D01*
X146348000Y-142857360D01*
X146348000Y-141242640D01*
X146355097Y-141170579D01*
X146374325Y-141107194D01*
X146405548Y-141048780D01*
X146447573Y-140997573D01*
X146498780Y-140955548D01*
X146557194Y-140924325D01*
X146620579Y-140905097D01*
X146692640Y-140898000D01*
X147607360Y-140898000D01*
X147679421Y-140905097D01*
G37*
G36*
X143179421Y-140905097D02*
G01*
X143242806Y-140924325D01*
X143301220Y-140955548D01*
X143352427Y-140997573D01*
X143394452Y-141048780D01*
X143425675Y-141107194D01*
X143444903Y-141170579D01*
X143452000Y-141242640D01*
X143452000Y-142857360D01*
X143444903Y-142929421D01*
X143425675Y-142992806D01*
X143394452Y-143051220D01*
X143352427Y-143102427D01*
X143301220Y-143144452D01*
X143242806Y-143175675D01*
X143179421Y-143194903D01*
X143107360Y-143202000D01*
X142192640Y-143202000D01*
X142120579Y-143194903D01*
X142057194Y-143175675D01*
X141998780Y-143144452D01*
X141947573Y-143102427D01*
X141905548Y-143051220D01*
X141874325Y-142992806D01*
X141855097Y-142929421D01*
X141848000Y-142857360D01*
X141848000Y-141242640D01*
X141855097Y-141170579D01*
X141874325Y-141107194D01*
X141905548Y-141048780D01*
X141947573Y-140997573D01*
X141998780Y-140955548D01*
X142057194Y-140924325D01*
X142120579Y-140905097D01*
X142192640Y-140898000D01*
X143107360Y-140898000D01*
X143179421Y-140905097D01*
G37*
G36*
X133979421Y-140905097D02*
G01*
X134042806Y-140924325D01*
X134101220Y-140955548D01*
X134152427Y-140997573D01*
X134194452Y-141048780D01*
X134225675Y-141107194D01*
X134244903Y-141170579D01*
X134252000Y-141242640D01*
X134252000Y-142857360D01*
X134244903Y-142929421D01*
X134225675Y-142992806D01*
X134194452Y-143051220D01*
X134152427Y-143102427D01*
X134101220Y-143144452D01*
X134042806Y-143175675D01*
X133979421Y-143194903D01*
X133907360Y-143202000D01*
X132992640Y-143202000D01*
X132920579Y-143194903D01*
X132857194Y-143175675D01*
X132798780Y-143144452D01*
X132747573Y-143102427D01*
X132705548Y-143051220D01*
X132674325Y-142992806D01*
X132655097Y-142929421D01*
X132648000Y-142857360D01*
X132648000Y-141242640D01*
X132655097Y-141170579D01*
X132674325Y-141107194D01*
X132705548Y-141048780D01*
X132747573Y-140997573D01*
X132798780Y-140955548D01*
X132857194Y-140924325D01*
X132920579Y-140905097D01*
X132992640Y-140898000D01*
X133907360Y-140898000D01*
X133979421Y-140905097D01*
G37*
G36*
X188779421Y-140905097D02*
G01*
X188842806Y-140924325D01*
X188901220Y-140955548D01*
X188952427Y-140997573D01*
X188994452Y-141048780D01*
X189025675Y-141107194D01*
X189044903Y-141170579D01*
X189052000Y-141242640D01*
X189052000Y-142857360D01*
X189044903Y-142929421D01*
X189025675Y-142992806D01*
X188994452Y-143051220D01*
X188952427Y-143102427D01*
X188901220Y-143144452D01*
X188842806Y-143175675D01*
X188779421Y-143194903D01*
X188707360Y-143202000D01*
X187792640Y-143202000D01*
X187720579Y-143194903D01*
X187657194Y-143175675D01*
X187598780Y-143144452D01*
X187547573Y-143102427D01*
X187505548Y-143051220D01*
X187474325Y-142992806D01*
X187455097Y-142929421D01*
X187448000Y-142857360D01*
X187448000Y-141242640D01*
X187455097Y-141170579D01*
X187474325Y-141107194D01*
X187505548Y-141048780D01*
X187547573Y-140997573D01*
X187598780Y-140955548D01*
X187657194Y-140924325D01*
X187720579Y-140905097D01*
X187792640Y-140898000D01*
X188707360Y-140898000D01*
X188779421Y-140905097D01*
G37*
G36*
X129479421Y-140905097D02*
G01*
X129542806Y-140924325D01*
X129601220Y-140955548D01*
X129652427Y-140997573D01*
X129694452Y-141048780D01*
X129725675Y-141107194D01*
X129744903Y-141170579D01*
X129752000Y-141242640D01*
X129752000Y-142857360D01*
X129744903Y-142929421D01*
X129725675Y-142992806D01*
X129694452Y-143051220D01*
X129652427Y-143102427D01*
X129601220Y-143144452D01*
X129542806Y-143175675D01*
X129479421Y-143194903D01*
X129407360Y-143202000D01*
X128492640Y-143202000D01*
X128420579Y-143194903D01*
X128357194Y-143175675D01*
X128298780Y-143144452D01*
X128247573Y-143102427D01*
X128205548Y-143051220D01*
X128174325Y-142992806D01*
X128155097Y-142929421D01*
X128148000Y-142857360D01*
X128148000Y-141242640D01*
X128155097Y-141170579D01*
X128174325Y-141107194D01*
X128205548Y-141048780D01*
X128247573Y-140997573D01*
X128298780Y-140955548D01*
X128357194Y-140924325D01*
X128420579Y-140905097D01*
X128492640Y-140898000D01*
X129407360Y-140898000D01*
X129479421Y-140905097D01*
G37*
G36*
X120279421Y-140905097D02*
G01*
X120342806Y-140924325D01*
X120401220Y-140955548D01*
X120452427Y-140997573D01*
X120494452Y-141048780D01*
X120525675Y-141107194D01*
X120544903Y-141170579D01*
X120552000Y-141242640D01*
X120552000Y-142857360D01*
X120544903Y-142929421D01*
X120525675Y-142992806D01*
X120494452Y-143051220D01*
X120452427Y-143102427D01*
X120401220Y-143144452D01*
X120342806Y-143175675D01*
X120279421Y-143194903D01*
X120207360Y-143202000D01*
X119292640Y-143202000D01*
X119220579Y-143194903D01*
X119157194Y-143175675D01*
X119098780Y-143144452D01*
X119047573Y-143102427D01*
X119005548Y-143051220D01*
X118974325Y-142992806D01*
X118955097Y-142929421D01*
X118948000Y-142857360D01*
X118948000Y-141242640D01*
X118955097Y-141170579D01*
X118974325Y-141107194D01*
X119005548Y-141048780D01*
X119047573Y-140997573D01*
X119098780Y-140955548D01*
X119157194Y-140924325D01*
X119220579Y-140905097D01*
X119292640Y-140898000D01*
X120207360Y-140898000D01*
X120279421Y-140905097D01*
G37*
G36*
X196779421Y-140905097D02*
G01*
X196842806Y-140924325D01*
X196901220Y-140955548D01*
X196952427Y-140997573D01*
X196994452Y-141048780D01*
X197025675Y-141107194D01*
X197044903Y-141170579D01*
X197052000Y-141242640D01*
X197052000Y-142857360D01*
X197044903Y-142929421D01*
X197025675Y-142992806D01*
X196994452Y-143051220D01*
X196952427Y-143102427D01*
X196901220Y-143144452D01*
X196842806Y-143175675D01*
X196779421Y-143194903D01*
X196707360Y-143202000D01*
X195792640Y-143202000D01*
X195720579Y-143194903D01*
X195657194Y-143175675D01*
X195598780Y-143144452D01*
X195547573Y-143102427D01*
X195505548Y-143051220D01*
X195474325Y-142992806D01*
X195455097Y-142929421D01*
X195448000Y-142857360D01*
X195448000Y-141242640D01*
X195455097Y-141170579D01*
X195474325Y-141107194D01*
X195505548Y-141048780D01*
X195547573Y-140997573D01*
X195598780Y-140955548D01*
X195657194Y-140924325D01*
X195720579Y-140905097D01*
X195792640Y-140898000D01*
X196707360Y-140898000D01*
X196779421Y-140905097D01*
G37*
G36*
X175079421Y-140905097D02*
G01*
X175142806Y-140924325D01*
X175201220Y-140955548D01*
X175252427Y-140997573D01*
X175294452Y-141048780D01*
X175325675Y-141107194D01*
X175344903Y-141170579D01*
X175352000Y-141242640D01*
X175352000Y-142857360D01*
X175344903Y-142929421D01*
X175325675Y-142992806D01*
X175294452Y-143051220D01*
X175252427Y-143102427D01*
X175201220Y-143144452D01*
X175142806Y-143175675D01*
X175079421Y-143194903D01*
X175007360Y-143202000D01*
X174092640Y-143202000D01*
X174020579Y-143194903D01*
X173957194Y-143175675D01*
X173898780Y-143144452D01*
X173847573Y-143102427D01*
X173805548Y-143051220D01*
X173774325Y-142992806D01*
X173755097Y-142929421D01*
X173748000Y-142857360D01*
X173748000Y-141242640D01*
X173755097Y-141170579D01*
X173774325Y-141107194D01*
X173805548Y-141048780D01*
X173847573Y-140997573D01*
X173898780Y-140955548D01*
X173957194Y-140924325D01*
X174020579Y-140905097D01*
X174092640Y-140898000D01*
X175007360Y-140898000D01*
X175079421Y-140905097D01*
G37*
G36*
X170579421Y-140905097D02*
G01*
X170642806Y-140924325D01*
X170701220Y-140955548D01*
X170752427Y-140997573D01*
X170794452Y-141048780D01*
X170825675Y-141107194D01*
X170844903Y-141170579D01*
X170852000Y-141242640D01*
X170852000Y-142857360D01*
X170844903Y-142929421D01*
X170825675Y-142992806D01*
X170794452Y-143051220D01*
X170752427Y-143102427D01*
X170701220Y-143144452D01*
X170642806Y-143175675D01*
X170579421Y-143194903D01*
X170507360Y-143202000D01*
X169592640Y-143202000D01*
X169520579Y-143194903D01*
X169457194Y-143175675D01*
X169398780Y-143144452D01*
X169347573Y-143102427D01*
X169305548Y-143051220D01*
X169274325Y-142992806D01*
X169255097Y-142929421D01*
X169248000Y-142857360D01*
X169248000Y-141242640D01*
X169255097Y-141170579D01*
X169274325Y-141107194D01*
X169305548Y-141048780D01*
X169347573Y-140997573D01*
X169398780Y-140955548D01*
X169457194Y-140924325D01*
X169520579Y-140905097D01*
X169592640Y-140898000D01*
X170507360Y-140898000D01*
X170579421Y-140905097D01*
G37*
G36*
X184279421Y-140905097D02*
G01*
X184342806Y-140924325D01*
X184401220Y-140955548D01*
X184452427Y-140997573D01*
X184494452Y-141048780D01*
X184525675Y-141107194D01*
X184544903Y-141170579D01*
X184552000Y-141242640D01*
X184552000Y-142857360D01*
X184544903Y-142929421D01*
X184525675Y-142992806D01*
X184494452Y-143051220D01*
X184452427Y-143102427D01*
X184401220Y-143144452D01*
X184342806Y-143175675D01*
X184279421Y-143194903D01*
X184207360Y-143202000D01*
X183292640Y-143202000D01*
X183220579Y-143194903D01*
X183157194Y-143175675D01*
X183098780Y-143144452D01*
X183047573Y-143102427D01*
X183005548Y-143051220D01*
X182974325Y-142992806D01*
X182955097Y-142929421D01*
X182948000Y-142857360D01*
X182948000Y-141242640D01*
X182955097Y-141170579D01*
X182974325Y-141107194D01*
X183005548Y-141048780D01*
X183047573Y-140997573D01*
X183098780Y-140955548D01*
X183157194Y-140924325D01*
X183220579Y-140905097D01*
X183292640Y-140898000D01*
X184207360Y-140898000D01*
X184279421Y-140905097D01*
G37*
G36*
X92951000Y-142051000D02*
G01*
X89649000Y-142051000D01*
X89649000Y-139949000D01*
X92951000Y-139949000D01*
X92951000Y-142051000D01*
G37*
G36*
X66951000Y-142051000D02*
G01*
X63649000Y-142051000D01*
X63649000Y-139949000D01*
X66951000Y-139949000D01*
X66951000Y-142051000D01*
G37*
G36*
X40951000Y-142051000D02*
G01*
X37649000Y-142051000D01*
X37649000Y-139949000D01*
X40951000Y-139949000D01*
X40951000Y-142051000D01*
G37*
G36*
X220013512Y-137623927D02*
G01*
X220162812Y-137653624D01*
X220326784Y-137721544D01*
X220474354Y-137820147D01*
X220599853Y-137945646D01*
X220698456Y-138093216D01*
X220766376Y-138257188D01*
X220801000Y-138431259D01*
X220801000Y-138608741D01*
X220766376Y-138782812D01*
X220698456Y-138946784D01*
X220599853Y-139094354D01*
X220474354Y-139219853D01*
X220326784Y-139318456D01*
X220162812Y-139386376D01*
X220013512Y-139416073D01*
X219988742Y-139421000D01*
X219811258Y-139421000D01*
X219786488Y-139416073D01*
X219637188Y-139386376D01*
X219473216Y-139318456D01*
X219325646Y-139219853D01*
X219200147Y-139094354D01*
X219101544Y-138946784D01*
X219033624Y-138782812D01*
X218999000Y-138608741D01*
X218999000Y-138431259D01*
X219033624Y-138257188D01*
X219101544Y-138093216D01*
X219200147Y-137945646D01*
X219325646Y-137820147D01*
X219473216Y-137721544D01*
X219637188Y-137653624D01*
X219786488Y-137623927D01*
X219811258Y-137619000D01*
X219988742Y-137619000D01*
X220013512Y-137623927D01*
G37*
G36*
X220013512Y-135083927D02*
G01*
X220162812Y-135113624D01*
X220326784Y-135181544D01*
X220474354Y-135280147D01*
X220599853Y-135405646D01*
X220698456Y-135553216D01*
X220766376Y-135717188D01*
X220801000Y-135891259D01*
X220801000Y-136068741D01*
X220766376Y-136242812D01*
X220698456Y-136406784D01*
X220599853Y-136554354D01*
X220474354Y-136679853D01*
X220326784Y-136778456D01*
X220162812Y-136846376D01*
X220013512Y-136876073D01*
X219988742Y-136881000D01*
X219811258Y-136881000D01*
X219786488Y-136876073D01*
X219637188Y-136846376D01*
X219473216Y-136778456D01*
X219325646Y-136679853D01*
X219200147Y-136554354D01*
X219101544Y-136406784D01*
X219033624Y-136242812D01*
X218999000Y-136068741D01*
X218999000Y-135891259D01*
X219033624Y-135717188D01*
X219101544Y-135553216D01*
X219200147Y-135405646D01*
X219325646Y-135280147D01*
X219473216Y-135181544D01*
X219637188Y-135113624D01*
X219786488Y-135083927D01*
X219811258Y-135079000D01*
X219988742Y-135079000D01*
X220013512Y-135083927D01*
G37*
G36*
X220013512Y-132543927D02*
G01*
X220162812Y-132573624D01*
X220326784Y-132641544D01*
X220474354Y-132740147D01*
X220599853Y-132865646D01*
X220698456Y-133013216D01*
X220766376Y-133177188D01*
X220801000Y-133351259D01*
X220801000Y-133528741D01*
X220766376Y-133702812D01*
X220698456Y-133866784D01*
X220599853Y-134014354D01*
X220474354Y-134139853D01*
X220326784Y-134238456D01*
X220162812Y-134306376D01*
X220013512Y-134336073D01*
X219988742Y-134341000D01*
X219811258Y-134341000D01*
X219786488Y-134336073D01*
X219637188Y-134306376D01*
X219473216Y-134238456D01*
X219325646Y-134139853D01*
X219200147Y-134014354D01*
X219101544Y-133866784D01*
X219033624Y-133702812D01*
X218999000Y-133528741D01*
X218999000Y-133351259D01*
X219033624Y-133177188D01*
X219101544Y-133013216D01*
X219200147Y-132865646D01*
X219325646Y-132740147D01*
X219473216Y-132641544D01*
X219637188Y-132573624D01*
X219786488Y-132543927D01*
X219811258Y-132539000D01*
X219988742Y-132539000D01*
X220013512Y-132543927D01*
G37*
G36*
X220801000Y-131801000D02*
G01*
X218999000Y-131801000D01*
X218999000Y-129999000D01*
X220801000Y-129999000D01*
X220801000Y-131801000D01*
G37*
G36*
X234377395Y-126435546D02*
G01*
X234550466Y-126507234D01*
X234550467Y-126507235D01*
X234706227Y-126611310D01*
X234838690Y-126743773D01*
X234838691Y-126743775D01*
X234942766Y-126899534D01*
X235014454Y-127072605D01*
X235051000Y-127256333D01*
X235051000Y-127443667D01*
X235014454Y-127627395D01*
X234942766Y-127800466D01*
X234942765Y-127800467D01*
X234838690Y-127956227D01*
X234706227Y-128088690D01*
X234627818Y-128141081D01*
X234550466Y-128192766D01*
X234377395Y-128264454D01*
X234193667Y-128301000D01*
X234006333Y-128301000D01*
X233822605Y-128264454D01*
X233649534Y-128192766D01*
X233572182Y-128141081D01*
X233493773Y-128088690D01*
X233361310Y-127956227D01*
X233257235Y-127800467D01*
X233257234Y-127800466D01*
X233185546Y-127627395D01*
X233149000Y-127443667D01*
X233149000Y-127256333D01*
X233185546Y-127072605D01*
X233257234Y-126899534D01*
X233361309Y-126743775D01*
X233361310Y-126743773D01*
X233493773Y-126611310D01*
X233649533Y-126507235D01*
X233649534Y-126507234D01*
X233822605Y-126435546D01*
X234006333Y-126399000D01*
X234193667Y-126399000D01*
X234377395Y-126435546D01*
G37*
G36*
X250977395Y-126435546D02*
G01*
X251150466Y-126507234D01*
X251150467Y-126507235D01*
X251306227Y-126611310D01*
X251438690Y-126743773D01*
X251438691Y-126743775D01*
X251542766Y-126899534D01*
X251614454Y-127072605D01*
X251651000Y-127256333D01*
X251651000Y-127443667D01*
X251614454Y-127627395D01*
X251542766Y-127800466D01*
X251542765Y-127800467D01*
X251438690Y-127956227D01*
X251306227Y-128088690D01*
X251227818Y-128141081D01*
X251150466Y-128192766D01*
X250977395Y-128264454D01*
X250793667Y-128301000D01*
X250606333Y-128301000D01*
X250422605Y-128264454D01*
X250249534Y-128192766D01*
X250172182Y-128141081D01*
X250093773Y-128088690D01*
X249961310Y-127956227D01*
X249857235Y-127800467D01*
X249857234Y-127800466D01*
X249785546Y-127627395D01*
X249749000Y-127443667D01*
X249749000Y-127256333D01*
X249785546Y-127072605D01*
X249857234Y-126899534D01*
X249961309Y-126743775D01*
X249961310Y-126743773D01*
X250093773Y-126611310D01*
X250249533Y-126507235D01*
X250249534Y-126507234D01*
X250422605Y-126435546D01*
X250606333Y-126399000D01*
X250793667Y-126399000D01*
X250977395Y-126435546D01*
G37*
G36*
X22753097Y-124954069D02*
G01*
X22856032Y-124964207D01*
X23054146Y-125024305D01*
X23054149Y-125024306D01*
X23150975Y-125076061D01*
X23236729Y-125121897D01*
X23396765Y-125253235D01*
X23528103Y-125413271D01*
X23573939Y-125499025D01*
X23625694Y-125595851D01*
X23625695Y-125595854D01*
X23685793Y-125793968D01*
X23706085Y-126000000D01*
X23685793Y-126206032D01*
X23627256Y-126399000D01*
X23625694Y-126404149D01*
X23608911Y-126435547D01*
X23528103Y-126586729D01*
X23396765Y-126746765D01*
X23236729Y-126878103D01*
X23196634Y-126899534D01*
X23054149Y-126975694D01*
X23054146Y-126975695D01*
X22856032Y-127035793D01*
X22753097Y-127045931D01*
X22701631Y-127051000D01*
X21098369Y-127051000D01*
X21046903Y-127045931D01*
X20943968Y-127035793D01*
X20745854Y-126975695D01*
X20745851Y-126975694D01*
X20603366Y-126899534D01*
X20563271Y-126878103D01*
X20403235Y-126746765D01*
X20271897Y-126586729D01*
X20191089Y-126435547D01*
X20174306Y-126404149D01*
X20172744Y-126399000D01*
X20114207Y-126206032D01*
X20093915Y-126000000D01*
X20114207Y-125793968D01*
X20174305Y-125595854D01*
X20174306Y-125595851D01*
X20226061Y-125499025D01*
X20271897Y-125413271D01*
X20403235Y-125253235D01*
X20563271Y-125121897D01*
X20649025Y-125076061D01*
X20745851Y-125024306D01*
X20745854Y-125024305D01*
X20943968Y-124964207D01*
X21046903Y-124954069D01*
X21098369Y-124949000D01*
X22701631Y-124949000D01*
X22753097Y-124954069D01*
G37*
G36*
X29951000Y-123551000D02*
G01*
X27849000Y-123551000D01*
X27849000Y-119449000D01*
X29951000Y-119449000D01*
X29951000Y-123551000D01*
G37*
G36*
X23106031Y-119814207D02*
G01*
X23304145Y-119874305D01*
X23304148Y-119874306D01*
X23370030Y-119909521D01*
X23486729Y-119971897D01*
X23646765Y-120103235D01*
X23778103Y-120263271D01*
X23778104Y-120263273D01*
X23875694Y-120445851D01*
X23875694Y-120445852D01*
X23875695Y-120445854D01*
X23935793Y-120643968D01*
X23951000Y-120798370D01*
X23951000Y-122201630D01*
X23935793Y-122356032D01*
X23875695Y-122554146D01*
X23875694Y-122554149D01*
X23823939Y-122650975D01*
X23778103Y-122736729D01*
X23646765Y-122896765D01*
X23486729Y-123028103D01*
X23400975Y-123073939D01*
X23304149Y-123125694D01*
X23304146Y-123125695D01*
X23106032Y-123185793D01*
X22900000Y-123206085D01*
X22693969Y-123185793D01*
X22495855Y-123125695D01*
X22495852Y-123125694D01*
X22399026Y-123073939D01*
X22313272Y-123028103D01*
X22153236Y-122896765D01*
X22021898Y-122736729D01*
X21999184Y-122694235D01*
X21924305Y-122554147D01*
X21864207Y-122356030D01*
X21849000Y-122201631D01*
X21849000Y-120798370D01*
X21860457Y-120682042D01*
X21864207Y-120643969D01*
X21924305Y-120445855D01*
X21924306Y-120445852D01*
X21959521Y-120379970D01*
X22021897Y-120263271D01*
X22153235Y-120103235D01*
X22313271Y-119971897D01*
X22399025Y-119926061D01*
X22495851Y-119874306D01*
X22495854Y-119874305D01*
X22693968Y-119814207D01*
X22900000Y-119793915D01*
X23106031Y-119814207D01*
G37*
G36*
X20148228Y-120681703D02*
G01*
X20303100Y-120745853D01*
X20442481Y-120838985D01*
X20561015Y-120957519D01*
X20654147Y-121096900D01*
X20718297Y-121251772D01*
X20751000Y-121416184D01*
X20751000Y-121583816D01*
X20718297Y-121748228D01*
X20654147Y-121903100D01*
X20561015Y-122042481D01*
X20442481Y-122161015D01*
X20303100Y-122254147D01*
X20148228Y-122318297D01*
X19983816Y-122351000D01*
X19816184Y-122351000D01*
X19651772Y-122318297D01*
X19496900Y-122254147D01*
X19357519Y-122161015D01*
X19238985Y-122042481D01*
X19145853Y-121903100D01*
X19081703Y-121748228D01*
X19049000Y-121583816D01*
X19049000Y-121416184D01*
X19081703Y-121251772D01*
X19145853Y-121096900D01*
X19238985Y-120957519D01*
X19357519Y-120838985D01*
X19496900Y-120745853D01*
X19651772Y-120681703D01*
X19816184Y-120649000D01*
X19983816Y-120649000D01*
X20148228Y-120681703D01*
G37*
G36*
X242775256Y-118291298D02*
G01*
X242881579Y-118312447D01*
X243182042Y-118436903D01*
X243452451Y-118617585D01*
X243682415Y-118847549D01*
X243863097Y-119117958D01*
X243987553Y-119418421D01*
X244008702Y-119524744D01*
X244051000Y-119737389D01*
X244051000Y-120062611D01*
X244008702Y-120275256D01*
X243987553Y-120381579D01*
X243960930Y-120445852D01*
X243863238Y-120681703D01*
X243863097Y-120682042D01*
X243682415Y-120952451D01*
X243452451Y-121182415D01*
X243182042Y-121363097D01*
X242881579Y-121487553D01*
X242775256Y-121508702D01*
X242562611Y-121551000D01*
X242237389Y-121551000D01*
X242024744Y-121508702D01*
X241918421Y-121487553D01*
X241617958Y-121363097D01*
X241347549Y-121182415D01*
X241117585Y-120952451D01*
X240936903Y-120682042D01*
X240936763Y-120681703D01*
X240839070Y-120445852D01*
X240812447Y-120381579D01*
X240791298Y-120275256D01*
X240749000Y-120062611D01*
X240749000Y-119737389D01*
X240791298Y-119524744D01*
X240812447Y-119418421D01*
X240936903Y-119117958D01*
X241117585Y-118847549D01*
X241347549Y-118617585D01*
X241617958Y-118436903D01*
X241918421Y-118312447D01*
X242024744Y-118291298D01*
X242237389Y-118249000D01*
X242562611Y-118249000D01*
X242775256Y-118291298D01*
G37*
G36*
X22753097Y-115954069D02*
G01*
X22856032Y-115964207D01*
X23054146Y-116024305D01*
X23054149Y-116024306D01*
X23150975Y-116076061D01*
X23236729Y-116121897D01*
X23396765Y-116253235D01*
X23528103Y-116413271D01*
X23573939Y-116499025D01*
X23625694Y-116595851D01*
X23625695Y-116595854D01*
X23685793Y-116793968D01*
X23706085Y-117000000D01*
X23685793Y-117206032D01*
X23625695Y-117404146D01*
X23625694Y-117404149D01*
X23599877Y-117452449D01*
X23528103Y-117586729D01*
X23396765Y-117746765D01*
X23236729Y-117878103D01*
X23150975Y-117923939D01*
X23054149Y-117975694D01*
X23054146Y-117975695D01*
X22856032Y-118035793D01*
X22753097Y-118045931D01*
X22701631Y-118051000D01*
X21098369Y-118051000D01*
X21046903Y-118045931D01*
X20943968Y-118035793D01*
X20745854Y-117975695D01*
X20745851Y-117975694D01*
X20649025Y-117923939D01*
X20563271Y-117878103D01*
X20403235Y-117746765D01*
X20271897Y-117586729D01*
X20200123Y-117452449D01*
X20174306Y-117404149D01*
X20174305Y-117404146D01*
X20114207Y-117206032D01*
X20093915Y-117000000D01*
X20114207Y-116793968D01*
X20174305Y-116595854D01*
X20174306Y-116595851D01*
X20226061Y-116499025D01*
X20271897Y-116413271D01*
X20403235Y-116253235D01*
X20563271Y-116121897D01*
X20649025Y-116076061D01*
X20745851Y-116024306D01*
X20745854Y-116024305D01*
X20943968Y-115964207D01*
X21046903Y-115954069D01*
X21098369Y-115949000D01*
X22701631Y-115949000D01*
X22753097Y-115954069D01*
G37*
G36*
X66975256Y-114791298D02*
G01*
X67081579Y-114812447D01*
X67382042Y-114936903D01*
X67652451Y-115117585D01*
X67882415Y-115347549D01*
X68063097Y-115617958D01*
X68187553Y-115918421D01*
X68196660Y-115964207D01*
X68251000Y-116237389D01*
X68251000Y-116562611D01*
X68208702Y-116775256D01*
X68187553Y-116881579D01*
X68063097Y-117182042D01*
X67882415Y-117452451D01*
X67652451Y-117682415D01*
X67382042Y-117863097D01*
X67382041Y-117863098D01*
X67382040Y-117863098D01*
X67294037Y-117899550D01*
X67081579Y-117987553D01*
X66975256Y-118008702D01*
X66762611Y-118051000D01*
X66437389Y-118051000D01*
X66224744Y-118008702D01*
X66118421Y-117987553D01*
X65905963Y-117899550D01*
X65817960Y-117863098D01*
X65817959Y-117863098D01*
X65817958Y-117863097D01*
X65547549Y-117682415D01*
X65317585Y-117452451D01*
X65136903Y-117182042D01*
X65012447Y-116881579D01*
X64991298Y-116775256D01*
X64949000Y-116562611D01*
X64949000Y-116237389D01*
X65003340Y-115964207D01*
X65012447Y-115918421D01*
X65136903Y-115617958D01*
X65317585Y-115347549D01*
X65547549Y-115117585D01*
X65817958Y-114936903D01*
X66118421Y-114812447D01*
X66224744Y-114791298D01*
X66437389Y-114749000D01*
X66762611Y-114749000D01*
X66975256Y-114791298D01*
G37*
G36*
X193175256Y-114791298D02*
G01*
X193281579Y-114812447D01*
X193582042Y-114936903D01*
X193852451Y-115117585D01*
X194082415Y-115347549D01*
X194263097Y-115617958D01*
X194387553Y-115918421D01*
X194396660Y-115964207D01*
X194451000Y-116237389D01*
X194451000Y-116562611D01*
X194408702Y-116775256D01*
X194387553Y-116881579D01*
X194263097Y-117182042D01*
X194082415Y-117452451D01*
X193852451Y-117682415D01*
X193582042Y-117863097D01*
X193582041Y-117863098D01*
X193582040Y-117863098D01*
X193494037Y-117899550D01*
X193281579Y-117987553D01*
X193175256Y-118008702D01*
X192962611Y-118051000D01*
X192637389Y-118051000D01*
X192424744Y-118008702D01*
X192318421Y-117987553D01*
X192105963Y-117899550D01*
X192017960Y-117863098D01*
X192017959Y-117863098D01*
X192017958Y-117863097D01*
X191747549Y-117682415D01*
X191517585Y-117452451D01*
X191336903Y-117182042D01*
X191212447Y-116881579D01*
X191191298Y-116775256D01*
X191149000Y-116562611D01*
X191149000Y-116237389D01*
X191203340Y-115964207D01*
X191212447Y-115918421D01*
X191336903Y-115617958D01*
X191517585Y-115347549D01*
X191747549Y-115117585D01*
X192017958Y-114936903D01*
X192318421Y-114812447D01*
X192424744Y-114791298D01*
X192637389Y-114749000D01*
X192962611Y-114749000D01*
X193175256Y-114791298D01*
G37*
G36*
X23113512Y-108323927D02*
G01*
X23262812Y-108353624D01*
X23426784Y-108421544D01*
X23574354Y-108520147D01*
X23699853Y-108645646D01*
X23798456Y-108793216D01*
X23866376Y-108957188D01*
X23901000Y-109131259D01*
X23901000Y-109308741D01*
X23866376Y-109482812D01*
X23798456Y-109646784D01*
X23699853Y-109794354D01*
X23574354Y-109919853D01*
X23426784Y-110018456D01*
X23262812Y-110086376D01*
X23113512Y-110116073D01*
X23088742Y-110121000D01*
X22911258Y-110121000D01*
X22886488Y-110116073D01*
X22737188Y-110086376D01*
X22573216Y-110018456D01*
X22425646Y-109919853D01*
X22300147Y-109794354D01*
X22201544Y-109646784D01*
X22133624Y-109482812D01*
X22099000Y-109308741D01*
X22099000Y-109131259D01*
X22133624Y-108957188D01*
X22201544Y-108793216D01*
X22300147Y-108645646D01*
X22425646Y-108520147D01*
X22573216Y-108421544D01*
X22737188Y-108353624D01*
X22886488Y-108323927D01*
X22911258Y-108319000D01*
X23088742Y-108319000D01*
X23113512Y-108323927D01*
G37*
G36*
X258229421Y-108355097D02*
G01*
X258292806Y-108374325D01*
X258351220Y-108405548D01*
X258402427Y-108447573D01*
X258444452Y-108498780D01*
X258475675Y-108557194D01*
X258494903Y-108620579D01*
X258502000Y-108692640D01*
X258502000Y-109607360D01*
X258494903Y-109679421D01*
X258475675Y-109742806D01*
X258444452Y-109801220D01*
X258402427Y-109852427D01*
X258351220Y-109894452D01*
X258292806Y-109925675D01*
X258229421Y-109944903D01*
X258157360Y-109952000D01*
X256542640Y-109952000D01*
X256470579Y-109944903D01*
X256407194Y-109925675D01*
X256348780Y-109894452D01*
X256297573Y-109852427D01*
X256255548Y-109801220D01*
X256224325Y-109742806D01*
X256205097Y-109679421D01*
X256198000Y-109607360D01*
X256198000Y-108692640D01*
X256205097Y-108620579D01*
X256224325Y-108557194D01*
X256255548Y-108498780D01*
X256297573Y-108447573D01*
X256348780Y-108405548D01*
X256407194Y-108374325D01*
X256470579Y-108355097D01*
X256542640Y-108348000D01*
X258157360Y-108348000D01*
X258229421Y-108355097D01*
G37*
G36*
X249129421Y-108355097D02*
G01*
X249192806Y-108374325D01*
X249251220Y-108405548D01*
X249302427Y-108447573D01*
X249344452Y-108498780D01*
X249375675Y-108557194D01*
X249394903Y-108620579D01*
X249402000Y-108692640D01*
X249402000Y-109607360D01*
X249394903Y-109679421D01*
X249375675Y-109742806D01*
X249344452Y-109801220D01*
X249302427Y-109852427D01*
X249251220Y-109894452D01*
X249192806Y-109925675D01*
X249129421Y-109944903D01*
X249057360Y-109952000D01*
X247442640Y-109952000D01*
X247370579Y-109944903D01*
X247307194Y-109925675D01*
X247248780Y-109894452D01*
X247197573Y-109852427D01*
X247155548Y-109801220D01*
X247124325Y-109742806D01*
X247105097Y-109679421D01*
X247098000Y-109607360D01*
X247098000Y-108692640D01*
X247105097Y-108620579D01*
X247124325Y-108557194D01*
X247155548Y-108498780D01*
X247197573Y-108447573D01*
X247248780Y-108405548D01*
X247307194Y-108374325D01*
X247370579Y-108355097D01*
X247442640Y-108348000D01*
X249057360Y-108348000D01*
X249129421Y-108355097D01*
G37*
G36*
X230629421Y-108355097D02*
G01*
X230692806Y-108374325D01*
X230751220Y-108405548D01*
X230802427Y-108447573D01*
X230844452Y-108498780D01*
X230875675Y-108557194D01*
X230894903Y-108620579D01*
X230902000Y-108692640D01*
X230902000Y-109607360D01*
X230894903Y-109679421D01*
X230875675Y-109742806D01*
X230844452Y-109801220D01*
X230802427Y-109852427D01*
X230751220Y-109894452D01*
X230692806Y-109925675D01*
X230629421Y-109944903D01*
X230557360Y-109952000D01*
X228942640Y-109952000D01*
X228870579Y-109944903D01*
X228807194Y-109925675D01*
X228748780Y-109894452D01*
X228697573Y-109852427D01*
X228655548Y-109801220D01*
X228624325Y-109742806D01*
X228605097Y-109679421D01*
X228598000Y-109607360D01*
X228598000Y-108692640D01*
X228605097Y-108620579D01*
X228624325Y-108557194D01*
X228655548Y-108498780D01*
X228697573Y-108447573D01*
X228748780Y-108405548D01*
X228807194Y-108374325D01*
X228870579Y-108355097D01*
X228942640Y-108348000D01*
X230557360Y-108348000D01*
X230629421Y-108355097D01*
G37*
G36*
X239729421Y-108355097D02*
G01*
X239792806Y-108374325D01*
X239851220Y-108405548D01*
X239902427Y-108447573D01*
X239944452Y-108498780D01*
X239975675Y-108557194D01*
X239994903Y-108620579D01*
X240002000Y-108692640D01*
X240002000Y-109607360D01*
X239994903Y-109679421D01*
X239975675Y-109742806D01*
X239944452Y-109801220D01*
X239902427Y-109852427D01*
X239851220Y-109894452D01*
X239792806Y-109925675D01*
X239729421Y-109944903D01*
X239657360Y-109952000D01*
X238042640Y-109952000D01*
X237970579Y-109944903D01*
X237907194Y-109925675D01*
X237848780Y-109894452D01*
X237797573Y-109852427D01*
X237755548Y-109801220D01*
X237724325Y-109742806D01*
X237705097Y-109679421D01*
X237698000Y-109607360D01*
X237698000Y-108692640D01*
X237705097Y-108620579D01*
X237724325Y-108557194D01*
X237755548Y-108498780D01*
X237797573Y-108447573D01*
X237848780Y-108405548D01*
X237907194Y-108374325D01*
X237970579Y-108355097D01*
X238042640Y-108348000D01*
X239657360Y-108348000D01*
X239729421Y-108355097D01*
G37*
G36*
X23113512Y-105783927D02*
G01*
X23262812Y-105813624D01*
X23426784Y-105881544D01*
X23574354Y-105980147D01*
X23699853Y-106105646D01*
X23798456Y-106253216D01*
X23866376Y-106417188D01*
X23901000Y-106591259D01*
X23901000Y-106768741D01*
X23866376Y-106942812D01*
X23798456Y-107106784D01*
X23699853Y-107254354D01*
X23574354Y-107379853D01*
X23426784Y-107478456D01*
X23262812Y-107546376D01*
X23113512Y-107576073D01*
X23088742Y-107581000D01*
X22911258Y-107581000D01*
X22886488Y-107576073D01*
X22737188Y-107546376D01*
X22573216Y-107478456D01*
X22425646Y-107379853D01*
X22300147Y-107254354D01*
X22201544Y-107106784D01*
X22133624Y-106942812D01*
X22099000Y-106768741D01*
X22099000Y-106591259D01*
X22133624Y-106417188D01*
X22201544Y-106253216D01*
X22300147Y-106105646D01*
X22425646Y-105980147D01*
X22573216Y-105881544D01*
X22737188Y-105813624D01*
X22886488Y-105783927D01*
X22911258Y-105779000D01*
X23088742Y-105779000D01*
X23113512Y-105783927D01*
G37*
G36*
X230629421Y-103855097D02*
G01*
X230692806Y-103874325D01*
X230751220Y-103905548D01*
X230802427Y-103947573D01*
X230844452Y-103998780D01*
X230875675Y-104057194D01*
X230894903Y-104120579D01*
X230902000Y-104192640D01*
X230902000Y-105107360D01*
X230894903Y-105179421D01*
X230875675Y-105242806D01*
X230844452Y-105301220D01*
X230802427Y-105352427D01*
X230751220Y-105394452D01*
X230692806Y-105425675D01*
X230629421Y-105444903D01*
X230557360Y-105452000D01*
X228942640Y-105452000D01*
X228870579Y-105444903D01*
X228807194Y-105425675D01*
X228748780Y-105394452D01*
X228697573Y-105352427D01*
X228655548Y-105301220D01*
X228624325Y-105242806D01*
X228605097Y-105179421D01*
X228598000Y-105107360D01*
X228598000Y-104192640D01*
X228605097Y-104120579D01*
X228624325Y-104057194D01*
X228655548Y-103998780D01*
X228697573Y-103947573D01*
X228748780Y-103905548D01*
X228807194Y-103874325D01*
X228870579Y-103855097D01*
X228942640Y-103848000D01*
X230557360Y-103848000D01*
X230629421Y-103855097D01*
G37*
G36*
X258229421Y-103855097D02*
G01*
X258292806Y-103874325D01*
X258351220Y-103905548D01*
X258402427Y-103947573D01*
X258444452Y-103998780D01*
X258475675Y-104057194D01*
X258494903Y-104120579D01*
X258502000Y-104192640D01*
X258502000Y-105107360D01*
X258494903Y-105179421D01*
X258475675Y-105242806D01*
X258444452Y-105301220D01*
X258402427Y-105352427D01*
X258351220Y-105394452D01*
X258292806Y-105425675D01*
X258229421Y-105444903D01*
X258157360Y-105452000D01*
X256542640Y-105452000D01*
X256470579Y-105444903D01*
X256407194Y-105425675D01*
X256348780Y-105394452D01*
X256297573Y-105352427D01*
X256255548Y-105301220D01*
X256224325Y-105242806D01*
X256205097Y-105179421D01*
X256198000Y-105107360D01*
X256198000Y-104192640D01*
X256205097Y-104120579D01*
X256224325Y-104057194D01*
X256255548Y-103998780D01*
X256297573Y-103947573D01*
X256348780Y-103905548D01*
X256407194Y-103874325D01*
X256470579Y-103855097D01*
X256542640Y-103848000D01*
X258157360Y-103848000D01*
X258229421Y-103855097D01*
G37*
G36*
X249129421Y-103855097D02*
G01*
X249192806Y-103874325D01*
X249251220Y-103905548D01*
X249302427Y-103947573D01*
X249344452Y-103998780D01*
X249375675Y-104057194D01*
X249394903Y-104120579D01*
X249402000Y-104192640D01*
X249402000Y-105107360D01*
X249394903Y-105179421D01*
X249375675Y-105242806D01*
X249344452Y-105301220D01*
X249302427Y-105352427D01*
X249251220Y-105394452D01*
X249192806Y-105425675D01*
X249129421Y-105444903D01*
X249057360Y-105452000D01*
X247442640Y-105452000D01*
X247370579Y-105444903D01*
X247307194Y-105425675D01*
X247248780Y-105394452D01*
X247197573Y-105352427D01*
X247155548Y-105301220D01*
X247124325Y-105242806D01*
X247105097Y-105179421D01*
X247098000Y-105107360D01*
X247098000Y-104192640D01*
X247105097Y-104120579D01*
X247124325Y-104057194D01*
X247155548Y-103998780D01*
X247197573Y-103947573D01*
X247248780Y-103905548D01*
X247307194Y-103874325D01*
X247370579Y-103855097D01*
X247442640Y-103848000D01*
X249057360Y-103848000D01*
X249129421Y-103855097D01*
G37*
G36*
X239729421Y-103855097D02*
G01*
X239792806Y-103874325D01*
X239851220Y-103905548D01*
X239902427Y-103947573D01*
X239944452Y-103998780D01*
X239975675Y-104057194D01*
X239994903Y-104120579D01*
X240002000Y-104192640D01*
X240002000Y-105107360D01*
X239994903Y-105179421D01*
X239975675Y-105242806D01*
X239944452Y-105301220D01*
X239902427Y-105352427D01*
X239851220Y-105394452D01*
X239792806Y-105425675D01*
X239729421Y-105444903D01*
X239657360Y-105452000D01*
X238042640Y-105452000D01*
X237970579Y-105444903D01*
X237907194Y-105425675D01*
X237848780Y-105394452D01*
X237797573Y-105352427D01*
X237755548Y-105301220D01*
X237724325Y-105242806D01*
X237705097Y-105179421D01*
X237698000Y-105107360D01*
X237698000Y-104192640D01*
X237705097Y-104120579D01*
X237724325Y-104057194D01*
X237755548Y-103998780D01*
X237797573Y-103947573D01*
X237848780Y-103905548D01*
X237907194Y-103874325D01*
X237970579Y-103855097D01*
X238042640Y-103848000D01*
X239657360Y-103848000D01*
X239729421Y-103855097D01*
G37*
G36*
X23113512Y-103243927D02*
G01*
X23262812Y-103273624D01*
X23426784Y-103341544D01*
X23574354Y-103440147D01*
X23699853Y-103565646D01*
X23798456Y-103713216D01*
X23866376Y-103877188D01*
X23901000Y-104051259D01*
X23901000Y-104228741D01*
X23866376Y-104402812D01*
X23798456Y-104566784D01*
X23699853Y-104714354D01*
X23574354Y-104839853D01*
X23426784Y-104938456D01*
X23262812Y-105006376D01*
X23113512Y-105036073D01*
X23088742Y-105041000D01*
X22911258Y-105041000D01*
X22886488Y-105036073D01*
X22737188Y-105006376D01*
X22573216Y-104938456D01*
X22425646Y-104839853D01*
X22300147Y-104714354D01*
X22201544Y-104566784D01*
X22133624Y-104402812D01*
X22099000Y-104228741D01*
X22099000Y-104051259D01*
X22133624Y-103877188D01*
X22201544Y-103713216D01*
X22300147Y-103565646D01*
X22425646Y-103440147D01*
X22573216Y-103341544D01*
X22737188Y-103273624D01*
X22886488Y-103243927D01*
X22911258Y-103239000D01*
X23088742Y-103239000D01*
X23113512Y-103243927D01*
G37*
G36*
X23901000Y-102501000D02*
G01*
X22099000Y-102501000D01*
X22099000Y-100699000D01*
X23901000Y-100699000D01*
X23901000Y-102501000D01*
G37*
G36*
X249129421Y-95555097D02*
G01*
X249192806Y-95574325D01*
X249251220Y-95605548D01*
X249302427Y-95647573D01*
X249344452Y-95698780D01*
X249375675Y-95757194D01*
X249394903Y-95820579D01*
X249402000Y-95892640D01*
X249402000Y-96807360D01*
X249394903Y-96879421D01*
X249375675Y-96942806D01*
X249344452Y-97001220D01*
X249302427Y-97052427D01*
X249251220Y-97094452D01*
X249192806Y-97125675D01*
X249129421Y-97144903D01*
X249057360Y-97152000D01*
X247442640Y-97152000D01*
X247370579Y-97144903D01*
X247307194Y-97125675D01*
X247248780Y-97094452D01*
X247197573Y-97052427D01*
X247155548Y-97001220D01*
X247124325Y-96942806D01*
X247105097Y-96879421D01*
X247098000Y-96807360D01*
X247098000Y-95892640D01*
X247105097Y-95820579D01*
X247124325Y-95757194D01*
X247155548Y-95698780D01*
X247197573Y-95647573D01*
X247248780Y-95605548D01*
X247307194Y-95574325D01*
X247370579Y-95555097D01*
X247442640Y-95548000D01*
X249057360Y-95548000D01*
X249129421Y-95555097D01*
G37*
G36*
X239729421Y-95555097D02*
G01*
X239792806Y-95574325D01*
X239851220Y-95605548D01*
X239902427Y-95647573D01*
X239944452Y-95698780D01*
X239975675Y-95757194D01*
X239994903Y-95820579D01*
X240002000Y-95892640D01*
X240002000Y-96807360D01*
X239994903Y-96879421D01*
X239975675Y-96942806D01*
X239944452Y-97001220D01*
X239902427Y-97052427D01*
X239851220Y-97094452D01*
X239792806Y-97125675D01*
X239729421Y-97144903D01*
X239657360Y-97152000D01*
X238042640Y-97152000D01*
X237970579Y-97144903D01*
X237907194Y-97125675D01*
X237848780Y-97094452D01*
X237797573Y-97052427D01*
X237755548Y-97001220D01*
X237724325Y-96942806D01*
X237705097Y-96879421D01*
X237698000Y-96807360D01*
X237698000Y-95892640D01*
X237705097Y-95820579D01*
X237724325Y-95757194D01*
X237755548Y-95698780D01*
X237797573Y-95647573D01*
X237848780Y-95605548D01*
X237907194Y-95574325D01*
X237970579Y-95555097D01*
X238042640Y-95548000D01*
X239657360Y-95548000D01*
X239729421Y-95555097D01*
G37*
G36*
X258229421Y-95555097D02*
G01*
X258292806Y-95574325D01*
X258351220Y-95605548D01*
X258402427Y-95647573D01*
X258444452Y-95698780D01*
X258475675Y-95757194D01*
X258494903Y-95820579D01*
X258502000Y-95892640D01*
X258502000Y-96807360D01*
X258494903Y-96879421D01*
X258475675Y-96942806D01*
X258444452Y-97001220D01*
X258402427Y-97052427D01*
X258351220Y-97094452D01*
X258292806Y-97125675D01*
X258229421Y-97144903D01*
X258157360Y-97152000D01*
X256542640Y-97152000D01*
X256470579Y-97144903D01*
X256407194Y-97125675D01*
X256348780Y-97094452D01*
X256297573Y-97052427D01*
X256255548Y-97001220D01*
X256224325Y-96942806D01*
X256205097Y-96879421D01*
X256198000Y-96807360D01*
X256198000Y-95892640D01*
X256205097Y-95820579D01*
X256224325Y-95757194D01*
X256255548Y-95698780D01*
X256297573Y-95647573D01*
X256348780Y-95605548D01*
X256407194Y-95574325D01*
X256470579Y-95555097D01*
X256542640Y-95548000D01*
X258157360Y-95548000D01*
X258229421Y-95555097D01*
G37*
G36*
X230629421Y-95555097D02*
G01*
X230692806Y-95574325D01*
X230751220Y-95605548D01*
X230802427Y-95647573D01*
X230844452Y-95698780D01*
X230875675Y-95757194D01*
X230894903Y-95820579D01*
X230902000Y-95892640D01*
X230902000Y-96807360D01*
X230894903Y-96879421D01*
X230875675Y-96942806D01*
X230844452Y-97001220D01*
X230802427Y-97052427D01*
X230751220Y-97094452D01*
X230692806Y-97125675D01*
X230629421Y-97144903D01*
X230557360Y-97152000D01*
X228942640Y-97152000D01*
X228870579Y-97144903D01*
X228807194Y-97125675D01*
X228748780Y-97094452D01*
X228697573Y-97052427D01*
X228655548Y-97001220D01*
X228624325Y-96942806D01*
X228605097Y-96879421D01*
X228598000Y-96807360D01*
X228598000Y-95892640D01*
X228605097Y-95820579D01*
X228624325Y-95757194D01*
X228655548Y-95698780D01*
X228697573Y-95647573D01*
X228748780Y-95605548D01*
X228807194Y-95574325D01*
X228870579Y-95555097D01*
X228942640Y-95548000D01*
X230557360Y-95548000D01*
X230629421Y-95555097D01*
G37*
G36*
X258229421Y-91055097D02*
G01*
X258292806Y-91074325D01*
X258351220Y-91105548D01*
X258402427Y-91147573D01*
X258444452Y-91198780D01*
X258475675Y-91257194D01*
X258494903Y-91320579D01*
X258502000Y-91392640D01*
X258502000Y-92307360D01*
X258494903Y-92379421D01*
X258475675Y-92442806D01*
X258444452Y-92501220D01*
X258402427Y-92552427D01*
X258351220Y-92594452D01*
X258292806Y-92625675D01*
X258229421Y-92644903D01*
X258157360Y-92652000D01*
X256542640Y-92652000D01*
X256470579Y-92644903D01*
X256407194Y-92625675D01*
X256348780Y-92594452D01*
X256297573Y-92552427D01*
X256255548Y-92501220D01*
X256224325Y-92442806D01*
X256205097Y-92379421D01*
X256198000Y-92307360D01*
X256198000Y-91392640D01*
X256205097Y-91320579D01*
X256224325Y-91257194D01*
X256255548Y-91198780D01*
X256297573Y-91147573D01*
X256348780Y-91105548D01*
X256407194Y-91074325D01*
X256470579Y-91055097D01*
X256542640Y-91048000D01*
X258157360Y-91048000D01*
X258229421Y-91055097D01*
G37*
G36*
X230629421Y-91055097D02*
G01*
X230692806Y-91074325D01*
X230751220Y-91105548D01*
X230802427Y-91147573D01*
X230844452Y-91198780D01*
X230875675Y-91257194D01*
X230894903Y-91320579D01*
X230902000Y-91392640D01*
X230902000Y-92307360D01*
X230894903Y-92379421D01*
X230875675Y-92442806D01*
X230844452Y-92501220D01*
X230802427Y-92552427D01*
X230751220Y-92594452D01*
X230692806Y-92625675D01*
X230629421Y-92644903D01*
X230557360Y-92652000D01*
X228942640Y-92652000D01*
X228870579Y-92644903D01*
X228807194Y-92625675D01*
X228748780Y-92594452D01*
X228697573Y-92552427D01*
X228655548Y-92501220D01*
X228624325Y-92442806D01*
X228605097Y-92379421D01*
X228598000Y-92307360D01*
X228598000Y-91392640D01*
X228605097Y-91320579D01*
X228624325Y-91257194D01*
X228655548Y-91198780D01*
X228697573Y-91147573D01*
X228748780Y-91105548D01*
X228807194Y-91074325D01*
X228870579Y-91055097D01*
X228942640Y-91048000D01*
X230557360Y-91048000D01*
X230629421Y-91055097D01*
G37*
G36*
X239729421Y-91055097D02*
G01*
X239792806Y-91074325D01*
X239851220Y-91105548D01*
X239902427Y-91147573D01*
X239944452Y-91198780D01*
X239975675Y-91257194D01*
X239994903Y-91320579D01*
X240002000Y-91392640D01*
X240002000Y-92307360D01*
X239994903Y-92379421D01*
X239975675Y-92442806D01*
X239944452Y-92501220D01*
X239902427Y-92552427D01*
X239851220Y-92594452D01*
X239792806Y-92625675D01*
X239729421Y-92644903D01*
X239657360Y-92652000D01*
X238042640Y-92652000D01*
X237970579Y-92644903D01*
X237907194Y-92625675D01*
X237848780Y-92594452D01*
X237797573Y-92552427D01*
X237755548Y-92501220D01*
X237724325Y-92442806D01*
X237705097Y-92379421D01*
X237698000Y-92307360D01*
X237698000Y-91392640D01*
X237705097Y-91320579D01*
X237724325Y-91257194D01*
X237755548Y-91198780D01*
X237797573Y-91147573D01*
X237848780Y-91105548D01*
X237907194Y-91074325D01*
X237970579Y-91055097D01*
X238042640Y-91048000D01*
X239657360Y-91048000D01*
X239729421Y-91055097D01*
G37*
G36*
X249129421Y-91055097D02*
G01*
X249192806Y-91074325D01*
X249251220Y-91105548D01*
X249302427Y-91147573D01*
X249344452Y-91198780D01*
X249375675Y-91257194D01*
X249394903Y-91320579D01*
X249402000Y-91392640D01*
X249402000Y-92307360D01*
X249394903Y-92379421D01*
X249375675Y-92442806D01*
X249344452Y-92501220D01*
X249302427Y-92552427D01*
X249251220Y-92594452D01*
X249192806Y-92625675D01*
X249129421Y-92644903D01*
X249057360Y-92652000D01*
X247442640Y-92652000D01*
X247370579Y-92644903D01*
X247307194Y-92625675D01*
X247248780Y-92594452D01*
X247197573Y-92552427D01*
X247155548Y-92501220D01*
X247124325Y-92442806D01*
X247105097Y-92379421D01*
X247098000Y-92307360D01*
X247098000Y-91392640D01*
X247105097Y-91320579D01*
X247124325Y-91257194D01*
X247155548Y-91198780D01*
X247197573Y-91147573D01*
X247248780Y-91105548D01*
X247307194Y-91074325D01*
X247370579Y-91055097D01*
X247442640Y-91048000D01*
X249057360Y-91048000D01*
X249129421Y-91055097D01*
G37*
G36*
X23113512Y-89883927D02*
G01*
X23262812Y-89913624D01*
X23426784Y-89981544D01*
X23574354Y-90080147D01*
X23699853Y-90205646D01*
X23798456Y-90353216D01*
X23866376Y-90517188D01*
X23901000Y-90691259D01*
X23901000Y-90868741D01*
X23866376Y-91042812D01*
X23798456Y-91206784D01*
X23699853Y-91354354D01*
X23574354Y-91479853D01*
X23426784Y-91578456D01*
X23262812Y-91646376D01*
X23113512Y-91676073D01*
X23088742Y-91681000D01*
X22911258Y-91681000D01*
X22886488Y-91676073D01*
X22737188Y-91646376D01*
X22573216Y-91578456D01*
X22425646Y-91479853D01*
X22300147Y-91354354D01*
X22201544Y-91206784D01*
X22133624Y-91042812D01*
X22099000Y-90868741D01*
X22099000Y-90691259D01*
X22133624Y-90517188D01*
X22201544Y-90353216D01*
X22300147Y-90205646D01*
X22425646Y-90080147D01*
X22573216Y-89981544D01*
X22737188Y-89913624D01*
X22886488Y-89883927D01*
X22911258Y-89879000D01*
X23088742Y-89879000D01*
X23113512Y-89883927D01*
G37*
G36*
X23113512Y-87343927D02*
G01*
X23262812Y-87373624D01*
X23426784Y-87441544D01*
X23574354Y-87540147D01*
X23699853Y-87665646D01*
X23798456Y-87813216D01*
X23866376Y-87977188D01*
X23901000Y-88151259D01*
X23901000Y-88328741D01*
X23866376Y-88502812D01*
X23798456Y-88666784D01*
X23699853Y-88814354D01*
X23574354Y-88939853D01*
X23426784Y-89038456D01*
X23262812Y-89106376D01*
X23113512Y-89136073D01*
X23088742Y-89141000D01*
X22911258Y-89141000D01*
X22886488Y-89136073D01*
X22737188Y-89106376D01*
X22573216Y-89038456D01*
X22425646Y-88939853D01*
X22300147Y-88814354D01*
X22201544Y-88666784D01*
X22133624Y-88502812D01*
X22099000Y-88328741D01*
X22099000Y-88151259D01*
X22133624Y-87977188D01*
X22201544Y-87813216D01*
X22300147Y-87665646D01*
X22425646Y-87540147D01*
X22573216Y-87441544D01*
X22737188Y-87373624D01*
X22886488Y-87343927D01*
X22911258Y-87339000D01*
X23088742Y-87339000D01*
X23113512Y-87343927D01*
G37*
G36*
X23901000Y-86601000D02*
G01*
X22099000Y-86601000D01*
X22099000Y-84799000D01*
X23901000Y-84799000D01*
X23901000Y-86601000D01*
G37*
G36*
X239729421Y-82755097D02*
G01*
X239792806Y-82774325D01*
X239851220Y-82805548D01*
X239902427Y-82847573D01*
X239944452Y-82898780D01*
X239975675Y-82957194D01*
X239994903Y-83020579D01*
X240002000Y-83092640D01*
X240002000Y-84007360D01*
X239994903Y-84079421D01*
X239975675Y-84142806D01*
X239944452Y-84201220D01*
X239902427Y-84252427D01*
X239851220Y-84294452D01*
X239792806Y-84325675D01*
X239729421Y-84344903D01*
X239657360Y-84352000D01*
X238042640Y-84352000D01*
X237970579Y-84344903D01*
X237907194Y-84325675D01*
X237848780Y-84294452D01*
X237797573Y-84252427D01*
X237755548Y-84201220D01*
X237724325Y-84142806D01*
X237705097Y-84079421D01*
X237698000Y-84007360D01*
X237698000Y-83092640D01*
X237705097Y-83020579D01*
X237724325Y-82957194D01*
X237755548Y-82898780D01*
X237797573Y-82847573D01*
X237848780Y-82805548D01*
X237907194Y-82774325D01*
X237970579Y-82755097D01*
X238042640Y-82748000D01*
X239657360Y-82748000D01*
X239729421Y-82755097D01*
G37*
G36*
X230629421Y-82755097D02*
G01*
X230692806Y-82774325D01*
X230751220Y-82805548D01*
X230802427Y-82847573D01*
X230844452Y-82898780D01*
X230875675Y-82957194D01*
X230894903Y-83020579D01*
X230902000Y-83092640D01*
X230902000Y-84007360D01*
X230894903Y-84079421D01*
X230875675Y-84142806D01*
X230844452Y-84201220D01*
X230802427Y-84252427D01*
X230751220Y-84294452D01*
X230692806Y-84325675D01*
X230629421Y-84344903D01*
X230557360Y-84352000D01*
X228942640Y-84352000D01*
X228870579Y-84344903D01*
X228807194Y-84325675D01*
X228748780Y-84294452D01*
X228697573Y-84252427D01*
X228655548Y-84201220D01*
X228624325Y-84142806D01*
X228605097Y-84079421D01*
X228598000Y-84007360D01*
X228598000Y-83092640D01*
X228605097Y-83020579D01*
X228624325Y-82957194D01*
X228655548Y-82898780D01*
X228697573Y-82847573D01*
X228748780Y-82805548D01*
X228807194Y-82774325D01*
X228870579Y-82755097D01*
X228942640Y-82748000D01*
X230557360Y-82748000D01*
X230629421Y-82755097D01*
G37*
G36*
X258229421Y-82755097D02*
G01*
X258292806Y-82774325D01*
X258351220Y-82805548D01*
X258402427Y-82847573D01*
X258444452Y-82898780D01*
X258475675Y-82957194D01*
X258494903Y-83020579D01*
X258502000Y-83092640D01*
X258502000Y-84007360D01*
X258494903Y-84079421D01*
X258475675Y-84142806D01*
X258444452Y-84201220D01*
X258402427Y-84252427D01*
X258351220Y-84294452D01*
X258292806Y-84325675D01*
X258229421Y-84344903D01*
X258157360Y-84352000D01*
X256542640Y-84352000D01*
X256470579Y-84344903D01*
X256407194Y-84325675D01*
X256348780Y-84294452D01*
X256297573Y-84252427D01*
X256255548Y-84201220D01*
X256224325Y-84142806D01*
X256205097Y-84079421D01*
X256198000Y-84007360D01*
X256198000Y-83092640D01*
X256205097Y-83020579D01*
X256224325Y-82957194D01*
X256255548Y-82898780D01*
X256297573Y-82847573D01*
X256348780Y-82805548D01*
X256407194Y-82774325D01*
X256470579Y-82755097D01*
X256542640Y-82748000D01*
X258157360Y-82748000D01*
X258229421Y-82755097D01*
G37*
G36*
X249129421Y-82755097D02*
G01*
X249192806Y-82774325D01*
X249251220Y-82805548D01*
X249302427Y-82847573D01*
X249344452Y-82898780D01*
X249375675Y-82957194D01*
X249394903Y-83020579D01*
X249402000Y-83092640D01*
X249402000Y-84007360D01*
X249394903Y-84079421D01*
X249375675Y-84142806D01*
X249344452Y-84201220D01*
X249302427Y-84252427D01*
X249251220Y-84294452D01*
X249192806Y-84325675D01*
X249129421Y-84344903D01*
X249057360Y-84352000D01*
X247442640Y-84352000D01*
X247370579Y-84344903D01*
X247307194Y-84325675D01*
X247248780Y-84294452D01*
X247197573Y-84252427D01*
X247155548Y-84201220D01*
X247124325Y-84142806D01*
X247105097Y-84079421D01*
X247098000Y-84007360D01*
X247098000Y-83092640D01*
X247105097Y-83020579D01*
X247124325Y-82957194D01*
X247155548Y-82898780D01*
X247197573Y-82847573D01*
X247248780Y-82805548D01*
X247307194Y-82774325D01*
X247370579Y-82755097D01*
X247442640Y-82748000D01*
X249057360Y-82748000D01*
X249129421Y-82755097D01*
G37*
G36*
X239729421Y-78255097D02*
G01*
X239792806Y-78274325D01*
X239851220Y-78305548D01*
X239902427Y-78347573D01*
X239944452Y-78398780D01*
X239975675Y-78457194D01*
X239994903Y-78520579D01*
X240002000Y-78592640D01*
X240002000Y-79507360D01*
X239994903Y-79579421D01*
X239975675Y-79642806D01*
X239944452Y-79701220D01*
X239902427Y-79752427D01*
X239851220Y-79794452D01*
X239792806Y-79825675D01*
X239729421Y-79844903D01*
X239657360Y-79852000D01*
X238042640Y-79852000D01*
X237970579Y-79844903D01*
X237907194Y-79825675D01*
X237848780Y-79794452D01*
X237797573Y-79752427D01*
X237755548Y-79701220D01*
X237724325Y-79642806D01*
X237705097Y-79579421D01*
X237698000Y-79507360D01*
X237698000Y-78592640D01*
X237705097Y-78520579D01*
X237724325Y-78457194D01*
X237755548Y-78398780D01*
X237797573Y-78347573D01*
X237848780Y-78305548D01*
X237907194Y-78274325D01*
X237970579Y-78255097D01*
X238042640Y-78248000D01*
X239657360Y-78248000D01*
X239729421Y-78255097D01*
G37*
G36*
X230629421Y-78255097D02*
G01*
X230692806Y-78274325D01*
X230751220Y-78305548D01*
X230802427Y-78347573D01*
X230844452Y-78398780D01*
X230875675Y-78457194D01*
X230894903Y-78520579D01*
X230902000Y-78592640D01*
X230902000Y-79507360D01*
X230894903Y-79579421D01*
X230875675Y-79642806D01*
X230844452Y-79701220D01*
X230802427Y-79752427D01*
X230751220Y-79794452D01*
X230692806Y-79825675D01*
X230629421Y-79844903D01*
X230557360Y-79852000D01*
X228942640Y-79852000D01*
X228870579Y-79844903D01*
X228807194Y-79825675D01*
X228748780Y-79794452D01*
X228697573Y-79752427D01*
X228655548Y-79701220D01*
X228624325Y-79642806D01*
X228605097Y-79579421D01*
X228598000Y-79507360D01*
X228598000Y-78592640D01*
X228605097Y-78520579D01*
X228624325Y-78457194D01*
X228655548Y-78398780D01*
X228697573Y-78347573D01*
X228748780Y-78305548D01*
X228807194Y-78274325D01*
X228870579Y-78255097D01*
X228942640Y-78248000D01*
X230557360Y-78248000D01*
X230629421Y-78255097D01*
G37*
G36*
X249129421Y-78255097D02*
G01*
X249192806Y-78274325D01*
X249251220Y-78305548D01*
X249302427Y-78347573D01*
X249344452Y-78398780D01*
X249375675Y-78457194D01*
X249394903Y-78520579D01*
X249402000Y-78592640D01*
X249402000Y-79507360D01*
X249394903Y-79579421D01*
X249375675Y-79642806D01*
X249344452Y-79701220D01*
X249302427Y-79752427D01*
X249251220Y-79794452D01*
X249192806Y-79825675D01*
X249129421Y-79844903D01*
X249057360Y-79852000D01*
X247442640Y-79852000D01*
X247370579Y-79844903D01*
X247307194Y-79825675D01*
X247248780Y-79794452D01*
X247197573Y-79752427D01*
X247155548Y-79701220D01*
X247124325Y-79642806D01*
X247105097Y-79579421D01*
X247098000Y-79507360D01*
X247098000Y-78592640D01*
X247105097Y-78520579D01*
X247124325Y-78457194D01*
X247155548Y-78398780D01*
X247197573Y-78347573D01*
X247248780Y-78305548D01*
X247307194Y-78274325D01*
X247370579Y-78255097D01*
X247442640Y-78248000D01*
X249057360Y-78248000D01*
X249129421Y-78255097D01*
G37*
G36*
X258229421Y-78255097D02*
G01*
X258292806Y-78274325D01*
X258351220Y-78305548D01*
X258402427Y-78347573D01*
X258444452Y-78398780D01*
X258475675Y-78457194D01*
X258494903Y-78520579D01*
X258502000Y-78592640D01*
X258502000Y-79507360D01*
X258494903Y-79579421D01*
X258475675Y-79642806D01*
X258444452Y-79701220D01*
X258402427Y-79752427D01*
X258351220Y-79794452D01*
X258292806Y-79825675D01*
X258229421Y-79844903D01*
X258157360Y-79852000D01*
X256542640Y-79852000D01*
X256470579Y-79844903D01*
X256407194Y-79825675D01*
X256348780Y-79794452D01*
X256297573Y-79752427D01*
X256255548Y-79701220D01*
X256224325Y-79642806D01*
X256205097Y-79579421D01*
X256198000Y-79507360D01*
X256198000Y-78592640D01*
X256205097Y-78520579D01*
X256224325Y-78457194D01*
X256255548Y-78398780D01*
X256297573Y-78347573D01*
X256348780Y-78305548D01*
X256407194Y-78274325D01*
X256470579Y-78255097D01*
X256542640Y-78248000D01*
X258157360Y-78248000D01*
X258229421Y-78255097D01*
G37*
G36*
X70440104Y-76279585D02*
G01*
X70608626Y-76349389D01*
X70760291Y-76450728D01*
X70889272Y-76579709D01*
X70990611Y-76731374D01*
X71060415Y-76899896D01*
X71096000Y-77078797D01*
X71096000Y-77261203D01*
X71060415Y-77440104D01*
X70990611Y-77608626D01*
X70889272Y-77760291D01*
X70760291Y-77889272D01*
X70608626Y-77990611D01*
X70440104Y-78060415D01*
X70261203Y-78096000D01*
X70078797Y-78096000D01*
X69899896Y-78060415D01*
X69731374Y-77990611D01*
X69579709Y-77889272D01*
X69450728Y-77760291D01*
X69349389Y-77608626D01*
X69279585Y-77440104D01*
X69244000Y-77261203D01*
X69244000Y-77078797D01*
X69279585Y-76899896D01*
X69349389Y-76731374D01*
X69450728Y-76579709D01*
X69579709Y-76450728D01*
X69731374Y-76349389D01*
X69899896Y-76279585D01*
X70078797Y-76244000D01*
X70261203Y-76244000D01*
X70440104Y-76279585D01*
G37*
G36*
X75520104Y-76279585D02*
G01*
X75688626Y-76349389D01*
X75840291Y-76450728D01*
X75969272Y-76579709D01*
X76070611Y-76731374D01*
X76140415Y-76899896D01*
X76176000Y-77078797D01*
X76176000Y-77261203D01*
X76140415Y-77440104D01*
X76070611Y-77608626D01*
X75969272Y-77760291D01*
X75840291Y-77889272D01*
X75688626Y-77990611D01*
X75520104Y-78060415D01*
X75341203Y-78096000D01*
X75158797Y-78096000D01*
X74979896Y-78060415D01*
X74811374Y-77990611D01*
X74659709Y-77889272D01*
X74530728Y-77760291D01*
X74429389Y-77608626D01*
X74359585Y-77440104D01*
X74324000Y-77261203D01*
X74324000Y-77078797D01*
X74359585Y-76899896D01*
X74429389Y-76731374D01*
X74530728Y-76579709D01*
X74659709Y-76450728D01*
X74811374Y-76349389D01*
X74979896Y-76279585D01*
X75158797Y-76244000D01*
X75341203Y-76244000D01*
X75520104Y-76279585D01*
G37*
G36*
X78060104Y-76279585D02*
G01*
X78228626Y-76349389D01*
X78380291Y-76450728D01*
X78509272Y-76579709D01*
X78610611Y-76731374D01*
X78680415Y-76899896D01*
X78716000Y-77078797D01*
X78716000Y-77261203D01*
X78680415Y-77440104D01*
X78610611Y-77608626D01*
X78509272Y-77760291D01*
X78380291Y-77889272D01*
X78228626Y-77990611D01*
X78060104Y-78060415D01*
X77881203Y-78096000D01*
X77698797Y-78096000D01*
X77519896Y-78060415D01*
X77351374Y-77990611D01*
X77199709Y-77889272D01*
X77070728Y-77760291D01*
X76969389Y-77608626D01*
X76899585Y-77440104D01*
X76864000Y-77261203D01*
X76864000Y-77078797D01*
X76899585Y-76899896D01*
X76969389Y-76731374D01*
X77070728Y-76579709D01*
X77199709Y-76450728D01*
X77351374Y-76349389D01*
X77519896Y-76279585D01*
X77698797Y-76244000D01*
X77881203Y-76244000D01*
X78060104Y-76279585D01*
G37*
G36*
X80600104Y-76279585D02*
G01*
X80768626Y-76349389D01*
X80920291Y-76450728D01*
X81049272Y-76579709D01*
X81150611Y-76731374D01*
X81220415Y-76899896D01*
X81256000Y-77078797D01*
X81256000Y-77261203D01*
X81220415Y-77440104D01*
X81150611Y-77608626D01*
X81049272Y-77760291D01*
X80920291Y-77889272D01*
X80768626Y-77990611D01*
X80600104Y-78060415D01*
X80421203Y-78096000D01*
X80238797Y-78096000D01*
X80059896Y-78060415D01*
X79891374Y-77990611D01*
X79739709Y-77889272D01*
X79610728Y-77760291D01*
X79509389Y-77608626D01*
X79439585Y-77440104D01*
X79404000Y-77261203D01*
X79404000Y-77078797D01*
X79439585Y-76899896D01*
X79509389Y-76731374D01*
X79610728Y-76579709D01*
X79739709Y-76450728D01*
X79891374Y-76349389D01*
X80059896Y-76279585D01*
X80238797Y-76244000D01*
X80421203Y-76244000D01*
X80600104Y-76279585D01*
G37*
G36*
X83140104Y-76279585D02*
G01*
X83308626Y-76349389D01*
X83460291Y-76450728D01*
X83589272Y-76579709D01*
X83690611Y-76731374D01*
X83760415Y-76899896D01*
X83796000Y-77078797D01*
X83796000Y-77261203D01*
X83760415Y-77440104D01*
X83690611Y-77608626D01*
X83589272Y-77760291D01*
X83460291Y-77889272D01*
X83308626Y-77990611D01*
X83140104Y-78060415D01*
X82961203Y-78096000D01*
X82778797Y-78096000D01*
X82599896Y-78060415D01*
X82431374Y-77990611D01*
X82279709Y-77889272D01*
X82150728Y-77760291D01*
X82049389Y-77608626D01*
X81979585Y-77440104D01*
X81944000Y-77261203D01*
X81944000Y-77078797D01*
X81979585Y-76899896D01*
X82049389Y-76731374D01*
X82150728Y-76579709D01*
X82279709Y-76450728D01*
X82431374Y-76349389D01*
X82599896Y-76279585D01*
X82778797Y-76244000D01*
X82961203Y-76244000D01*
X83140104Y-76279585D01*
G37*
G36*
X85680104Y-76279585D02*
G01*
X85848626Y-76349389D01*
X86000291Y-76450728D01*
X86129272Y-76579709D01*
X86230611Y-76731374D01*
X86300415Y-76899896D01*
X86336000Y-77078797D01*
X86336000Y-77261203D01*
X86300415Y-77440104D01*
X86230611Y-77608626D01*
X86129272Y-77760291D01*
X86000291Y-77889272D01*
X85848626Y-77990611D01*
X85680104Y-78060415D01*
X85501203Y-78096000D01*
X85318797Y-78096000D01*
X85139896Y-78060415D01*
X84971374Y-77990611D01*
X84819709Y-77889272D01*
X84690728Y-77760291D01*
X84589389Y-77608626D01*
X84519585Y-77440104D01*
X84484000Y-77261203D01*
X84484000Y-77078797D01*
X84519585Y-76899896D01*
X84589389Y-76731374D01*
X84690728Y-76579709D01*
X84819709Y-76450728D01*
X84971374Y-76349389D01*
X85139896Y-76279585D01*
X85318797Y-76244000D01*
X85501203Y-76244000D01*
X85680104Y-76279585D01*
G37*
G36*
X88220104Y-76279585D02*
G01*
X88388626Y-76349389D01*
X88540291Y-76450728D01*
X88669272Y-76579709D01*
X88770611Y-76731374D01*
X88840415Y-76899896D01*
X88876000Y-77078797D01*
X88876000Y-77261203D01*
X88840415Y-77440104D01*
X88770611Y-77608626D01*
X88669272Y-77760291D01*
X88540291Y-77889272D01*
X88388626Y-77990611D01*
X88220104Y-78060415D01*
X88041203Y-78096000D01*
X87858797Y-78096000D01*
X87679896Y-78060415D01*
X87511374Y-77990611D01*
X87359709Y-77889272D01*
X87230728Y-77760291D01*
X87129389Y-77608626D01*
X87059585Y-77440104D01*
X87024000Y-77261203D01*
X87024000Y-77078797D01*
X87059585Y-76899896D01*
X87129389Y-76731374D01*
X87230728Y-76579709D01*
X87359709Y-76450728D01*
X87511374Y-76349389D01*
X87679896Y-76279585D01*
X87858797Y-76244000D01*
X88041203Y-76244000D01*
X88220104Y-76279585D01*
G37*
G36*
X90760104Y-76279585D02*
G01*
X90928626Y-76349389D01*
X91080291Y-76450728D01*
X91209272Y-76579709D01*
X91310611Y-76731374D01*
X91380415Y-76899896D01*
X91416000Y-77078797D01*
X91416000Y-77261203D01*
X91380415Y-77440104D01*
X91310611Y-77608626D01*
X91209272Y-77760291D01*
X91080291Y-77889272D01*
X90928626Y-77990611D01*
X90760104Y-78060415D01*
X90581203Y-78096000D01*
X90398797Y-78096000D01*
X90219896Y-78060415D01*
X90051374Y-77990611D01*
X89899709Y-77889272D01*
X89770728Y-77760291D01*
X89669389Y-77608626D01*
X89599585Y-77440104D01*
X89564000Y-77261203D01*
X89564000Y-77078797D01*
X89599585Y-76899896D01*
X89669389Y-76731374D01*
X89770728Y-76579709D01*
X89899709Y-76450728D01*
X90051374Y-76349389D01*
X90219896Y-76279585D01*
X90398797Y-76244000D01*
X90581203Y-76244000D01*
X90760104Y-76279585D01*
G37*
G36*
X93300104Y-76279585D02*
G01*
X93468626Y-76349389D01*
X93620291Y-76450728D01*
X93749272Y-76579709D01*
X93850611Y-76731374D01*
X93920415Y-76899896D01*
X93956000Y-77078797D01*
X93956000Y-77261203D01*
X93920415Y-77440104D01*
X93850611Y-77608626D01*
X93749272Y-77760291D01*
X93620291Y-77889272D01*
X93468626Y-77990611D01*
X93300104Y-78060415D01*
X93121203Y-78096000D01*
X92938797Y-78096000D01*
X92759896Y-78060415D01*
X92591374Y-77990611D01*
X92439709Y-77889272D01*
X92310728Y-77760291D01*
X92209389Y-77608626D01*
X92139585Y-77440104D01*
X92104000Y-77261203D01*
X92104000Y-77078797D01*
X92139585Y-76899896D01*
X92209389Y-76731374D01*
X92310728Y-76579709D01*
X92439709Y-76450728D01*
X92591374Y-76349389D01*
X92759896Y-76279585D01*
X92938797Y-76244000D01*
X93121203Y-76244000D01*
X93300104Y-76279585D01*
G37*
G36*
X72980104Y-76279585D02*
G01*
X73148626Y-76349389D01*
X73300291Y-76450728D01*
X73429272Y-76579709D01*
X73530611Y-76731374D01*
X73600415Y-76899896D01*
X73636000Y-77078797D01*
X73636000Y-77261203D01*
X73600415Y-77440104D01*
X73530611Y-77608626D01*
X73429272Y-77760291D01*
X73300291Y-77889272D01*
X73148626Y-77990611D01*
X72980104Y-78060415D01*
X72801203Y-78096000D01*
X72618797Y-78096000D01*
X72439896Y-78060415D01*
X72271374Y-77990611D01*
X72119709Y-77889272D01*
X71990728Y-77760291D01*
X71889389Y-77608626D01*
X71819585Y-77440104D01*
X71784000Y-77261203D01*
X71784000Y-77078797D01*
X71819585Y-76899896D01*
X71889389Y-76731374D01*
X71990728Y-76579709D01*
X72119709Y-76450728D01*
X72271374Y-76349389D01*
X72439896Y-76279585D01*
X72618797Y-76244000D01*
X72801203Y-76244000D01*
X72980104Y-76279585D01*
G37*
G36*
X45040104Y-76279585D02*
G01*
X45208626Y-76349389D01*
X45360291Y-76450728D01*
X45489272Y-76579709D01*
X45590611Y-76731374D01*
X45660415Y-76899896D01*
X45696000Y-77078797D01*
X45696000Y-77261203D01*
X45660415Y-77440104D01*
X45590611Y-77608626D01*
X45489272Y-77760291D01*
X45360291Y-77889272D01*
X45208626Y-77990611D01*
X45040104Y-78060415D01*
X44861203Y-78096000D01*
X44678797Y-78096000D01*
X44499896Y-78060415D01*
X44331374Y-77990611D01*
X44179709Y-77889272D01*
X44050728Y-77760291D01*
X43949389Y-77608626D01*
X43879585Y-77440104D01*
X43844000Y-77261203D01*
X43844000Y-77078797D01*
X43879585Y-76899896D01*
X43949389Y-76731374D01*
X44050728Y-76579709D01*
X44179709Y-76450728D01*
X44331374Y-76349389D01*
X44499896Y-76279585D01*
X44678797Y-76244000D01*
X44861203Y-76244000D01*
X45040104Y-76279585D01*
G37*
G36*
X50120104Y-76279585D02*
G01*
X50288626Y-76349389D01*
X50440291Y-76450728D01*
X50569272Y-76579709D01*
X50670611Y-76731374D01*
X50740415Y-76899896D01*
X50776000Y-77078797D01*
X50776000Y-77261203D01*
X50740415Y-77440104D01*
X50670611Y-77608626D01*
X50569272Y-77760291D01*
X50440291Y-77889272D01*
X50288626Y-77990611D01*
X50120104Y-78060415D01*
X49941203Y-78096000D01*
X49758797Y-78096000D01*
X49579896Y-78060415D01*
X49411374Y-77990611D01*
X49259709Y-77889272D01*
X49130728Y-77760291D01*
X49029389Y-77608626D01*
X48959585Y-77440104D01*
X48924000Y-77261203D01*
X48924000Y-77078797D01*
X48959585Y-76899896D01*
X49029389Y-76731374D01*
X49130728Y-76579709D01*
X49259709Y-76450728D01*
X49411374Y-76349389D01*
X49579896Y-76279585D01*
X49758797Y-76244000D01*
X49941203Y-76244000D01*
X50120104Y-76279585D01*
G37*
G36*
X47580104Y-76279585D02*
G01*
X47748626Y-76349389D01*
X47900291Y-76450728D01*
X48029272Y-76579709D01*
X48130611Y-76731374D01*
X48200415Y-76899896D01*
X48236000Y-77078797D01*
X48236000Y-77261203D01*
X48200415Y-77440104D01*
X48130611Y-77608626D01*
X48029272Y-77760291D01*
X47900291Y-77889272D01*
X47748626Y-77990611D01*
X47580104Y-78060415D01*
X47401203Y-78096000D01*
X47218797Y-78096000D01*
X47039896Y-78060415D01*
X46871374Y-77990611D01*
X46719709Y-77889272D01*
X46590728Y-77760291D01*
X46489389Y-77608626D01*
X46419585Y-77440104D01*
X46384000Y-77261203D01*
X46384000Y-77078797D01*
X46419585Y-76899896D01*
X46489389Y-76731374D01*
X46590728Y-76579709D01*
X46719709Y-76450728D01*
X46871374Y-76349389D01*
X47039896Y-76279585D01*
X47218797Y-76244000D01*
X47401203Y-76244000D01*
X47580104Y-76279585D01*
G37*
G36*
X52660104Y-76279585D02*
G01*
X52828626Y-76349389D01*
X52980291Y-76450728D01*
X53109272Y-76579709D01*
X53210611Y-76731374D01*
X53280415Y-76899896D01*
X53316000Y-77078797D01*
X53316000Y-77261203D01*
X53280415Y-77440104D01*
X53210611Y-77608626D01*
X53109272Y-77760291D01*
X52980291Y-77889272D01*
X52828626Y-77990611D01*
X52660104Y-78060415D01*
X52481203Y-78096000D01*
X52298797Y-78096000D01*
X52119896Y-78060415D01*
X51951374Y-77990611D01*
X51799709Y-77889272D01*
X51670728Y-77760291D01*
X51569389Y-77608626D01*
X51499585Y-77440104D01*
X51464000Y-77261203D01*
X51464000Y-77078797D01*
X51499585Y-76899896D01*
X51569389Y-76731374D01*
X51670728Y-76579709D01*
X51799709Y-76450728D01*
X51951374Y-76349389D01*
X52119896Y-76279585D01*
X52298797Y-76244000D01*
X52481203Y-76244000D01*
X52660104Y-76279585D01*
G37*
G36*
X55200104Y-76279585D02*
G01*
X55368626Y-76349389D01*
X55520291Y-76450728D01*
X55649272Y-76579709D01*
X55750611Y-76731374D01*
X55820415Y-76899896D01*
X55856000Y-77078797D01*
X55856000Y-77261203D01*
X55820415Y-77440104D01*
X55750611Y-77608626D01*
X55649272Y-77760291D01*
X55520291Y-77889272D01*
X55368626Y-77990611D01*
X55200104Y-78060415D01*
X55021203Y-78096000D01*
X54838797Y-78096000D01*
X54659896Y-78060415D01*
X54491374Y-77990611D01*
X54339709Y-77889272D01*
X54210728Y-77760291D01*
X54109389Y-77608626D01*
X54039585Y-77440104D01*
X54004000Y-77261203D01*
X54004000Y-77078797D01*
X54039585Y-76899896D01*
X54109389Y-76731374D01*
X54210728Y-76579709D01*
X54339709Y-76450728D01*
X54491374Y-76349389D01*
X54659896Y-76279585D01*
X54838797Y-76244000D01*
X55021203Y-76244000D01*
X55200104Y-76279585D01*
G37*
G36*
X57740104Y-76279585D02*
G01*
X57908626Y-76349389D01*
X58060291Y-76450728D01*
X58189272Y-76579709D01*
X58290611Y-76731374D01*
X58360415Y-76899896D01*
X58396000Y-77078797D01*
X58396000Y-77261203D01*
X58360415Y-77440104D01*
X58290611Y-77608626D01*
X58189272Y-77760291D01*
X58060291Y-77889272D01*
X57908626Y-77990611D01*
X57740104Y-78060415D01*
X57561203Y-78096000D01*
X57378797Y-78096000D01*
X57199896Y-78060415D01*
X57031374Y-77990611D01*
X56879709Y-77889272D01*
X56750728Y-77760291D01*
X56649389Y-77608626D01*
X56579585Y-77440104D01*
X56544000Y-77261203D01*
X56544000Y-77078797D01*
X56579585Y-76899896D01*
X56649389Y-76731374D01*
X56750728Y-76579709D01*
X56879709Y-76450728D01*
X57031374Y-76349389D01*
X57199896Y-76279585D01*
X57378797Y-76244000D01*
X57561203Y-76244000D01*
X57740104Y-76279585D01*
G37*
G36*
X60280104Y-76279585D02*
G01*
X60448626Y-76349389D01*
X60600291Y-76450728D01*
X60729272Y-76579709D01*
X60830611Y-76731374D01*
X60900415Y-76899896D01*
X60936000Y-77078797D01*
X60936000Y-77261203D01*
X60900415Y-77440104D01*
X60830611Y-77608626D01*
X60729272Y-77760291D01*
X60600291Y-77889272D01*
X60448626Y-77990611D01*
X60280104Y-78060415D01*
X60101203Y-78096000D01*
X59918797Y-78096000D01*
X59739896Y-78060415D01*
X59571374Y-77990611D01*
X59419709Y-77889272D01*
X59290728Y-77760291D01*
X59189389Y-77608626D01*
X59119585Y-77440104D01*
X59084000Y-77261203D01*
X59084000Y-77078797D01*
X59119585Y-76899896D01*
X59189389Y-76731374D01*
X59290728Y-76579709D01*
X59419709Y-76450728D01*
X59571374Y-76349389D01*
X59739896Y-76279585D01*
X59918797Y-76244000D01*
X60101203Y-76244000D01*
X60280104Y-76279585D01*
G37*
G36*
X62820104Y-76279585D02*
G01*
X62988626Y-76349389D01*
X63140291Y-76450728D01*
X63269272Y-76579709D01*
X63370611Y-76731374D01*
X63440415Y-76899896D01*
X63476000Y-77078797D01*
X63476000Y-77261203D01*
X63440415Y-77440104D01*
X63370611Y-77608626D01*
X63269272Y-77760291D01*
X63140291Y-77889272D01*
X62988626Y-77990611D01*
X62820104Y-78060415D01*
X62641203Y-78096000D01*
X62458797Y-78096000D01*
X62279896Y-78060415D01*
X62111374Y-77990611D01*
X61959709Y-77889272D01*
X61830728Y-77760291D01*
X61729389Y-77608626D01*
X61659585Y-77440104D01*
X61624000Y-77261203D01*
X61624000Y-77078797D01*
X61659585Y-76899896D01*
X61729389Y-76731374D01*
X61830728Y-76579709D01*
X61959709Y-76450728D01*
X62111374Y-76349389D01*
X62279896Y-76279585D01*
X62458797Y-76244000D01*
X62641203Y-76244000D01*
X62820104Y-76279585D01*
G37*
G36*
X65360104Y-76279585D02*
G01*
X65528626Y-76349389D01*
X65680291Y-76450728D01*
X65809272Y-76579709D01*
X65910611Y-76731374D01*
X65980415Y-76899896D01*
X66016000Y-77078797D01*
X66016000Y-77261203D01*
X65980415Y-77440104D01*
X65910611Y-77608626D01*
X65809272Y-77760291D01*
X65680291Y-77889272D01*
X65528626Y-77990611D01*
X65360104Y-78060415D01*
X65181203Y-78096000D01*
X64998797Y-78096000D01*
X64819896Y-78060415D01*
X64651374Y-77990611D01*
X64499709Y-77889272D01*
X64370728Y-77760291D01*
X64269389Y-77608626D01*
X64199585Y-77440104D01*
X64164000Y-77261203D01*
X64164000Y-77078797D01*
X64199585Y-76899896D01*
X64269389Y-76731374D01*
X64370728Y-76579709D01*
X64499709Y-76450728D01*
X64651374Y-76349389D01*
X64819896Y-76279585D01*
X64998797Y-76244000D01*
X65181203Y-76244000D01*
X65360104Y-76279585D01*
G37*
G36*
X67900104Y-76279585D02*
G01*
X68068626Y-76349389D01*
X68220291Y-76450728D01*
X68349272Y-76579709D01*
X68450611Y-76731374D01*
X68520415Y-76899896D01*
X68556000Y-77078797D01*
X68556000Y-77261203D01*
X68520415Y-77440104D01*
X68450611Y-77608626D01*
X68349272Y-77760291D01*
X68220291Y-77889272D01*
X68068626Y-77990611D01*
X67900104Y-78060415D01*
X67721203Y-78096000D01*
X67538797Y-78096000D01*
X67359896Y-78060415D01*
X67191374Y-77990611D01*
X67039709Y-77889272D01*
X66910728Y-77760291D01*
X66809389Y-77608626D01*
X66739585Y-77440104D01*
X66704000Y-77261203D01*
X66704000Y-77078797D01*
X66739585Y-76899896D01*
X66809389Y-76731374D01*
X66910728Y-76579709D01*
X67039709Y-76450728D01*
X67191374Y-76349389D01*
X67359896Y-76279585D01*
X67538797Y-76244000D01*
X67721203Y-76244000D01*
X67900104Y-76279585D01*
G37*
G36*
X98315949Y-74528800D02*
G01*
X98575463Y-74636294D01*
X98575464Y-74636295D01*
X98809022Y-74792353D01*
X99007647Y-74990978D01*
X99086206Y-75108550D01*
X99163706Y-75224537D01*
X99271200Y-75484051D01*
X99326000Y-75759550D01*
X99326000Y-76040450D01*
X99271200Y-76315949D01*
X99163706Y-76575463D01*
X99163705Y-76575464D01*
X99007647Y-76809022D01*
X98809022Y-77007647D01*
X98702538Y-77078797D01*
X98575463Y-77163706D01*
X98315949Y-77271200D01*
X98040450Y-77326000D01*
X97759550Y-77326000D01*
X97484051Y-77271200D01*
X97224537Y-77163706D01*
X97097462Y-77078797D01*
X96990978Y-77007647D01*
X96792353Y-76809022D01*
X96636295Y-76575464D01*
X96636294Y-76575463D01*
X96528800Y-76315949D01*
X96474000Y-76040450D01*
X96474000Y-75759550D01*
X96528800Y-75484051D01*
X96636294Y-75224537D01*
X96713794Y-75108550D01*
X96792353Y-74990978D01*
X96990978Y-74792353D01*
X97224536Y-74636295D01*
X97224537Y-74636294D01*
X97484051Y-74528800D01*
X97759550Y-74474000D01*
X98040450Y-74474000D01*
X98315949Y-74528800D01*
G37*
G36*
X40315949Y-74528800D02*
G01*
X40575463Y-74636294D01*
X40575464Y-74636295D01*
X40809022Y-74792353D01*
X41007647Y-74990978D01*
X41086206Y-75108550D01*
X41163706Y-75224537D01*
X41271200Y-75484051D01*
X41326000Y-75759550D01*
X41326000Y-76040450D01*
X41271200Y-76315949D01*
X41163706Y-76575463D01*
X41163705Y-76575464D01*
X41007647Y-76809022D01*
X40809022Y-77007647D01*
X40702538Y-77078797D01*
X40575463Y-77163706D01*
X40315949Y-77271200D01*
X40040450Y-77326000D01*
X39759550Y-77326000D01*
X39484051Y-77271200D01*
X39224537Y-77163706D01*
X39097462Y-77078797D01*
X38990978Y-77007647D01*
X38792353Y-76809022D01*
X38636295Y-76575464D01*
X38636294Y-76575463D01*
X38528800Y-76315949D01*
X38474000Y-76040450D01*
X38474000Y-75759550D01*
X38528800Y-75484051D01*
X38636294Y-75224537D01*
X38713794Y-75108550D01*
X38792353Y-74990978D01*
X38990978Y-74792353D01*
X39224536Y-74636295D01*
X39224537Y-74636294D01*
X39484051Y-74528800D01*
X39759550Y-74474000D01*
X40040450Y-74474000D01*
X40315949Y-74528800D01*
G37*
G36*
X67900104Y-73739585D02*
G01*
X68068626Y-73809389D01*
X68220291Y-73910728D01*
X68349272Y-74039709D01*
X68450611Y-74191374D01*
X68520415Y-74359896D01*
X68556000Y-74538797D01*
X68556000Y-74721203D01*
X68520415Y-74900104D01*
X68450611Y-75068626D01*
X68349272Y-75220291D01*
X68220291Y-75349272D01*
X68068626Y-75450611D01*
X67900104Y-75520415D01*
X67721203Y-75556000D01*
X67538797Y-75556000D01*
X67359896Y-75520415D01*
X67191374Y-75450611D01*
X67039709Y-75349272D01*
X66910728Y-75220291D01*
X66809389Y-75068626D01*
X66739585Y-74900104D01*
X66704000Y-74721203D01*
X66704000Y-74538797D01*
X66739585Y-74359896D01*
X66809389Y-74191374D01*
X66910728Y-74039709D01*
X67039709Y-73910728D01*
X67191374Y-73809389D01*
X67359896Y-73739585D01*
X67538797Y-73704000D01*
X67721203Y-73704000D01*
X67900104Y-73739585D01*
G37*
G36*
X90760104Y-73739585D02*
G01*
X90928626Y-73809389D01*
X91080291Y-73910728D01*
X91209272Y-74039709D01*
X91310611Y-74191374D01*
X91380415Y-74359896D01*
X91416000Y-74538797D01*
X91416000Y-74721203D01*
X91380415Y-74900104D01*
X91310611Y-75068626D01*
X91209272Y-75220291D01*
X91080291Y-75349272D01*
X90928626Y-75450611D01*
X90760104Y-75520415D01*
X90581203Y-75556000D01*
X90398797Y-75556000D01*
X90219896Y-75520415D01*
X90051374Y-75450611D01*
X89899709Y-75349272D01*
X89770728Y-75220291D01*
X89669389Y-75068626D01*
X89599585Y-74900104D01*
X89564000Y-74721203D01*
X89564000Y-74538797D01*
X89599585Y-74359896D01*
X89669389Y-74191374D01*
X89770728Y-74039709D01*
X89899709Y-73910728D01*
X90051374Y-73809389D01*
X90219896Y-73739585D01*
X90398797Y-73704000D01*
X90581203Y-73704000D01*
X90760104Y-73739585D01*
G37*
G36*
X88220104Y-73739585D02*
G01*
X88388626Y-73809389D01*
X88540291Y-73910728D01*
X88669272Y-74039709D01*
X88770611Y-74191374D01*
X88840415Y-74359896D01*
X88876000Y-74538797D01*
X88876000Y-74721203D01*
X88840415Y-74900104D01*
X88770611Y-75068626D01*
X88669272Y-75220291D01*
X88540291Y-75349272D01*
X88388626Y-75450611D01*
X88220104Y-75520415D01*
X88041203Y-75556000D01*
X87858797Y-75556000D01*
X87679896Y-75520415D01*
X87511374Y-75450611D01*
X87359709Y-75349272D01*
X87230728Y-75220291D01*
X87129389Y-75068626D01*
X87059585Y-74900104D01*
X87024000Y-74721203D01*
X87024000Y-74538797D01*
X87059585Y-74359896D01*
X87129389Y-74191374D01*
X87230728Y-74039709D01*
X87359709Y-73910728D01*
X87511374Y-73809389D01*
X87679896Y-73739585D01*
X87858797Y-73704000D01*
X88041203Y-73704000D01*
X88220104Y-73739585D01*
G37*
G36*
X62820104Y-73739585D02*
G01*
X62988626Y-73809389D01*
X63140291Y-73910728D01*
X63269272Y-74039709D01*
X63370611Y-74191374D01*
X63440415Y-74359896D01*
X63476000Y-74538797D01*
X63476000Y-74721203D01*
X63440415Y-74900104D01*
X63370611Y-75068626D01*
X63269272Y-75220291D01*
X63140291Y-75349272D01*
X62988626Y-75450611D01*
X62820104Y-75520415D01*
X62641203Y-75556000D01*
X62458797Y-75556000D01*
X62279896Y-75520415D01*
X62111374Y-75450611D01*
X61959709Y-75349272D01*
X61830728Y-75220291D01*
X61729389Y-75068626D01*
X61659585Y-74900104D01*
X61624000Y-74721203D01*
X61624000Y-74538797D01*
X61659585Y-74359896D01*
X61729389Y-74191374D01*
X61830728Y-74039709D01*
X61959709Y-73910728D01*
X62111374Y-73809389D01*
X62279896Y-73739585D01*
X62458797Y-73704000D01*
X62641203Y-73704000D01*
X62820104Y-73739585D01*
G37*
G36*
X45040104Y-73739585D02*
G01*
X45208626Y-73809389D01*
X45360291Y-73910728D01*
X45489272Y-74039709D01*
X45590611Y-74191374D01*
X45660415Y-74359896D01*
X45696000Y-74538797D01*
X45696000Y-74721203D01*
X45660415Y-74900104D01*
X45590611Y-75068626D01*
X45489272Y-75220291D01*
X45360291Y-75349272D01*
X45208626Y-75450611D01*
X45040104Y-75520415D01*
X44861203Y-75556000D01*
X44678797Y-75556000D01*
X44499896Y-75520415D01*
X44331374Y-75450611D01*
X44179709Y-75349272D01*
X44050728Y-75220291D01*
X43949389Y-75068626D01*
X43879585Y-74900104D01*
X43844000Y-74721203D01*
X43844000Y-74538797D01*
X43879585Y-74359896D01*
X43949389Y-74191374D01*
X44050728Y-74039709D01*
X44179709Y-73910728D01*
X44331374Y-73809389D01*
X44499896Y-73739585D01*
X44678797Y-73704000D01*
X44861203Y-73704000D01*
X45040104Y-73739585D01*
G37*
G36*
X47580104Y-73739585D02*
G01*
X47748626Y-73809389D01*
X47900291Y-73910728D01*
X48029272Y-74039709D01*
X48130611Y-74191374D01*
X48200415Y-74359896D01*
X48236000Y-74538797D01*
X48236000Y-74721203D01*
X48200415Y-74900104D01*
X48130611Y-75068626D01*
X48029272Y-75220291D01*
X47900291Y-75349272D01*
X47748626Y-75450611D01*
X47580104Y-75520415D01*
X47401203Y-75556000D01*
X47218797Y-75556000D01*
X47039896Y-75520415D01*
X46871374Y-75450611D01*
X46719709Y-75349272D01*
X46590728Y-75220291D01*
X46489389Y-75068626D01*
X46419585Y-74900104D01*
X46384000Y-74721203D01*
X46384000Y-74538797D01*
X46419585Y-74359896D01*
X46489389Y-74191374D01*
X46590728Y-74039709D01*
X46719709Y-73910728D01*
X46871374Y-73809389D01*
X47039896Y-73739585D01*
X47218797Y-73704000D01*
X47401203Y-73704000D01*
X47580104Y-73739585D01*
G37*
G36*
X50120104Y-73739585D02*
G01*
X50288626Y-73809389D01*
X50440291Y-73910728D01*
X50569272Y-74039709D01*
X50670611Y-74191374D01*
X50740415Y-74359896D01*
X50776000Y-74538797D01*
X50776000Y-74721203D01*
X50740415Y-74900104D01*
X50670611Y-75068626D01*
X50569272Y-75220291D01*
X50440291Y-75349272D01*
X50288626Y-75450611D01*
X50120104Y-75520415D01*
X49941203Y-75556000D01*
X49758797Y-75556000D01*
X49579896Y-75520415D01*
X49411374Y-75450611D01*
X49259709Y-75349272D01*
X49130728Y-75220291D01*
X49029389Y-75068626D01*
X48959585Y-74900104D01*
X48924000Y-74721203D01*
X48924000Y-74538797D01*
X48959585Y-74359896D01*
X49029389Y-74191374D01*
X49130728Y-74039709D01*
X49259709Y-73910728D01*
X49411374Y-73809389D01*
X49579896Y-73739585D01*
X49758797Y-73704000D01*
X49941203Y-73704000D01*
X50120104Y-73739585D01*
G37*
G36*
X55200104Y-73739585D02*
G01*
X55368626Y-73809389D01*
X55520291Y-73910728D01*
X55649272Y-74039709D01*
X55750611Y-74191374D01*
X55820415Y-74359896D01*
X55856000Y-74538797D01*
X55856000Y-74721203D01*
X55820415Y-74900104D01*
X55750611Y-75068626D01*
X55649272Y-75220291D01*
X55520291Y-75349272D01*
X55368626Y-75450611D01*
X55200104Y-75520415D01*
X55021203Y-75556000D01*
X54838797Y-75556000D01*
X54659896Y-75520415D01*
X54491374Y-75450611D01*
X54339709Y-75349272D01*
X54210728Y-75220291D01*
X54109389Y-75068626D01*
X54039585Y-74900104D01*
X54004000Y-74721203D01*
X54004000Y-74538797D01*
X54039585Y-74359896D01*
X54109389Y-74191374D01*
X54210728Y-74039709D01*
X54339709Y-73910728D01*
X54491374Y-73809389D01*
X54659896Y-73739585D01*
X54838797Y-73704000D01*
X55021203Y-73704000D01*
X55200104Y-73739585D01*
G37*
G36*
X85680104Y-73739585D02*
G01*
X85848626Y-73809389D01*
X86000291Y-73910728D01*
X86129272Y-74039709D01*
X86230611Y-74191374D01*
X86300415Y-74359896D01*
X86336000Y-74538797D01*
X86336000Y-74721203D01*
X86300415Y-74900104D01*
X86230611Y-75068626D01*
X86129272Y-75220291D01*
X86000291Y-75349272D01*
X85848626Y-75450611D01*
X85680104Y-75520415D01*
X85501203Y-75556000D01*
X85318797Y-75556000D01*
X85139896Y-75520415D01*
X84971374Y-75450611D01*
X84819709Y-75349272D01*
X84690728Y-75220291D01*
X84589389Y-75068626D01*
X84519585Y-74900104D01*
X84484000Y-74721203D01*
X84484000Y-74538797D01*
X84519585Y-74359896D01*
X84589389Y-74191374D01*
X84690728Y-74039709D01*
X84819709Y-73910728D01*
X84971374Y-73809389D01*
X85139896Y-73739585D01*
X85318797Y-73704000D01*
X85501203Y-73704000D01*
X85680104Y-73739585D01*
G37*
G36*
X83140104Y-73739585D02*
G01*
X83308626Y-73809389D01*
X83460291Y-73910728D01*
X83589272Y-74039709D01*
X83690611Y-74191374D01*
X83760415Y-74359896D01*
X83796000Y-74538797D01*
X83796000Y-74721203D01*
X83760415Y-74900104D01*
X83690611Y-75068626D01*
X83589272Y-75220291D01*
X83460291Y-75349272D01*
X83308626Y-75450611D01*
X83140104Y-75520415D01*
X82961203Y-75556000D01*
X82778797Y-75556000D01*
X82599896Y-75520415D01*
X82431374Y-75450611D01*
X82279709Y-75349272D01*
X82150728Y-75220291D01*
X82049389Y-75068626D01*
X81979585Y-74900104D01*
X81944000Y-74721203D01*
X81944000Y-74538797D01*
X81979585Y-74359896D01*
X82049389Y-74191374D01*
X82150728Y-74039709D01*
X82279709Y-73910728D01*
X82431374Y-73809389D01*
X82599896Y-73739585D01*
X82778797Y-73704000D01*
X82961203Y-73704000D01*
X83140104Y-73739585D01*
G37*
G36*
X60280104Y-73739585D02*
G01*
X60448626Y-73809389D01*
X60600291Y-73910728D01*
X60729272Y-74039709D01*
X60830611Y-74191374D01*
X60900415Y-74359896D01*
X60936000Y-74538797D01*
X60936000Y-74721203D01*
X60900415Y-74900104D01*
X60830611Y-75068626D01*
X60729272Y-75220291D01*
X60600291Y-75349272D01*
X60448626Y-75450611D01*
X60280104Y-75520415D01*
X60101203Y-75556000D01*
X59918797Y-75556000D01*
X59739896Y-75520415D01*
X59571374Y-75450611D01*
X59419709Y-75349272D01*
X59290728Y-75220291D01*
X59189389Y-75068626D01*
X59119585Y-74900104D01*
X59084000Y-74721203D01*
X59084000Y-74538797D01*
X59119585Y-74359896D01*
X59189389Y-74191374D01*
X59290728Y-74039709D01*
X59419709Y-73910728D01*
X59571374Y-73809389D01*
X59739896Y-73739585D01*
X59918797Y-73704000D01*
X60101203Y-73704000D01*
X60280104Y-73739585D01*
G37*
G36*
X72980104Y-73739585D02*
G01*
X73148626Y-73809389D01*
X73300291Y-73910728D01*
X73429272Y-74039709D01*
X73530611Y-74191374D01*
X73600415Y-74359896D01*
X73636000Y-74538797D01*
X73636000Y-74721203D01*
X73600415Y-74900104D01*
X73530611Y-75068626D01*
X73429272Y-75220291D01*
X73300291Y-75349272D01*
X73148626Y-75450611D01*
X72980104Y-75520415D01*
X72801203Y-75556000D01*
X72618797Y-75556000D01*
X72439896Y-75520415D01*
X72271374Y-75450611D01*
X72119709Y-75349272D01*
X71990728Y-75220291D01*
X71889389Y-75068626D01*
X71819585Y-74900104D01*
X71784000Y-74721203D01*
X71784000Y-74538797D01*
X71819585Y-74359896D01*
X71889389Y-74191374D01*
X71990728Y-74039709D01*
X72119709Y-73910728D01*
X72271374Y-73809389D01*
X72439896Y-73739585D01*
X72618797Y-73704000D01*
X72801203Y-73704000D01*
X72980104Y-73739585D01*
G37*
G36*
X70440104Y-73739585D02*
G01*
X70608626Y-73809389D01*
X70760291Y-73910728D01*
X70889272Y-74039709D01*
X70990611Y-74191374D01*
X71060415Y-74359896D01*
X71096000Y-74538797D01*
X71096000Y-74721203D01*
X71060415Y-74900104D01*
X70990611Y-75068626D01*
X70889272Y-75220291D01*
X70760291Y-75349272D01*
X70608626Y-75450611D01*
X70440104Y-75520415D01*
X70261203Y-75556000D01*
X70078797Y-75556000D01*
X69899896Y-75520415D01*
X69731374Y-75450611D01*
X69579709Y-75349272D01*
X69450728Y-75220291D01*
X69349389Y-75068626D01*
X69279585Y-74900104D01*
X69244000Y-74721203D01*
X69244000Y-74538797D01*
X69279585Y-74359896D01*
X69349389Y-74191374D01*
X69450728Y-74039709D01*
X69579709Y-73910728D01*
X69731374Y-73809389D01*
X69899896Y-73739585D01*
X70078797Y-73704000D01*
X70261203Y-73704000D01*
X70440104Y-73739585D01*
G37*
G36*
X93956000Y-75556000D02*
G01*
X92104000Y-75556000D01*
X92104000Y-73704000D01*
X93956000Y-73704000D01*
X93956000Y-75556000D01*
G37*
G36*
X52660104Y-73739585D02*
G01*
X52828626Y-73809389D01*
X52980291Y-73910728D01*
X53109272Y-74039709D01*
X53210611Y-74191374D01*
X53280415Y-74359896D01*
X53316000Y-74538797D01*
X53316000Y-74721203D01*
X53280415Y-74900104D01*
X53210611Y-75068626D01*
X53109272Y-75220291D01*
X52980291Y-75349272D01*
X52828626Y-75450611D01*
X52660104Y-75520415D01*
X52481203Y-75556000D01*
X52298797Y-75556000D01*
X52119896Y-75520415D01*
X51951374Y-75450611D01*
X51799709Y-75349272D01*
X51670728Y-75220291D01*
X51569389Y-75068626D01*
X51499585Y-74900104D01*
X51464000Y-74721203D01*
X51464000Y-74538797D01*
X51499585Y-74359896D01*
X51569389Y-74191374D01*
X51670728Y-74039709D01*
X51799709Y-73910728D01*
X51951374Y-73809389D01*
X52119896Y-73739585D01*
X52298797Y-73704000D01*
X52481203Y-73704000D01*
X52660104Y-73739585D01*
G37*
G36*
X65360104Y-73739585D02*
G01*
X65528626Y-73809389D01*
X65680291Y-73910728D01*
X65809272Y-74039709D01*
X65910611Y-74191374D01*
X65980415Y-74359896D01*
X66016000Y-74538797D01*
X66016000Y-74721203D01*
X65980415Y-74900104D01*
X65910611Y-75068626D01*
X65809272Y-75220291D01*
X65680291Y-75349272D01*
X65528626Y-75450611D01*
X65360104Y-75520415D01*
X65181203Y-75556000D01*
X64998797Y-75556000D01*
X64819896Y-75520415D01*
X64651374Y-75450611D01*
X64499709Y-75349272D01*
X64370728Y-75220291D01*
X64269389Y-75068626D01*
X64199585Y-74900104D01*
X64164000Y-74721203D01*
X64164000Y-74538797D01*
X64199585Y-74359896D01*
X64269389Y-74191374D01*
X64370728Y-74039709D01*
X64499709Y-73910728D01*
X64651374Y-73809389D01*
X64819896Y-73739585D01*
X64998797Y-73704000D01*
X65181203Y-73704000D01*
X65360104Y-73739585D01*
G37*
G36*
X78060104Y-73739585D02*
G01*
X78228626Y-73809389D01*
X78380291Y-73910728D01*
X78509272Y-74039709D01*
X78610611Y-74191374D01*
X78680415Y-74359896D01*
X78716000Y-74538797D01*
X78716000Y-74721203D01*
X78680415Y-74900104D01*
X78610611Y-75068626D01*
X78509272Y-75220291D01*
X78380291Y-75349272D01*
X78228626Y-75450611D01*
X78060104Y-75520415D01*
X77881203Y-75556000D01*
X77698797Y-75556000D01*
X77519896Y-75520415D01*
X77351374Y-75450611D01*
X77199709Y-75349272D01*
X77070728Y-75220291D01*
X76969389Y-75068626D01*
X76899585Y-74900104D01*
X76864000Y-74721203D01*
X76864000Y-74538797D01*
X76899585Y-74359896D01*
X76969389Y-74191374D01*
X77070728Y-74039709D01*
X77199709Y-73910728D01*
X77351374Y-73809389D01*
X77519896Y-73739585D01*
X77698797Y-73704000D01*
X77881203Y-73704000D01*
X78060104Y-73739585D01*
G37*
G36*
X57740104Y-73739585D02*
G01*
X57908626Y-73809389D01*
X58060291Y-73910728D01*
X58189272Y-74039709D01*
X58290611Y-74191374D01*
X58360415Y-74359896D01*
X58396000Y-74538797D01*
X58396000Y-74721203D01*
X58360415Y-74900104D01*
X58290611Y-75068626D01*
X58189272Y-75220291D01*
X58060291Y-75349272D01*
X57908626Y-75450611D01*
X57740104Y-75520415D01*
X57561203Y-75556000D01*
X57378797Y-75556000D01*
X57199896Y-75520415D01*
X57031374Y-75450611D01*
X56879709Y-75349272D01*
X56750728Y-75220291D01*
X56649389Y-75068626D01*
X56579585Y-74900104D01*
X56544000Y-74721203D01*
X56544000Y-74538797D01*
X56579585Y-74359896D01*
X56649389Y-74191374D01*
X56750728Y-74039709D01*
X56879709Y-73910728D01*
X57031374Y-73809389D01*
X57199896Y-73739585D01*
X57378797Y-73704000D01*
X57561203Y-73704000D01*
X57740104Y-73739585D01*
G37*
G36*
X75520104Y-73739585D02*
G01*
X75688626Y-73809389D01*
X75840291Y-73910728D01*
X75969272Y-74039709D01*
X76070611Y-74191374D01*
X76140415Y-74359896D01*
X76176000Y-74538797D01*
X76176000Y-74721203D01*
X76140415Y-74900104D01*
X76070611Y-75068626D01*
X75969272Y-75220291D01*
X75840291Y-75349272D01*
X75688626Y-75450611D01*
X75520104Y-75520415D01*
X75341203Y-75556000D01*
X75158797Y-75556000D01*
X74979896Y-75520415D01*
X74811374Y-75450611D01*
X74659709Y-75349272D01*
X74530728Y-75220291D01*
X74429389Y-75068626D01*
X74359585Y-74900104D01*
X74324000Y-74721203D01*
X74324000Y-74538797D01*
X74359585Y-74359896D01*
X74429389Y-74191374D01*
X74530728Y-74039709D01*
X74659709Y-73910728D01*
X74811374Y-73809389D01*
X74979896Y-73739585D01*
X75158797Y-73704000D01*
X75341203Y-73704000D01*
X75520104Y-73739585D01*
G37*
G36*
X80600104Y-73739585D02*
G01*
X80768626Y-73809389D01*
X80920291Y-73910728D01*
X81049272Y-74039709D01*
X81150611Y-74191374D01*
X81220415Y-74359896D01*
X81256000Y-74538797D01*
X81256000Y-74721203D01*
X81220415Y-74900104D01*
X81150611Y-75068626D01*
X81049272Y-75220291D01*
X80920291Y-75349272D01*
X80768626Y-75450611D01*
X80600104Y-75520415D01*
X80421203Y-75556000D01*
X80238797Y-75556000D01*
X80059896Y-75520415D01*
X79891374Y-75450611D01*
X79739709Y-75349272D01*
X79610728Y-75220291D01*
X79509389Y-75068626D01*
X79439585Y-74900104D01*
X79404000Y-74721203D01*
X79404000Y-74538797D01*
X79439585Y-74359896D01*
X79509389Y-74191374D01*
X79610728Y-74039709D01*
X79739709Y-73910728D01*
X79891374Y-73809389D01*
X80059896Y-73739585D01*
X80238797Y-73704000D01*
X80421203Y-73704000D01*
X80600104Y-73739585D01*
G37*
G36*
X258229421Y-69955097D02*
G01*
X258292806Y-69974325D01*
X258351220Y-70005548D01*
X258402427Y-70047573D01*
X258444452Y-70098780D01*
X258475675Y-70157194D01*
X258494903Y-70220579D01*
X258502000Y-70292640D01*
X258502000Y-71207360D01*
X258494903Y-71279421D01*
X258475675Y-71342806D01*
X258444452Y-71401220D01*
X258402427Y-71452427D01*
X258351220Y-71494452D01*
X258292806Y-71525675D01*
X258229421Y-71544903D01*
X258157360Y-71552000D01*
X256542640Y-71552000D01*
X256470579Y-71544903D01*
X256407194Y-71525675D01*
X256348780Y-71494452D01*
X256297573Y-71452427D01*
X256255548Y-71401220D01*
X256224325Y-71342806D01*
X256205097Y-71279421D01*
X256198000Y-71207360D01*
X256198000Y-70292640D01*
X256205097Y-70220579D01*
X256224325Y-70157194D01*
X256255548Y-70098780D01*
X256297573Y-70047573D01*
X256348780Y-70005548D01*
X256407194Y-69974325D01*
X256470579Y-69955097D01*
X256542640Y-69948000D01*
X258157360Y-69948000D01*
X258229421Y-69955097D01*
G37*
G36*
X249129421Y-69955097D02*
G01*
X249192806Y-69974325D01*
X249251220Y-70005548D01*
X249302427Y-70047573D01*
X249344452Y-70098780D01*
X249375675Y-70157194D01*
X249394903Y-70220579D01*
X249402000Y-70292640D01*
X249402000Y-71207360D01*
X249394903Y-71279421D01*
X249375675Y-71342806D01*
X249344452Y-71401220D01*
X249302427Y-71452427D01*
X249251220Y-71494452D01*
X249192806Y-71525675D01*
X249129421Y-71544903D01*
X249057360Y-71552000D01*
X247442640Y-71552000D01*
X247370579Y-71544903D01*
X247307194Y-71525675D01*
X247248780Y-71494452D01*
X247197573Y-71452427D01*
X247155548Y-71401220D01*
X247124325Y-71342806D01*
X247105097Y-71279421D01*
X247098000Y-71207360D01*
X247098000Y-70292640D01*
X247105097Y-70220579D01*
X247124325Y-70157194D01*
X247155548Y-70098780D01*
X247197573Y-70047573D01*
X247248780Y-70005548D01*
X247307194Y-69974325D01*
X247370579Y-69955097D01*
X247442640Y-69948000D01*
X249057360Y-69948000D01*
X249129421Y-69955097D01*
G37*
G36*
X230629421Y-69955097D02*
G01*
X230692806Y-69974325D01*
X230751220Y-70005548D01*
X230802427Y-70047573D01*
X230844452Y-70098780D01*
X230875675Y-70157194D01*
X230894903Y-70220579D01*
X230902000Y-70292640D01*
X230902000Y-71207360D01*
X230894903Y-71279421D01*
X230875675Y-71342806D01*
X230844452Y-71401220D01*
X230802427Y-71452427D01*
X230751220Y-71494452D01*
X230692806Y-71525675D01*
X230629421Y-71544903D01*
X230557360Y-71552000D01*
X228942640Y-71552000D01*
X228870579Y-71544903D01*
X228807194Y-71525675D01*
X228748780Y-71494452D01*
X228697573Y-71452427D01*
X228655548Y-71401220D01*
X228624325Y-71342806D01*
X228605097Y-71279421D01*
X228598000Y-71207360D01*
X228598000Y-70292640D01*
X228605097Y-70220579D01*
X228624325Y-70157194D01*
X228655548Y-70098780D01*
X228697573Y-70047573D01*
X228748780Y-70005548D01*
X228807194Y-69974325D01*
X228870579Y-69955097D01*
X228942640Y-69948000D01*
X230557360Y-69948000D01*
X230629421Y-69955097D01*
G37*
G36*
X239729421Y-69955097D02*
G01*
X239792806Y-69974325D01*
X239851220Y-70005548D01*
X239902427Y-70047573D01*
X239944452Y-70098780D01*
X239975675Y-70157194D01*
X239994903Y-70220579D01*
X240002000Y-70292640D01*
X240002000Y-71207360D01*
X239994903Y-71279421D01*
X239975675Y-71342806D01*
X239944452Y-71401220D01*
X239902427Y-71452427D01*
X239851220Y-71494452D01*
X239792806Y-71525675D01*
X239729421Y-71544903D01*
X239657360Y-71552000D01*
X238042640Y-71552000D01*
X237970579Y-71544903D01*
X237907194Y-71525675D01*
X237848780Y-71494452D01*
X237797573Y-71452427D01*
X237755548Y-71401220D01*
X237724325Y-71342806D01*
X237705097Y-71279421D01*
X237698000Y-71207360D01*
X237698000Y-70292640D01*
X237705097Y-70220579D01*
X237724325Y-70157194D01*
X237755548Y-70098780D01*
X237797573Y-70047573D01*
X237848780Y-70005548D01*
X237907194Y-69974325D01*
X237970579Y-69955097D01*
X238042640Y-69948000D01*
X239657360Y-69948000D01*
X239729421Y-69955097D01*
G37*
G36*
X239729421Y-65455097D02*
G01*
X239792806Y-65474325D01*
X239851220Y-65505548D01*
X239902427Y-65547573D01*
X239944452Y-65598780D01*
X239975675Y-65657194D01*
X239994903Y-65720579D01*
X240002000Y-65792640D01*
X240002000Y-66707360D01*
X239994903Y-66779421D01*
X239975675Y-66842806D01*
X239944452Y-66901220D01*
X239902427Y-66952427D01*
X239851220Y-66994452D01*
X239792806Y-67025675D01*
X239729421Y-67044903D01*
X239657360Y-67052000D01*
X238042640Y-67052000D01*
X237970579Y-67044903D01*
X237907194Y-67025675D01*
X237848780Y-66994452D01*
X237797573Y-66952427D01*
X237755548Y-66901220D01*
X237724325Y-66842806D01*
X237705097Y-66779421D01*
X237698000Y-66707360D01*
X237698000Y-65792640D01*
X237705097Y-65720579D01*
X237724325Y-65657194D01*
X237755548Y-65598780D01*
X237797573Y-65547573D01*
X237848780Y-65505548D01*
X237907194Y-65474325D01*
X237970579Y-65455097D01*
X238042640Y-65448000D01*
X239657360Y-65448000D01*
X239729421Y-65455097D01*
G37*
G36*
X230629421Y-65455097D02*
G01*
X230692806Y-65474325D01*
X230751220Y-65505548D01*
X230802427Y-65547573D01*
X230844452Y-65598780D01*
X230875675Y-65657194D01*
X230894903Y-65720579D01*
X230902000Y-65792640D01*
X230902000Y-66707360D01*
X230894903Y-66779421D01*
X230875675Y-66842806D01*
X230844452Y-66901220D01*
X230802427Y-66952427D01*
X230751220Y-66994452D01*
X230692806Y-67025675D01*
X230629421Y-67044903D01*
X230557360Y-67052000D01*
X228942640Y-67052000D01*
X228870579Y-67044903D01*
X228807194Y-67025675D01*
X228748780Y-66994452D01*
X228697573Y-66952427D01*
X228655548Y-66901220D01*
X228624325Y-66842806D01*
X228605097Y-66779421D01*
X228598000Y-66707360D01*
X228598000Y-65792640D01*
X228605097Y-65720579D01*
X228624325Y-65657194D01*
X228655548Y-65598780D01*
X228697573Y-65547573D01*
X228748780Y-65505548D01*
X228807194Y-65474325D01*
X228870579Y-65455097D01*
X228942640Y-65448000D01*
X230557360Y-65448000D01*
X230629421Y-65455097D01*
G37*
G36*
X249129421Y-65455097D02*
G01*
X249192806Y-65474325D01*
X249251220Y-65505548D01*
X249302427Y-65547573D01*
X249344452Y-65598780D01*
X249375675Y-65657194D01*
X249394903Y-65720579D01*
X249402000Y-65792640D01*
X249402000Y-66707360D01*
X249394903Y-66779421D01*
X249375675Y-66842806D01*
X249344452Y-66901220D01*
X249302427Y-66952427D01*
X249251220Y-66994452D01*
X249192806Y-67025675D01*
X249129421Y-67044903D01*
X249057360Y-67052000D01*
X247442640Y-67052000D01*
X247370579Y-67044903D01*
X247307194Y-67025675D01*
X247248780Y-66994452D01*
X247197573Y-66952427D01*
X247155548Y-66901220D01*
X247124325Y-66842806D01*
X247105097Y-66779421D01*
X247098000Y-66707360D01*
X247098000Y-65792640D01*
X247105097Y-65720579D01*
X247124325Y-65657194D01*
X247155548Y-65598780D01*
X247197573Y-65547573D01*
X247248780Y-65505548D01*
X247307194Y-65474325D01*
X247370579Y-65455097D01*
X247442640Y-65448000D01*
X249057360Y-65448000D01*
X249129421Y-65455097D01*
G37*
G36*
X258229421Y-65455097D02*
G01*
X258292806Y-65474325D01*
X258351220Y-65505548D01*
X258402427Y-65547573D01*
X258444452Y-65598780D01*
X258475675Y-65657194D01*
X258494903Y-65720579D01*
X258502000Y-65792640D01*
X258502000Y-66707360D01*
X258494903Y-66779421D01*
X258475675Y-66842806D01*
X258444452Y-66901220D01*
X258402427Y-66952427D01*
X258351220Y-66994452D01*
X258292806Y-67025675D01*
X258229421Y-67044903D01*
X258157360Y-67052000D01*
X256542640Y-67052000D01*
X256470579Y-67044903D01*
X256407194Y-67025675D01*
X256348780Y-66994452D01*
X256297573Y-66952427D01*
X256255548Y-66901220D01*
X256224325Y-66842806D01*
X256205097Y-66779421D01*
X256198000Y-66707360D01*
X256198000Y-65792640D01*
X256205097Y-65720579D01*
X256224325Y-65657194D01*
X256255548Y-65598780D01*
X256297573Y-65547573D01*
X256348780Y-65505548D01*
X256407194Y-65474325D01*
X256470579Y-65455097D01*
X256542640Y-65448000D01*
X258157360Y-65448000D01*
X258229421Y-65455097D01*
G37*
G36*
X235951000Y-60451000D02*
G01*
X232649000Y-60451000D01*
X232649000Y-58349000D01*
X235951000Y-58349000D01*
X235951000Y-60451000D01*
G37*
G36*
X241606564Y-55289389D02*
G01*
X241790192Y-55365450D01*
X241797835Y-55368616D01*
X241884039Y-55426216D01*
X241969973Y-55483635D01*
X242116365Y-55630027D01*
X242231385Y-55802167D01*
X242310611Y-55993436D01*
X242351000Y-56196484D01*
X242351000Y-56403516D01*
X242310611Y-56606564D01*
X242236941Y-56784419D01*
X242231384Y-56797835D01*
X242116365Y-56969973D01*
X241969973Y-57116365D01*
X241797835Y-57231384D01*
X241797834Y-57231385D01*
X241797833Y-57231385D01*
X241606564Y-57310611D01*
X241403516Y-57351000D01*
X241196484Y-57351000D01*
X240993436Y-57310611D01*
X240802167Y-57231385D01*
X240802166Y-57231385D01*
X240802165Y-57231384D01*
X240630027Y-57116365D01*
X240483635Y-56969973D01*
X240368616Y-56797835D01*
X240363059Y-56784419D01*
X240289389Y-56606564D01*
X240249000Y-56403516D01*
X240249000Y-56196484D01*
X240289389Y-55993436D01*
X240368615Y-55802167D01*
X240483635Y-55630027D01*
X240630027Y-55483635D01*
X240715961Y-55426216D01*
X240802165Y-55368616D01*
X240809808Y-55365450D01*
X240993436Y-55289389D01*
X241196484Y-55249000D01*
X241403516Y-55249000D01*
X241606564Y-55289389D01*
G37*
G36*
X227106564Y-55289389D02*
G01*
X227290192Y-55365450D01*
X227297835Y-55368616D01*
X227384039Y-55426216D01*
X227469973Y-55483635D01*
X227616365Y-55630027D01*
X227731385Y-55802167D01*
X227810611Y-55993436D01*
X227851000Y-56196484D01*
X227851000Y-56403516D01*
X227810611Y-56606564D01*
X227736941Y-56784419D01*
X227731384Y-56797835D01*
X227616365Y-56969973D01*
X227469973Y-57116365D01*
X227297835Y-57231384D01*
X227297834Y-57231385D01*
X227297833Y-57231385D01*
X227106564Y-57310611D01*
X226903516Y-57351000D01*
X226696484Y-57351000D01*
X226493436Y-57310611D01*
X226302167Y-57231385D01*
X226302166Y-57231385D01*
X226302165Y-57231384D01*
X226130027Y-57116365D01*
X225983635Y-56969973D01*
X225868616Y-56797835D01*
X225863059Y-56784419D01*
X225789389Y-56606564D01*
X225749000Y-56403516D01*
X225749000Y-56196484D01*
X225789389Y-55993436D01*
X225868615Y-55802167D01*
X225983635Y-55630027D01*
X226130027Y-55483635D01*
X226215961Y-55426216D01*
X226302165Y-55368616D01*
X226309808Y-55365450D01*
X226493436Y-55289389D01*
X226696484Y-55249000D01*
X226903516Y-55249000D01*
X227106564Y-55289389D01*
G37*
G36*
X249129421Y-55255097D02*
G01*
X249192806Y-55274325D01*
X249251220Y-55305548D01*
X249302427Y-55347573D01*
X249344452Y-55398780D01*
X249375675Y-55457194D01*
X249394903Y-55520579D01*
X249402000Y-55592640D01*
X249402000Y-56507360D01*
X249394903Y-56579421D01*
X249375675Y-56642806D01*
X249344452Y-56701220D01*
X249302427Y-56752427D01*
X249251220Y-56794452D01*
X249192806Y-56825675D01*
X249129421Y-56844903D01*
X249057360Y-56852000D01*
X247442640Y-56852000D01*
X247370579Y-56844903D01*
X247307194Y-56825675D01*
X247248780Y-56794452D01*
X247197573Y-56752427D01*
X247155548Y-56701220D01*
X247124325Y-56642806D01*
X247105097Y-56579421D01*
X247098000Y-56507360D01*
X247098000Y-55592640D01*
X247105097Y-55520579D01*
X247124325Y-55457194D01*
X247155548Y-55398780D01*
X247197573Y-55347573D01*
X247248780Y-55305548D01*
X247307194Y-55274325D01*
X247370579Y-55255097D01*
X247442640Y-55248000D01*
X249057360Y-55248000D01*
X249129421Y-55255097D01*
G37*
G36*
X258229421Y-55255097D02*
G01*
X258292806Y-55274325D01*
X258351220Y-55305548D01*
X258402427Y-55347573D01*
X258444452Y-55398780D01*
X258475675Y-55457194D01*
X258494903Y-55520579D01*
X258502000Y-55592640D01*
X258502000Y-56507360D01*
X258494903Y-56579421D01*
X258475675Y-56642806D01*
X258444452Y-56701220D01*
X258402427Y-56752427D01*
X258351220Y-56794452D01*
X258292806Y-56825675D01*
X258229421Y-56844903D01*
X258157360Y-56852000D01*
X256542640Y-56852000D01*
X256470579Y-56844903D01*
X256407194Y-56825675D01*
X256348780Y-56794452D01*
X256297573Y-56752427D01*
X256255548Y-56701220D01*
X256224325Y-56642806D01*
X256205097Y-56579421D01*
X256198000Y-56507360D01*
X256198000Y-55592640D01*
X256205097Y-55520579D01*
X256224325Y-55457194D01*
X256255548Y-55398780D01*
X256297573Y-55347573D01*
X256348780Y-55305548D01*
X256407194Y-55274325D01*
X256470579Y-55255097D01*
X256542640Y-55248000D01*
X258157360Y-55248000D01*
X258229421Y-55255097D01*
G37*
G36*
X227106564Y-52789389D02*
G01*
X227297833Y-52868615D01*
X227297835Y-52868616D01*
X227469973Y-52983635D01*
X227616365Y-53130027D01*
X227731385Y-53302167D01*
X227810611Y-53493436D01*
X227851000Y-53696484D01*
X227851000Y-53903516D01*
X227810611Y-54106564D01*
X227731385Y-54297833D01*
X227731384Y-54297835D01*
X227616365Y-54469973D01*
X227469973Y-54616365D01*
X227297835Y-54731384D01*
X227297834Y-54731385D01*
X227297833Y-54731385D01*
X227106564Y-54810611D01*
X226903516Y-54851000D01*
X226696484Y-54851000D01*
X226493436Y-54810611D01*
X226302167Y-54731385D01*
X226302166Y-54731385D01*
X226302165Y-54731384D01*
X226130027Y-54616365D01*
X225983635Y-54469973D01*
X225868616Y-54297835D01*
X225868615Y-54297833D01*
X225789389Y-54106564D01*
X225749000Y-53903516D01*
X225749000Y-53696484D01*
X225789389Y-53493436D01*
X225868615Y-53302167D01*
X225983635Y-53130027D01*
X226130027Y-52983635D01*
X226302165Y-52868616D01*
X226302167Y-52868615D01*
X226493436Y-52789389D01*
X226696484Y-52749000D01*
X226903516Y-52749000D01*
X227106564Y-52789389D01*
G37*
G36*
X193175256Y-49191298D02*
G01*
X193281579Y-49212447D01*
X193582042Y-49336903D01*
X193852451Y-49517585D01*
X194082415Y-49747549D01*
X194263097Y-50017958D01*
X194375528Y-50289389D01*
X194387553Y-50318422D01*
X194451000Y-50637389D01*
X194451000Y-50962611D01*
X194444868Y-50993436D01*
X194387553Y-51281579D01*
X194263097Y-51582042D01*
X194082415Y-51852451D01*
X193852451Y-52082415D01*
X193582042Y-52263097D01*
X193281579Y-52387553D01*
X193175256Y-52408702D01*
X192962611Y-52451000D01*
X192637389Y-52451000D01*
X192424744Y-52408702D01*
X192318421Y-52387553D01*
X192017958Y-52263097D01*
X191747549Y-52082415D01*
X191517585Y-51852451D01*
X191336903Y-51582042D01*
X191212447Y-51281579D01*
X191155132Y-50993436D01*
X191149000Y-50962611D01*
X191149000Y-50637389D01*
X191212447Y-50318422D01*
X191224473Y-50289389D01*
X191336903Y-50017958D01*
X191517585Y-49747549D01*
X191747549Y-49517585D01*
X192017958Y-49336903D01*
X192318421Y-49212447D01*
X192424744Y-49191298D01*
X192637389Y-49149000D01*
X192962611Y-49149000D01*
X193175256Y-49191298D01*
G37*
G36*
X66975256Y-49191298D02*
G01*
X67081579Y-49212447D01*
X67382042Y-49336903D01*
X67652451Y-49517585D01*
X67882415Y-49747549D01*
X68063097Y-50017958D01*
X68175528Y-50289389D01*
X68187553Y-50318422D01*
X68251000Y-50637389D01*
X68251000Y-50962611D01*
X68244868Y-50993436D01*
X68187553Y-51281579D01*
X68063097Y-51582042D01*
X67882415Y-51852451D01*
X67652451Y-52082415D01*
X67382042Y-52263097D01*
X67081579Y-52387553D01*
X66975256Y-52408702D01*
X66762611Y-52451000D01*
X66437389Y-52451000D01*
X66224744Y-52408702D01*
X66118421Y-52387553D01*
X65817958Y-52263097D01*
X65547549Y-52082415D01*
X65317585Y-51852451D01*
X65136903Y-51582042D01*
X65012447Y-51281579D01*
X64955132Y-50993436D01*
X64949000Y-50962611D01*
X64949000Y-50637389D01*
X65012447Y-50318422D01*
X65024473Y-50289389D01*
X65136903Y-50017958D01*
X65317585Y-49747549D01*
X65547549Y-49517585D01*
X65817958Y-49336903D01*
X66118421Y-49212447D01*
X66224744Y-49191298D01*
X66437389Y-49149000D01*
X66762611Y-49149000D01*
X66975256Y-49191298D01*
G37*
G36*
X258229421Y-50755097D02*
G01*
X258292806Y-50774325D01*
X258351220Y-50805548D01*
X258402427Y-50847573D01*
X258444452Y-50898780D01*
X258475675Y-50957194D01*
X258494903Y-51020579D01*
X258502000Y-51092640D01*
X258502000Y-52007360D01*
X258494903Y-52079421D01*
X258475675Y-52142806D01*
X258444452Y-52201220D01*
X258402427Y-52252427D01*
X258351220Y-52294452D01*
X258292806Y-52325675D01*
X258229421Y-52344903D01*
X258157360Y-52352000D01*
X256542640Y-52352000D01*
X256470579Y-52344903D01*
X256407194Y-52325675D01*
X256348780Y-52294452D01*
X256297573Y-52252427D01*
X256255548Y-52201220D01*
X256224325Y-52142806D01*
X256205097Y-52079421D01*
X256198000Y-52007360D01*
X256198000Y-51092640D01*
X256205097Y-51020579D01*
X256224325Y-50957194D01*
X256255548Y-50898780D01*
X256297573Y-50847573D01*
X256348780Y-50805548D01*
X256407194Y-50774325D01*
X256470579Y-50755097D01*
X256542640Y-50748000D01*
X258157360Y-50748000D01*
X258229421Y-50755097D01*
G37*
G36*
X249129421Y-50755097D02*
G01*
X249192806Y-50774325D01*
X249251220Y-50805548D01*
X249302427Y-50847573D01*
X249344452Y-50898780D01*
X249375675Y-50957194D01*
X249394903Y-51020579D01*
X249402000Y-51092640D01*
X249402000Y-52007360D01*
X249394903Y-52079421D01*
X249375675Y-52142806D01*
X249344452Y-52201220D01*
X249302427Y-52252427D01*
X249251220Y-52294452D01*
X249192806Y-52325675D01*
X249129421Y-52344903D01*
X249057360Y-52352000D01*
X247442640Y-52352000D01*
X247370579Y-52344903D01*
X247307194Y-52325675D01*
X247248780Y-52294452D01*
X247197573Y-52252427D01*
X247155548Y-52201220D01*
X247124325Y-52142806D01*
X247105097Y-52079421D01*
X247098000Y-52007360D01*
X247098000Y-51092640D01*
X247105097Y-51020579D01*
X247124325Y-50957194D01*
X247155548Y-50898780D01*
X247197573Y-50847573D01*
X247248780Y-50805548D01*
X247307194Y-50774325D01*
X247370579Y-50755097D01*
X247442640Y-50748000D01*
X249057360Y-50748000D01*
X249129421Y-50755097D01*
G37*
G36*
X227851000Y-52351000D02*
G01*
X225749000Y-52351000D01*
X225749000Y-50249000D01*
X227851000Y-50249000D01*
X227851000Y-52351000D01*
G37*
G36*
X241606564Y-50289389D02*
G01*
X241797833Y-50368615D01*
X241797835Y-50368616D01*
X241969973Y-50483635D01*
X242116365Y-50630027D01*
X242215588Y-50778524D01*
X242231385Y-50802167D01*
X242310611Y-50993436D01*
X242351000Y-51196484D01*
X242351000Y-51403516D01*
X242310611Y-51606564D01*
X242231385Y-51797833D01*
X242231384Y-51797835D01*
X242116365Y-51969973D01*
X241969973Y-52116365D01*
X241797835Y-52231384D01*
X241797834Y-52231385D01*
X241797833Y-52231385D01*
X241606564Y-52310611D01*
X241403516Y-52351000D01*
X241196484Y-52351000D01*
X240993436Y-52310611D01*
X240802167Y-52231385D01*
X240802166Y-52231385D01*
X240802165Y-52231384D01*
X240630027Y-52116365D01*
X240483635Y-51969973D01*
X240368616Y-51797835D01*
X240368615Y-51797833D01*
X240289389Y-51606564D01*
X240249000Y-51403516D01*
X240249000Y-51196484D01*
X240289389Y-50993436D01*
X240368615Y-50802167D01*
X240384413Y-50778524D01*
X240483635Y-50630027D01*
X240630027Y-50483635D01*
X240802165Y-50368616D01*
X240802167Y-50368615D01*
X240993436Y-50289389D01*
X241196484Y-50249000D01*
X241403516Y-50249000D01*
X241606564Y-50289389D01*
G37*
G36*
X235951000Y-49251000D02*
G01*
X232649000Y-49251000D01*
X232649000Y-47149000D01*
X235951000Y-47149000D01*
X235951000Y-49251000D01*
G37*
G36*
X249129421Y-40055097D02*
G01*
X249192806Y-40074325D01*
X249251220Y-40105548D01*
X249302427Y-40147573D01*
X249344452Y-40198780D01*
X249375675Y-40257194D01*
X249394903Y-40320579D01*
X249402000Y-40392640D01*
X249402000Y-41307360D01*
X249394903Y-41379421D01*
X249375675Y-41442806D01*
X249344452Y-41501220D01*
X249302427Y-41552427D01*
X249251220Y-41594452D01*
X249192806Y-41625675D01*
X249129421Y-41644903D01*
X249057360Y-41652000D01*
X247442640Y-41652000D01*
X247370579Y-41644903D01*
X247307194Y-41625675D01*
X247248780Y-41594452D01*
X247197573Y-41552427D01*
X247155548Y-41501220D01*
X247124325Y-41442806D01*
X247105097Y-41379421D01*
X247098000Y-41307360D01*
X247098000Y-40392640D01*
X247105097Y-40320579D01*
X247124325Y-40257194D01*
X247155548Y-40198780D01*
X247197573Y-40147573D01*
X247248780Y-40105548D01*
X247307194Y-40074325D01*
X247370579Y-40055097D01*
X247442640Y-40048000D01*
X249057360Y-40048000D01*
X249129421Y-40055097D01*
G37*
G36*
X258229421Y-40055097D02*
G01*
X258292806Y-40074325D01*
X258351220Y-40105548D01*
X258402427Y-40147573D01*
X258444452Y-40198780D01*
X258475675Y-40257194D01*
X258494903Y-40320579D01*
X258502000Y-40392640D01*
X258502000Y-41307360D01*
X258494903Y-41379421D01*
X258475675Y-41442806D01*
X258444452Y-41501220D01*
X258402427Y-41552427D01*
X258351220Y-41594452D01*
X258292806Y-41625675D01*
X258229421Y-41644903D01*
X258157360Y-41652000D01*
X256542640Y-41652000D01*
X256470579Y-41644903D01*
X256407194Y-41625675D01*
X256348780Y-41594452D01*
X256297573Y-41552427D01*
X256255548Y-41501220D01*
X256224325Y-41442806D01*
X256205097Y-41379421D01*
X256198000Y-41307360D01*
X256198000Y-40392640D01*
X256205097Y-40320579D01*
X256224325Y-40257194D01*
X256255548Y-40198780D01*
X256297573Y-40147573D01*
X256348780Y-40105548D01*
X256407194Y-40074325D01*
X256470579Y-40055097D01*
X256542640Y-40048000D01*
X258157360Y-40048000D01*
X258229421Y-40055097D01*
G37*
G36*
X245751000Y-39551000D02*
G01*
X243849000Y-39551000D01*
X243849000Y-37649000D01*
X245751000Y-37649000D01*
X245751000Y-39551000D01*
G37*
G36*
X242537395Y-37685546D02*
G01*
X242710466Y-37757234D01*
X242710467Y-37757235D01*
X242866227Y-37861310D01*
X242998690Y-37993773D01*
X242998691Y-37993775D01*
X243102766Y-38149534D01*
X243174454Y-38322605D01*
X243211000Y-38506333D01*
X243211000Y-38693667D01*
X243174454Y-38877395D01*
X243102766Y-39050466D01*
X243102765Y-39050467D01*
X242998690Y-39206227D01*
X242866227Y-39338690D01*
X242787818Y-39391081D01*
X242710466Y-39442766D01*
X242537395Y-39514454D01*
X242353667Y-39551000D01*
X242166333Y-39551000D01*
X241982605Y-39514454D01*
X241809534Y-39442766D01*
X241732182Y-39391081D01*
X241653773Y-39338690D01*
X241521310Y-39206227D01*
X241417235Y-39050467D01*
X241417234Y-39050466D01*
X241345546Y-38877395D01*
X241309000Y-38693667D01*
X241309000Y-38506333D01*
X241345546Y-38322605D01*
X241417234Y-38149534D01*
X241521309Y-37993775D01*
X241521310Y-37993773D01*
X241653773Y-37861310D01*
X241809533Y-37757235D01*
X241809534Y-37757234D01*
X241982605Y-37685546D01*
X242166333Y-37649000D01*
X242353667Y-37649000D01*
X242537395Y-37685546D01*
G37*
G36*
X151733512Y-36703927D02*
G01*
X151882812Y-36733624D01*
X152046784Y-36801544D01*
X152194354Y-36900147D01*
X152319853Y-37025646D01*
X152418456Y-37173216D01*
X152486376Y-37337188D01*
X152521000Y-37511259D01*
X152521000Y-37688741D01*
X152486376Y-37862812D01*
X152418456Y-38026784D01*
X152319853Y-38174354D01*
X152194354Y-38299853D01*
X152046784Y-38398456D01*
X151882812Y-38466376D01*
X151733512Y-38496073D01*
X151708742Y-38501000D01*
X151531258Y-38501000D01*
X151506488Y-38496073D01*
X151357188Y-38466376D01*
X151193216Y-38398456D01*
X151045646Y-38299853D01*
X150920147Y-38174354D01*
X150821544Y-38026784D01*
X150753624Y-37862812D01*
X150719000Y-37688741D01*
X150719000Y-37511259D01*
X150753624Y-37337188D01*
X150821544Y-37173216D01*
X150920147Y-37025646D01*
X151045646Y-36900147D01*
X151193216Y-36801544D01*
X151357188Y-36733624D01*
X151506488Y-36703927D01*
X151531258Y-36699000D01*
X151708742Y-36699000D01*
X151733512Y-36703927D01*
G37*
G36*
X146653512Y-36703927D02*
G01*
X146802812Y-36733624D01*
X146966784Y-36801544D01*
X147114354Y-36900147D01*
X147239853Y-37025646D01*
X147338456Y-37173216D01*
X147406376Y-37337188D01*
X147441000Y-37511259D01*
X147441000Y-37688741D01*
X147406376Y-37862812D01*
X147338456Y-38026784D01*
X147239853Y-38174354D01*
X147114354Y-38299853D01*
X146966784Y-38398456D01*
X146802812Y-38466376D01*
X146653512Y-38496073D01*
X146628742Y-38501000D01*
X146451258Y-38501000D01*
X146426488Y-38496073D01*
X146277188Y-38466376D01*
X146113216Y-38398456D01*
X145965646Y-38299853D01*
X145840147Y-38174354D01*
X145741544Y-38026784D01*
X145673624Y-37862812D01*
X145639000Y-37688741D01*
X145639000Y-37511259D01*
X145673624Y-37337188D01*
X145741544Y-37173216D01*
X145840147Y-37025646D01*
X145965646Y-36900147D01*
X146113216Y-36801544D01*
X146277188Y-36733624D01*
X146426488Y-36703927D01*
X146451258Y-36699000D01*
X146628742Y-36699000D01*
X146653512Y-36703927D01*
G37*
G36*
X157601000Y-38501000D02*
G01*
X155799000Y-38501000D01*
X155799000Y-36699000D01*
X157601000Y-36699000D01*
X157601000Y-38501000D01*
G37*
G36*
X136081000Y-38501000D02*
G01*
X134279000Y-38501000D01*
X134279000Y-36699000D01*
X136081000Y-36699000D01*
X136081000Y-38501000D01*
G37*
G36*
X132753512Y-36703927D02*
G01*
X132902812Y-36733624D01*
X133066784Y-36801544D01*
X133214354Y-36900147D01*
X133339853Y-37025646D01*
X133438456Y-37173216D01*
X133506376Y-37337188D01*
X133541000Y-37511259D01*
X133541000Y-37688741D01*
X133506376Y-37862812D01*
X133438456Y-38026784D01*
X133339853Y-38174354D01*
X133214354Y-38299853D01*
X133066784Y-38398456D01*
X132902812Y-38466376D01*
X132753512Y-38496073D01*
X132728742Y-38501000D01*
X132551258Y-38501000D01*
X132526488Y-38496073D01*
X132377188Y-38466376D01*
X132213216Y-38398456D01*
X132065646Y-38299853D01*
X131940147Y-38174354D01*
X131841544Y-38026784D01*
X131773624Y-37862812D01*
X131739000Y-37688741D01*
X131739000Y-37511259D01*
X131773624Y-37337188D01*
X131841544Y-37173216D01*
X131940147Y-37025646D01*
X132065646Y-36900147D01*
X132213216Y-36801544D01*
X132377188Y-36733624D01*
X132526488Y-36703927D01*
X132551258Y-36699000D01*
X132728742Y-36699000D01*
X132753512Y-36703927D01*
G37*
G36*
X149193512Y-36703927D02*
G01*
X149342812Y-36733624D01*
X149506784Y-36801544D01*
X149654354Y-36900147D01*
X149779853Y-37025646D01*
X149878456Y-37173216D01*
X149946376Y-37337188D01*
X149981000Y-37511259D01*
X149981000Y-37688741D01*
X149946376Y-37862812D01*
X149878456Y-38026784D01*
X149779853Y-38174354D01*
X149654354Y-38299853D01*
X149506784Y-38398456D01*
X149342812Y-38466376D01*
X149193512Y-38496073D01*
X149168742Y-38501000D01*
X148991258Y-38501000D01*
X148966488Y-38496073D01*
X148817188Y-38466376D01*
X148653216Y-38398456D01*
X148505646Y-38299853D01*
X148380147Y-38174354D01*
X148281544Y-38026784D01*
X148213624Y-37862812D01*
X148179000Y-37688741D01*
X148179000Y-37511259D01*
X148213624Y-37337188D01*
X148281544Y-37173216D01*
X148380147Y-37025646D01*
X148505646Y-36900147D01*
X148653216Y-36801544D01*
X148817188Y-36733624D01*
X148966488Y-36703927D01*
X148991258Y-36699000D01*
X149168742Y-36699000D01*
X149193512Y-36703927D01*
G37*
G36*
X130213512Y-36703927D02*
G01*
X130362812Y-36733624D01*
X130526784Y-36801544D01*
X130674354Y-36900147D01*
X130799853Y-37025646D01*
X130898456Y-37173216D01*
X130966376Y-37337188D01*
X131001000Y-37511259D01*
X131001000Y-37688741D01*
X130966376Y-37862812D01*
X130898456Y-38026784D01*
X130799853Y-38174354D01*
X130674354Y-38299853D01*
X130526784Y-38398456D01*
X130362812Y-38466376D01*
X130213512Y-38496073D01*
X130188742Y-38501000D01*
X130011258Y-38501000D01*
X129986488Y-38496073D01*
X129837188Y-38466376D01*
X129673216Y-38398456D01*
X129525646Y-38299853D01*
X129400147Y-38174354D01*
X129301544Y-38026784D01*
X129233624Y-37862812D01*
X129199000Y-37688741D01*
X129199000Y-37511259D01*
X129233624Y-37337188D01*
X129301544Y-37173216D01*
X129400147Y-37025646D01*
X129525646Y-36900147D01*
X129673216Y-36801544D01*
X129837188Y-36733624D01*
X129986488Y-36703927D01*
X130011258Y-36699000D01*
X130188742Y-36699000D01*
X130213512Y-36703927D01*
G37*
G36*
X125133512Y-36703927D02*
G01*
X125282812Y-36733624D01*
X125446784Y-36801544D01*
X125594354Y-36900147D01*
X125719853Y-37025646D01*
X125818456Y-37173216D01*
X125886376Y-37337188D01*
X125921000Y-37511259D01*
X125921000Y-37688741D01*
X125886376Y-37862812D01*
X125818456Y-38026784D01*
X125719853Y-38174354D01*
X125594354Y-38299853D01*
X125446784Y-38398456D01*
X125282812Y-38466376D01*
X125133512Y-38496073D01*
X125108742Y-38501000D01*
X124931258Y-38501000D01*
X124906488Y-38496073D01*
X124757188Y-38466376D01*
X124593216Y-38398456D01*
X124445646Y-38299853D01*
X124320147Y-38174354D01*
X124221544Y-38026784D01*
X124153624Y-37862812D01*
X124119000Y-37688741D01*
X124119000Y-37511259D01*
X124153624Y-37337188D01*
X124221544Y-37173216D01*
X124320147Y-37025646D01*
X124445646Y-36900147D01*
X124593216Y-36801544D01*
X124757188Y-36733624D01*
X124906488Y-36703927D01*
X124931258Y-36699000D01*
X125108742Y-36699000D01*
X125133512Y-36703927D01*
G37*
G36*
X122593512Y-36703927D02*
G01*
X122742812Y-36733624D01*
X122906784Y-36801544D01*
X123054354Y-36900147D01*
X123179853Y-37025646D01*
X123278456Y-37173216D01*
X123346376Y-37337188D01*
X123381000Y-37511259D01*
X123381000Y-37688741D01*
X123346376Y-37862812D01*
X123278456Y-38026784D01*
X123179853Y-38174354D01*
X123054354Y-38299853D01*
X122906784Y-38398456D01*
X122742812Y-38466376D01*
X122593512Y-38496073D01*
X122568742Y-38501000D01*
X122391258Y-38501000D01*
X122366488Y-38496073D01*
X122217188Y-38466376D01*
X122053216Y-38398456D01*
X121905646Y-38299853D01*
X121780147Y-38174354D01*
X121681544Y-38026784D01*
X121613624Y-37862812D01*
X121579000Y-37688741D01*
X121579000Y-37511259D01*
X121613624Y-37337188D01*
X121681544Y-37173216D01*
X121780147Y-37025646D01*
X121905646Y-36900147D01*
X122053216Y-36801544D01*
X122217188Y-36733624D01*
X122366488Y-36703927D01*
X122391258Y-36699000D01*
X122568742Y-36699000D01*
X122593512Y-36703927D01*
G37*
G36*
X127673512Y-36703927D02*
G01*
X127822812Y-36733624D01*
X127986784Y-36801544D01*
X128134354Y-36900147D01*
X128259853Y-37025646D01*
X128358456Y-37173216D01*
X128426376Y-37337188D01*
X128461000Y-37511259D01*
X128461000Y-37688741D01*
X128426376Y-37862812D01*
X128358456Y-38026784D01*
X128259853Y-38174354D01*
X128134354Y-38299853D01*
X127986784Y-38398456D01*
X127822812Y-38466376D01*
X127673512Y-38496073D01*
X127648742Y-38501000D01*
X127471258Y-38501000D01*
X127446488Y-38496073D01*
X127297188Y-38466376D01*
X127133216Y-38398456D01*
X126985646Y-38299853D01*
X126860147Y-38174354D01*
X126761544Y-38026784D01*
X126693624Y-37862812D01*
X126659000Y-37688741D01*
X126659000Y-37511259D01*
X126693624Y-37337188D01*
X126761544Y-37173216D01*
X126860147Y-37025646D01*
X126985646Y-36900147D01*
X127133216Y-36801544D01*
X127297188Y-36733624D01*
X127446488Y-36703927D01*
X127471258Y-36699000D01*
X127648742Y-36699000D01*
X127673512Y-36703927D01*
G37*
G36*
X154273512Y-36703927D02*
G01*
X154422812Y-36733624D01*
X154586784Y-36801544D01*
X154734354Y-36900147D01*
X154859853Y-37025646D01*
X154958456Y-37173216D01*
X155026376Y-37337188D01*
X155061000Y-37511259D01*
X155061000Y-37688741D01*
X155026376Y-37862812D01*
X154958456Y-38026784D01*
X154859853Y-38174354D01*
X154734354Y-38299853D01*
X154586784Y-38398456D01*
X154422812Y-38466376D01*
X154273512Y-38496073D01*
X154248742Y-38501000D01*
X154071258Y-38501000D01*
X154046488Y-38496073D01*
X153897188Y-38466376D01*
X153733216Y-38398456D01*
X153585646Y-38299853D01*
X153460147Y-38174354D01*
X153361544Y-38026784D01*
X153293624Y-37862812D01*
X153259000Y-37688741D01*
X153259000Y-37511259D01*
X153293624Y-37337188D01*
X153361544Y-37173216D01*
X153460147Y-37025646D01*
X153585646Y-36900147D01*
X153733216Y-36801544D01*
X153897188Y-36733624D01*
X154046488Y-36703927D01*
X154071258Y-36699000D01*
X154248742Y-36699000D01*
X154273512Y-36703927D01*
G37*
G36*
X258229421Y-35555097D02*
G01*
X258292806Y-35574325D01*
X258351220Y-35605548D01*
X258402427Y-35647573D01*
X258444452Y-35698780D01*
X258475675Y-35757194D01*
X258494903Y-35820579D01*
X258502000Y-35892640D01*
X258502000Y-36807360D01*
X258494903Y-36879421D01*
X258475675Y-36942806D01*
X258444452Y-37001220D01*
X258402427Y-37052427D01*
X258351220Y-37094452D01*
X258292806Y-37125675D01*
X258229421Y-37144903D01*
X258157360Y-37152000D01*
X256542640Y-37152000D01*
X256470579Y-37144903D01*
X256407194Y-37125675D01*
X256348780Y-37094452D01*
X256297573Y-37052427D01*
X256255548Y-37001220D01*
X256224325Y-36942806D01*
X256205097Y-36879421D01*
X256198000Y-36807360D01*
X256198000Y-35892640D01*
X256205097Y-35820579D01*
X256224325Y-35757194D01*
X256255548Y-35698780D01*
X256297573Y-35647573D01*
X256348780Y-35605548D01*
X256407194Y-35574325D01*
X256470579Y-35555097D01*
X256542640Y-35548000D01*
X258157360Y-35548000D01*
X258229421Y-35555097D01*
G37*
G36*
X249129421Y-35555097D02*
G01*
X249192806Y-35574325D01*
X249251220Y-35605548D01*
X249302427Y-35647573D01*
X249344452Y-35698780D01*
X249375675Y-35757194D01*
X249394903Y-35820579D01*
X249402000Y-35892640D01*
X249402000Y-36807360D01*
X249394903Y-36879421D01*
X249375675Y-36942806D01*
X249344452Y-37001220D01*
X249302427Y-37052427D01*
X249251220Y-37094452D01*
X249192806Y-37125675D01*
X249129421Y-37144903D01*
X249057360Y-37152000D01*
X247442640Y-37152000D01*
X247370579Y-37144903D01*
X247307194Y-37125675D01*
X247248780Y-37094452D01*
X247197573Y-37052427D01*
X247155548Y-37001220D01*
X247124325Y-36942806D01*
X247105097Y-36879421D01*
X247098000Y-36807360D01*
X247098000Y-35892640D01*
X247105097Y-35820579D01*
X247124325Y-35757194D01*
X247155548Y-35698780D01*
X247197573Y-35647573D01*
X247248780Y-35605548D01*
X247307194Y-35574325D01*
X247370579Y-35555097D01*
X247442640Y-35548000D01*
X249057360Y-35548000D01*
X249129421Y-35555097D01*
G37*
G36*
X25456202Y-25603781D02*
G01*
X25731606Y-25658562D01*
X26250455Y-25873476D01*
X26717407Y-26185484D01*
X27114516Y-26582593D01*
X27426524Y-27049545D01*
X27641438Y-27568394D01*
X27751000Y-28119201D01*
X27751000Y-28680799D01*
X27641438Y-29231606D01*
X27426524Y-29750455D01*
X27114516Y-30217407D01*
X26717407Y-30614516D01*
X26250455Y-30926524D01*
X25731606Y-31141438D01*
X25456202Y-31196219D01*
X25180800Y-31251000D01*
X24619200Y-31251000D01*
X24343798Y-31196219D01*
X24068394Y-31141438D01*
X23549545Y-30926524D01*
X23082593Y-30614516D01*
X22685484Y-30217407D01*
X22373476Y-29750455D01*
X22158562Y-29231606D01*
X22049000Y-28680799D01*
X22049000Y-28119201D01*
X22158562Y-27568394D01*
X22373476Y-27049545D01*
X22685484Y-26582593D01*
X23082593Y-26185484D01*
X23549545Y-25873476D01*
X24068394Y-25658562D01*
X24343798Y-25603781D01*
X24619200Y-25549000D01*
X25180800Y-25549000D01*
X25456202Y-25603781D01*
G37*
G36*
X264356202Y-25603781D02*
G01*
X264631606Y-25658562D01*
X265150455Y-25873476D01*
X265617407Y-26185484D01*
X266014516Y-26582593D01*
X266326524Y-27049545D01*
X266541438Y-27568394D01*
X266651000Y-28119201D01*
X266651000Y-28680799D01*
X266541438Y-29231606D01*
X266326524Y-29750455D01*
X266014516Y-30217407D01*
X265617407Y-30614516D01*
X265150455Y-30926524D01*
X264631606Y-31141438D01*
X264356202Y-31196219D01*
X264080800Y-31251000D01*
X263519200Y-31251000D01*
X263243798Y-31196219D01*
X262968394Y-31141438D01*
X262449545Y-30926524D01*
X261982593Y-30614516D01*
X261585484Y-30217407D01*
X261273476Y-29750455D01*
X261058562Y-29231606D01*
X260949000Y-28680799D01*
X260949000Y-28119201D01*
X261058562Y-27568394D01*
X261273476Y-27049545D01*
X261585484Y-26582593D01*
X261982593Y-26185484D01*
X262449545Y-25873476D01*
X262968394Y-25658562D01*
X263519200Y-25549000D01*
X264080800Y-25549000D01*
X264356202Y-25603781D01*
G37*
G36*
X98315949Y-25528800D02*
G01*
X98575463Y-25636294D01*
X98575464Y-25636295D01*
X98809022Y-25792353D01*
X99007647Y-25990978D01*
X99007648Y-25990980D01*
X99163706Y-26224537D01*
X99271200Y-26484051D01*
X99326000Y-26759550D01*
X99326000Y-27040450D01*
X99271200Y-27315949D01*
X99163706Y-27575463D01*
X99163705Y-27575464D01*
X99007647Y-27809022D01*
X98809022Y-28007647D01*
X98691450Y-28086206D01*
X98575463Y-28163706D01*
X98315949Y-28271200D01*
X98040450Y-28326000D01*
X97759550Y-28326000D01*
X97484051Y-28271200D01*
X97224537Y-28163706D01*
X97108550Y-28086206D01*
X96990978Y-28007647D01*
X96792353Y-27809022D01*
X96636295Y-27575464D01*
X96636294Y-27575463D01*
X96528800Y-27315949D01*
X96474000Y-27040450D01*
X96474000Y-26759550D01*
X96528800Y-26484051D01*
X96636294Y-26224537D01*
X96792352Y-25990980D01*
X96792353Y-25990978D01*
X96990978Y-25792353D01*
X97224536Y-25636295D01*
X97224537Y-25636294D01*
X97484051Y-25528800D01*
X97759550Y-25474000D01*
X98040450Y-25474000D01*
X98315949Y-25528800D01*
G37*
G36*
X40315949Y-25528800D02*
G01*
X40575463Y-25636294D01*
X40575464Y-25636295D01*
X40809022Y-25792353D01*
X41007647Y-25990978D01*
X41007648Y-25990980D01*
X41163706Y-26224537D01*
X41271200Y-26484051D01*
X41326000Y-26759550D01*
X41326000Y-27040450D01*
X41271200Y-27315949D01*
X41163706Y-27575463D01*
X41163705Y-27575464D01*
X41007647Y-27809022D01*
X40809022Y-28007647D01*
X40691450Y-28086206D01*
X40575463Y-28163706D01*
X40315949Y-28271200D01*
X40040450Y-28326000D01*
X39759550Y-28326000D01*
X39484051Y-28271200D01*
X39224537Y-28163706D01*
X39108550Y-28086206D01*
X38990978Y-28007647D01*
X38792353Y-27809022D01*
X38636295Y-27575464D01*
X38636294Y-27575463D01*
X38528800Y-27315949D01*
X38474000Y-27040450D01*
X38474000Y-26759550D01*
X38528800Y-26484051D01*
X38636294Y-26224537D01*
X38792352Y-25990980D01*
X38792353Y-25990978D01*
X38990978Y-25792353D01*
X39224536Y-25636295D01*
X39224537Y-25636294D01*
X39484051Y-25528800D01*
X39759550Y-25474000D01*
X40040450Y-25474000D01*
X40315949Y-25528800D01*
G37*
M02*
