M48
; DRILL file {KiCad (5.1.5)-3} date 04/14/20 12:17:33
; FORMAT={-:-/ absolute / inch / decimal}
; #@! TF.CreationDate,2020-04-14T12:17:33+02:00
; #@! TF.GenerationSoftware,Kicad,Pcbnew,(5.1.5)-3
FMAT,2
INCH
T1C0.0157
T2C0.0315
T3C0.0354
T4C0.0394
T5C0.0400
T6C0.0488
T7C0.0591
T8C0.1260
T9C0.0488
T10C0.0630
T11C0.1083
T12C0.1260
%
G90
G05
T1
X1.3425Y-3.3071
X1.3543Y-5.1024
X1.3701Y-1.4803
X1.3701Y-1.8031
X1.5787Y-4.2087
X1.5787Y-4.3622
X1.6417Y-3.3071
X1.6929Y-1.4803
X2.0157Y-4.3622
X2.0315Y-3.3071
X2.0394Y-5.0945
X2.1024Y-3.7756
X2.1024Y-3.8386
X2.1024Y-3.8976
X2.1024Y-4.2283
X2.2323Y-2.8071
X2.248Y-3.3071
X2.3898Y-5.0984
X2.4764Y-3.8386
X2.4764Y-3.9173
X2.4764Y-3.9961
X2.4764Y-4.0748
X2.4764Y-4.1535
X2.5118Y-3.1063
X2.5118Y-4.7047
X2.5197Y-5.1142
X2.5669Y-3.8386
X2.5669Y-3.9173
X2.5669Y-3.9961
X2.5669Y-4.0748
X2.5669Y-4.1535
X2.5748Y-2.6102
X2.6575Y-3.8386
X2.6575Y-3.9173
X2.6575Y-3.9961
X2.6575Y-4.0748
X2.6575Y-4.1535
X2.748Y-3.8386
X2.748Y-3.9173
X2.748Y-3.9961
X2.748Y-4.0748
X2.748Y-4.1535
X2.7953Y-2.8071
X2.8386Y-3.7598
X2.8386Y-3.8386
X2.8386Y-3.9173
X2.8386Y-3.9961
X2.8386Y-4.0748
X2.8386Y-4.1535
X2.8386Y-4.2323
X2.8819Y-3.2992
X2.9252Y-2.8071
X2.9291Y-3.7598
X2.9291Y-3.8386
X2.9291Y-3.9173
X2.9291Y-3.9961
X2.9291Y-4.0748
X2.9291Y-4.1535
X2.9291Y-4.2323
X3.0197Y-3.7598
X3.0197Y-3.8386
X3.0197Y-3.9173
X3.0197Y-3.9961
X3.0197Y-4.0748
X3.0197Y-4.1535
X3.0197Y-4.2323
X3.1102Y-3.5669
X3.1102Y-3.7598
X3.1102Y-3.8386
X3.1102Y-3.9173
X3.1102Y-3.9961
X3.1102Y-4.0748
X3.1102Y-4.1535
X3.1102Y-4.2323
X3.1969Y-1.4882
X3.2205Y-2.0
X3.2205Y-2.622
X3.2638Y-3.1063
X3.437Y-2.8071
X3.4606Y-3.4134
X3.5079Y-1.8307
X3.5157Y-3.9921
X3.5866Y-2.7087
X3.7047Y-2.8465
X3.7795Y-5.3425
X3.811Y-5.3189
X3.8583Y-3.6299
X3.9173Y-5.2441
X4.3228Y-1.5079
X4.9016Y-5.7717
X5.185Y-1.7638
X5.2598Y-1.7638
X5.4606Y-5.7717
X5.4803Y-1.7638
X5.9764Y-5.7717
X6.5236Y-5.7717
X6.7795Y-2.8386
X6.7795Y-3.2835
X6.7795Y-3.5354
X7.0394Y-2.5906
X7.063Y-5.7717
X7.2047Y-5.2047
X7.2795Y-3.4055
X7.3189Y-3.0197
X7.3976Y-3.4253
X7.4134Y-3.2126
X7.4606Y-3.2126
X7.4606Y-3.4213
X7.5079Y-3.4213
X7.5118Y-3.2126
X7.5551Y-3.4213
X7.563Y-3.2126
X7.5669Y-5.7717
X7.6063Y-3.4213
X7.6102Y-3.2126
X7.6575Y-3.2126
X7.6614Y-3.4173
X7.7087Y-3.2145
X7.7087Y-3.4173
X7.7362Y-5.252
X7.7598Y-3.2126
X7.7835Y-3.4134
X7.9409Y-3.5945
X7.9449Y-3.0669
X8.063Y-5.7717
X8.0945Y-1.4646
X8.2598Y-1.3898
X8.2795Y-1.7559
X8.2953Y-2.6457
X8.2953Y-2.9449
X8.4882Y-5.2441
X8.6181Y-1.4331
X8.6181Y-1.6299
X8.7165Y-2.6457
X8.7165Y-2.937
X8.7402Y-3.5945
X8.9803Y-3.3937
X8.9803Y-3.9331
X9.4882Y-5.7756
X9.5945Y-5.7756
X9.9488Y-1.8346
X9.9488Y-2.3898
X9.9488Y-2.9291
X9.9488Y-3.4409
X9.9488Y-3.9488
T2
X1.2283Y-5.2283
X3.5045Y-2.7299
T3
X9.5378Y-1.5197
X9.6378Y-1.5197
T4
X0.9055Y-4.0
X0.9055Y-4.1
X0.9055Y-4.2
X0.9055Y-4.3
X2.2953Y-5.6732
X2.2953Y-5.8701
X2.8661Y-5.6732
X2.8661Y-5.7717
X2.8661Y-5.8701
X4.822Y-1.4803
X4.922Y-1.4803
X5.022Y-1.4803
X5.122Y-1.4803
X5.222Y-1.4803
X5.322Y-1.4803
X5.7693Y-1.4803
X5.8693Y-1.4803
X5.9693Y-1.4803
X6.0693Y-1.4803
X6.1693Y-1.4803
X0.9055Y-3.374
X0.9055Y-3.474
X0.9055Y-3.574
X8.6575Y-5.1535
X8.6575Y-5.2535
X8.6575Y-5.3535
X8.6575Y-5.4535
X8.9291Y-2.0197
X8.9291Y-2.1181
X8.9291Y-2.2165
X9.5Y-2.0197
X9.5Y-2.2165
X3.3189Y-5.6732
X3.3189Y-5.8701
X3.8898Y-5.6732
X3.8898Y-5.7717
X3.8898Y-5.8701
X1.2717Y-5.6732
X1.2717Y-5.8701
X1.8425Y-5.6732
X1.8425Y-5.7717
X1.8425Y-5.8701
T5
X1.7626Y-2.9382
X1.7626Y-3.0382
X1.8626Y-2.9382
X1.8626Y-3.0382
X1.9626Y-2.9382
X1.9626Y-3.0382
X2.0626Y-2.9382
X2.0626Y-3.0382
X2.1626Y-2.9382
X2.1626Y-3.0382
X2.2626Y-2.9382
X2.2626Y-3.0382
X2.3626Y-2.9382
X2.3626Y-3.0382
X2.4626Y-2.9382
X2.4626Y-3.0382
X2.5626Y-2.9382
X2.5626Y-3.0382
X2.6626Y-2.9382
X2.6626Y-3.0382
X2.7626Y-2.9382
X2.7626Y-3.0382
X2.8626Y-2.9382
X2.8626Y-3.0382
X2.9626Y-2.9382
X2.9626Y-3.0382
X3.0626Y-2.9382
X3.0626Y-3.0382
X3.1626Y-2.9382
X3.1626Y-3.0382
X3.2626Y-2.9382
X3.2626Y-3.0382
X3.3626Y-2.9382
X3.3626Y-3.0382
X3.4626Y-2.9382
X3.4626Y-3.0382
X3.5626Y-2.9382
X3.5626Y-3.0382
X3.6626Y-2.9382
X3.6626Y-3.0382
T6
X9.3433Y-5.7031
X9.4433Y-5.7031
X9.5433Y-5.7031
X9.6433Y-5.7031
X9.7433Y-5.7031
T8
X0.9803Y-1.1181
X10.3858Y-6.1969
X0.9803Y-6.1969
X10.3858Y-1.1181
T9
X9.2165Y-5.0138
X9.2165Y-5.6083
X9.8701Y-5.0138
X9.8701Y-5.6083
T10
X0.7835Y-4.7835
T11
X1.5709Y-1.0591
X1.5709Y-2.9882
X3.8543Y-1.0591
X3.8543Y-2.9882
T12
X2.622Y-2.0
X2.622Y-4.5827
X7.5906Y-2.0
X7.5906Y-4.5827
X9.0315Y-5.6063
X9.5433Y-4.7205
X10.0551Y-5.6063
T4
G00X0.8327Y-4.6063
M15
G01X0.8917Y-4.6063
M16
G05
G00X0.8327Y-4.9606
M15
G01X0.8917Y-4.9606
M16
G05
G00X0.9016Y-4.8091
M15
G01X0.9016Y-4.7579
M16
G05
G00X1.1378Y-4.8228
M15
G01X1.1378Y-4.7441
M16
G05
T7
G00X9.1988Y-1.8976
M15
G01X9.25Y-1.8976
M16
G05
G00X9.1988Y-2.3386
M15
G01X9.25Y-2.3386
M16
G05
G00X3.6201Y-5.5512
M15
G01X3.5689Y-5.5512
M16
G05
G00X3.6201Y-5.9921
M15
G01X3.5689Y-5.9921
M16
G05
G00X1.5728Y-5.5512
M15
G01X1.5217Y-5.5512
M16
G05
G00X1.5728Y-5.9921
M15
G01X1.5217Y-5.9921
M16
G05
G00X2.5965Y-5.5512
M15
G01X2.5453Y-5.5512
M16
G05
G00X2.5965Y-5.9921
M15
G01X2.5453Y-5.9921
M16
G05
T0
M30
