G04 #@! TF.GenerationSoftware,KiCad,Pcbnew,(5.1.5)-3*
G04 #@! TF.CreationDate,2020-04-14T12:17:22+02:00*
G04 #@! TF.ProjectId,piHPSDR_Controller,70694850-5344-4525-9f43-6f6e74726f6c,rev?*
G04 #@! TF.SameCoordinates,Original*
G04 #@! TF.FileFunction,Paste,Top*
G04 #@! TF.FilePolarity,Positive*
%FSLAX46Y46*%
G04 Gerber Fmt 4.6, Leading zero omitted, Abs format (unit mm)*
G04 Created by KiCad (PCBNEW (5.1.5)-3) date 2020-04-14 12:17:22*
%MOMM*%
%LPD*%
G04 APERTURE LIST*
%ADD10C,0.100000*%
G04 APERTURE END LIST*
D10*
G36*
X258084306Y-40151685D02*
G01*
X258118282Y-40156725D01*
X258151600Y-40165071D01*
X258183939Y-40176642D01*
X258214989Y-40191328D01*
X258244450Y-40208986D01*
X258272038Y-40229446D01*
X258297487Y-40252513D01*
X258320554Y-40277962D01*
X258341014Y-40305550D01*
X258358672Y-40335011D01*
X258373358Y-40366061D01*
X258384929Y-40398400D01*
X258393275Y-40431718D01*
X258398315Y-40465694D01*
X258400000Y-40500000D01*
X258400000Y-41200000D01*
X258398315Y-41234306D01*
X258393275Y-41268282D01*
X258384929Y-41301600D01*
X258373358Y-41333939D01*
X258358672Y-41364989D01*
X258341014Y-41394450D01*
X258320554Y-41422038D01*
X258297487Y-41447487D01*
X258272038Y-41470554D01*
X258244450Y-41491014D01*
X258214989Y-41508672D01*
X258183939Y-41523358D01*
X258151600Y-41534929D01*
X258118282Y-41543275D01*
X258084306Y-41548315D01*
X258050000Y-41550000D01*
X256650000Y-41550000D01*
X256615694Y-41548315D01*
X256581718Y-41543275D01*
X256548400Y-41534929D01*
X256516061Y-41523358D01*
X256485011Y-41508672D01*
X256455550Y-41491014D01*
X256427962Y-41470554D01*
X256402513Y-41447487D01*
X256379446Y-41422038D01*
X256358986Y-41394450D01*
X256341328Y-41364989D01*
X256326642Y-41333939D01*
X256315071Y-41301600D01*
X256306725Y-41268282D01*
X256301685Y-41234306D01*
X256300000Y-41200000D01*
X256300000Y-40500000D01*
X256301685Y-40465694D01*
X256306725Y-40431718D01*
X256315071Y-40398400D01*
X256326642Y-40366061D01*
X256341328Y-40335011D01*
X256358986Y-40305550D01*
X256379446Y-40277962D01*
X256402513Y-40252513D01*
X256427962Y-40229446D01*
X256455550Y-40208986D01*
X256485011Y-40191328D01*
X256516061Y-40176642D01*
X256548400Y-40165071D01*
X256581718Y-40156725D01*
X256615694Y-40151685D01*
X256650000Y-40150000D01*
X258050000Y-40150000D01*
X258084306Y-40151685D01*
G37*
G36*
X248984306Y-40151685D02*
G01*
X249018282Y-40156725D01*
X249051600Y-40165071D01*
X249083939Y-40176642D01*
X249114989Y-40191328D01*
X249144450Y-40208986D01*
X249172038Y-40229446D01*
X249197487Y-40252513D01*
X249220554Y-40277962D01*
X249241014Y-40305550D01*
X249258672Y-40335011D01*
X249273358Y-40366061D01*
X249284929Y-40398400D01*
X249293275Y-40431718D01*
X249298315Y-40465694D01*
X249300000Y-40500000D01*
X249300000Y-41200000D01*
X249298315Y-41234306D01*
X249293275Y-41268282D01*
X249284929Y-41301600D01*
X249273358Y-41333939D01*
X249258672Y-41364989D01*
X249241014Y-41394450D01*
X249220554Y-41422038D01*
X249197487Y-41447487D01*
X249172038Y-41470554D01*
X249144450Y-41491014D01*
X249114989Y-41508672D01*
X249083939Y-41523358D01*
X249051600Y-41534929D01*
X249018282Y-41543275D01*
X248984306Y-41548315D01*
X248950000Y-41550000D01*
X247550000Y-41550000D01*
X247515694Y-41548315D01*
X247481718Y-41543275D01*
X247448400Y-41534929D01*
X247416061Y-41523358D01*
X247385011Y-41508672D01*
X247355550Y-41491014D01*
X247327962Y-41470554D01*
X247302513Y-41447487D01*
X247279446Y-41422038D01*
X247258986Y-41394450D01*
X247241328Y-41364989D01*
X247226642Y-41333939D01*
X247215071Y-41301600D01*
X247206725Y-41268282D01*
X247201685Y-41234306D01*
X247200000Y-41200000D01*
X247200000Y-40500000D01*
X247201685Y-40465694D01*
X247206725Y-40431718D01*
X247215071Y-40398400D01*
X247226642Y-40366061D01*
X247241328Y-40335011D01*
X247258986Y-40305550D01*
X247279446Y-40277962D01*
X247302513Y-40252513D01*
X247327962Y-40229446D01*
X247355550Y-40208986D01*
X247385011Y-40191328D01*
X247416061Y-40176642D01*
X247448400Y-40165071D01*
X247481718Y-40156725D01*
X247515694Y-40151685D01*
X247550000Y-40150000D01*
X248950000Y-40150000D01*
X248984306Y-40151685D01*
G37*
G36*
X258084306Y-35651685D02*
G01*
X258118282Y-35656725D01*
X258151600Y-35665071D01*
X258183939Y-35676642D01*
X258214989Y-35691328D01*
X258244450Y-35708986D01*
X258272038Y-35729446D01*
X258297487Y-35752513D01*
X258320554Y-35777962D01*
X258341014Y-35805550D01*
X258358672Y-35835011D01*
X258373358Y-35866061D01*
X258384929Y-35898400D01*
X258393275Y-35931718D01*
X258398315Y-35965694D01*
X258400000Y-36000000D01*
X258400000Y-36700000D01*
X258398315Y-36734306D01*
X258393275Y-36768282D01*
X258384929Y-36801600D01*
X258373358Y-36833939D01*
X258358672Y-36864989D01*
X258341014Y-36894450D01*
X258320554Y-36922038D01*
X258297487Y-36947487D01*
X258272038Y-36970554D01*
X258244450Y-36991014D01*
X258214989Y-37008672D01*
X258183939Y-37023358D01*
X258151600Y-37034929D01*
X258118282Y-37043275D01*
X258084306Y-37048315D01*
X258050000Y-37050000D01*
X256650000Y-37050000D01*
X256615694Y-37048315D01*
X256581718Y-37043275D01*
X256548400Y-37034929D01*
X256516061Y-37023358D01*
X256485011Y-37008672D01*
X256455550Y-36991014D01*
X256427962Y-36970554D01*
X256402513Y-36947487D01*
X256379446Y-36922038D01*
X256358986Y-36894450D01*
X256341328Y-36864989D01*
X256326642Y-36833939D01*
X256315071Y-36801600D01*
X256306725Y-36768282D01*
X256301685Y-36734306D01*
X256300000Y-36700000D01*
X256300000Y-36000000D01*
X256301685Y-35965694D01*
X256306725Y-35931718D01*
X256315071Y-35898400D01*
X256326642Y-35866061D01*
X256341328Y-35835011D01*
X256358986Y-35805550D01*
X256379446Y-35777962D01*
X256402513Y-35752513D01*
X256427962Y-35729446D01*
X256455550Y-35708986D01*
X256485011Y-35691328D01*
X256516061Y-35676642D01*
X256548400Y-35665071D01*
X256581718Y-35656725D01*
X256615694Y-35651685D01*
X256650000Y-35650000D01*
X258050000Y-35650000D01*
X258084306Y-35651685D01*
G37*
G36*
X248984306Y-35651685D02*
G01*
X249018282Y-35656725D01*
X249051600Y-35665071D01*
X249083939Y-35676642D01*
X249114989Y-35691328D01*
X249144450Y-35708986D01*
X249172038Y-35729446D01*
X249197487Y-35752513D01*
X249220554Y-35777962D01*
X249241014Y-35805550D01*
X249258672Y-35835011D01*
X249273358Y-35866061D01*
X249284929Y-35898400D01*
X249293275Y-35931718D01*
X249298315Y-35965694D01*
X249300000Y-36000000D01*
X249300000Y-36700000D01*
X249298315Y-36734306D01*
X249293275Y-36768282D01*
X249284929Y-36801600D01*
X249273358Y-36833939D01*
X249258672Y-36864989D01*
X249241014Y-36894450D01*
X249220554Y-36922038D01*
X249197487Y-36947487D01*
X249172038Y-36970554D01*
X249144450Y-36991014D01*
X249114989Y-37008672D01*
X249083939Y-37023358D01*
X249051600Y-37034929D01*
X249018282Y-37043275D01*
X248984306Y-37048315D01*
X248950000Y-37050000D01*
X247550000Y-37050000D01*
X247515694Y-37048315D01*
X247481718Y-37043275D01*
X247448400Y-37034929D01*
X247416061Y-37023358D01*
X247385011Y-37008672D01*
X247355550Y-36991014D01*
X247327962Y-36970554D01*
X247302513Y-36947487D01*
X247279446Y-36922038D01*
X247258986Y-36894450D01*
X247241328Y-36864989D01*
X247226642Y-36833939D01*
X247215071Y-36801600D01*
X247206725Y-36768282D01*
X247201685Y-36734306D01*
X247200000Y-36700000D01*
X247200000Y-36000000D01*
X247201685Y-35965694D01*
X247206725Y-35931718D01*
X247215071Y-35898400D01*
X247226642Y-35866061D01*
X247241328Y-35835011D01*
X247258986Y-35805550D01*
X247279446Y-35777962D01*
X247302513Y-35752513D01*
X247327962Y-35729446D01*
X247355550Y-35708986D01*
X247385011Y-35691328D01*
X247416061Y-35676642D01*
X247448400Y-35665071D01*
X247481718Y-35656725D01*
X247515694Y-35651685D01*
X247550000Y-35650000D01*
X248950000Y-35650000D01*
X248984306Y-35651685D01*
G37*
G36*
X115634306Y-150101685D02*
G01*
X115668282Y-150106725D01*
X115701600Y-150115071D01*
X115733939Y-150126642D01*
X115764989Y-150141328D01*
X115794450Y-150158986D01*
X115822038Y-150179446D01*
X115847487Y-150202513D01*
X115870554Y-150227962D01*
X115891014Y-150255550D01*
X115908672Y-150285011D01*
X115923358Y-150316061D01*
X115934929Y-150348400D01*
X115943275Y-150381718D01*
X115948315Y-150415694D01*
X115950000Y-150450000D01*
X115950000Y-151850000D01*
X115948315Y-151884306D01*
X115943275Y-151918282D01*
X115934929Y-151951600D01*
X115923358Y-151983939D01*
X115908672Y-152014989D01*
X115891014Y-152044450D01*
X115870554Y-152072038D01*
X115847487Y-152097487D01*
X115822038Y-152120554D01*
X115794450Y-152141014D01*
X115764989Y-152158672D01*
X115733939Y-152173358D01*
X115701600Y-152184929D01*
X115668282Y-152193275D01*
X115634306Y-152198315D01*
X115600000Y-152200000D01*
X114900000Y-152200000D01*
X114865694Y-152198315D01*
X114831718Y-152193275D01*
X114798400Y-152184929D01*
X114766061Y-152173358D01*
X114735011Y-152158672D01*
X114705550Y-152141014D01*
X114677962Y-152120554D01*
X114652513Y-152097487D01*
X114629446Y-152072038D01*
X114608986Y-152044450D01*
X114591328Y-152014989D01*
X114576642Y-151983939D01*
X114565071Y-151951600D01*
X114556725Y-151918282D01*
X114551685Y-151884306D01*
X114550000Y-151850000D01*
X114550000Y-150450000D01*
X114551685Y-150415694D01*
X114556725Y-150381718D01*
X114565071Y-150348400D01*
X114576642Y-150316061D01*
X114591328Y-150285011D01*
X114608986Y-150255550D01*
X114629446Y-150227962D01*
X114652513Y-150202513D01*
X114677962Y-150179446D01*
X114705550Y-150158986D01*
X114735011Y-150141328D01*
X114766061Y-150126642D01*
X114798400Y-150115071D01*
X114831718Y-150106725D01*
X114865694Y-150101685D01*
X114900000Y-150100000D01*
X115600000Y-150100000D01*
X115634306Y-150101685D01*
G37*
G36*
X115634306Y-141001685D02*
G01*
X115668282Y-141006725D01*
X115701600Y-141015071D01*
X115733939Y-141026642D01*
X115764989Y-141041328D01*
X115794450Y-141058986D01*
X115822038Y-141079446D01*
X115847487Y-141102513D01*
X115870554Y-141127962D01*
X115891014Y-141155550D01*
X115908672Y-141185011D01*
X115923358Y-141216061D01*
X115934929Y-141248400D01*
X115943275Y-141281718D01*
X115948315Y-141315694D01*
X115950000Y-141350000D01*
X115950000Y-142750000D01*
X115948315Y-142784306D01*
X115943275Y-142818282D01*
X115934929Y-142851600D01*
X115923358Y-142883939D01*
X115908672Y-142914989D01*
X115891014Y-142944450D01*
X115870554Y-142972038D01*
X115847487Y-142997487D01*
X115822038Y-143020554D01*
X115794450Y-143041014D01*
X115764989Y-143058672D01*
X115733939Y-143073358D01*
X115701600Y-143084929D01*
X115668282Y-143093275D01*
X115634306Y-143098315D01*
X115600000Y-143100000D01*
X114900000Y-143100000D01*
X114865694Y-143098315D01*
X114831718Y-143093275D01*
X114798400Y-143084929D01*
X114766061Y-143073358D01*
X114735011Y-143058672D01*
X114705550Y-143041014D01*
X114677962Y-143020554D01*
X114652513Y-142997487D01*
X114629446Y-142972038D01*
X114608986Y-142944450D01*
X114591328Y-142914989D01*
X114576642Y-142883939D01*
X114565071Y-142851600D01*
X114556725Y-142818282D01*
X114551685Y-142784306D01*
X114550000Y-142750000D01*
X114550000Y-141350000D01*
X114551685Y-141315694D01*
X114556725Y-141281718D01*
X114565071Y-141248400D01*
X114576642Y-141216061D01*
X114591328Y-141185011D01*
X114608986Y-141155550D01*
X114629446Y-141127962D01*
X114652513Y-141102513D01*
X114677962Y-141079446D01*
X114705550Y-141058986D01*
X114735011Y-141041328D01*
X114766061Y-141026642D01*
X114798400Y-141015071D01*
X114831718Y-141006725D01*
X114865694Y-141001685D01*
X114900000Y-141000000D01*
X115600000Y-141000000D01*
X115634306Y-141001685D01*
G37*
G36*
X120134306Y-150101685D02*
G01*
X120168282Y-150106725D01*
X120201600Y-150115071D01*
X120233939Y-150126642D01*
X120264989Y-150141328D01*
X120294450Y-150158986D01*
X120322038Y-150179446D01*
X120347487Y-150202513D01*
X120370554Y-150227962D01*
X120391014Y-150255550D01*
X120408672Y-150285011D01*
X120423358Y-150316061D01*
X120434929Y-150348400D01*
X120443275Y-150381718D01*
X120448315Y-150415694D01*
X120450000Y-150450000D01*
X120450000Y-151850000D01*
X120448315Y-151884306D01*
X120443275Y-151918282D01*
X120434929Y-151951600D01*
X120423358Y-151983939D01*
X120408672Y-152014989D01*
X120391014Y-152044450D01*
X120370554Y-152072038D01*
X120347487Y-152097487D01*
X120322038Y-152120554D01*
X120294450Y-152141014D01*
X120264989Y-152158672D01*
X120233939Y-152173358D01*
X120201600Y-152184929D01*
X120168282Y-152193275D01*
X120134306Y-152198315D01*
X120100000Y-152200000D01*
X119400000Y-152200000D01*
X119365694Y-152198315D01*
X119331718Y-152193275D01*
X119298400Y-152184929D01*
X119266061Y-152173358D01*
X119235011Y-152158672D01*
X119205550Y-152141014D01*
X119177962Y-152120554D01*
X119152513Y-152097487D01*
X119129446Y-152072038D01*
X119108986Y-152044450D01*
X119091328Y-152014989D01*
X119076642Y-151983939D01*
X119065071Y-151951600D01*
X119056725Y-151918282D01*
X119051685Y-151884306D01*
X119050000Y-151850000D01*
X119050000Y-150450000D01*
X119051685Y-150415694D01*
X119056725Y-150381718D01*
X119065071Y-150348400D01*
X119076642Y-150316061D01*
X119091328Y-150285011D01*
X119108986Y-150255550D01*
X119129446Y-150227962D01*
X119152513Y-150202513D01*
X119177962Y-150179446D01*
X119205550Y-150158986D01*
X119235011Y-150141328D01*
X119266061Y-150126642D01*
X119298400Y-150115071D01*
X119331718Y-150106725D01*
X119365694Y-150101685D01*
X119400000Y-150100000D01*
X120100000Y-150100000D01*
X120134306Y-150101685D01*
G37*
G36*
X120134306Y-141001685D02*
G01*
X120168282Y-141006725D01*
X120201600Y-141015071D01*
X120233939Y-141026642D01*
X120264989Y-141041328D01*
X120294450Y-141058986D01*
X120322038Y-141079446D01*
X120347487Y-141102513D01*
X120370554Y-141127962D01*
X120391014Y-141155550D01*
X120408672Y-141185011D01*
X120423358Y-141216061D01*
X120434929Y-141248400D01*
X120443275Y-141281718D01*
X120448315Y-141315694D01*
X120450000Y-141350000D01*
X120450000Y-142750000D01*
X120448315Y-142784306D01*
X120443275Y-142818282D01*
X120434929Y-142851600D01*
X120423358Y-142883939D01*
X120408672Y-142914989D01*
X120391014Y-142944450D01*
X120370554Y-142972038D01*
X120347487Y-142997487D01*
X120322038Y-143020554D01*
X120294450Y-143041014D01*
X120264989Y-143058672D01*
X120233939Y-143073358D01*
X120201600Y-143084929D01*
X120168282Y-143093275D01*
X120134306Y-143098315D01*
X120100000Y-143100000D01*
X119400000Y-143100000D01*
X119365694Y-143098315D01*
X119331718Y-143093275D01*
X119298400Y-143084929D01*
X119266061Y-143073358D01*
X119235011Y-143058672D01*
X119205550Y-143041014D01*
X119177962Y-143020554D01*
X119152513Y-142997487D01*
X119129446Y-142972038D01*
X119108986Y-142944450D01*
X119091328Y-142914989D01*
X119076642Y-142883939D01*
X119065071Y-142851600D01*
X119056725Y-142818282D01*
X119051685Y-142784306D01*
X119050000Y-142750000D01*
X119050000Y-141350000D01*
X119051685Y-141315694D01*
X119056725Y-141281718D01*
X119065071Y-141248400D01*
X119076642Y-141216061D01*
X119091328Y-141185011D01*
X119108986Y-141155550D01*
X119129446Y-141127962D01*
X119152513Y-141102513D01*
X119177962Y-141079446D01*
X119205550Y-141058986D01*
X119235011Y-141041328D01*
X119266061Y-141026642D01*
X119298400Y-141015071D01*
X119331718Y-141006725D01*
X119365694Y-141001685D01*
X119400000Y-141000000D01*
X120100000Y-141000000D01*
X120134306Y-141001685D01*
G37*
G36*
X133834306Y-141001685D02*
G01*
X133868282Y-141006725D01*
X133901600Y-141015071D01*
X133933939Y-141026642D01*
X133964989Y-141041328D01*
X133994450Y-141058986D01*
X134022038Y-141079446D01*
X134047487Y-141102513D01*
X134070554Y-141127962D01*
X134091014Y-141155550D01*
X134108672Y-141185011D01*
X134123358Y-141216061D01*
X134134929Y-141248400D01*
X134143275Y-141281718D01*
X134148315Y-141315694D01*
X134150000Y-141350000D01*
X134150000Y-142750000D01*
X134148315Y-142784306D01*
X134143275Y-142818282D01*
X134134929Y-142851600D01*
X134123358Y-142883939D01*
X134108672Y-142914989D01*
X134091014Y-142944450D01*
X134070554Y-142972038D01*
X134047487Y-142997487D01*
X134022038Y-143020554D01*
X133994450Y-143041014D01*
X133964989Y-143058672D01*
X133933939Y-143073358D01*
X133901600Y-143084929D01*
X133868282Y-143093275D01*
X133834306Y-143098315D01*
X133800000Y-143100000D01*
X133100000Y-143100000D01*
X133065694Y-143098315D01*
X133031718Y-143093275D01*
X132998400Y-143084929D01*
X132966061Y-143073358D01*
X132935011Y-143058672D01*
X132905550Y-143041014D01*
X132877962Y-143020554D01*
X132852513Y-142997487D01*
X132829446Y-142972038D01*
X132808986Y-142944450D01*
X132791328Y-142914989D01*
X132776642Y-142883939D01*
X132765071Y-142851600D01*
X132756725Y-142818282D01*
X132751685Y-142784306D01*
X132750000Y-142750000D01*
X132750000Y-141350000D01*
X132751685Y-141315694D01*
X132756725Y-141281718D01*
X132765071Y-141248400D01*
X132776642Y-141216061D01*
X132791328Y-141185011D01*
X132808986Y-141155550D01*
X132829446Y-141127962D01*
X132852513Y-141102513D01*
X132877962Y-141079446D01*
X132905550Y-141058986D01*
X132935011Y-141041328D01*
X132966061Y-141026642D01*
X132998400Y-141015071D01*
X133031718Y-141006725D01*
X133065694Y-141001685D01*
X133100000Y-141000000D01*
X133800000Y-141000000D01*
X133834306Y-141001685D01*
G37*
G36*
X133834306Y-150101685D02*
G01*
X133868282Y-150106725D01*
X133901600Y-150115071D01*
X133933939Y-150126642D01*
X133964989Y-150141328D01*
X133994450Y-150158986D01*
X134022038Y-150179446D01*
X134047487Y-150202513D01*
X134070554Y-150227962D01*
X134091014Y-150255550D01*
X134108672Y-150285011D01*
X134123358Y-150316061D01*
X134134929Y-150348400D01*
X134143275Y-150381718D01*
X134148315Y-150415694D01*
X134150000Y-150450000D01*
X134150000Y-151850000D01*
X134148315Y-151884306D01*
X134143275Y-151918282D01*
X134134929Y-151951600D01*
X134123358Y-151983939D01*
X134108672Y-152014989D01*
X134091014Y-152044450D01*
X134070554Y-152072038D01*
X134047487Y-152097487D01*
X134022038Y-152120554D01*
X133994450Y-152141014D01*
X133964989Y-152158672D01*
X133933939Y-152173358D01*
X133901600Y-152184929D01*
X133868282Y-152193275D01*
X133834306Y-152198315D01*
X133800000Y-152200000D01*
X133100000Y-152200000D01*
X133065694Y-152198315D01*
X133031718Y-152193275D01*
X132998400Y-152184929D01*
X132966061Y-152173358D01*
X132935011Y-152158672D01*
X132905550Y-152141014D01*
X132877962Y-152120554D01*
X132852513Y-152097487D01*
X132829446Y-152072038D01*
X132808986Y-152044450D01*
X132791328Y-152014989D01*
X132776642Y-151983939D01*
X132765071Y-151951600D01*
X132756725Y-151918282D01*
X132751685Y-151884306D01*
X132750000Y-151850000D01*
X132750000Y-150450000D01*
X132751685Y-150415694D01*
X132756725Y-150381718D01*
X132765071Y-150348400D01*
X132776642Y-150316061D01*
X132791328Y-150285011D01*
X132808986Y-150255550D01*
X132829446Y-150227962D01*
X132852513Y-150202513D01*
X132877962Y-150179446D01*
X132905550Y-150158986D01*
X132935011Y-150141328D01*
X132966061Y-150126642D01*
X132998400Y-150115071D01*
X133031718Y-150106725D01*
X133065694Y-150101685D01*
X133100000Y-150100000D01*
X133800000Y-150100000D01*
X133834306Y-150101685D01*
G37*
G36*
X129334306Y-141001685D02*
G01*
X129368282Y-141006725D01*
X129401600Y-141015071D01*
X129433939Y-141026642D01*
X129464989Y-141041328D01*
X129494450Y-141058986D01*
X129522038Y-141079446D01*
X129547487Y-141102513D01*
X129570554Y-141127962D01*
X129591014Y-141155550D01*
X129608672Y-141185011D01*
X129623358Y-141216061D01*
X129634929Y-141248400D01*
X129643275Y-141281718D01*
X129648315Y-141315694D01*
X129650000Y-141350000D01*
X129650000Y-142750000D01*
X129648315Y-142784306D01*
X129643275Y-142818282D01*
X129634929Y-142851600D01*
X129623358Y-142883939D01*
X129608672Y-142914989D01*
X129591014Y-142944450D01*
X129570554Y-142972038D01*
X129547487Y-142997487D01*
X129522038Y-143020554D01*
X129494450Y-143041014D01*
X129464989Y-143058672D01*
X129433939Y-143073358D01*
X129401600Y-143084929D01*
X129368282Y-143093275D01*
X129334306Y-143098315D01*
X129300000Y-143100000D01*
X128600000Y-143100000D01*
X128565694Y-143098315D01*
X128531718Y-143093275D01*
X128498400Y-143084929D01*
X128466061Y-143073358D01*
X128435011Y-143058672D01*
X128405550Y-143041014D01*
X128377962Y-143020554D01*
X128352513Y-142997487D01*
X128329446Y-142972038D01*
X128308986Y-142944450D01*
X128291328Y-142914989D01*
X128276642Y-142883939D01*
X128265071Y-142851600D01*
X128256725Y-142818282D01*
X128251685Y-142784306D01*
X128250000Y-142750000D01*
X128250000Y-141350000D01*
X128251685Y-141315694D01*
X128256725Y-141281718D01*
X128265071Y-141248400D01*
X128276642Y-141216061D01*
X128291328Y-141185011D01*
X128308986Y-141155550D01*
X128329446Y-141127962D01*
X128352513Y-141102513D01*
X128377962Y-141079446D01*
X128405550Y-141058986D01*
X128435011Y-141041328D01*
X128466061Y-141026642D01*
X128498400Y-141015071D01*
X128531718Y-141006725D01*
X128565694Y-141001685D01*
X128600000Y-141000000D01*
X129300000Y-141000000D01*
X129334306Y-141001685D01*
G37*
G36*
X129334306Y-150101685D02*
G01*
X129368282Y-150106725D01*
X129401600Y-150115071D01*
X129433939Y-150126642D01*
X129464989Y-150141328D01*
X129494450Y-150158986D01*
X129522038Y-150179446D01*
X129547487Y-150202513D01*
X129570554Y-150227962D01*
X129591014Y-150255550D01*
X129608672Y-150285011D01*
X129623358Y-150316061D01*
X129634929Y-150348400D01*
X129643275Y-150381718D01*
X129648315Y-150415694D01*
X129650000Y-150450000D01*
X129650000Y-151850000D01*
X129648315Y-151884306D01*
X129643275Y-151918282D01*
X129634929Y-151951600D01*
X129623358Y-151983939D01*
X129608672Y-152014989D01*
X129591014Y-152044450D01*
X129570554Y-152072038D01*
X129547487Y-152097487D01*
X129522038Y-152120554D01*
X129494450Y-152141014D01*
X129464989Y-152158672D01*
X129433939Y-152173358D01*
X129401600Y-152184929D01*
X129368282Y-152193275D01*
X129334306Y-152198315D01*
X129300000Y-152200000D01*
X128600000Y-152200000D01*
X128565694Y-152198315D01*
X128531718Y-152193275D01*
X128498400Y-152184929D01*
X128466061Y-152173358D01*
X128435011Y-152158672D01*
X128405550Y-152141014D01*
X128377962Y-152120554D01*
X128352513Y-152097487D01*
X128329446Y-152072038D01*
X128308986Y-152044450D01*
X128291328Y-152014989D01*
X128276642Y-151983939D01*
X128265071Y-151951600D01*
X128256725Y-151918282D01*
X128251685Y-151884306D01*
X128250000Y-151850000D01*
X128250000Y-150450000D01*
X128251685Y-150415694D01*
X128256725Y-150381718D01*
X128265071Y-150348400D01*
X128276642Y-150316061D01*
X128291328Y-150285011D01*
X128308986Y-150255550D01*
X128329446Y-150227962D01*
X128352513Y-150202513D01*
X128377962Y-150179446D01*
X128405550Y-150158986D01*
X128435011Y-150141328D01*
X128466061Y-150126642D01*
X128498400Y-150115071D01*
X128531718Y-150106725D01*
X128565694Y-150101685D01*
X128600000Y-150100000D01*
X129300000Y-150100000D01*
X129334306Y-150101685D01*
G37*
G36*
X143034306Y-150101685D02*
G01*
X143068282Y-150106725D01*
X143101600Y-150115071D01*
X143133939Y-150126642D01*
X143164989Y-150141328D01*
X143194450Y-150158986D01*
X143222038Y-150179446D01*
X143247487Y-150202513D01*
X143270554Y-150227962D01*
X143291014Y-150255550D01*
X143308672Y-150285011D01*
X143323358Y-150316061D01*
X143334929Y-150348400D01*
X143343275Y-150381718D01*
X143348315Y-150415694D01*
X143350000Y-150450000D01*
X143350000Y-151850000D01*
X143348315Y-151884306D01*
X143343275Y-151918282D01*
X143334929Y-151951600D01*
X143323358Y-151983939D01*
X143308672Y-152014989D01*
X143291014Y-152044450D01*
X143270554Y-152072038D01*
X143247487Y-152097487D01*
X143222038Y-152120554D01*
X143194450Y-152141014D01*
X143164989Y-152158672D01*
X143133939Y-152173358D01*
X143101600Y-152184929D01*
X143068282Y-152193275D01*
X143034306Y-152198315D01*
X143000000Y-152200000D01*
X142300000Y-152200000D01*
X142265694Y-152198315D01*
X142231718Y-152193275D01*
X142198400Y-152184929D01*
X142166061Y-152173358D01*
X142135011Y-152158672D01*
X142105550Y-152141014D01*
X142077962Y-152120554D01*
X142052513Y-152097487D01*
X142029446Y-152072038D01*
X142008986Y-152044450D01*
X141991328Y-152014989D01*
X141976642Y-151983939D01*
X141965071Y-151951600D01*
X141956725Y-151918282D01*
X141951685Y-151884306D01*
X141950000Y-151850000D01*
X141950000Y-150450000D01*
X141951685Y-150415694D01*
X141956725Y-150381718D01*
X141965071Y-150348400D01*
X141976642Y-150316061D01*
X141991328Y-150285011D01*
X142008986Y-150255550D01*
X142029446Y-150227962D01*
X142052513Y-150202513D01*
X142077962Y-150179446D01*
X142105550Y-150158986D01*
X142135011Y-150141328D01*
X142166061Y-150126642D01*
X142198400Y-150115071D01*
X142231718Y-150106725D01*
X142265694Y-150101685D01*
X142300000Y-150100000D01*
X143000000Y-150100000D01*
X143034306Y-150101685D01*
G37*
G36*
X143034306Y-141001685D02*
G01*
X143068282Y-141006725D01*
X143101600Y-141015071D01*
X143133939Y-141026642D01*
X143164989Y-141041328D01*
X143194450Y-141058986D01*
X143222038Y-141079446D01*
X143247487Y-141102513D01*
X143270554Y-141127962D01*
X143291014Y-141155550D01*
X143308672Y-141185011D01*
X143323358Y-141216061D01*
X143334929Y-141248400D01*
X143343275Y-141281718D01*
X143348315Y-141315694D01*
X143350000Y-141350000D01*
X143350000Y-142750000D01*
X143348315Y-142784306D01*
X143343275Y-142818282D01*
X143334929Y-142851600D01*
X143323358Y-142883939D01*
X143308672Y-142914989D01*
X143291014Y-142944450D01*
X143270554Y-142972038D01*
X143247487Y-142997487D01*
X143222038Y-143020554D01*
X143194450Y-143041014D01*
X143164989Y-143058672D01*
X143133939Y-143073358D01*
X143101600Y-143084929D01*
X143068282Y-143093275D01*
X143034306Y-143098315D01*
X143000000Y-143100000D01*
X142300000Y-143100000D01*
X142265694Y-143098315D01*
X142231718Y-143093275D01*
X142198400Y-143084929D01*
X142166061Y-143073358D01*
X142135011Y-143058672D01*
X142105550Y-143041014D01*
X142077962Y-143020554D01*
X142052513Y-142997487D01*
X142029446Y-142972038D01*
X142008986Y-142944450D01*
X141991328Y-142914989D01*
X141976642Y-142883939D01*
X141965071Y-142851600D01*
X141956725Y-142818282D01*
X141951685Y-142784306D01*
X141950000Y-142750000D01*
X141950000Y-141350000D01*
X141951685Y-141315694D01*
X141956725Y-141281718D01*
X141965071Y-141248400D01*
X141976642Y-141216061D01*
X141991328Y-141185011D01*
X142008986Y-141155550D01*
X142029446Y-141127962D01*
X142052513Y-141102513D01*
X142077962Y-141079446D01*
X142105550Y-141058986D01*
X142135011Y-141041328D01*
X142166061Y-141026642D01*
X142198400Y-141015071D01*
X142231718Y-141006725D01*
X142265694Y-141001685D01*
X142300000Y-141000000D01*
X143000000Y-141000000D01*
X143034306Y-141001685D01*
G37*
G36*
X147534306Y-150101685D02*
G01*
X147568282Y-150106725D01*
X147601600Y-150115071D01*
X147633939Y-150126642D01*
X147664989Y-150141328D01*
X147694450Y-150158986D01*
X147722038Y-150179446D01*
X147747487Y-150202513D01*
X147770554Y-150227962D01*
X147791014Y-150255550D01*
X147808672Y-150285011D01*
X147823358Y-150316061D01*
X147834929Y-150348400D01*
X147843275Y-150381718D01*
X147848315Y-150415694D01*
X147850000Y-150450000D01*
X147850000Y-151850000D01*
X147848315Y-151884306D01*
X147843275Y-151918282D01*
X147834929Y-151951600D01*
X147823358Y-151983939D01*
X147808672Y-152014989D01*
X147791014Y-152044450D01*
X147770554Y-152072038D01*
X147747487Y-152097487D01*
X147722038Y-152120554D01*
X147694450Y-152141014D01*
X147664989Y-152158672D01*
X147633939Y-152173358D01*
X147601600Y-152184929D01*
X147568282Y-152193275D01*
X147534306Y-152198315D01*
X147500000Y-152200000D01*
X146800000Y-152200000D01*
X146765694Y-152198315D01*
X146731718Y-152193275D01*
X146698400Y-152184929D01*
X146666061Y-152173358D01*
X146635011Y-152158672D01*
X146605550Y-152141014D01*
X146577962Y-152120554D01*
X146552513Y-152097487D01*
X146529446Y-152072038D01*
X146508986Y-152044450D01*
X146491328Y-152014989D01*
X146476642Y-151983939D01*
X146465071Y-151951600D01*
X146456725Y-151918282D01*
X146451685Y-151884306D01*
X146450000Y-151850000D01*
X146450000Y-150450000D01*
X146451685Y-150415694D01*
X146456725Y-150381718D01*
X146465071Y-150348400D01*
X146476642Y-150316061D01*
X146491328Y-150285011D01*
X146508986Y-150255550D01*
X146529446Y-150227962D01*
X146552513Y-150202513D01*
X146577962Y-150179446D01*
X146605550Y-150158986D01*
X146635011Y-150141328D01*
X146666061Y-150126642D01*
X146698400Y-150115071D01*
X146731718Y-150106725D01*
X146765694Y-150101685D01*
X146800000Y-150100000D01*
X147500000Y-150100000D01*
X147534306Y-150101685D01*
G37*
G36*
X147534306Y-141001685D02*
G01*
X147568282Y-141006725D01*
X147601600Y-141015071D01*
X147633939Y-141026642D01*
X147664989Y-141041328D01*
X147694450Y-141058986D01*
X147722038Y-141079446D01*
X147747487Y-141102513D01*
X147770554Y-141127962D01*
X147791014Y-141155550D01*
X147808672Y-141185011D01*
X147823358Y-141216061D01*
X147834929Y-141248400D01*
X147843275Y-141281718D01*
X147848315Y-141315694D01*
X147850000Y-141350000D01*
X147850000Y-142750000D01*
X147848315Y-142784306D01*
X147843275Y-142818282D01*
X147834929Y-142851600D01*
X147823358Y-142883939D01*
X147808672Y-142914989D01*
X147791014Y-142944450D01*
X147770554Y-142972038D01*
X147747487Y-142997487D01*
X147722038Y-143020554D01*
X147694450Y-143041014D01*
X147664989Y-143058672D01*
X147633939Y-143073358D01*
X147601600Y-143084929D01*
X147568282Y-143093275D01*
X147534306Y-143098315D01*
X147500000Y-143100000D01*
X146800000Y-143100000D01*
X146765694Y-143098315D01*
X146731718Y-143093275D01*
X146698400Y-143084929D01*
X146666061Y-143073358D01*
X146635011Y-143058672D01*
X146605550Y-143041014D01*
X146577962Y-143020554D01*
X146552513Y-142997487D01*
X146529446Y-142972038D01*
X146508986Y-142944450D01*
X146491328Y-142914989D01*
X146476642Y-142883939D01*
X146465071Y-142851600D01*
X146456725Y-142818282D01*
X146451685Y-142784306D01*
X146450000Y-142750000D01*
X146450000Y-141350000D01*
X146451685Y-141315694D01*
X146456725Y-141281718D01*
X146465071Y-141248400D01*
X146476642Y-141216061D01*
X146491328Y-141185011D01*
X146508986Y-141155550D01*
X146529446Y-141127962D01*
X146552513Y-141102513D01*
X146577962Y-141079446D01*
X146605550Y-141058986D01*
X146635011Y-141041328D01*
X146666061Y-141026642D01*
X146698400Y-141015071D01*
X146731718Y-141006725D01*
X146765694Y-141001685D01*
X146800000Y-141000000D01*
X147500000Y-141000000D01*
X147534306Y-141001685D01*
G37*
G36*
X161234306Y-141001685D02*
G01*
X161268282Y-141006725D01*
X161301600Y-141015071D01*
X161333939Y-141026642D01*
X161364989Y-141041328D01*
X161394450Y-141058986D01*
X161422038Y-141079446D01*
X161447487Y-141102513D01*
X161470554Y-141127962D01*
X161491014Y-141155550D01*
X161508672Y-141185011D01*
X161523358Y-141216061D01*
X161534929Y-141248400D01*
X161543275Y-141281718D01*
X161548315Y-141315694D01*
X161550000Y-141350000D01*
X161550000Y-142750000D01*
X161548315Y-142784306D01*
X161543275Y-142818282D01*
X161534929Y-142851600D01*
X161523358Y-142883939D01*
X161508672Y-142914989D01*
X161491014Y-142944450D01*
X161470554Y-142972038D01*
X161447487Y-142997487D01*
X161422038Y-143020554D01*
X161394450Y-143041014D01*
X161364989Y-143058672D01*
X161333939Y-143073358D01*
X161301600Y-143084929D01*
X161268282Y-143093275D01*
X161234306Y-143098315D01*
X161200000Y-143100000D01*
X160500000Y-143100000D01*
X160465694Y-143098315D01*
X160431718Y-143093275D01*
X160398400Y-143084929D01*
X160366061Y-143073358D01*
X160335011Y-143058672D01*
X160305550Y-143041014D01*
X160277962Y-143020554D01*
X160252513Y-142997487D01*
X160229446Y-142972038D01*
X160208986Y-142944450D01*
X160191328Y-142914989D01*
X160176642Y-142883939D01*
X160165071Y-142851600D01*
X160156725Y-142818282D01*
X160151685Y-142784306D01*
X160150000Y-142750000D01*
X160150000Y-141350000D01*
X160151685Y-141315694D01*
X160156725Y-141281718D01*
X160165071Y-141248400D01*
X160176642Y-141216061D01*
X160191328Y-141185011D01*
X160208986Y-141155550D01*
X160229446Y-141127962D01*
X160252513Y-141102513D01*
X160277962Y-141079446D01*
X160305550Y-141058986D01*
X160335011Y-141041328D01*
X160366061Y-141026642D01*
X160398400Y-141015071D01*
X160431718Y-141006725D01*
X160465694Y-141001685D01*
X160500000Y-141000000D01*
X161200000Y-141000000D01*
X161234306Y-141001685D01*
G37*
G36*
X161234306Y-150101685D02*
G01*
X161268282Y-150106725D01*
X161301600Y-150115071D01*
X161333939Y-150126642D01*
X161364989Y-150141328D01*
X161394450Y-150158986D01*
X161422038Y-150179446D01*
X161447487Y-150202513D01*
X161470554Y-150227962D01*
X161491014Y-150255550D01*
X161508672Y-150285011D01*
X161523358Y-150316061D01*
X161534929Y-150348400D01*
X161543275Y-150381718D01*
X161548315Y-150415694D01*
X161550000Y-150450000D01*
X161550000Y-151850000D01*
X161548315Y-151884306D01*
X161543275Y-151918282D01*
X161534929Y-151951600D01*
X161523358Y-151983939D01*
X161508672Y-152014989D01*
X161491014Y-152044450D01*
X161470554Y-152072038D01*
X161447487Y-152097487D01*
X161422038Y-152120554D01*
X161394450Y-152141014D01*
X161364989Y-152158672D01*
X161333939Y-152173358D01*
X161301600Y-152184929D01*
X161268282Y-152193275D01*
X161234306Y-152198315D01*
X161200000Y-152200000D01*
X160500000Y-152200000D01*
X160465694Y-152198315D01*
X160431718Y-152193275D01*
X160398400Y-152184929D01*
X160366061Y-152173358D01*
X160335011Y-152158672D01*
X160305550Y-152141014D01*
X160277962Y-152120554D01*
X160252513Y-152097487D01*
X160229446Y-152072038D01*
X160208986Y-152044450D01*
X160191328Y-152014989D01*
X160176642Y-151983939D01*
X160165071Y-151951600D01*
X160156725Y-151918282D01*
X160151685Y-151884306D01*
X160150000Y-151850000D01*
X160150000Y-150450000D01*
X160151685Y-150415694D01*
X160156725Y-150381718D01*
X160165071Y-150348400D01*
X160176642Y-150316061D01*
X160191328Y-150285011D01*
X160208986Y-150255550D01*
X160229446Y-150227962D01*
X160252513Y-150202513D01*
X160277962Y-150179446D01*
X160305550Y-150158986D01*
X160335011Y-150141328D01*
X160366061Y-150126642D01*
X160398400Y-150115071D01*
X160431718Y-150106725D01*
X160465694Y-150101685D01*
X160500000Y-150100000D01*
X161200000Y-150100000D01*
X161234306Y-150101685D01*
G37*
G36*
X156734306Y-141001685D02*
G01*
X156768282Y-141006725D01*
X156801600Y-141015071D01*
X156833939Y-141026642D01*
X156864989Y-141041328D01*
X156894450Y-141058986D01*
X156922038Y-141079446D01*
X156947487Y-141102513D01*
X156970554Y-141127962D01*
X156991014Y-141155550D01*
X157008672Y-141185011D01*
X157023358Y-141216061D01*
X157034929Y-141248400D01*
X157043275Y-141281718D01*
X157048315Y-141315694D01*
X157050000Y-141350000D01*
X157050000Y-142750000D01*
X157048315Y-142784306D01*
X157043275Y-142818282D01*
X157034929Y-142851600D01*
X157023358Y-142883939D01*
X157008672Y-142914989D01*
X156991014Y-142944450D01*
X156970554Y-142972038D01*
X156947487Y-142997487D01*
X156922038Y-143020554D01*
X156894450Y-143041014D01*
X156864989Y-143058672D01*
X156833939Y-143073358D01*
X156801600Y-143084929D01*
X156768282Y-143093275D01*
X156734306Y-143098315D01*
X156700000Y-143100000D01*
X156000000Y-143100000D01*
X155965694Y-143098315D01*
X155931718Y-143093275D01*
X155898400Y-143084929D01*
X155866061Y-143073358D01*
X155835011Y-143058672D01*
X155805550Y-143041014D01*
X155777962Y-143020554D01*
X155752513Y-142997487D01*
X155729446Y-142972038D01*
X155708986Y-142944450D01*
X155691328Y-142914989D01*
X155676642Y-142883939D01*
X155665071Y-142851600D01*
X155656725Y-142818282D01*
X155651685Y-142784306D01*
X155650000Y-142750000D01*
X155650000Y-141350000D01*
X155651685Y-141315694D01*
X155656725Y-141281718D01*
X155665071Y-141248400D01*
X155676642Y-141216061D01*
X155691328Y-141185011D01*
X155708986Y-141155550D01*
X155729446Y-141127962D01*
X155752513Y-141102513D01*
X155777962Y-141079446D01*
X155805550Y-141058986D01*
X155835011Y-141041328D01*
X155866061Y-141026642D01*
X155898400Y-141015071D01*
X155931718Y-141006725D01*
X155965694Y-141001685D01*
X156000000Y-141000000D01*
X156700000Y-141000000D01*
X156734306Y-141001685D01*
G37*
G36*
X156734306Y-150101685D02*
G01*
X156768282Y-150106725D01*
X156801600Y-150115071D01*
X156833939Y-150126642D01*
X156864989Y-150141328D01*
X156894450Y-150158986D01*
X156922038Y-150179446D01*
X156947487Y-150202513D01*
X156970554Y-150227962D01*
X156991014Y-150255550D01*
X157008672Y-150285011D01*
X157023358Y-150316061D01*
X157034929Y-150348400D01*
X157043275Y-150381718D01*
X157048315Y-150415694D01*
X157050000Y-150450000D01*
X157050000Y-151850000D01*
X157048315Y-151884306D01*
X157043275Y-151918282D01*
X157034929Y-151951600D01*
X157023358Y-151983939D01*
X157008672Y-152014989D01*
X156991014Y-152044450D01*
X156970554Y-152072038D01*
X156947487Y-152097487D01*
X156922038Y-152120554D01*
X156894450Y-152141014D01*
X156864989Y-152158672D01*
X156833939Y-152173358D01*
X156801600Y-152184929D01*
X156768282Y-152193275D01*
X156734306Y-152198315D01*
X156700000Y-152200000D01*
X156000000Y-152200000D01*
X155965694Y-152198315D01*
X155931718Y-152193275D01*
X155898400Y-152184929D01*
X155866061Y-152173358D01*
X155835011Y-152158672D01*
X155805550Y-152141014D01*
X155777962Y-152120554D01*
X155752513Y-152097487D01*
X155729446Y-152072038D01*
X155708986Y-152044450D01*
X155691328Y-152014989D01*
X155676642Y-151983939D01*
X155665071Y-151951600D01*
X155656725Y-151918282D01*
X155651685Y-151884306D01*
X155650000Y-151850000D01*
X155650000Y-150450000D01*
X155651685Y-150415694D01*
X155656725Y-150381718D01*
X155665071Y-150348400D01*
X155676642Y-150316061D01*
X155691328Y-150285011D01*
X155708986Y-150255550D01*
X155729446Y-150227962D01*
X155752513Y-150202513D01*
X155777962Y-150179446D01*
X155805550Y-150158986D01*
X155835011Y-150141328D01*
X155866061Y-150126642D01*
X155898400Y-150115071D01*
X155931718Y-150106725D01*
X155965694Y-150101685D01*
X156000000Y-150100000D01*
X156700000Y-150100000D01*
X156734306Y-150101685D01*
G37*
G36*
X258084306Y-82851685D02*
G01*
X258118282Y-82856725D01*
X258151600Y-82865071D01*
X258183939Y-82876642D01*
X258214989Y-82891328D01*
X258244450Y-82908986D01*
X258272038Y-82929446D01*
X258297487Y-82952513D01*
X258320554Y-82977962D01*
X258341014Y-83005550D01*
X258358672Y-83035011D01*
X258373358Y-83066061D01*
X258384929Y-83098400D01*
X258393275Y-83131718D01*
X258398315Y-83165694D01*
X258400000Y-83200000D01*
X258400000Y-83900000D01*
X258398315Y-83934306D01*
X258393275Y-83968282D01*
X258384929Y-84001600D01*
X258373358Y-84033939D01*
X258358672Y-84064989D01*
X258341014Y-84094450D01*
X258320554Y-84122038D01*
X258297487Y-84147487D01*
X258272038Y-84170554D01*
X258244450Y-84191014D01*
X258214989Y-84208672D01*
X258183939Y-84223358D01*
X258151600Y-84234929D01*
X258118282Y-84243275D01*
X258084306Y-84248315D01*
X258050000Y-84250000D01*
X256650000Y-84250000D01*
X256615694Y-84248315D01*
X256581718Y-84243275D01*
X256548400Y-84234929D01*
X256516061Y-84223358D01*
X256485011Y-84208672D01*
X256455550Y-84191014D01*
X256427962Y-84170554D01*
X256402513Y-84147487D01*
X256379446Y-84122038D01*
X256358986Y-84094450D01*
X256341328Y-84064989D01*
X256326642Y-84033939D01*
X256315071Y-84001600D01*
X256306725Y-83968282D01*
X256301685Y-83934306D01*
X256300000Y-83900000D01*
X256300000Y-83200000D01*
X256301685Y-83165694D01*
X256306725Y-83131718D01*
X256315071Y-83098400D01*
X256326642Y-83066061D01*
X256341328Y-83035011D01*
X256358986Y-83005550D01*
X256379446Y-82977962D01*
X256402513Y-82952513D01*
X256427962Y-82929446D01*
X256455550Y-82908986D01*
X256485011Y-82891328D01*
X256516061Y-82876642D01*
X256548400Y-82865071D01*
X256581718Y-82856725D01*
X256615694Y-82851685D01*
X256650000Y-82850000D01*
X258050000Y-82850000D01*
X258084306Y-82851685D01*
G37*
G36*
X248984306Y-82851685D02*
G01*
X249018282Y-82856725D01*
X249051600Y-82865071D01*
X249083939Y-82876642D01*
X249114989Y-82891328D01*
X249144450Y-82908986D01*
X249172038Y-82929446D01*
X249197487Y-82952513D01*
X249220554Y-82977962D01*
X249241014Y-83005550D01*
X249258672Y-83035011D01*
X249273358Y-83066061D01*
X249284929Y-83098400D01*
X249293275Y-83131718D01*
X249298315Y-83165694D01*
X249300000Y-83200000D01*
X249300000Y-83900000D01*
X249298315Y-83934306D01*
X249293275Y-83968282D01*
X249284929Y-84001600D01*
X249273358Y-84033939D01*
X249258672Y-84064989D01*
X249241014Y-84094450D01*
X249220554Y-84122038D01*
X249197487Y-84147487D01*
X249172038Y-84170554D01*
X249144450Y-84191014D01*
X249114989Y-84208672D01*
X249083939Y-84223358D01*
X249051600Y-84234929D01*
X249018282Y-84243275D01*
X248984306Y-84248315D01*
X248950000Y-84250000D01*
X247550000Y-84250000D01*
X247515694Y-84248315D01*
X247481718Y-84243275D01*
X247448400Y-84234929D01*
X247416061Y-84223358D01*
X247385011Y-84208672D01*
X247355550Y-84191014D01*
X247327962Y-84170554D01*
X247302513Y-84147487D01*
X247279446Y-84122038D01*
X247258986Y-84094450D01*
X247241328Y-84064989D01*
X247226642Y-84033939D01*
X247215071Y-84001600D01*
X247206725Y-83968282D01*
X247201685Y-83934306D01*
X247200000Y-83900000D01*
X247200000Y-83200000D01*
X247201685Y-83165694D01*
X247206725Y-83131718D01*
X247215071Y-83098400D01*
X247226642Y-83066061D01*
X247241328Y-83035011D01*
X247258986Y-83005550D01*
X247279446Y-82977962D01*
X247302513Y-82952513D01*
X247327962Y-82929446D01*
X247355550Y-82908986D01*
X247385011Y-82891328D01*
X247416061Y-82876642D01*
X247448400Y-82865071D01*
X247481718Y-82856725D01*
X247515694Y-82851685D01*
X247550000Y-82850000D01*
X248950000Y-82850000D01*
X248984306Y-82851685D01*
G37*
G36*
X258084306Y-78351685D02*
G01*
X258118282Y-78356725D01*
X258151600Y-78365071D01*
X258183939Y-78376642D01*
X258214989Y-78391328D01*
X258244450Y-78408986D01*
X258272038Y-78429446D01*
X258297487Y-78452513D01*
X258320554Y-78477962D01*
X258341014Y-78505550D01*
X258358672Y-78535011D01*
X258373358Y-78566061D01*
X258384929Y-78598400D01*
X258393275Y-78631718D01*
X258398315Y-78665694D01*
X258400000Y-78700000D01*
X258400000Y-79400000D01*
X258398315Y-79434306D01*
X258393275Y-79468282D01*
X258384929Y-79501600D01*
X258373358Y-79533939D01*
X258358672Y-79564989D01*
X258341014Y-79594450D01*
X258320554Y-79622038D01*
X258297487Y-79647487D01*
X258272038Y-79670554D01*
X258244450Y-79691014D01*
X258214989Y-79708672D01*
X258183939Y-79723358D01*
X258151600Y-79734929D01*
X258118282Y-79743275D01*
X258084306Y-79748315D01*
X258050000Y-79750000D01*
X256650000Y-79750000D01*
X256615694Y-79748315D01*
X256581718Y-79743275D01*
X256548400Y-79734929D01*
X256516061Y-79723358D01*
X256485011Y-79708672D01*
X256455550Y-79691014D01*
X256427962Y-79670554D01*
X256402513Y-79647487D01*
X256379446Y-79622038D01*
X256358986Y-79594450D01*
X256341328Y-79564989D01*
X256326642Y-79533939D01*
X256315071Y-79501600D01*
X256306725Y-79468282D01*
X256301685Y-79434306D01*
X256300000Y-79400000D01*
X256300000Y-78700000D01*
X256301685Y-78665694D01*
X256306725Y-78631718D01*
X256315071Y-78598400D01*
X256326642Y-78566061D01*
X256341328Y-78535011D01*
X256358986Y-78505550D01*
X256379446Y-78477962D01*
X256402513Y-78452513D01*
X256427962Y-78429446D01*
X256455550Y-78408986D01*
X256485011Y-78391328D01*
X256516061Y-78376642D01*
X256548400Y-78365071D01*
X256581718Y-78356725D01*
X256615694Y-78351685D01*
X256650000Y-78350000D01*
X258050000Y-78350000D01*
X258084306Y-78351685D01*
G37*
G36*
X248984306Y-78351685D02*
G01*
X249018282Y-78356725D01*
X249051600Y-78365071D01*
X249083939Y-78376642D01*
X249114989Y-78391328D01*
X249144450Y-78408986D01*
X249172038Y-78429446D01*
X249197487Y-78452513D01*
X249220554Y-78477962D01*
X249241014Y-78505550D01*
X249258672Y-78535011D01*
X249273358Y-78566061D01*
X249284929Y-78598400D01*
X249293275Y-78631718D01*
X249298315Y-78665694D01*
X249300000Y-78700000D01*
X249300000Y-79400000D01*
X249298315Y-79434306D01*
X249293275Y-79468282D01*
X249284929Y-79501600D01*
X249273358Y-79533939D01*
X249258672Y-79564989D01*
X249241014Y-79594450D01*
X249220554Y-79622038D01*
X249197487Y-79647487D01*
X249172038Y-79670554D01*
X249144450Y-79691014D01*
X249114989Y-79708672D01*
X249083939Y-79723358D01*
X249051600Y-79734929D01*
X249018282Y-79743275D01*
X248984306Y-79748315D01*
X248950000Y-79750000D01*
X247550000Y-79750000D01*
X247515694Y-79748315D01*
X247481718Y-79743275D01*
X247448400Y-79734929D01*
X247416061Y-79723358D01*
X247385011Y-79708672D01*
X247355550Y-79691014D01*
X247327962Y-79670554D01*
X247302513Y-79647487D01*
X247279446Y-79622038D01*
X247258986Y-79594450D01*
X247241328Y-79564989D01*
X247226642Y-79533939D01*
X247215071Y-79501600D01*
X247206725Y-79468282D01*
X247201685Y-79434306D01*
X247200000Y-79400000D01*
X247200000Y-78700000D01*
X247201685Y-78665694D01*
X247206725Y-78631718D01*
X247215071Y-78598400D01*
X247226642Y-78566061D01*
X247241328Y-78535011D01*
X247258986Y-78505550D01*
X247279446Y-78477962D01*
X247302513Y-78452513D01*
X247327962Y-78429446D01*
X247355550Y-78408986D01*
X247385011Y-78391328D01*
X247416061Y-78376642D01*
X247448400Y-78365071D01*
X247481718Y-78356725D01*
X247515694Y-78351685D01*
X247550000Y-78350000D01*
X248950000Y-78350000D01*
X248984306Y-78351685D01*
G37*
G36*
X230484306Y-91151685D02*
G01*
X230518282Y-91156725D01*
X230551600Y-91165071D01*
X230583939Y-91176642D01*
X230614989Y-91191328D01*
X230644450Y-91208986D01*
X230672038Y-91229446D01*
X230697487Y-91252513D01*
X230720554Y-91277962D01*
X230741014Y-91305550D01*
X230758672Y-91335011D01*
X230773358Y-91366061D01*
X230784929Y-91398400D01*
X230793275Y-91431718D01*
X230798315Y-91465694D01*
X230800000Y-91500000D01*
X230800000Y-92200000D01*
X230798315Y-92234306D01*
X230793275Y-92268282D01*
X230784929Y-92301600D01*
X230773358Y-92333939D01*
X230758672Y-92364989D01*
X230741014Y-92394450D01*
X230720554Y-92422038D01*
X230697487Y-92447487D01*
X230672038Y-92470554D01*
X230644450Y-92491014D01*
X230614989Y-92508672D01*
X230583939Y-92523358D01*
X230551600Y-92534929D01*
X230518282Y-92543275D01*
X230484306Y-92548315D01*
X230450000Y-92550000D01*
X229050000Y-92550000D01*
X229015694Y-92548315D01*
X228981718Y-92543275D01*
X228948400Y-92534929D01*
X228916061Y-92523358D01*
X228885011Y-92508672D01*
X228855550Y-92491014D01*
X228827962Y-92470554D01*
X228802513Y-92447487D01*
X228779446Y-92422038D01*
X228758986Y-92394450D01*
X228741328Y-92364989D01*
X228726642Y-92333939D01*
X228715071Y-92301600D01*
X228706725Y-92268282D01*
X228701685Y-92234306D01*
X228700000Y-92200000D01*
X228700000Y-91500000D01*
X228701685Y-91465694D01*
X228706725Y-91431718D01*
X228715071Y-91398400D01*
X228726642Y-91366061D01*
X228741328Y-91335011D01*
X228758986Y-91305550D01*
X228779446Y-91277962D01*
X228802513Y-91252513D01*
X228827962Y-91229446D01*
X228855550Y-91208986D01*
X228885011Y-91191328D01*
X228916061Y-91176642D01*
X228948400Y-91165071D01*
X228981718Y-91156725D01*
X229015694Y-91151685D01*
X229050000Y-91150000D01*
X230450000Y-91150000D01*
X230484306Y-91151685D01*
G37*
G36*
X239584306Y-91151685D02*
G01*
X239618282Y-91156725D01*
X239651600Y-91165071D01*
X239683939Y-91176642D01*
X239714989Y-91191328D01*
X239744450Y-91208986D01*
X239772038Y-91229446D01*
X239797487Y-91252513D01*
X239820554Y-91277962D01*
X239841014Y-91305550D01*
X239858672Y-91335011D01*
X239873358Y-91366061D01*
X239884929Y-91398400D01*
X239893275Y-91431718D01*
X239898315Y-91465694D01*
X239900000Y-91500000D01*
X239900000Y-92200000D01*
X239898315Y-92234306D01*
X239893275Y-92268282D01*
X239884929Y-92301600D01*
X239873358Y-92333939D01*
X239858672Y-92364989D01*
X239841014Y-92394450D01*
X239820554Y-92422038D01*
X239797487Y-92447487D01*
X239772038Y-92470554D01*
X239744450Y-92491014D01*
X239714989Y-92508672D01*
X239683939Y-92523358D01*
X239651600Y-92534929D01*
X239618282Y-92543275D01*
X239584306Y-92548315D01*
X239550000Y-92550000D01*
X238150000Y-92550000D01*
X238115694Y-92548315D01*
X238081718Y-92543275D01*
X238048400Y-92534929D01*
X238016061Y-92523358D01*
X237985011Y-92508672D01*
X237955550Y-92491014D01*
X237927962Y-92470554D01*
X237902513Y-92447487D01*
X237879446Y-92422038D01*
X237858986Y-92394450D01*
X237841328Y-92364989D01*
X237826642Y-92333939D01*
X237815071Y-92301600D01*
X237806725Y-92268282D01*
X237801685Y-92234306D01*
X237800000Y-92200000D01*
X237800000Y-91500000D01*
X237801685Y-91465694D01*
X237806725Y-91431718D01*
X237815071Y-91398400D01*
X237826642Y-91366061D01*
X237841328Y-91335011D01*
X237858986Y-91305550D01*
X237879446Y-91277962D01*
X237902513Y-91252513D01*
X237927962Y-91229446D01*
X237955550Y-91208986D01*
X237985011Y-91191328D01*
X238016061Y-91176642D01*
X238048400Y-91165071D01*
X238081718Y-91156725D01*
X238115694Y-91151685D01*
X238150000Y-91150000D01*
X239550000Y-91150000D01*
X239584306Y-91151685D01*
G37*
G36*
X230484306Y-95651685D02*
G01*
X230518282Y-95656725D01*
X230551600Y-95665071D01*
X230583939Y-95676642D01*
X230614989Y-95691328D01*
X230644450Y-95708986D01*
X230672038Y-95729446D01*
X230697487Y-95752513D01*
X230720554Y-95777962D01*
X230741014Y-95805550D01*
X230758672Y-95835011D01*
X230773358Y-95866061D01*
X230784929Y-95898400D01*
X230793275Y-95931718D01*
X230798315Y-95965694D01*
X230800000Y-96000000D01*
X230800000Y-96700000D01*
X230798315Y-96734306D01*
X230793275Y-96768282D01*
X230784929Y-96801600D01*
X230773358Y-96833939D01*
X230758672Y-96864989D01*
X230741014Y-96894450D01*
X230720554Y-96922038D01*
X230697487Y-96947487D01*
X230672038Y-96970554D01*
X230644450Y-96991014D01*
X230614989Y-97008672D01*
X230583939Y-97023358D01*
X230551600Y-97034929D01*
X230518282Y-97043275D01*
X230484306Y-97048315D01*
X230450000Y-97050000D01*
X229050000Y-97050000D01*
X229015694Y-97048315D01*
X228981718Y-97043275D01*
X228948400Y-97034929D01*
X228916061Y-97023358D01*
X228885011Y-97008672D01*
X228855550Y-96991014D01*
X228827962Y-96970554D01*
X228802513Y-96947487D01*
X228779446Y-96922038D01*
X228758986Y-96894450D01*
X228741328Y-96864989D01*
X228726642Y-96833939D01*
X228715071Y-96801600D01*
X228706725Y-96768282D01*
X228701685Y-96734306D01*
X228700000Y-96700000D01*
X228700000Y-96000000D01*
X228701685Y-95965694D01*
X228706725Y-95931718D01*
X228715071Y-95898400D01*
X228726642Y-95866061D01*
X228741328Y-95835011D01*
X228758986Y-95805550D01*
X228779446Y-95777962D01*
X228802513Y-95752513D01*
X228827962Y-95729446D01*
X228855550Y-95708986D01*
X228885011Y-95691328D01*
X228916061Y-95676642D01*
X228948400Y-95665071D01*
X228981718Y-95656725D01*
X229015694Y-95651685D01*
X229050000Y-95650000D01*
X230450000Y-95650000D01*
X230484306Y-95651685D01*
G37*
G36*
X239584306Y-95651685D02*
G01*
X239618282Y-95656725D01*
X239651600Y-95665071D01*
X239683939Y-95676642D01*
X239714989Y-95691328D01*
X239744450Y-95708986D01*
X239772038Y-95729446D01*
X239797487Y-95752513D01*
X239820554Y-95777962D01*
X239841014Y-95805550D01*
X239858672Y-95835011D01*
X239873358Y-95866061D01*
X239884929Y-95898400D01*
X239893275Y-95931718D01*
X239898315Y-95965694D01*
X239900000Y-96000000D01*
X239900000Y-96700000D01*
X239898315Y-96734306D01*
X239893275Y-96768282D01*
X239884929Y-96801600D01*
X239873358Y-96833939D01*
X239858672Y-96864989D01*
X239841014Y-96894450D01*
X239820554Y-96922038D01*
X239797487Y-96947487D01*
X239772038Y-96970554D01*
X239744450Y-96991014D01*
X239714989Y-97008672D01*
X239683939Y-97023358D01*
X239651600Y-97034929D01*
X239618282Y-97043275D01*
X239584306Y-97048315D01*
X239550000Y-97050000D01*
X238150000Y-97050000D01*
X238115694Y-97048315D01*
X238081718Y-97043275D01*
X238048400Y-97034929D01*
X238016061Y-97023358D01*
X237985011Y-97008672D01*
X237955550Y-96991014D01*
X237927962Y-96970554D01*
X237902513Y-96947487D01*
X237879446Y-96922038D01*
X237858986Y-96894450D01*
X237841328Y-96864989D01*
X237826642Y-96833939D01*
X237815071Y-96801600D01*
X237806725Y-96768282D01*
X237801685Y-96734306D01*
X237800000Y-96700000D01*
X237800000Y-96000000D01*
X237801685Y-95965694D01*
X237806725Y-95931718D01*
X237815071Y-95898400D01*
X237826642Y-95866061D01*
X237841328Y-95835011D01*
X237858986Y-95805550D01*
X237879446Y-95777962D01*
X237902513Y-95752513D01*
X237927962Y-95729446D01*
X237955550Y-95708986D01*
X237985011Y-95691328D01*
X238016061Y-95676642D01*
X238048400Y-95665071D01*
X238081718Y-95656725D01*
X238115694Y-95651685D01*
X238150000Y-95650000D01*
X239550000Y-95650000D01*
X239584306Y-95651685D01*
G37*
G36*
X258084306Y-95651685D02*
G01*
X258118282Y-95656725D01*
X258151600Y-95665071D01*
X258183939Y-95676642D01*
X258214989Y-95691328D01*
X258244450Y-95708986D01*
X258272038Y-95729446D01*
X258297487Y-95752513D01*
X258320554Y-95777962D01*
X258341014Y-95805550D01*
X258358672Y-95835011D01*
X258373358Y-95866061D01*
X258384929Y-95898400D01*
X258393275Y-95931718D01*
X258398315Y-95965694D01*
X258400000Y-96000000D01*
X258400000Y-96700000D01*
X258398315Y-96734306D01*
X258393275Y-96768282D01*
X258384929Y-96801600D01*
X258373358Y-96833939D01*
X258358672Y-96864989D01*
X258341014Y-96894450D01*
X258320554Y-96922038D01*
X258297487Y-96947487D01*
X258272038Y-96970554D01*
X258244450Y-96991014D01*
X258214989Y-97008672D01*
X258183939Y-97023358D01*
X258151600Y-97034929D01*
X258118282Y-97043275D01*
X258084306Y-97048315D01*
X258050000Y-97050000D01*
X256650000Y-97050000D01*
X256615694Y-97048315D01*
X256581718Y-97043275D01*
X256548400Y-97034929D01*
X256516061Y-97023358D01*
X256485011Y-97008672D01*
X256455550Y-96991014D01*
X256427962Y-96970554D01*
X256402513Y-96947487D01*
X256379446Y-96922038D01*
X256358986Y-96894450D01*
X256341328Y-96864989D01*
X256326642Y-96833939D01*
X256315071Y-96801600D01*
X256306725Y-96768282D01*
X256301685Y-96734306D01*
X256300000Y-96700000D01*
X256300000Y-96000000D01*
X256301685Y-95965694D01*
X256306725Y-95931718D01*
X256315071Y-95898400D01*
X256326642Y-95866061D01*
X256341328Y-95835011D01*
X256358986Y-95805550D01*
X256379446Y-95777962D01*
X256402513Y-95752513D01*
X256427962Y-95729446D01*
X256455550Y-95708986D01*
X256485011Y-95691328D01*
X256516061Y-95676642D01*
X256548400Y-95665071D01*
X256581718Y-95656725D01*
X256615694Y-95651685D01*
X256650000Y-95650000D01*
X258050000Y-95650000D01*
X258084306Y-95651685D01*
G37*
G36*
X248984306Y-95651685D02*
G01*
X249018282Y-95656725D01*
X249051600Y-95665071D01*
X249083939Y-95676642D01*
X249114989Y-95691328D01*
X249144450Y-95708986D01*
X249172038Y-95729446D01*
X249197487Y-95752513D01*
X249220554Y-95777962D01*
X249241014Y-95805550D01*
X249258672Y-95835011D01*
X249273358Y-95866061D01*
X249284929Y-95898400D01*
X249293275Y-95931718D01*
X249298315Y-95965694D01*
X249300000Y-96000000D01*
X249300000Y-96700000D01*
X249298315Y-96734306D01*
X249293275Y-96768282D01*
X249284929Y-96801600D01*
X249273358Y-96833939D01*
X249258672Y-96864989D01*
X249241014Y-96894450D01*
X249220554Y-96922038D01*
X249197487Y-96947487D01*
X249172038Y-96970554D01*
X249144450Y-96991014D01*
X249114989Y-97008672D01*
X249083939Y-97023358D01*
X249051600Y-97034929D01*
X249018282Y-97043275D01*
X248984306Y-97048315D01*
X248950000Y-97050000D01*
X247550000Y-97050000D01*
X247515694Y-97048315D01*
X247481718Y-97043275D01*
X247448400Y-97034929D01*
X247416061Y-97023358D01*
X247385011Y-97008672D01*
X247355550Y-96991014D01*
X247327962Y-96970554D01*
X247302513Y-96947487D01*
X247279446Y-96922038D01*
X247258986Y-96894450D01*
X247241328Y-96864989D01*
X247226642Y-96833939D01*
X247215071Y-96801600D01*
X247206725Y-96768282D01*
X247201685Y-96734306D01*
X247200000Y-96700000D01*
X247200000Y-96000000D01*
X247201685Y-95965694D01*
X247206725Y-95931718D01*
X247215071Y-95898400D01*
X247226642Y-95866061D01*
X247241328Y-95835011D01*
X247258986Y-95805550D01*
X247279446Y-95777962D01*
X247302513Y-95752513D01*
X247327962Y-95729446D01*
X247355550Y-95708986D01*
X247385011Y-95691328D01*
X247416061Y-95676642D01*
X247448400Y-95665071D01*
X247481718Y-95656725D01*
X247515694Y-95651685D01*
X247550000Y-95650000D01*
X248950000Y-95650000D01*
X248984306Y-95651685D01*
G37*
G36*
X258084306Y-91151685D02*
G01*
X258118282Y-91156725D01*
X258151600Y-91165071D01*
X258183939Y-91176642D01*
X258214989Y-91191328D01*
X258244450Y-91208986D01*
X258272038Y-91229446D01*
X258297487Y-91252513D01*
X258320554Y-91277962D01*
X258341014Y-91305550D01*
X258358672Y-91335011D01*
X258373358Y-91366061D01*
X258384929Y-91398400D01*
X258393275Y-91431718D01*
X258398315Y-91465694D01*
X258400000Y-91500000D01*
X258400000Y-92200000D01*
X258398315Y-92234306D01*
X258393275Y-92268282D01*
X258384929Y-92301600D01*
X258373358Y-92333939D01*
X258358672Y-92364989D01*
X258341014Y-92394450D01*
X258320554Y-92422038D01*
X258297487Y-92447487D01*
X258272038Y-92470554D01*
X258244450Y-92491014D01*
X258214989Y-92508672D01*
X258183939Y-92523358D01*
X258151600Y-92534929D01*
X258118282Y-92543275D01*
X258084306Y-92548315D01*
X258050000Y-92550000D01*
X256650000Y-92550000D01*
X256615694Y-92548315D01*
X256581718Y-92543275D01*
X256548400Y-92534929D01*
X256516061Y-92523358D01*
X256485011Y-92508672D01*
X256455550Y-92491014D01*
X256427962Y-92470554D01*
X256402513Y-92447487D01*
X256379446Y-92422038D01*
X256358986Y-92394450D01*
X256341328Y-92364989D01*
X256326642Y-92333939D01*
X256315071Y-92301600D01*
X256306725Y-92268282D01*
X256301685Y-92234306D01*
X256300000Y-92200000D01*
X256300000Y-91500000D01*
X256301685Y-91465694D01*
X256306725Y-91431718D01*
X256315071Y-91398400D01*
X256326642Y-91366061D01*
X256341328Y-91335011D01*
X256358986Y-91305550D01*
X256379446Y-91277962D01*
X256402513Y-91252513D01*
X256427962Y-91229446D01*
X256455550Y-91208986D01*
X256485011Y-91191328D01*
X256516061Y-91176642D01*
X256548400Y-91165071D01*
X256581718Y-91156725D01*
X256615694Y-91151685D01*
X256650000Y-91150000D01*
X258050000Y-91150000D01*
X258084306Y-91151685D01*
G37*
G36*
X248984306Y-91151685D02*
G01*
X249018282Y-91156725D01*
X249051600Y-91165071D01*
X249083939Y-91176642D01*
X249114989Y-91191328D01*
X249144450Y-91208986D01*
X249172038Y-91229446D01*
X249197487Y-91252513D01*
X249220554Y-91277962D01*
X249241014Y-91305550D01*
X249258672Y-91335011D01*
X249273358Y-91366061D01*
X249284929Y-91398400D01*
X249293275Y-91431718D01*
X249298315Y-91465694D01*
X249300000Y-91500000D01*
X249300000Y-92200000D01*
X249298315Y-92234306D01*
X249293275Y-92268282D01*
X249284929Y-92301600D01*
X249273358Y-92333939D01*
X249258672Y-92364989D01*
X249241014Y-92394450D01*
X249220554Y-92422038D01*
X249197487Y-92447487D01*
X249172038Y-92470554D01*
X249144450Y-92491014D01*
X249114989Y-92508672D01*
X249083939Y-92523358D01*
X249051600Y-92534929D01*
X249018282Y-92543275D01*
X248984306Y-92548315D01*
X248950000Y-92550000D01*
X247550000Y-92550000D01*
X247515694Y-92548315D01*
X247481718Y-92543275D01*
X247448400Y-92534929D01*
X247416061Y-92523358D01*
X247385011Y-92508672D01*
X247355550Y-92491014D01*
X247327962Y-92470554D01*
X247302513Y-92447487D01*
X247279446Y-92422038D01*
X247258986Y-92394450D01*
X247241328Y-92364989D01*
X247226642Y-92333939D01*
X247215071Y-92301600D01*
X247206725Y-92268282D01*
X247201685Y-92234306D01*
X247200000Y-92200000D01*
X247200000Y-91500000D01*
X247201685Y-91465694D01*
X247206725Y-91431718D01*
X247215071Y-91398400D01*
X247226642Y-91366061D01*
X247241328Y-91335011D01*
X247258986Y-91305550D01*
X247279446Y-91277962D01*
X247302513Y-91252513D01*
X247327962Y-91229446D01*
X247355550Y-91208986D01*
X247385011Y-91191328D01*
X247416061Y-91176642D01*
X247448400Y-91165071D01*
X247481718Y-91156725D01*
X247515694Y-91151685D01*
X247550000Y-91150000D01*
X248950000Y-91150000D01*
X248984306Y-91151685D01*
G37*
G36*
X230484306Y-103951685D02*
G01*
X230518282Y-103956725D01*
X230551600Y-103965071D01*
X230583939Y-103976642D01*
X230614989Y-103991328D01*
X230644450Y-104008986D01*
X230672038Y-104029446D01*
X230697487Y-104052513D01*
X230720554Y-104077962D01*
X230741014Y-104105550D01*
X230758672Y-104135011D01*
X230773358Y-104166061D01*
X230784929Y-104198400D01*
X230793275Y-104231718D01*
X230798315Y-104265694D01*
X230800000Y-104300000D01*
X230800000Y-105000000D01*
X230798315Y-105034306D01*
X230793275Y-105068282D01*
X230784929Y-105101600D01*
X230773358Y-105133939D01*
X230758672Y-105164989D01*
X230741014Y-105194450D01*
X230720554Y-105222038D01*
X230697487Y-105247487D01*
X230672038Y-105270554D01*
X230644450Y-105291014D01*
X230614989Y-105308672D01*
X230583939Y-105323358D01*
X230551600Y-105334929D01*
X230518282Y-105343275D01*
X230484306Y-105348315D01*
X230450000Y-105350000D01*
X229050000Y-105350000D01*
X229015694Y-105348315D01*
X228981718Y-105343275D01*
X228948400Y-105334929D01*
X228916061Y-105323358D01*
X228885011Y-105308672D01*
X228855550Y-105291014D01*
X228827962Y-105270554D01*
X228802513Y-105247487D01*
X228779446Y-105222038D01*
X228758986Y-105194450D01*
X228741328Y-105164989D01*
X228726642Y-105133939D01*
X228715071Y-105101600D01*
X228706725Y-105068282D01*
X228701685Y-105034306D01*
X228700000Y-105000000D01*
X228700000Y-104300000D01*
X228701685Y-104265694D01*
X228706725Y-104231718D01*
X228715071Y-104198400D01*
X228726642Y-104166061D01*
X228741328Y-104135011D01*
X228758986Y-104105550D01*
X228779446Y-104077962D01*
X228802513Y-104052513D01*
X228827962Y-104029446D01*
X228855550Y-104008986D01*
X228885011Y-103991328D01*
X228916061Y-103976642D01*
X228948400Y-103965071D01*
X228981718Y-103956725D01*
X229015694Y-103951685D01*
X229050000Y-103950000D01*
X230450000Y-103950000D01*
X230484306Y-103951685D01*
G37*
G36*
X239584306Y-103951685D02*
G01*
X239618282Y-103956725D01*
X239651600Y-103965071D01*
X239683939Y-103976642D01*
X239714989Y-103991328D01*
X239744450Y-104008986D01*
X239772038Y-104029446D01*
X239797487Y-104052513D01*
X239820554Y-104077962D01*
X239841014Y-104105550D01*
X239858672Y-104135011D01*
X239873358Y-104166061D01*
X239884929Y-104198400D01*
X239893275Y-104231718D01*
X239898315Y-104265694D01*
X239900000Y-104300000D01*
X239900000Y-105000000D01*
X239898315Y-105034306D01*
X239893275Y-105068282D01*
X239884929Y-105101600D01*
X239873358Y-105133939D01*
X239858672Y-105164989D01*
X239841014Y-105194450D01*
X239820554Y-105222038D01*
X239797487Y-105247487D01*
X239772038Y-105270554D01*
X239744450Y-105291014D01*
X239714989Y-105308672D01*
X239683939Y-105323358D01*
X239651600Y-105334929D01*
X239618282Y-105343275D01*
X239584306Y-105348315D01*
X239550000Y-105350000D01*
X238150000Y-105350000D01*
X238115694Y-105348315D01*
X238081718Y-105343275D01*
X238048400Y-105334929D01*
X238016061Y-105323358D01*
X237985011Y-105308672D01*
X237955550Y-105291014D01*
X237927962Y-105270554D01*
X237902513Y-105247487D01*
X237879446Y-105222038D01*
X237858986Y-105194450D01*
X237841328Y-105164989D01*
X237826642Y-105133939D01*
X237815071Y-105101600D01*
X237806725Y-105068282D01*
X237801685Y-105034306D01*
X237800000Y-105000000D01*
X237800000Y-104300000D01*
X237801685Y-104265694D01*
X237806725Y-104231718D01*
X237815071Y-104198400D01*
X237826642Y-104166061D01*
X237841328Y-104135011D01*
X237858986Y-104105550D01*
X237879446Y-104077962D01*
X237902513Y-104052513D01*
X237927962Y-104029446D01*
X237955550Y-104008986D01*
X237985011Y-103991328D01*
X238016061Y-103976642D01*
X238048400Y-103965071D01*
X238081718Y-103956725D01*
X238115694Y-103951685D01*
X238150000Y-103950000D01*
X239550000Y-103950000D01*
X239584306Y-103951685D01*
G37*
G36*
X230484306Y-108451685D02*
G01*
X230518282Y-108456725D01*
X230551600Y-108465071D01*
X230583939Y-108476642D01*
X230614989Y-108491328D01*
X230644450Y-108508986D01*
X230672038Y-108529446D01*
X230697487Y-108552513D01*
X230720554Y-108577962D01*
X230741014Y-108605550D01*
X230758672Y-108635011D01*
X230773358Y-108666061D01*
X230784929Y-108698400D01*
X230793275Y-108731718D01*
X230798315Y-108765694D01*
X230800000Y-108800000D01*
X230800000Y-109500000D01*
X230798315Y-109534306D01*
X230793275Y-109568282D01*
X230784929Y-109601600D01*
X230773358Y-109633939D01*
X230758672Y-109664989D01*
X230741014Y-109694450D01*
X230720554Y-109722038D01*
X230697487Y-109747487D01*
X230672038Y-109770554D01*
X230644450Y-109791014D01*
X230614989Y-109808672D01*
X230583939Y-109823358D01*
X230551600Y-109834929D01*
X230518282Y-109843275D01*
X230484306Y-109848315D01*
X230450000Y-109850000D01*
X229050000Y-109850000D01*
X229015694Y-109848315D01*
X228981718Y-109843275D01*
X228948400Y-109834929D01*
X228916061Y-109823358D01*
X228885011Y-109808672D01*
X228855550Y-109791014D01*
X228827962Y-109770554D01*
X228802513Y-109747487D01*
X228779446Y-109722038D01*
X228758986Y-109694450D01*
X228741328Y-109664989D01*
X228726642Y-109633939D01*
X228715071Y-109601600D01*
X228706725Y-109568282D01*
X228701685Y-109534306D01*
X228700000Y-109500000D01*
X228700000Y-108800000D01*
X228701685Y-108765694D01*
X228706725Y-108731718D01*
X228715071Y-108698400D01*
X228726642Y-108666061D01*
X228741328Y-108635011D01*
X228758986Y-108605550D01*
X228779446Y-108577962D01*
X228802513Y-108552513D01*
X228827962Y-108529446D01*
X228855550Y-108508986D01*
X228885011Y-108491328D01*
X228916061Y-108476642D01*
X228948400Y-108465071D01*
X228981718Y-108456725D01*
X229015694Y-108451685D01*
X229050000Y-108450000D01*
X230450000Y-108450000D01*
X230484306Y-108451685D01*
G37*
G36*
X239584306Y-108451685D02*
G01*
X239618282Y-108456725D01*
X239651600Y-108465071D01*
X239683939Y-108476642D01*
X239714989Y-108491328D01*
X239744450Y-108508986D01*
X239772038Y-108529446D01*
X239797487Y-108552513D01*
X239820554Y-108577962D01*
X239841014Y-108605550D01*
X239858672Y-108635011D01*
X239873358Y-108666061D01*
X239884929Y-108698400D01*
X239893275Y-108731718D01*
X239898315Y-108765694D01*
X239900000Y-108800000D01*
X239900000Y-109500000D01*
X239898315Y-109534306D01*
X239893275Y-109568282D01*
X239884929Y-109601600D01*
X239873358Y-109633939D01*
X239858672Y-109664989D01*
X239841014Y-109694450D01*
X239820554Y-109722038D01*
X239797487Y-109747487D01*
X239772038Y-109770554D01*
X239744450Y-109791014D01*
X239714989Y-109808672D01*
X239683939Y-109823358D01*
X239651600Y-109834929D01*
X239618282Y-109843275D01*
X239584306Y-109848315D01*
X239550000Y-109850000D01*
X238150000Y-109850000D01*
X238115694Y-109848315D01*
X238081718Y-109843275D01*
X238048400Y-109834929D01*
X238016061Y-109823358D01*
X237985011Y-109808672D01*
X237955550Y-109791014D01*
X237927962Y-109770554D01*
X237902513Y-109747487D01*
X237879446Y-109722038D01*
X237858986Y-109694450D01*
X237841328Y-109664989D01*
X237826642Y-109633939D01*
X237815071Y-109601600D01*
X237806725Y-109568282D01*
X237801685Y-109534306D01*
X237800000Y-109500000D01*
X237800000Y-108800000D01*
X237801685Y-108765694D01*
X237806725Y-108731718D01*
X237815071Y-108698400D01*
X237826642Y-108666061D01*
X237841328Y-108635011D01*
X237858986Y-108605550D01*
X237879446Y-108577962D01*
X237902513Y-108552513D01*
X237927962Y-108529446D01*
X237955550Y-108508986D01*
X237985011Y-108491328D01*
X238016061Y-108476642D01*
X238048400Y-108465071D01*
X238081718Y-108456725D01*
X238115694Y-108451685D01*
X238150000Y-108450000D01*
X239550000Y-108450000D01*
X239584306Y-108451685D01*
G37*
G36*
X230484306Y-78351685D02*
G01*
X230518282Y-78356725D01*
X230551600Y-78365071D01*
X230583939Y-78376642D01*
X230614989Y-78391328D01*
X230644450Y-78408986D01*
X230672038Y-78429446D01*
X230697487Y-78452513D01*
X230720554Y-78477962D01*
X230741014Y-78505550D01*
X230758672Y-78535011D01*
X230773358Y-78566061D01*
X230784929Y-78598400D01*
X230793275Y-78631718D01*
X230798315Y-78665694D01*
X230800000Y-78700000D01*
X230800000Y-79400000D01*
X230798315Y-79434306D01*
X230793275Y-79468282D01*
X230784929Y-79501600D01*
X230773358Y-79533939D01*
X230758672Y-79564989D01*
X230741014Y-79594450D01*
X230720554Y-79622038D01*
X230697487Y-79647487D01*
X230672038Y-79670554D01*
X230644450Y-79691014D01*
X230614989Y-79708672D01*
X230583939Y-79723358D01*
X230551600Y-79734929D01*
X230518282Y-79743275D01*
X230484306Y-79748315D01*
X230450000Y-79750000D01*
X229050000Y-79750000D01*
X229015694Y-79748315D01*
X228981718Y-79743275D01*
X228948400Y-79734929D01*
X228916061Y-79723358D01*
X228885011Y-79708672D01*
X228855550Y-79691014D01*
X228827962Y-79670554D01*
X228802513Y-79647487D01*
X228779446Y-79622038D01*
X228758986Y-79594450D01*
X228741328Y-79564989D01*
X228726642Y-79533939D01*
X228715071Y-79501600D01*
X228706725Y-79468282D01*
X228701685Y-79434306D01*
X228700000Y-79400000D01*
X228700000Y-78700000D01*
X228701685Y-78665694D01*
X228706725Y-78631718D01*
X228715071Y-78598400D01*
X228726642Y-78566061D01*
X228741328Y-78535011D01*
X228758986Y-78505550D01*
X228779446Y-78477962D01*
X228802513Y-78452513D01*
X228827962Y-78429446D01*
X228855550Y-78408986D01*
X228885011Y-78391328D01*
X228916061Y-78376642D01*
X228948400Y-78365071D01*
X228981718Y-78356725D01*
X229015694Y-78351685D01*
X229050000Y-78350000D01*
X230450000Y-78350000D01*
X230484306Y-78351685D01*
G37*
G36*
X239584306Y-78351685D02*
G01*
X239618282Y-78356725D01*
X239651600Y-78365071D01*
X239683939Y-78376642D01*
X239714989Y-78391328D01*
X239744450Y-78408986D01*
X239772038Y-78429446D01*
X239797487Y-78452513D01*
X239820554Y-78477962D01*
X239841014Y-78505550D01*
X239858672Y-78535011D01*
X239873358Y-78566061D01*
X239884929Y-78598400D01*
X239893275Y-78631718D01*
X239898315Y-78665694D01*
X239900000Y-78700000D01*
X239900000Y-79400000D01*
X239898315Y-79434306D01*
X239893275Y-79468282D01*
X239884929Y-79501600D01*
X239873358Y-79533939D01*
X239858672Y-79564989D01*
X239841014Y-79594450D01*
X239820554Y-79622038D01*
X239797487Y-79647487D01*
X239772038Y-79670554D01*
X239744450Y-79691014D01*
X239714989Y-79708672D01*
X239683939Y-79723358D01*
X239651600Y-79734929D01*
X239618282Y-79743275D01*
X239584306Y-79748315D01*
X239550000Y-79750000D01*
X238150000Y-79750000D01*
X238115694Y-79748315D01*
X238081718Y-79743275D01*
X238048400Y-79734929D01*
X238016061Y-79723358D01*
X237985011Y-79708672D01*
X237955550Y-79691014D01*
X237927962Y-79670554D01*
X237902513Y-79647487D01*
X237879446Y-79622038D01*
X237858986Y-79594450D01*
X237841328Y-79564989D01*
X237826642Y-79533939D01*
X237815071Y-79501600D01*
X237806725Y-79468282D01*
X237801685Y-79434306D01*
X237800000Y-79400000D01*
X237800000Y-78700000D01*
X237801685Y-78665694D01*
X237806725Y-78631718D01*
X237815071Y-78598400D01*
X237826642Y-78566061D01*
X237841328Y-78535011D01*
X237858986Y-78505550D01*
X237879446Y-78477962D01*
X237902513Y-78452513D01*
X237927962Y-78429446D01*
X237955550Y-78408986D01*
X237985011Y-78391328D01*
X238016061Y-78376642D01*
X238048400Y-78365071D01*
X238081718Y-78356725D01*
X238115694Y-78351685D01*
X238150000Y-78350000D01*
X239550000Y-78350000D01*
X239584306Y-78351685D01*
G37*
G36*
X230484306Y-82851685D02*
G01*
X230518282Y-82856725D01*
X230551600Y-82865071D01*
X230583939Y-82876642D01*
X230614989Y-82891328D01*
X230644450Y-82908986D01*
X230672038Y-82929446D01*
X230697487Y-82952513D01*
X230720554Y-82977962D01*
X230741014Y-83005550D01*
X230758672Y-83035011D01*
X230773358Y-83066061D01*
X230784929Y-83098400D01*
X230793275Y-83131718D01*
X230798315Y-83165694D01*
X230800000Y-83200000D01*
X230800000Y-83900000D01*
X230798315Y-83934306D01*
X230793275Y-83968282D01*
X230784929Y-84001600D01*
X230773358Y-84033939D01*
X230758672Y-84064989D01*
X230741014Y-84094450D01*
X230720554Y-84122038D01*
X230697487Y-84147487D01*
X230672038Y-84170554D01*
X230644450Y-84191014D01*
X230614989Y-84208672D01*
X230583939Y-84223358D01*
X230551600Y-84234929D01*
X230518282Y-84243275D01*
X230484306Y-84248315D01*
X230450000Y-84250000D01*
X229050000Y-84250000D01*
X229015694Y-84248315D01*
X228981718Y-84243275D01*
X228948400Y-84234929D01*
X228916061Y-84223358D01*
X228885011Y-84208672D01*
X228855550Y-84191014D01*
X228827962Y-84170554D01*
X228802513Y-84147487D01*
X228779446Y-84122038D01*
X228758986Y-84094450D01*
X228741328Y-84064989D01*
X228726642Y-84033939D01*
X228715071Y-84001600D01*
X228706725Y-83968282D01*
X228701685Y-83934306D01*
X228700000Y-83900000D01*
X228700000Y-83200000D01*
X228701685Y-83165694D01*
X228706725Y-83131718D01*
X228715071Y-83098400D01*
X228726642Y-83066061D01*
X228741328Y-83035011D01*
X228758986Y-83005550D01*
X228779446Y-82977962D01*
X228802513Y-82952513D01*
X228827962Y-82929446D01*
X228855550Y-82908986D01*
X228885011Y-82891328D01*
X228916061Y-82876642D01*
X228948400Y-82865071D01*
X228981718Y-82856725D01*
X229015694Y-82851685D01*
X229050000Y-82850000D01*
X230450000Y-82850000D01*
X230484306Y-82851685D01*
G37*
G36*
X239584306Y-82851685D02*
G01*
X239618282Y-82856725D01*
X239651600Y-82865071D01*
X239683939Y-82876642D01*
X239714989Y-82891328D01*
X239744450Y-82908986D01*
X239772038Y-82929446D01*
X239797487Y-82952513D01*
X239820554Y-82977962D01*
X239841014Y-83005550D01*
X239858672Y-83035011D01*
X239873358Y-83066061D01*
X239884929Y-83098400D01*
X239893275Y-83131718D01*
X239898315Y-83165694D01*
X239900000Y-83200000D01*
X239900000Y-83900000D01*
X239898315Y-83934306D01*
X239893275Y-83968282D01*
X239884929Y-84001600D01*
X239873358Y-84033939D01*
X239858672Y-84064989D01*
X239841014Y-84094450D01*
X239820554Y-84122038D01*
X239797487Y-84147487D01*
X239772038Y-84170554D01*
X239744450Y-84191014D01*
X239714989Y-84208672D01*
X239683939Y-84223358D01*
X239651600Y-84234929D01*
X239618282Y-84243275D01*
X239584306Y-84248315D01*
X239550000Y-84250000D01*
X238150000Y-84250000D01*
X238115694Y-84248315D01*
X238081718Y-84243275D01*
X238048400Y-84234929D01*
X238016061Y-84223358D01*
X237985011Y-84208672D01*
X237955550Y-84191014D01*
X237927962Y-84170554D01*
X237902513Y-84147487D01*
X237879446Y-84122038D01*
X237858986Y-84094450D01*
X237841328Y-84064989D01*
X237826642Y-84033939D01*
X237815071Y-84001600D01*
X237806725Y-83968282D01*
X237801685Y-83934306D01*
X237800000Y-83900000D01*
X237800000Y-83200000D01*
X237801685Y-83165694D01*
X237806725Y-83131718D01*
X237815071Y-83098400D01*
X237826642Y-83066061D01*
X237841328Y-83035011D01*
X237858986Y-83005550D01*
X237879446Y-82977962D01*
X237902513Y-82952513D01*
X237927962Y-82929446D01*
X237955550Y-82908986D01*
X237985011Y-82891328D01*
X238016061Y-82876642D01*
X238048400Y-82865071D01*
X238081718Y-82856725D01*
X238115694Y-82851685D01*
X238150000Y-82850000D01*
X239550000Y-82850000D01*
X239584306Y-82851685D01*
G37*
G36*
X258084306Y-70051685D02*
G01*
X258118282Y-70056725D01*
X258151600Y-70065071D01*
X258183939Y-70076642D01*
X258214989Y-70091328D01*
X258244450Y-70108986D01*
X258272038Y-70129446D01*
X258297487Y-70152513D01*
X258320554Y-70177962D01*
X258341014Y-70205550D01*
X258358672Y-70235011D01*
X258373358Y-70266061D01*
X258384929Y-70298400D01*
X258393275Y-70331718D01*
X258398315Y-70365694D01*
X258400000Y-70400000D01*
X258400000Y-71100000D01*
X258398315Y-71134306D01*
X258393275Y-71168282D01*
X258384929Y-71201600D01*
X258373358Y-71233939D01*
X258358672Y-71264989D01*
X258341014Y-71294450D01*
X258320554Y-71322038D01*
X258297487Y-71347487D01*
X258272038Y-71370554D01*
X258244450Y-71391014D01*
X258214989Y-71408672D01*
X258183939Y-71423358D01*
X258151600Y-71434929D01*
X258118282Y-71443275D01*
X258084306Y-71448315D01*
X258050000Y-71450000D01*
X256650000Y-71450000D01*
X256615694Y-71448315D01*
X256581718Y-71443275D01*
X256548400Y-71434929D01*
X256516061Y-71423358D01*
X256485011Y-71408672D01*
X256455550Y-71391014D01*
X256427962Y-71370554D01*
X256402513Y-71347487D01*
X256379446Y-71322038D01*
X256358986Y-71294450D01*
X256341328Y-71264989D01*
X256326642Y-71233939D01*
X256315071Y-71201600D01*
X256306725Y-71168282D01*
X256301685Y-71134306D01*
X256300000Y-71100000D01*
X256300000Y-70400000D01*
X256301685Y-70365694D01*
X256306725Y-70331718D01*
X256315071Y-70298400D01*
X256326642Y-70266061D01*
X256341328Y-70235011D01*
X256358986Y-70205550D01*
X256379446Y-70177962D01*
X256402513Y-70152513D01*
X256427962Y-70129446D01*
X256455550Y-70108986D01*
X256485011Y-70091328D01*
X256516061Y-70076642D01*
X256548400Y-70065071D01*
X256581718Y-70056725D01*
X256615694Y-70051685D01*
X256650000Y-70050000D01*
X258050000Y-70050000D01*
X258084306Y-70051685D01*
G37*
G36*
X248984306Y-70051685D02*
G01*
X249018282Y-70056725D01*
X249051600Y-70065071D01*
X249083939Y-70076642D01*
X249114989Y-70091328D01*
X249144450Y-70108986D01*
X249172038Y-70129446D01*
X249197487Y-70152513D01*
X249220554Y-70177962D01*
X249241014Y-70205550D01*
X249258672Y-70235011D01*
X249273358Y-70266061D01*
X249284929Y-70298400D01*
X249293275Y-70331718D01*
X249298315Y-70365694D01*
X249300000Y-70400000D01*
X249300000Y-71100000D01*
X249298315Y-71134306D01*
X249293275Y-71168282D01*
X249284929Y-71201600D01*
X249273358Y-71233939D01*
X249258672Y-71264989D01*
X249241014Y-71294450D01*
X249220554Y-71322038D01*
X249197487Y-71347487D01*
X249172038Y-71370554D01*
X249144450Y-71391014D01*
X249114989Y-71408672D01*
X249083939Y-71423358D01*
X249051600Y-71434929D01*
X249018282Y-71443275D01*
X248984306Y-71448315D01*
X248950000Y-71450000D01*
X247550000Y-71450000D01*
X247515694Y-71448315D01*
X247481718Y-71443275D01*
X247448400Y-71434929D01*
X247416061Y-71423358D01*
X247385011Y-71408672D01*
X247355550Y-71391014D01*
X247327962Y-71370554D01*
X247302513Y-71347487D01*
X247279446Y-71322038D01*
X247258986Y-71294450D01*
X247241328Y-71264989D01*
X247226642Y-71233939D01*
X247215071Y-71201600D01*
X247206725Y-71168282D01*
X247201685Y-71134306D01*
X247200000Y-71100000D01*
X247200000Y-70400000D01*
X247201685Y-70365694D01*
X247206725Y-70331718D01*
X247215071Y-70298400D01*
X247226642Y-70266061D01*
X247241328Y-70235011D01*
X247258986Y-70205550D01*
X247279446Y-70177962D01*
X247302513Y-70152513D01*
X247327962Y-70129446D01*
X247355550Y-70108986D01*
X247385011Y-70091328D01*
X247416061Y-70076642D01*
X247448400Y-70065071D01*
X247481718Y-70056725D01*
X247515694Y-70051685D01*
X247550000Y-70050000D01*
X248950000Y-70050000D01*
X248984306Y-70051685D01*
G37*
G36*
X258084306Y-65551685D02*
G01*
X258118282Y-65556725D01*
X258151600Y-65565071D01*
X258183939Y-65576642D01*
X258214989Y-65591328D01*
X258244450Y-65608986D01*
X258272038Y-65629446D01*
X258297487Y-65652513D01*
X258320554Y-65677962D01*
X258341014Y-65705550D01*
X258358672Y-65735011D01*
X258373358Y-65766061D01*
X258384929Y-65798400D01*
X258393275Y-65831718D01*
X258398315Y-65865694D01*
X258400000Y-65900000D01*
X258400000Y-66600000D01*
X258398315Y-66634306D01*
X258393275Y-66668282D01*
X258384929Y-66701600D01*
X258373358Y-66733939D01*
X258358672Y-66764989D01*
X258341014Y-66794450D01*
X258320554Y-66822038D01*
X258297487Y-66847487D01*
X258272038Y-66870554D01*
X258244450Y-66891014D01*
X258214989Y-66908672D01*
X258183939Y-66923358D01*
X258151600Y-66934929D01*
X258118282Y-66943275D01*
X258084306Y-66948315D01*
X258050000Y-66950000D01*
X256650000Y-66950000D01*
X256615694Y-66948315D01*
X256581718Y-66943275D01*
X256548400Y-66934929D01*
X256516061Y-66923358D01*
X256485011Y-66908672D01*
X256455550Y-66891014D01*
X256427962Y-66870554D01*
X256402513Y-66847487D01*
X256379446Y-66822038D01*
X256358986Y-66794450D01*
X256341328Y-66764989D01*
X256326642Y-66733939D01*
X256315071Y-66701600D01*
X256306725Y-66668282D01*
X256301685Y-66634306D01*
X256300000Y-66600000D01*
X256300000Y-65900000D01*
X256301685Y-65865694D01*
X256306725Y-65831718D01*
X256315071Y-65798400D01*
X256326642Y-65766061D01*
X256341328Y-65735011D01*
X256358986Y-65705550D01*
X256379446Y-65677962D01*
X256402513Y-65652513D01*
X256427962Y-65629446D01*
X256455550Y-65608986D01*
X256485011Y-65591328D01*
X256516061Y-65576642D01*
X256548400Y-65565071D01*
X256581718Y-65556725D01*
X256615694Y-65551685D01*
X256650000Y-65550000D01*
X258050000Y-65550000D01*
X258084306Y-65551685D01*
G37*
G36*
X248984306Y-65551685D02*
G01*
X249018282Y-65556725D01*
X249051600Y-65565071D01*
X249083939Y-65576642D01*
X249114989Y-65591328D01*
X249144450Y-65608986D01*
X249172038Y-65629446D01*
X249197487Y-65652513D01*
X249220554Y-65677962D01*
X249241014Y-65705550D01*
X249258672Y-65735011D01*
X249273358Y-65766061D01*
X249284929Y-65798400D01*
X249293275Y-65831718D01*
X249298315Y-65865694D01*
X249300000Y-65900000D01*
X249300000Y-66600000D01*
X249298315Y-66634306D01*
X249293275Y-66668282D01*
X249284929Y-66701600D01*
X249273358Y-66733939D01*
X249258672Y-66764989D01*
X249241014Y-66794450D01*
X249220554Y-66822038D01*
X249197487Y-66847487D01*
X249172038Y-66870554D01*
X249144450Y-66891014D01*
X249114989Y-66908672D01*
X249083939Y-66923358D01*
X249051600Y-66934929D01*
X249018282Y-66943275D01*
X248984306Y-66948315D01*
X248950000Y-66950000D01*
X247550000Y-66950000D01*
X247515694Y-66948315D01*
X247481718Y-66943275D01*
X247448400Y-66934929D01*
X247416061Y-66923358D01*
X247385011Y-66908672D01*
X247355550Y-66891014D01*
X247327962Y-66870554D01*
X247302513Y-66847487D01*
X247279446Y-66822038D01*
X247258986Y-66794450D01*
X247241328Y-66764989D01*
X247226642Y-66733939D01*
X247215071Y-66701600D01*
X247206725Y-66668282D01*
X247201685Y-66634306D01*
X247200000Y-66600000D01*
X247200000Y-65900000D01*
X247201685Y-65865694D01*
X247206725Y-65831718D01*
X247215071Y-65798400D01*
X247226642Y-65766061D01*
X247241328Y-65735011D01*
X247258986Y-65705550D01*
X247279446Y-65677962D01*
X247302513Y-65652513D01*
X247327962Y-65629446D01*
X247355550Y-65608986D01*
X247385011Y-65591328D01*
X247416061Y-65576642D01*
X247448400Y-65565071D01*
X247481718Y-65556725D01*
X247515694Y-65551685D01*
X247550000Y-65550000D01*
X248950000Y-65550000D01*
X248984306Y-65551685D01*
G37*
G36*
X230484306Y-65551685D02*
G01*
X230518282Y-65556725D01*
X230551600Y-65565071D01*
X230583939Y-65576642D01*
X230614989Y-65591328D01*
X230644450Y-65608986D01*
X230672038Y-65629446D01*
X230697487Y-65652513D01*
X230720554Y-65677962D01*
X230741014Y-65705550D01*
X230758672Y-65735011D01*
X230773358Y-65766061D01*
X230784929Y-65798400D01*
X230793275Y-65831718D01*
X230798315Y-65865694D01*
X230800000Y-65900000D01*
X230800000Y-66600000D01*
X230798315Y-66634306D01*
X230793275Y-66668282D01*
X230784929Y-66701600D01*
X230773358Y-66733939D01*
X230758672Y-66764989D01*
X230741014Y-66794450D01*
X230720554Y-66822038D01*
X230697487Y-66847487D01*
X230672038Y-66870554D01*
X230644450Y-66891014D01*
X230614989Y-66908672D01*
X230583939Y-66923358D01*
X230551600Y-66934929D01*
X230518282Y-66943275D01*
X230484306Y-66948315D01*
X230450000Y-66950000D01*
X229050000Y-66950000D01*
X229015694Y-66948315D01*
X228981718Y-66943275D01*
X228948400Y-66934929D01*
X228916061Y-66923358D01*
X228885011Y-66908672D01*
X228855550Y-66891014D01*
X228827962Y-66870554D01*
X228802513Y-66847487D01*
X228779446Y-66822038D01*
X228758986Y-66794450D01*
X228741328Y-66764989D01*
X228726642Y-66733939D01*
X228715071Y-66701600D01*
X228706725Y-66668282D01*
X228701685Y-66634306D01*
X228700000Y-66600000D01*
X228700000Y-65900000D01*
X228701685Y-65865694D01*
X228706725Y-65831718D01*
X228715071Y-65798400D01*
X228726642Y-65766061D01*
X228741328Y-65735011D01*
X228758986Y-65705550D01*
X228779446Y-65677962D01*
X228802513Y-65652513D01*
X228827962Y-65629446D01*
X228855550Y-65608986D01*
X228885011Y-65591328D01*
X228916061Y-65576642D01*
X228948400Y-65565071D01*
X228981718Y-65556725D01*
X229015694Y-65551685D01*
X229050000Y-65550000D01*
X230450000Y-65550000D01*
X230484306Y-65551685D01*
G37*
G36*
X239584306Y-65551685D02*
G01*
X239618282Y-65556725D01*
X239651600Y-65565071D01*
X239683939Y-65576642D01*
X239714989Y-65591328D01*
X239744450Y-65608986D01*
X239772038Y-65629446D01*
X239797487Y-65652513D01*
X239820554Y-65677962D01*
X239841014Y-65705550D01*
X239858672Y-65735011D01*
X239873358Y-65766061D01*
X239884929Y-65798400D01*
X239893275Y-65831718D01*
X239898315Y-65865694D01*
X239900000Y-65900000D01*
X239900000Y-66600000D01*
X239898315Y-66634306D01*
X239893275Y-66668282D01*
X239884929Y-66701600D01*
X239873358Y-66733939D01*
X239858672Y-66764989D01*
X239841014Y-66794450D01*
X239820554Y-66822038D01*
X239797487Y-66847487D01*
X239772038Y-66870554D01*
X239744450Y-66891014D01*
X239714989Y-66908672D01*
X239683939Y-66923358D01*
X239651600Y-66934929D01*
X239618282Y-66943275D01*
X239584306Y-66948315D01*
X239550000Y-66950000D01*
X238150000Y-66950000D01*
X238115694Y-66948315D01*
X238081718Y-66943275D01*
X238048400Y-66934929D01*
X238016061Y-66923358D01*
X237985011Y-66908672D01*
X237955550Y-66891014D01*
X237927962Y-66870554D01*
X237902513Y-66847487D01*
X237879446Y-66822038D01*
X237858986Y-66794450D01*
X237841328Y-66764989D01*
X237826642Y-66733939D01*
X237815071Y-66701600D01*
X237806725Y-66668282D01*
X237801685Y-66634306D01*
X237800000Y-66600000D01*
X237800000Y-65900000D01*
X237801685Y-65865694D01*
X237806725Y-65831718D01*
X237815071Y-65798400D01*
X237826642Y-65766061D01*
X237841328Y-65735011D01*
X237858986Y-65705550D01*
X237879446Y-65677962D01*
X237902513Y-65652513D01*
X237927962Y-65629446D01*
X237955550Y-65608986D01*
X237985011Y-65591328D01*
X238016061Y-65576642D01*
X238048400Y-65565071D01*
X238081718Y-65556725D01*
X238115694Y-65551685D01*
X238150000Y-65550000D01*
X239550000Y-65550000D01*
X239584306Y-65551685D01*
G37*
G36*
X230484306Y-70051685D02*
G01*
X230518282Y-70056725D01*
X230551600Y-70065071D01*
X230583939Y-70076642D01*
X230614989Y-70091328D01*
X230644450Y-70108986D01*
X230672038Y-70129446D01*
X230697487Y-70152513D01*
X230720554Y-70177962D01*
X230741014Y-70205550D01*
X230758672Y-70235011D01*
X230773358Y-70266061D01*
X230784929Y-70298400D01*
X230793275Y-70331718D01*
X230798315Y-70365694D01*
X230800000Y-70400000D01*
X230800000Y-71100000D01*
X230798315Y-71134306D01*
X230793275Y-71168282D01*
X230784929Y-71201600D01*
X230773358Y-71233939D01*
X230758672Y-71264989D01*
X230741014Y-71294450D01*
X230720554Y-71322038D01*
X230697487Y-71347487D01*
X230672038Y-71370554D01*
X230644450Y-71391014D01*
X230614989Y-71408672D01*
X230583939Y-71423358D01*
X230551600Y-71434929D01*
X230518282Y-71443275D01*
X230484306Y-71448315D01*
X230450000Y-71450000D01*
X229050000Y-71450000D01*
X229015694Y-71448315D01*
X228981718Y-71443275D01*
X228948400Y-71434929D01*
X228916061Y-71423358D01*
X228885011Y-71408672D01*
X228855550Y-71391014D01*
X228827962Y-71370554D01*
X228802513Y-71347487D01*
X228779446Y-71322038D01*
X228758986Y-71294450D01*
X228741328Y-71264989D01*
X228726642Y-71233939D01*
X228715071Y-71201600D01*
X228706725Y-71168282D01*
X228701685Y-71134306D01*
X228700000Y-71100000D01*
X228700000Y-70400000D01*
X228701685Y-70365694D01*
X228706725Y-70331718D01*
X228715071Y-70298400D01*
X228726642Y-70266061D01*
X228741328Y-70235011D01*
X228758986Y-70205550D01*
X228779446Y-70177962D01*
X228802513Y-70152513D01*
X228827962Y-70129446D01*
X228855550Y-70108986D01*
X228885011Y-70091328D01*
X228916061Y-70076642D01*
X228948400Y-70065071D01*
X228981718Y-70056725D01*
X229015694Y-70051685D01*
X229050000Y-70050000D01*
X230450000Y-70050000D01*
X230484306Y-70051685D01*
G37*
G36*
X239584306Y-70051685D02*
G01*
X239618282Y-70056725D01*
X239651600Y-70065071D01*
X239683939Y-70076642D01*
X239714989Y-70091328D01*
X239744450Y-70108986D01*
X239772038Y-70129446D01*
X239797487Y-70152513D01*
X239820554Y-70177962D01*
X239841014Y-70205550D01*
X239858672Y-70235011D01*
X239873358Y-70266061D01*
X239884929Y-70298400D01*
X239893275Y-70331718D01*
X239898315Y-70365694D01*
X239900000Y-70400000D01*
X239900000Y-71100000D01*
X239898315Y-71134306D01*
X239893275Y-71168282D01*
X239884929Y-71201600D01*
X239873358Y-71233939D01*
X239858672Y-71264989D01*
X239841014Y-71294450D01*
X239820554Y-71322038D01*
X239797487Y-71347487D01*
X239772038Y-71370554D01*
X239744450Y-71391014D01*
X239714989Y-71408672D01*
X239683939Y-71423358D01*
X239651600Y-71434929D01*
X239618282Y-71443275D01*
X239584306Y-71448315D01*
X239550000Y-71450000D01*
X238150000Y-71450000D01*
X238115694Y-71448315D01*
X238081718Y-71443275D01*
X238048400Y-71434929D01*
X238016061Y-71423358D01*
X237985011Y-71408672D01*
X237955550Y-71391014D01*
X237927962Y-71370554D01*
X237902513Y-71347487D01*
X237879446Y-71322038D01*
X237858986Y-71294450D01*
X237841328Y-71264989D01*
X237826642Y-71233939D01*
X237815071Y-71201600D01*
X237806725Y-71168282D01*
X237801685Y-71134306D01*
X237800000Y-71100000D01*
X237800000Y-70400000D01*
X237801685Y-70365694D01*
X237806725Y-70331718D01*
X237815071Y-70298400D01*
X237826642Y-70266061D01*
X237841328Y-70235011D01*
X237858986Y-70205550D01*
X237879446Y-70177962D01*
X237902513Y-70152513D01*
X237927962Y-70129446D01*
X237955550Y-70108986D01*
X237985011Y-70091328D01*
X238016061Y-70076642D01*
X238048400Y-70065071D01*
X238081718Y-70056725D01*
X238115694Y-70051685D01*
X238150000Y-70050000D01*
X239550000Y-70050000D01*
X239584306Y-70051685D01*
G37*
G36*
X258084306Y-55351685D02*
G01*
X258118282Y-55356725D01*
X258151600Y-55365071D01*
X258183939Y-55376642D01*
X258214989Y-55391328D01*
X258244450Y-55408986D01*
X258272038Y-55429446D01*
X258297487Y-55452513D01*
X258320554Y-55477962D01*
X258341014Y-55505550D01*
X258358672Y-55535011D01*
X258373358Y-55566061D01*
X258384929Y-55598400D01*
X258393275Y-55631718D01*
X258398315Y-55665694D01*
X258400000Y-55700000D01*
X258400000Y-56400000D01*
X258398315Y-56434306D01*
X258393275Y-56468282D01*
X258384929Y-56501600D01*
X258373358Y-56533939D01*
X258358672Y-56564989D01*
X258341014Y-56594450D01*
X258320554Y-56622038D01*
X258297487Y-56647487D01*
X258272038Y-56670554D01*
X258244450Y-56691014D01*
X258214989Y-56708672D01*
X258183939Y-56723358D01*
X258151600Y-56734929D01*
X258118282Y-56743275D01*
X258084306Y-56748315D01*
X258050000Y-56750000D01*
X256650000Y-56750000D01*
X256615694Y-56748315D01*
X256581718Y-56743275D01*
X256548400Y-56734929D01*
X256516061Y-56723358D01*
X256485011Y-56708672D01*
X256455550Y-56691014D01*
X256427962Y-56670554D01*
X256402513Y-56647487D01*
X256379446Y-56622038D01*
X256358986Y-56594450D01*
X256341328Y-56564989D01*
X256326642Y-56533939D01*
X256315071Y-56501600D01*
X256306725Y-56468282D01*
X256301685Y-56434306D01*
X256300000Y-56400000D01*
X256300000Y-55700000D01*
X256301685Y-55665694D01*
X256306725Y-55631718D01*
X256315071Y-55598400D01*
X256326642Y-55566061D01*
X256341328Y-55535011D01*
X256358986Y-55505550D01*
X256379446Y-55477962D01*
X256402513Y-55452513D01*
X256427962Y-55429446D01*
X256455550Y-55408986D01*
X256485011Y-55391328D01*
X256516061Y-55376642D01*
X256548400Y-55365071D01*
X256581718Y-55356725D01*
X256615694Y-55351685D01*
X256650000Y-55350000D01*
X258050000Y-55350000D01*
X258084306Y-55351685D01*
G37*
G36*
X248984306Y-55351685D02*
G01*
X249018282Y-55356725D01*
X249051600Y-55365071D01*
X249083939Y-55376642D01*
X249114989Y-55391328D01*
X249144450Y-55408986D01*
X249172038Y-55429446D01*
X249197487Y-55452513D01*
X249220554Y-55477962D01*
X249241014Y-55505550D01*
X249258672Y-55535011D01*
X249273358Y-55566061D01*
X249284929Y-55598400D01*
X249293275Y-55631718D01*
X249298315Y-55665694D01*
X249300000Y-55700000D01*
X249300000Y-56400000D01*
X249298315Y-56434306D01*
X249293275Y-56468282D01*
X249284929Y-56501600D01*
X249273358Y-56533939D01*
X249258672Y-56564989D01*
X249241014Y-56594450D01*
X249220554Y-56622038D01*
X249197487Y-56647487D01*
X249172038Y-56670554D01*
X249144450Y-56691014D01*
X249114989Y-56708672D01*
X249083939Y-56723358D01*
X249051600Y-56734929D01*
X249018282Y-56743275D01*
X248984306Y-56748315D01*
X248950000Y-56750000D01*
X247550000Y-56750000D01*
X247515694Y-56748315D01*
X247481718Y-56743275D01*
X247448400Y-56734929D01*
X247416061Y-56723358D01*
X247385011Y-56708672D01*
X247355550Y-56691014D01*
X247327962Y-56670554D01*
X247302513Y-56647487D01*
X247279446Y-56622038D01*
X247258986Y-56594450D01*
X247241328Y-56564989D01*
X247226642Y-56533939D01*
X247215071Y-56501600D01*
X247206725Y-56468282D01*
X247201685Y-56434306D01*
X247200000Y-56400000D01*
X247200000Y-55700000D01*
X247201685Y-55665694D01*
X247206725Y-55631718D01*
X247215071Y-55598400D01*
X247226642Y-55566061D01*
X247241328Y-55535011D01*
X247258986Y-55505550D01*
X247279446Y-55477962D01*
X247302513Y-55452513D01*
X247327962Y-55429446D01*
X247355550Y-55408986D01*
X247385011Y-55391328D01*
X247416061Y-55376642D01*
X247448400Y-55365071D01*
X247481718Y-55356725D01*
X247515694Y-55351685D01*
X247550000Y-55350000D01*
X248950000Y-55350000D01*
X248984306Y-55351685D01*
G37*
G36*
X258084306Y-50851685D02*
G01*
X258118282Y-50856725D01*
X258151600Y-50865071D01*
X258183939Y-50876642D01*
X258214989Y-50891328D01*
X258244450Y-50908986D01*
X258272038Y-50929446D01*
X258297487Y-50952513D01*
X258320554Y-50977962D01*
X258341014Y-51005550D01*
X258358672Y-51035011D01*
X258373358Y-51066061D01*
X258384929Y-51098400D01*
X258393275Y-51131718D01*
X258398315Y-51165694D01*
X258400000Y-51200000D01*
X258400000Y-51900000D01*
X258398315Y-51934306D01*
X258393275Y-51968282D01*
X258384929Y-52001600D01*
X258373358Y-52033939D01*
X258358672Y-52064989D01*
X258341014Y-52094450D01*
X258320554Y-52122038D01*
X258297487Y-52147487D01*
X258272038Y-52170554D01*
X258244450Y-52191014D01*
X258214989Y-52208672D01*
X258183939Y-52223358D01*
X258151600Y-52234929D01*
X258118282Y-52243275D01*
X258084306Y-52248315D01*
X258050000Y-52250000D01*
X256650000Y-52250000D01*
X256615694Y-52248315D01*
X256581718Y-52243275D01*
X256548400Y-52234929D01*
X256516061Y-52223358D01*
X256485011Y-52208672D01*
X256455550Y-52191014D01*
X256427962Y-52170554D01*
X256402513Y-52147487D01*
X256379446Y-52122038D01*
X256358986Y-52094450D01*
X256341328Y-52064989D01*
X256326642Y-52033939D01*
X256315071Y-52001600D01*
X256306725Y-51968282D01*
X256301685Y-51934306D01*
X256300000Y-51900000D01*
X256300000Y-51200000D01*
X256301685Y-51165694D01*
X256306725Y-51131718D01*
X256315071Y-51098400D01*
X256326642Y-51066061D01*
X256341328Y-51035011D01*
X256358986Y-51005550D01*
X256379446Y-50977962D01*
X256402513Y-50952513D01*
X256427962Y-50929446D01*
X256455550Y-50908986D01*
X256485011Y-50891328D01*
X256516061Y-50876642D01*
X256548400Y-50865071D01*
X256581718Y-50856725D01*
X256615694Y-50851685D01*
X256650000Y-50850000D01*
X258050000Y-50850000D01*
X258084306Y-50851685D01*
G37*
G36*
X248984306Y-50851685D02*
G01*
X249018282Y-50856725D01*
X249051600Y-50865071D01*
X249083939Y-50876642D01*
X249114989Y-50891328D01*
X249144450Y-50908986D01*
X249172038Y-50929446D01*
X249197487Y-50952513D01*
X249220554Y-50977962D01*
X249241014Y-51005550D01*
X249258672Y-51035011D01*
X249273358Y-51066061D01*
X249284929Y-51098400D01*
X249293275Y-51131718D01*
X249298315Y-51165694D01*
X249300000Y-51200000D01*
X249300000Y-51900000D01*
X249298315Y-51934306D01*
X249293275Y-51968282D01*
X249284929Y-52001600D01*
X249273358Y-52033939D01*
X249258672Y-52064989D01*
X249241014Y-52094450D01*
X249220554Y-52122038D01*
X249197487Y-52147487D01*
X249172038Y-52170554D01*
X249144450Y-52191014D01*
X249114989Y-52208672D01*
X249083939Y-52223358D01*
X249051600Y-52234929D01*
X249018282Y-52243275D01*
X248984306Y-52248315D01*
X248950000Y-52250000D01*
X247550000Y-52250000D01*
X247515694Y-52248315D01*
X247481718Y-52243275D01*
X247448400Y-52234929D01*
X247416061Y-52223358D01*
X247385011Y-52208672D01*
X247355550Y-52191014D01*
X247327962Y-52170554D01*
X247302513Y-52147487D01*
X247279446Y-52122038D01*
X247258986Y-52094450D01*
X247241328Y-52064989D01*
X247226642Y-52033939D01*
X247215071Y-52001600D01*
X247206725Y-51968282D01*
X247201685Y-51934306D01*
X247200000Y-51900000D01*
X247200000Y-51200000D01*
X247201685Y-51165694D01*
X247206725Y-51131718D01*
X247215071Y-51098400D01*
X247226642Y-51066061D01*
X247241328Y-51035011D01*
X247258986Y-51005550D01*
X247279446Y-50977962D01*
X247302513Y-50952513D01*
X247327962Y-50929446D01*
X247355550Y-50908986D01*
X247385011Y-50891328D01*
X247416061Y-50876642D01*
X247448400Y-50865071D01*
X247481718Y-50856725D01*
X247515694Y-50851685D01*
X247550000Y-50850000D01*
X248950000Y-50850000D01*
X248984306Y-50851685D01*
G37*
G36*
X174934306Y-141001685D02*
G01*
X174968282Y-141006725D01*
X175001600Y-141015071D01*
X175033939Y-141026642D01*
X175064989Y-141041328D01*
X175094450Y-141058986D01*
X175122038Y-141079446D01*
X175147487Y-141102513D01*
X175170554Y-141127962D01*
X175191014Y-141155550D01*
X175208672Y-141185011D01*
X175223358Y-141216061D01*
X175234929Y-141248400D01*
X175243275Y-141281718D01*
X175248315Y-141315694D01*
X175250000Y-141350000D01*
X175250000Y-142750000D01*
X175248315Y-142784306D01*
X175243275Y-142818282D01*
X175234929Y-142851600D01*
X175223358Y-142883939D01*
X175208672Y-142914989D01*
X175191014Y-142944450D01*
X175170554Y-142972038D01*
X175147487Y-142997487D01*
X175122038Y-143020554D01*
X175094450Y-143041014D01*
X175064989Y-143058672D01*
X175033939Y-143073358D01*
X175001600Y-143084929D01*
X174968282Y-143093275D01*
X174934306Y-143098315D01*
X174900000Y-143100000D01*
X174200000Y-143100000D01*
X174165694Y-143098315D01*
X174131718Y-143093275D01*
X174098400Y-143084929D01*
X174066061Y-143073358D01*
X174035011Y-143058672D01*
X174005550Y-143041014D01*
X173977962Y-143020554D01*
X173952513Y-142997487D01*
X173929446Y-142972038D01*
X173908986Y-142944450D01*
X173891328Y-142914989D01*
X173876642Y-142883939D01*
X173865071Y-142851600D01*
X173856725Y-142818282D01*
X173851685Y-142784306D01*
X173850000Y-142750000D01*
X173850000Y-141350000D01*
X173851685Y-141315694D01*
X173856725Y-141281718D01*
X173865071Y-141248400D01*
X173876642Y-141216061D01*
X173891328Y-141185011D01*
X173908986Y-141155550D01*
X173929446Y-141127962D01*
X173952513Y-141102513D01*
X173977962Y-141079446D01*
X174005550Y-141058986D01*
X174035011Y-141041328D01*
X174066061Y-141026642D01*
X174098400Y-141015071D01*
X174131718Y-141006725D01*
X174165694Y-141001685D01*
X174200000Y-141000000D01*
X174900000Y-141000000D01*
X174934306Y-141001685D01*
G37*
G36*
X174934306Y-150101685D02*
G01*
X174968282Y-150106725D01*
X175001600Y-150115071D01*
X175033939Y-150126642D01*
X175064989Y-150141328D01*
X175094450Y-150158986D01*
X175122038Y-150179446D01*
X175147487Y-150202513D01*
X175170554Y-150227962D01*
X175191014Y-150255550D01*
X175208672Y-150285011D01*
X175223358Y-150316061D01*
X175234929Y-150348400D01*
X175243275Y-150381718D01*
X175248315Y-150415694D01*
X175250000Y-150450000D01*
X175250000Y-151850000D01*
X175248315Y-151884306D01*
X175243275Y-151918282D01*
X175234929Y-151951600D01*
X175223358Y-151983939D01*
X175208672Y-152014989D01*
X175191014Y-152044450D01*
X175170554Y-152072038D01*
X175147487Y-152097487D01*
X175122038Y-152120554D01*
X175094450Y-152141014D01*
X175064989Y-152158672D01*
X175033939Y-152173358D01*
X175001600Y-152184929D01*
X174968282Y-152193275D01*
X174934306Y-152198315D01*
X174900000Y-152200000D01*
X174200000Y-152200000D01*
X174165694Y-152198315D01*
X174131718Y-152193275D01*
X174098400Y-152184929D01*
X174066061Y-152173358D01*
X174035011Y-152158672D01*
X174005550Y-152141014D01*
X173977962Y-152120554D01*
X173952513Y-152097487D01*
X173929446Y-152072038D01*
X173908986Y-152044450D01*
X173891328Y-152014989D01*
X173876642Y-151983939D01*
X173865071Y-151951600D01*
X173856725Y-151918282D01*
X173851685Y-151884306D01*
X173850000Y-151850000D01*
X173850000Y-150450000D01*
X173851685Y-150415694D01*
X173856725Y-150381718D01*
X173865071Y-150348400D01*
X173876642Y-150316061D01*
X173891328Y-150285011D01*
X173908986Y-150255550D01*
X173929446Y-150227962D01*
X173952513Y-150202513D01*
X173977962Y-150179446D01*
X174005550Y-150158986D01*
X174035011Y-150141328D01*
X174066061Y-150126642D01*
X174098400Y-150115071D01*
X174131718Y-150106725D01*
X174165694Y-150101685D01*
X174200000Y-150100000D01*
X174900000Y-150100000D01*
X174934306Y-150101685D01*
G37*
G36*
X170434306Y-141001685D02*
G01*
X170468282Y-141006725D01*
X170501600Y-141015071D01*
X170533939Y-141026642D01*
X170564989Y-141041328D01*
X170594450Y-141058986D01*
X170622038Y-141079446D01*
X170647487Y-141102513D01*
X170670554Y-141127962D01*
X170691014Y-141155550D01*
X170708672Y-141185011D01*
X170723358Y-141216061D01*
X170734929Y-141248400D01*
X170743275Y-141281718D01*
X170748315Y-141315694D01*
X170750000Y-141350000D01*
X170750000Y-142750000D01*
X170748315Y-142784306D01*
X170743275Y-142818282D01*
X170734929Y-142851600D01*
X170723358Y-142883939D01*
X170708672Y-142914989D01*
X170691014Y-142944450D01*
X170670554Y-142972038D01*
X170647487Y-142997487D01*
X170622038Y-143020554D01*
X170594450Y-143041014D01*
X170564989Y-143058672D01*
X170533939Y-143073358D01*
X170501600Y-143084929D01*
X170468282Y-143093275D01*
X170434306Y-143098315D01*
X170400000Y-143100000D01*
X169700000Y-143100000D01*
X169665694Y-143098315D01*
X169631718Y-143093275D01*
X169598400Y-143084929D01*
X169566061Y-143073358D01*
X169535011Y-143058672D01*
X169505550Y-143041014D01*
X169477962Y-143020554D01*
X169452513Y-142997487D01*
X169429446Y-142972038D01*
X169408986Y-142944450D01*
X169391328Y-142914989D01*
X169376642Y-142883939D01*
X169365071Y-142851600D01*
X169356725Y-142818282D01*
X169351685Y-142784306D01*
X169350000Y-142750000D01*
X169350000Y-141350000D01*
X169351685Y-141315694D01*
X169356725Y-141281718D01*
X169365071Y-141248400D01*
X169376642Y-141216061D01*
X169391328Y-141185011D01*
X169408986Y-141155550D01*
X169429446Y-141127962D01*
X169452513Y-141102513D01*
X169477962Y-141079446D01*
X169505550Y-141058986D01*
X169535011Y-141041328D01*
X169566061Y-141026642D01*
X169598400Y-141015071D01*
X169631718Y-141006725D01*
X169665694Y-141001685D01*
X169700000Y-141000000D01*
X170400000Y-141000000D01*
X170434306Y-141001685D01*
G37*
G36*
X170434306Y-150101685D02*
G01*
X170468282Y-150106725D01*
X170501600Y-150115071D01*
X170533939Y-150126642D01*
X170564989Y-150141328D01*
X170594450Y-150158986D01*
X170622038Y-150179446D01*
X170647487Y-150202513D01*
X170670554Y-150227962D01*
X170691014Y-150255550D01*
X170708672Y-150285011D01*
X170723358Y-150316061D01*
X170734929Y-150348400D01*
X170743275Y-150381718D01*
X170748315Y-150415694D01*
X170750000Y-150450000D01*
X170750000Y-151850000D01*
X170748315Y-151884306D01*
X170743275Y-151918282D01*
X170734929Y-151951600D01*
X170723358Y-151983939D01*
X170708672Y-152014989D01*
X170691014Y-152044450D01*
X170670554Y-152072038D01*
X170647487Y-152097487D01*
X170622038Y-152120554D01*
X170594450Y-152141014D01*
X170564989Y-152158672D01*
X170533939Y-152173358D01*
X170501600Y-152184929D01*
X170468282Y-152193275D01*
X170434306Y-152198315D01*
X170400000Y-152200000D01*
X169700000Y-152200000D01*
X169665694Y-152198315D01*
X169631718Y-152193275D01*
X169598400Y-152184929D01*
X169566061Y-152173358D01*
X169535011Y-152158672D01*
X169505550Y-152141014D01*
X169477962Y-152120554D01*
X169452513Y-152097487D01*
X169429446Y-152072038D01*
X169408986Y-152044450D01*
X169391328Y-152014989D01*
X169376642Y-151983939D01*
X169365071Y-151951600D01*
X169356725Y-151918282D01*
X169351685Y-151884306D01*
X169350000Y-151850000D01*
X169350000Y-150450000D01*
X169351685Y-150415694D01*
X169356725Y-150381718D01*
X169365071Y-150348400D01*
X169376642Y-150316061D01*
X169391328Y-150285011D01*
X169408986Y-150255550D01*
X169429446Y-150227962D01*
X169452513Y-150202513D01*
X169477962Y-150179446D01*
X169505550Y-150158986D01*
X169535011Y-150141328D01*
X169566061Y-150126642D01*
X169598400Y-150115071D01*
X169631718Y-150106725D01*
X169665694Y-150101685D01*
X169700000Y-150100000D01*
X170400000Y-150100000D01*
X170434306Y-150101685D01*
G37*
G36*
X184134306Y-150101685D02*
G01*
X184168282Y-150106725D01*
X184201600Y-150115071D01*
X184233939Y-150126642D01*
X184264989Y-150141328D01*
X184294450Y-150158986D01*
X184322038Y-150179446D01*
X184347487Y-150202513D01*
X184370554Y-150227962D01*
X184391014Y-150255550D01*
X184408672Y-150285011D01*
X184423358Y-150316061D01*
X184434929Y-150348400D01*
X184443275Y-150381718D01*
X184448315Y-150415694D01*
X184450000Y-150450000D01*
X184450000Y-151850000D01*
X184448315Y-151884306D01*
X184443275Y-151918282D01*
X184434929Y-151951600D01*
X184423358Y-151983939D01*
X184408672Y-152014989D01*
X184391014Y-152044450D01*
X184370554Y-152072038D01*
X184347487Y-152097487D01*
X184322038Y-152120554D01*
X184294450Y-152141014D01*
X184264989Y-152158672D01*
X184233939Y-152173358D01*
X184201600Y-152184929D01*
X184168282Y-152193275D01*
X184134306Y-152198315D01*
X184100000Y-152200000D01*
X183400000Y-152200000D01*
X183365694Y-152198315D01*
X183331718Y-152193275D01*
X183298400Y-152184929D01*
X183266061Y-152173358D01*
X183235011Y-152158672D01*
X183205550Y-152141014D01*
X183177962Y-152120554D01*
X183152513Y-152097487D01*
X183129446Y-152072038D01*
X183108986Y-152044450D01*
X183091328Y-152014989D01*
X183076642Y-151983939D01*
X183065071Y-151951600D01*
X183056725Y-151918282D01*
X183051685Y-151884306D01*
X183050000Y-151850000D01*
X183050000Y-150450000D01*
X183051685Y-150415694D01*
X183056725Y-150381718D01*
X183065071Y-150348400D01*
X183076642Y-150316061D01*
X183091328Y-150285011D01*
X183108986Y-150255550D01*
X183129446Y-150227962D01*
X183152513Y-150202513D01*
X183177962Y-150179446D01*
X183205550Y-150158986D01*
X183235011Y-150141328D01*
X183266061Y-150126642D01*
X183298400Y-150115071D01*
X183331718Y-150106725D01*
X183365694Y-150101685D01*
X183400000Y-150100000D01*
X184100000Y-150100000D01*
X184134306Y-150101685D01*
G37*
G36*
X184134306Y-141001685D02*
G01*
X184168282Y-141006725D01*
X184201600Y-141015071D01*
X184233939Y-141026642D01*
X184264989Y-141041328D01*
X184294450Y-141058986D01*
X184322038Y-141079446D01*
X184347487Y-141102513D01*
X184370554Y-141127962D01*
X184391014Y-141155550D01*
X184408672Y-141185011D01*
X184423358Y-141216061D01*
X184434929Y-141248400D01*
X184443275Y-141281718D01*
X184448315Y-141315694D01*
X184450000Y-141350000D01*
X184450000Y-142750000D01*
X184448315Y-142784306D01*
X184443275Y-142818282D01*
X184434929Y-142851600D01*
X184423358Y-142883939D01*
X184408672Y-142914989D01*
X184391014Y-142944450D01*
X184370554Y-142972038D01*
X184347487Y-142997487D01*
X184322038Y-143020554D01*
X184294450Y-143041014D01*
X184264989Y-143058672D01*
X184233939Y-143073358D01*
X184201600Y-143084929D01*
X184168282Y-143093275D01*
X184134306Y-143098315D01*
X184100000Y-143100000D01*
X183400000Y-143100000D01*
X183365694Y-143098315D01*
X183331718Y-143093275D01*
X183298400Y-143084929D01*
X183266061Y-143073358D01*
X183235011Y-143058672D01*
X183205550Y-143041014D01*
X183177962Y-143020554D01*
X183152513Y-142997487D01*
X183129446Y-142972038D01*
X183108986Y-142944450D01*
X183091328Y-142914989D01*
X183076642Y-142883939D01*
X183065071Y-142851600D01*
X183056725Y-142818282D01*
X183051685Y-142784306D01*
X183050000Y-142750000D01*
X183050000Y-141350000D01*
X183051685Y-141315694D01*
X183056725Y-141281718D01*
X183065071Y-141248400D01*
X183076642Y-141216061D01*
X183091328Y-141185011D01*
X183108986Y-141155550D01*
X183129446Y-141127962D01*
X183152513Y-141102513D01*
X183177962Y-141079446D01*
X183205550Y-141058986D01*
X183235011Y-141041328D01*
X183266061Y-141026642D01*
X183298400Y-141015071D01*
X183331718Y-141006725D01*
X183365694Y-141001685D01*
X183400000Y-141000000D01*
X184100000Y-141000000D01*
X184134306Y-141001685D01*
G37*
G36*
X188634306Y-150101685D02*
G01*
X188668282Y-150106725D01*
X188701600Y-150115071D01*
X188733939Y-150126642D01*
X188764989Y-150141328D01*
X188794450Y-150158986D01*
X188822038Y-150179446D01*
X188847487Y-150202513D01*
X188870554Y-150227962D01*
X188891014Y-150255550D01*
X188908672Y-150285011D01*
X188923358Y-150316061D01*
X188934929Y-150348400D01*
X188943275Y-150381718D01*
X188948315Y-150415694D01*
X188950000Y-150450000D01*
X188950000Y-151850000D01*
X188948315Y-151884306D01*
X188943275Y-151918282D01*
X188934929Y-151951600D01*
X188923358Y-151983939D01*
X188908672Y-152014989D01*
X188891014Y-152044450D01*
X188870554Y-152072038D01*
X188847487Y-152097487D01*
X188822038Y-152120554D01*
X188794450Y-152141014D01*
X188764989Y-152158672D01*
X188733939Y-152173358D01*
X188701600Y-152184929D01*
X188668282Y-152193275D01*
X188634306Y-152198315D01*
X188600000Y-152200000D01*
X187900000Y-152200000D01*
X187865694Y-152198315D01*
X187831718Y-152193275D01*
X187798400Y-152184929D01*
X187766061Y-152173358D01*
X187735011Y-152158672D01*
X187705550Y-152141014D01*
X187677962Y-152120554D01*
X187652513Y-152097487D01*
X187629446Y-152072038D01*
X187608986Y-152044450D01*
X187591328Y-152014989D01*
X187576642Y-151983939D01*
X187565071Y-151951600D01*
X187556725Y-151918282D01*
X187551685Y-151884306D01*
X187550000Y-151850000D01*
X187550000Y-150450000D01*
X187551685Y-150415694D01*
X187556725Y-150381718D01*
X187565071Y-150348400D01*
X187576642Y-150316061D01*
X187591328Y-150285011D01*
X187608986Y-150255550D01*
X187629446Y-150227962D01*
X187652513Y-150202513D01*
X187677962Y-150179446D01*
X187705550Y-150158986D01*
X187735011Y-150141328D01*
X187766061Y-150126642D01*
X187798400Y-150115071D01*
X187831718Y-150106725D01*
X187865694Y-150101685D01*
X187900000Y-150100000D01*
X188600000Y-150100000D01*
X188634306Y-150101685D01*
G37*
G36*
X188634306Y-141001685D02*
G01*
X188668282Y-141006725D01*
X188701600Y-141015071D01*
X188733939Y-141026642D01*
X188764989Y-141041328D01*
X188794450Y-141058986D01*
X188822038Y-141079446D01*
X188847487Y-141102513D01*
X188870554Y-141127962D01*
X188891014Y-141155550D01*
X188908672Y-141185011D01*
X188923358Y-141216061D01*
X188934929Y-141248400D01*
X188943275Y-141281718D01*
X188948315Y-141315694D01*
X188950000Y-141350000D01*
X188950000Y-142750000D01*
X188948315Y-142784306D01*
X188943275Y-142818282D01*
X188934929Y-142851600D01*
X188923358Y-142883939D01*
X188908672Y-142914989D01*
X188891014Y-142944450D01*
X188870554Y-142972038D01*
X188847487Y-142997487D01*
X188822038Y-143020554D01*
X188794450Y-143041014D01*
X188764989Y-143058672D01*
X188733939Y-143073358D01*
X188701600Y-143084929D01*
X188668282Y-143093275D01*
X188634306Y-143098315D01*
X188600000Y-143100000D01*
X187900000Y-143100000D01*
X187865694Y-143098315D01*
X187831718Y-143093275D01*
X187798400Y-143084929D01*
X187766061Y-143073358D01*
X187735011Y-143058672D01*
X187705550Y-143041014D01*
X187677962Y-143020554D01*
X187652513Y-142997487D01*
X187629446Y-142972038D01*
X187608986Y-142944450D01*
X187591328Y-142914989D01*
X187576642Y-142883939D01*
X187565071Y-142851600D01*
X187556725Y-142818282D01*
X187551685Y-142784306D01*
X187550000Y-142750000D01*
X187550000Y-141350000D01*
X187551685Y-141315694D01*
X187556725Y-141281718D01*
X187565071Y-141248400D01*
X187576642Y-141216061D01*
X187591328Y-141185011D01*
X187608986Y-141155550D01*
X187629446Y-141127962D01*
X187652513Y-141102513D01*
X187677962Y-141079446D01*
X187705550Y-141058986D01*
X187735011Y-141041328D01*
X187766061Y-141026642D01*
X187798400Y-141015071D01*
X187831718Y-141006725D01*
X187865694Y-141001685D01*
X187900000Y-141000000D01*
X188600000Y-141000000D01*
X188634306Y-141001685D01*
G37*
G36*
X196634306Y-150101685D02*
G01*
X196668282Y-150106725D01*
X196701600Y-150115071D01*
X196733939Y-150126642D01*
X196764989Y-150141328D01*
X196794450Y-150158986D01*
X196822038Y-150179446D01*
X196847487Y-150202513D01*
X196870554Y-150227962D01*
X196891014Y-150255550D01*
X196908672Y-150285011D01*
X196923358Y-150316061D01*
X196934929Y-150348400D01*
X196943275Y-150381718D01*
X196948315Y-150415694D01*
X196950000Y-150450000D01*
X196950000Y-151850000D01*
X196948315Y-151884306D01*
X196943275Y-151918282D01*
X196934929Y-151951600D01*
X196923358Y-151983939D01*
X196908672Y-152014989D01*
X196891014Y-152044450D01*
X196870554Y-152072038D01*
X196847487Y-152097487D01*
X196822038Y-152120554D01*
X196794450Y-152141014D01*
X196764989Y-152158672D01*
X196733939Y-152173358D01*
X196701600Y-152184929D01*
X196668282Y-152193275D01*
X196634306Y-152198315D01*
X196600000Y-152200000D01*
X195900000Y-152200000D01*
X195865694Y-152198315D01*
X195831718Y-152193275D01*
X195798400Y-152184929D01*
X195766061Y-152173358D01*
X195735011Y-152158672D01*
X195705550Y-152141014D01*
X195677962Y-152120554D01*
X195652513Y-152097487D01*
X195629446Y-152072038D01*
X195608986Y-152044450D01*
X195591328Y-152014989D01*
X195576642Y-151983939D01*
X195565071Y-151951600D01*
X195556725Y-151918282D01*
X195551685Y-151884306D01*
X195550000Y-151850000D01*
X195550000Y-150450000D01*
X195551685Y-150415694D01*
X195556725Y-150381718D01*
X195565071Y-150348400D01*
X195576642Y-150316061D01*
X195591328Y-150285011D01*
X195608986Y-150255550D01*
X195629446Y-150227962D01*
X195652513Y-150202513D01*
X195677962Y-150179446D01*
X195705550Y-150158986D01*
X195735011Y-150141328D01*
X195766061Y-150126642D01*
X195798400Y-150115071D01*
X195831718Y-150106725D01*
X195865694Y-150101685D01*
X195900000Y-150100000D01*
X196600000Y-150100000D01*
X196634306Y-150101685D01*
G37*
G36*
X196634306Y-141001685D02*
G01*
X196668282Y-141006725D01*
X196701600Y-141015071D01*
X196733939Y-141026642D01*
X196764989Y-141041328D01*
X196794450Y-141058986D01*
X196822038Y-141079446D01*
X196847487Y-141102513D01*
X196870554Y-141127962D01*
X196891014Y-141155550D01*
X196908672Y-141185011D01*
X196923358Y-141216061D01*
X196934929Y-141248400D01*
X196943275Y-141281718D01*
X196948315Y-141315694D01*
X196950000Y-141350000D01*
X196950000Y-142750000D01*
X196948315Y-142784306D01*
X196943275Y-142818282D01*
X196934929Y-142851600D01*
X196923358Y-142883939D01*
X196908672Y-142914989D01*
X196891014Y-142944450D01*
X196870554Y-142972038D01*
X196847487Y-142997487D01*
X196822038Y-143020554D01*
X196794450Y-143041014D01*
X196764989Y-143058672D01*
X196733939Y-143073358D01*
X196701600Y-143084929D01*
X196668282Y-143093275D01*
X196634306Y-143098315D01*
X196600000Y-143100000D01*
X195900000Y-143100000D01*
X195865694Y-143098315D01*
X195831718Y-143093275D01*
X195798400Y-143084929D01*
X195766061Y-143073358D01*
X195735011Y-143058672D01*
X195705550Y-143041014D01*
X195677962Y-143020554D01*
X195652513Y-142997487D01*
X195629446Y-142972038D01*
X195608986Y-142944450D01*
X195591328Y-142914989D01*
X195576642Y-142883939D01*
X195565071Y-142851600D01*
X195556725Y-142818282D01*
X195551685Y-142784306D01*
X195550000Y-142750000D01*
X195550000Y-141350000D01*
X195551685Y-141315694D01*
X195556725Y-141281718D01*
X195565071Y-141248400D01*
X195576642Y-141216061D01*
X195591328Y-141185011D01*
X195608986Y-141155550D01*
X195629446Y-141127962D01*
X195652513Y-141102513D01*
X195677962Y-141079446D01*
X195705550Y-141058986D01*
X195735011Y-141041328D01*
X195766061Y-141026642D01*
X195798400Y-141015071D01*
X195831718Y-141006725D01*
X195865694Y-141001685D01*
X195900000Y-141000000D01*
X196600000Y-141000000D01*
X196634306Y-141001685D01*
G37*
G36*
X201134306Y-150101685D02*
G01*
X201168282Y-150106725D01*
X201201600Y-150115071D01*
X201233939Y-150126642D01*
X201264989Y-150141328D01*
X201294450Y-150158986D01*
X201322038Y-150179446D01*
X201347487Y-150202513D01*
X201370554Y-150227962D01*
X201391014Y-150255550D01*
X201408672Y-150285011D01*
X201423358Y-150316061D01*
X201434929Y-150348400D01*
X201443275Y-150381718D01*
X201448315Y-150415694D01*
X201450000Y-150450000D01*
X201450000Y-151850000D01*
X201448315Y-151884306D01*
X201443275Y-151918282D01*
X201434929Y-151951600D01*
X201423358Y-151983939D01*
X201408672Y-152014989D01*
X201391014Y-152044450D01*
X201370554Y-152072038D01*
X201347487Y-152097487D01*
X201322038Y-152120554D01*
X201294450Y-152141014D01*
X201264989Y-152158672D01*
X201233939Y-152173358D01*
X201201600Y-152184929D01*
X201168282Y-152193275D01*
X201134306Y-152198315D01*
X201100000Y-152200000D01*
X200400000Y-152200000D01*
X200365694Y-152198315D01*
X200331718Y-152193275D01*
X200298400Y-152184929D01*
X200266061Y-152173358D01*
X200235011Y-152158672D01*
X200205550Y-152141014D01*
X200177962Y-152120554D01*
X200152513Y-152097487D01*
X200129446Y-152072038D01*
X200108986Y-152044450D01*
X200091328Y-152014989D01*
X200076642Y-151983939D01*
X200065071Y-151951600D01*
X200056725Y-151918282D01*
X200051685Y-151884306D01*
X200050000Y-151850000D01*
X200050000Y-150450000D01*
X200051685Y-150415694D01*
X200056725Y-150381718D01*
X200065071Y-150348400D01*
X200076642Y-150316061D01*
X200091328Y-150285011D01*
X200108986Y-150255550D01*
X200129446Y-150227962D01*
X200152513Y-150202513D01*
X200177962Y-150179446D01*
X200205550Y-150158986D01*
X200235011Y-150141328D01*
X200266061Y-150126642D01*
X200298400Y-150115071D01*
X200331718Y-150106725D01*
X200365694Y-150101685D01*
X200400000Y-150100000D01*
X201100000Y-150100000D01*
X201134306Y-150101685D01*
G37*
G36*
X201134306Y-141001685D02*
G01*
X201168282Y-141006725D01*
X201201600Y-141015071D01*
X201233939Y-141026642D01*
X201264989Y-141041328D01*
X201294450Y-141058986D01*
X201322038Y-141079446D01*
X201347487Y-141102513D01*
X201370554Y-141127962D01*
X201391014Y-141155550D01*
X201408672Y-141185011D01*
X201423358Y-141216061D01*
X201434929Y-141248400D01*
X201443275Y-141281718D01*
X201448315Y-141315694D01*
X201450000Y-141350000D01*
X201450000Y-142750000D01*
X201448315Y-142784306D01*
X201443275Y-142818282D01*
X201434929Y-142851600D01*
X201423358Y-142883939D01*
X201408672Y-142914989D01*
X201391014Y-142944450D01*
X201370554Y-142972038D01*
X201347487Y-142997487D01*
X201322038Y-143020554D01*
X201294450Y-143041014D01*
X201264989Y-143058672D01*
X201233939Y-143073358D01*
X201201600Y-143084929D01*
X201168282Y-143093275D01*
X201134306Y-143098315D01*
X201100000Y-143100000D01*
X200400000Y-143100000D01*
X200365694Y-143098315D01*
X200331718Y-143093275D01*
X200298400Y-143084929D01*
X200266061Y-143073358D01*
X200235011Y-143058672D01*
X200205550Y-143041014D01*
X200177962Y-143020554D01*
X200152513Y-142997487D01*
X200129446Y-142972038D01*
X200108986Y-142944450D01*
X200091328Y-142914989D01*
X200076642Y-142883939D01*
X200065071Y-142851600D01*
X200056725Y-142818282D01*
X200051685Y-142784306D01*
X200050000Y-142750000D01*
X200050000Y-141350000D01*
X200051685Y-141315694D01*
X200056725Y-141281718D01*
X200065071Y-141248400D01*
X200076642Y-141216061D01*
X200091328Y-141185011D01*
X200108986Y-141155550D01*
X200129446Y-141127962D01*
X200152513Y-141102513D01*
X200177962Y-141079446D01*
X200205550Y-141058986D01*
X200235011Y-141041328D01*
X200266061Y-141026642D01*
X200298400Y-141015071D01*
X200331718Y-141006725D01*
X200365694Y-141001685D01*
X200400000Y-141000000D01*
X201100000Y-141000000D01*
X201134306Y-141001685D01*
G37*
G36*
X248984306Y-103951685D02*
G01*
X249018282Y-103956725D01*
X249051600Y-103965071D01*
X249083939Y-103976642D01*
X249114989Y-103991328D01*
X249144450Y-104008986D01*
X249172038Y-104029446D01*
X249197487Y-104052513D01*
X249220554Y-104077962D01*
X249241014Y-104105550D01*
X249258672Y-104135011D01*
X249273358Y-104166061D01*
X249284929Y-104198400D01*
X249293275Y-104231718D01*
X249298315Y-104265694D01*
X249300000Y-104300000D01*
X249300000Y-105000000D01*
X249298315Y-105034306D01*
X249293275Y-105068282D01*
X249284929Y-105101600D01*
X249273358Y-105133939D01*
X249258672Y-105164989D01*
X249241014Y-105194450D01*
X249220554Y-105222038D01*
X249197487Y-105247487D01*
X249172038Y-105270554D01*
X249144450Y-105291014D01*
X249114989Y-105308672D01*
X249083939Y-105323358D01*
X249051600Y-105334929D01*
X249018282Y-105343275D01*
X248984306Y-105348315D01*
X248950000Y-105350000D01*
X247550000Y-105350000D01*
X247515694Y-105348315D01*
X247481718Y-105343275D01*
X247448400Y-105334929D01*
X247416061Y-105323358D01*
X247385011Y-105308672D01*
X247355550Y-105291014D01*
X247327962Y-105270554D01*
X247302513Y-105247487D01*
X247279446Y-105222038D01*
X247258986Y-105194450D01*
X247241328Y-105164989D01*
X247226642Y-105133939D01*
X247215071Y-105101600D01*
X247206725Y-105068282D01*
X247201685Y-105034306D01*
X247200000Y-105000000D01*
X247200000Y-104300000D01*
X247201685Y-104265694D01*
X247206725Y-104231718D01*
X247215071Y-104198400D01*
X247226642Y-104166061D01*
X247241328Y-104135011D01*
X247258986Y-104105550D01*
X247279446Y-104077962D01*
X247302513Y-104052513D01*
X247327962Y-104029446D01*
X247355550Y-104008986D01*
X247385011Y-103991328D01*
X247416061Y-103976642D01*
X247448400Y-103965071D01*
X247481718Y-103956725D01*
X247515694Y-103951685D01*
X247550000Y-103950000D01*
X248950000Y-103950000D01*
X248984306Y-103951685D01*
G37*
G36*
X258084306Y-103951685D02*
G01*
X258118282Y-103956725D01*
X258151600Y-103965071D01*
X258183939Y-103976642D01*
X258214989Y-103991328D01*
X258244450Y-104008986D01*
X258272038Y-104029446D01*
X258297487Y-104052513D01*
X258320554Y-104077962D01*
X258341014Y-104105550D01*
X258358672Y-104135011D01*
X258373358Y-104166061D01*
X258384929Y-104198400D01*
X258393275Y-104231718D01*
X258398315Y-104265694D01*
X258400000Y-104300000D01*
X258400000Y-105000000D01*
X258398315Y-105034306D01*
X258393275Y-105068282D01*
X258384929Y-105101600D01*
X258373358Y-105133939D01*
X258358672Y-105164989D01*
X258341014Y-105194450D01*
X258320554Y-105222038D01*
X258297487Y-105247487D01*
X258272038Y-105270554D01*
X258244450Y-105291014D01*
X258214989Y-105308672D01*
X258183939Y-105323358D01*
X258151600Y-105334929D01*
X258118282Y-105343275D01*
X258084306Y-105348315D01*
X258050000Y-105350000D01*
X256650000Y-105350000D01*
X256615694Y-105348315D01*
X256581718Y-105343275D01*
X256548400Y-105334929D01*
X256516061Y-105323358D01*
X256485011Y-105308672D01*
X256455550Y-105291014D01*
X256427962Y-105270554D01*
X256402513Y-105247487D01*
X256379446Y-105222038D01*
X256358986Y-105194450D01*
X256341328Y-105164989D01*
X256326642Y-105133939D01*
X256315071Y-105101600D01*
X256306725Y-105068282D01*
X256301685Y-105034306D01*
X256300000Y-105000000D01*
X256300000Y-104300000D01*
X256301685Y-104265694D01*
X256306725Y-104231718D01*
X256315071Y-104198400D01*
X256326642Y-104166061D01*
X256341328Y-104135011D01*
X256358986Y-104105550D01*
X256379446Y-104077962D01*
X256402513Y-104052513D01*
X256427962Y-104029446D01*
X256455550Y-104008986D01*
X256485011Y-103991328D01*
X256516061Y-103976642D01*
X256548400Y-103965071D01*
X256581718Y-103956725D01*
X256615694Y-103951685D01*
X256650000Y-103950000D01*
X258050000Y-103950000D01*
X258084306Y-103951685D01*
G37*
G36*
X248984306Y-108451685D02*
G01*
X249018282Y-108456725D01*
X249051600Y-108465071D01*
X249083939Y-108476642D01*
X249114989Y-108491328D01*
X249144450Y-108508986D01*
X249172038Y-108529446D01*
X249197487Y-108552513D01*
X249220554Y-108577962D01*
X249241014Y-108605550D01*
X249258672Y-108635011D01*
X249273358Y-108666061D01*
X249284929Y-108698400D01*
X249293275Y-108731718D01*
X249298315Y-108765694D01*
X249300000Y-108800000D01*
X249300000Y-109500000D01*
X249298315Y-109534306D01*
X249293275Y-109568282D01*
X249284929Y-109601600D01*
X249273358Y-109633939D01*
X249258672Y-109664989D01*
X249241014Y-109694450D01*
X249220554Y-109722038D01*
X249197487Y-109747487D01*
X249172038Y-109770554D01*
X249144450Y-109791014D01*
X249114989Y-109808672D01*
X249083939Y-109823358D01*
X249051600Y-109834929D01*
X249018282Y-109843275D01*
X248984306Y-109848315D01*
X248950000Y-109850000D01*
X247550000Y-109850000D01*
X247515694Y-109848315D01*
X247481718Y-109843275D01*
X247448400Y-109834929D01*
X247416061Y-109823358D01*
X247385011Y-109808672D01*
X247355550Y-109791014D01*
X247327962Y-109770554D01*
X247302513Y-109747487D01*
X247279446Y-109722038D01*
X247258986Y-109694450D01*
X247241328Y-109664989D01*
X247226642Y-109633939D01*
X247215071Y-109601600D01*
X247206725Y-109568282D01*
X247201685Y-109534306D01*
X247200000Y-109500000D01*
X247200000Y-108800000D01*
X247201685Y-108765694D01*
X247206725Y-108731718D01*
X247215071Y-108698400D01*
X247226642Y-108666061D01*
X247241328Y-108635011D01*
X247258986Y-108605550D01*
X247279446Y-108577962D01*
X247302513Y-108552513D01*
X247327962Y-108529446D01*
X247355550Y-108508986D01*
X247385011Y-108491328D01*
X247416061Y-108476642D01*
X247448400Y-108465071D01*
X247481718Y-108456725D01*
X247515694Y-108451685D01*
X247550000Y-108450000D01*
X248950000Y-108450000D01*
X248984306Y-108451685D01*
G37*
G36*
X258084306Y-108451685D02*
G01*
X258118282Y-108456725D01*
X258151600Y-108465071D01*
X258183939Y-108476642D01*
X258214989Y-108491328D01*
X258244450Y-108508986D01*
X258272038Y-108529446D01*
X258297487Y-108552513D01*
X258320554Y-108577962D01*
X258341014Y-108605550D01*
X258358672Y-108635011D01*
X258373358Y-108666061D01*
X258384929Y-108698400D01*
X258393275Y-108731718D01*
X258398315Y-108765694D01*
X258400000Y-108800000D01*
X258400000Y-109500000D01*
X258398315Y-109534306D01*
X258393275Y-109568282D01*
X258384929Y-109601600D01*
X258373358Y-109633939D01*
X258358672Y-109664989D01*
X258341014Y-109694450D01*
X258320554Y-109722038D01*
X258297487Y-109747487D01*
X258272038Y-109770554D01*
X258244450Y-109791014D01*
X258214989Y-109808672D01*
X258183939Y-109823358D01*
X258151600Y-109834929D01*
X258118282Y-109843275D01*
X258084306Y-109848315D01*
X258050000Y-109850000D01*
X256650000Y-109850000D01*
X256615694Y-109848315D01*
X256581718Y-109843275D01*
X256548400Y-109834929D01*
X256516061Y-109823358D01*
X256485011Y-109808672D01*
X256455550Y-109791014D01*
X256427962Y-109770554D01*
X256402513Y-109747487D01*
X256379446Y-109722038D01*
X256358986Y-109694450D01*
X256341328Y-109664989D01*
X256326642Y-109633939D01*
X256315071Y-109601600D01*
X256306725Y-109568282D01*
X256301685Y-109534306D01*
X256300000Y-109500000D01*
X256300000Y-108800000D01*
X256301685Y-108765694D01*
X256306725Y-108731718D01*
X256315071Y-108698400D01*
X256326642Y-108666061D01*
X256341328Y-108635011D01*
X256358986Y-108605550D01*
X256379446Y-108577962D01*
X256402513Y-108552513D01*
X256427962Y-108529446D01*
X256455550Y-108508986D01*
X256485011Y-108491328D01*
X256516061Y-108476642D01*
X256548400Y-108465071D01*
X256581718Y-108456725D01*
X256615694Y-108451685D01*
X256650000Y-108450000D01*
X258050000Y-108450000D01*
X258084306Y-108451685D01*
G37*
M02*
